<svg xmlns="http://www.w3.org/2000/svg" viewBox="0 0 750.97 524.81"><defs><style>.cls-1{fill:#414242}.cls-2{fill:#8888e5}.cls-3{fill:#edc914}.cls-4{fill:#424242}.cls-5{fill:#8686e0}</style></defs><title>Asset 2</title><g id="Layer_2" data-name="Layer 2"><g id="Слой_1" data-name="Слой 1"><path d="M241.81,467.19H226.64a5.28,5.28,0,0,1-5.36-5.37V425.15a5.29,5.29,0,0,1,5.36-5.37h15.17a20.16,20.16,0,0,1,8.77,1.86,18.68,18.68,0,0,1,6.52,5.21,23.06,23.06,0,0,1,3.93,7.6,30.52,30.52,0,0,1,1.31,9A29.09,29.09,0,0,1,260,455.29a20.5,20.5,0,0,1-7,8.64A19,19,0,0,1,241.81,467.19Zm-15.17-44.41a2.22,2.22,0,0,0-1.69.67,2.25,2.25,0,0,0-.67,1.7v36.67a2.31,2.31,0,0,0,2.36,2.37h15.17a16.1,16.1,0,0,0,9.5-2.71,17.56,17.56,0,0,0,5.93-7.4,26.15,26.15,0,0,0,2.1-10.6,28,28,0,0,0-1.17-8.15h0a20,20,0,0,0-3.43-6.61,15.32,15.32,0,0,0-5.47-4.37,17,17,0,0,0-7.46-1.57Zm14.53,37.11h-12V427.08h12a12,12,0,0,1,5.87,1.39,11.83,11.83,0,0,1,4.06,3.74,16.13,16.13,0,0,1,2.28,5.24,25.15,25.15,0,0,1,.71,6,23.85,23.85,0,0,1-1.26,7.88h0a13.28,13.28,0,0,1-4.18,6.13A11.47,11.47,0,0,1,241.17,459.89Zm-9-3h9a8.53,8.53,0,0,0,5.59-1.72,10.46,10.46,0,0,0,3.24-4.79,21.15,21.15,0,0,0,1.09-6.9,22.33,22.33,0,0,0-.62-5.31,13.19,13.19,0,0,0-1.85-4.28,8.43,8.43,0,0,0-7.45-3.81h-9Z" class="cls-1"/><path d="M305.75,467.5a4.79,4.79,0,0,1-3-1,6,6,0,0,1-1.9-2.52l-2.9-6.75H281l-2.9,6.82a5.3,5.3,0,0,1-1.86,2.5,4.87,4.87,0,0,1-2.88.95,4.58,4.58,0,0,1-3.67-1.47,4.92,4.92,0,0,1-1.19-3.32,5.64,5.64,0,0,1,.25-1.64l0-.15L284.64,423a5.61,5.61,0,0,1,2.1-2.64,4.74,4.74,0,0,1,3.17-.82,5.13,5.13,0,0,1,2.88.92,5.28,5.28,0,0,1,2,2.6l15.6,37.15a5.94,5.94,0,0,1,.41,2.06,5.12,5.12,0,0,1-5.05,5.24Zm-26.69-13.27H300l3.68,8.58a3.1,3.1,0,0,0,.95,1.3,1.9,1.9,0,0,0,2.59-.23,2,2,0,0,0,.62-1.62,2.79,2.79,0,0,0-.21-1L292,424.15a2.41,2.41,0,0,0-.89-1.22,2.23,2.23,0,0,0-1.28-.4h-.16a1.83,1.83,0,0,0-1.26.33,2.62,2.62,0,0,0-1,1.27L271.64,462a2.64,2.64,0,0,0-.1.71,2,2,0,0,0,.45,1.36,1.83,1.83,0,0,0,1.41.43,1.85,1.85,0,0,0,1.12-.38,2.4,2.4,0,0,0,.83-1.17Zm19.05-4.3H280.88l8.58-20.16Zm-12.69-3h8.14l-4.09-9.53Z" class="cls-1"/><path d="M332.9,467.19a5.46,5.46,0,0,1-4-1.54,5.16,5.16,0,0,1-1.6-3.83V430.08h-8.46a5.42,5.42,0,0,1-3.77-1.41,5,5,0,0,1-1.6-3.77,4.87,4.87,0,0,1,1.62-3.76,5.49,5.49,0,0,1,3.75-1.36h28.17a5.4,5.4,0,0,1,3.77,1.41h0a5,5,0,0,1,1.6,3.77,4.87,4.87,0,0,1-1.62,3.76,5.49,5.49,0,0,1-3.75,1.36h-8.46v31.74a5.2,5.2,0,0,1-1.64,3.85A5.73,5.73,0,0,1,332.9,467.19Zm-14-44.41a2.53,2.53,0,0,0-1.76.61,1.84,1.84,0,0,0-.61,1.51,2,2,0,0,0,.62,1.55,2.43,2.43,0,0,0,1.75.63h11.46v34.74a2.19,2.19,0,0,0,.69,1.68,2.5,2.5,0,0,0,1.87.69,2.72,2.72,0,0,0,2-.7,2.18,2.18,0,0,0,.71-1.67V427.08h11.46a2.5,2.5,0,0,0,1.76-.61,1.85,1.85,0,0,0,.61-1.51,2,2,0,0,0-.62-1.56,2.48,2.48,0,0,0-1.75-.62Z" class="cls-1"/><path d="M392.34,467.5a4.79,4.79,0,0,1-3-1,6,6,0,0,1-1.9-2.52l-2.9-6.75H367.63l-2.9,6.82a5.3,5.3,0,0,1-1.86,2.5,4.87,4.87,0,0,1-2.88.95,4.59,4.59,0,0,1-3.67-1.47,4.92,4.92,0,0,1-1.19-3.32,5.64,5.64,0,0,1,.25-1.64l.05-.15L371.23,423a5.61,5.61,0,0,1,2.1-2.64,4.74,4.74,0,0,1,3.17-.82,5.13,5.13,0,0,1,2.88.92,5.28,5.28,0,0,1,2,2.6L397,460.2a5.94,5.94,0,0,1,.41,2.06,5.12,5.12,0,0,1-5.05,5.24Zm-26.69-13.27h20.9l3.68,8.58a3,3,0,0,0,1,1.3,1.89,1.89,0,0,0,2.58-.23,2,2,0,0,0,.62-1.62,2.79,2.79,0,0,0-.21-1l-15.59-37.15a2.41,2.41,0,0,0-.89-1.22,2.23,2.23,0,0,0-1.28-.4h-.16a1.83,1.83,0,0,0-1.26.33,2.62,2.62,0,0,0-1,1.27L358.23,462a2.64,2.64,0,0,0-.1.71,2,2,0,0,0,.45,1.36,1.83,1.83,0,0,0,1.41.43,1.85,1.85,0,0,0,1.12-.38,2.4,2.4,0,0,0,.83-1.17Zm19.05-4.3H367.48l8.57-20.16Zm-12.69-3h8.14l-4.09-9.53Z" class="cls-1"/><path d="M440.61,467.27a7,7,0,0,1-1.37-.14,8.07,8.07,0,0,1-2.2-.76,10.73,10.73,0,0,1-2.57-2.2,11,11,0,0,1-2-3.86,19.33,19.33,0,0,1-.74-5.85,3.68,3.68,0,0,0-.26-1.43,3.23,3.23,0,0,0-.73-1.07,3,3,0,0,0-1.2-.67,6.67,6.67,0,0,0-2.08-.28H417.06v10.81a5.73,5.73,0,0,1-1.22,3.69,4.49,4.49,0,0,1-3.64,1.68,6.47,6.47,0,0,1-4.11-1.44,4.91,4.91,0,0,1-2-3.93V425.15a5.29,5.29,0,0,1,5.37-5.37h18.27a13.33,13.33,0,0,1,7,2,14.81,14.81,0,0,1,5.18,5.36,15.33,15.33,0,0,1,2,7.82,13.41,13.41,0,0,1-1.1,5.29,16.17,16.17,0,0,1-2.94,4.54,16.56,16.56,0,0,1-1.2,1.17c.16.15.3.3.45.46a12.36,12.36,0,0,1,2.09,3.19,11,11,0,0,1,.92,3.63c.17,1.08.29,2,.35,2.85a7,7,0,0,0,.3,1.66.79.79,0,0,0,.4.44,5.09,5.09,0,0,1,2.5,3.37h0a4.72,4.72,0,0,1-3.66,5.6A6.5,6.5,0,0,1,440.61,467.27ZM414.06,448h13.36a9.84,9.84,0,0,1,3,.42,6.07,6.07,0,0,1,2.35,1.36,6,6,0,0,1,1.43,2.1,6.65,6.65,0,0,1,.49,2.57,16.7,16.7,0,0,0,.6,4.94,8,8,0,0,0,1.44,2.79,7.31,7.31,0,0,0,1.79,1.57,5.08,5.08,0,0,0,1.32.43,4,4,0,0,0,1.55,0,1.62,1.62,0,0,0,.94-.55,1.51,1.51,0,0,0,.41-1.46,2.13,2.13,0,0,0-1.05-1.42,3.71,3.71,0,0,1-1.76-2.07,9.13,9.13,0,0,1-.46-2.4c-.06-.75-.17-1.65-.34-2.67v-.13a8.06,8.06,0,0,0-.67-2.7,9.22,9.22,0,0,0-1.58-2.4,8.44,8.44,0,0,0-1.5-1.28l-1.84-1.28,1.88-1.22a11.71,11.71,0,0,0,2.23-1.88A13.46,13.46,0,0,0,440,439a10.37,10.37,0,0,0,.86-4.1,12.53,12.53,0,0,0-1.57-6.32,11.93,11.93,0,0,0-4.14-4.29,10.22,10.22,0,0,0-5.41-1.53H411.5a2.29,2.29,0,0,0-2.37,2.37v36.67a1.87,1.87,0,0,0,.83,1.58,3.45,3.45,0,0,0,2.24.79,1.51,1.51,0,0,0,1.3-.55,2.79,2.79,0,0,0,.56-1.82Zm15.39-3.53H414.06v-17.4h15.39a5.6,5.6,0,0,1,4.38,2.43,8.8,8.8,0,0,1,1.82,5.6,12.5,12.5,0,0,1-.8,4.51h0a9.56,9.56,0,0,1-2.13,3.39A4.69,4.69,0,0,1,429.45,444.48Zm-12.39-3h12.39a1.82,1.82,0,0,0,1.18-.63,6.57,6.57,0,0,0,1.42-2.32,9.59,9.59,0,0,0,.6-3.42,5.8,5.8,0,0,0-1.17-3.73,2.81,2.81,0,0,0-2-1.3H417.06Z" class="cls-1"/><path d="M476.2,467.82a22.08,22.08,0,0,1-16.55-7.18,24.16,24.16,0,0,1-4.77-7.74,27.25,27.25,0,0,1,0-18.84,24.38,24.38,0,0,1,4.77-7.74,22.12,22.12,0,0,1,16.55-7.17,22.16,22.16,0,0,1,16.62,7.17,24.56,24.56,0,0,1,4.77,7.74,27.25,27.25,0,0,1,0,18.84,24.34,24.34,0,0,1-4.77,7.74,22.21,22.21,0,0,1-16.62,7.18Zm0-45.67a19.06,19.06,0,0,0-14.34,6.2,21.36,21.36,0,0,0-4.18,6.79,24.27,24.27,0,0,0,0,16.69,21.2,21.2,0,0,0,4.18,6.78,19.58,19.58,0,0,0,28.75,0,21.2,21.2,0,0,0,4.18-6.78,24.27,24.27,0,0,0,0-16.69,21.2,21.2,0,0,0-4.18-6.78,19.36,19.36,0,0,0-6.36-4.57A19.61,19.61,0,0,0,476.2,422.15Zm0,38.06a13.55,13.55,0,0,1-7.76-2.29,15.31,15.31,0,0,1-5.16-6.07,20.12,20.12,0,0,1,0-16.77,15.48,15.48,0,0,1,5.16-6,14.29,14.29,0,0,1,15.52,0,15.61,15.61,0,0,1,5.2,6.06,19.69,19.69,0,0,1,0,16.75,15.68,15.68,0,0,1-5.2,6.06A13.5,13.5,0,0,1,476.2,460.21Zm0-30.45a10.45,10.45,0,0,0-6.07,1.77,12.41,12.41,0,0,0-4.16,4.88,17.18,17.18,0,0,0,0,14.13,12.4,12.4,0,0,0,4.16,4.9,11.29,11.29,0,0,0,12.14,0,12.53,12.53,0,0,0,4.2-4.91,16.69,16.69,0,0,0,0-14.09,12.53,12.53,0,0,0-4.2-4.91A10.43,10.43,0,0,0,476.2,429.76Z" class="cls-1"/><path d="M531.07,467.19H515.28a5.29,5.29,0,0,1-5.37-5.37V425.15a5.29,5.29,0,0,1,5.37-5.37h16c4.44,0,7.85,1.1,10.11,3.27s3.45,5.39,3.45,9.52a11,11,0,0,1-1.7,6.05,9.86,9.86,0,0,1-2.06,2.28,12.78,12.78,0,0,1,4.31,4.22h0a13,13,0,0,1,1.78,7.05,16.62,16.62,0,0,1-1.52,7.54,12.14,12.14,0,0,1-4.1,4.69,15.26,15.26,0,0,1-5.27,2.21A25.1,25.1,0,0,1,531.07,467.19Zm-15.79-44.41a2.29,2.29,0,0,0-2.37,2.37v36.67a2.22,2.22,0,0,0,.67,1.69,2.26,2.26,0,0,0,1.7.68h15.79a21.85,21.85,0,0,0,4.58-.51,12.44,12.44,0,0,0,4.24-1.78,9.15,9.15,0,0,0,3.08-3.56,13.72,13.72,0,0,0,1.19-6.17,10,10,0,0,0-1.32-5.44,9.8,9.8,0,0,0-3.41-3.31,14.79,14.79,0,0,0-2-1l-3.14-1.27,3.05-1.47A7.75,7.75,0,0,0,540.6,437a7.86,7.86,0,0,0,1.22-4.42c0-3.28-.85-5.75-2.52-7.35s-4.39-2.44-8-2.44Zm15.79,37.11H518.16V444.65h12.47a15.8,15.8,0,0,1,3.21.35,6.32,6.32,0,0,1,3.55,2.05,9,9,0,0,1-.68,10.9A8.08,8.08,0,0,1,531.07,459.89Zm-9.91-3h9.91a5.19,5.19,0,0,0,3.63-1.16h0a4.57,4.57,0,0,0,1.22-3.56,4.85,4.85,0,0,0-.76-3.12,3.41,3.41,0,0,0-1.91-1.11,13.52,13.52,0,0,0-2.62-.29h-9.47Zm9.15-16.73H518.16V427.27h12a6.58,6.58,0,0,1,4.59,1.62h0a6.53,6.53,0,0,1,1.86,5.08,5.69,5.69,0,0,1-2,4.64A6.54,6.54,0,0,1,530.31,440.16Zm-9.15-3h9.15a3.57,3.57,0,0,0,2.35-.86,2.72,2.72,0,0,0,.91-2.33,3.75,3.75,0,0,0-.87-2.85h0a3.62,3.62,0,0,0-2.58-.85h-9Z" class="cls-1"/><path d="M237.81,426.28a18.52,18.52,0,0,1,8.12,1.71,17.14,17.14,0,0,1,6,4.79,21.54,21.54,0,0,1,3.68,7.11,29.24,29.24,0,0,1,1.24,8.59,27.48,27.48,0,0,1-2.22,11.2,19,19,0,0,1-6.44,8,17.58,17.58,0,0,1-10.37,3H222.64a3.81,3.81,0,0,1-3.87-3.87V430.15a3.81,3.81,0,0,1,3.87-3.87Zm-.64,37.11a10.08,10.08,0,0,0,6.54-2.06,11.84,11.84,0,0,0,3.71-5.46,22.5,22.5,0,0,0,1.17-7.39,23.24,23.24,0,0,0-.67-5.67,14.56,14.56,0,0,0-2.06-4.76,10.3,10.3,0,0,0-3.55-3.27,10.42,10.42,0,0,0-5.14-1.2h-11.1l.63-.57v31.08l-.38-.7Z" class="cls-2"/><path d="M286.46,436.24l-13.7,32.23a4,4,0,0,1-1.36,1.87,3.38,3.38,0,0,1-2,.66,3.17,3.17,0,0,1-2.54-.95,3.43,3.43,0,0,1-.82-2.34,4.06,4.06,0,0,1,.19-1.21L282,428.57a4.11,4.11,0,0,1,1.56-2,3.24,3.24,0,0,1,2.25-.57,3.71,3.71,0,0,1,2.12.66,3.78,3.78,0,0,1,1.43,1.88L305,465.74a4.11,4.11,0,0,1,.32,1.52,3.62,3.62,0,0,1-3.55,3.74,3.34,3.34,0,0,1-2.06-.69,4.51,4.51,0,0,1-1.43-1.91l-13.64-31.78Zm-11.73,24.49,3.49-7.3h17.12l1.21,7.3Z" class="cls-2"/><path d="M314.88,433.58a3.92,3.92,0,0,1-2.76-1A3.42,3.42,0,0,1,311,429.9a3.36,3.36,0,0,1,1.11-2.64,4,4,0,0,1,2.76-1h28.17a3.92,3.92,0,0,1,2.76,1,3.42,3.42,0,0,1,1.11,2.66,3.33,3.33,0,0,1-1.11,2.63,4,4,0,0,1-2.76,1Zm14,37.11a4,4,0,0,1-2.92-1.11,3.7,3.7,0,0,1-1.14-2.76V430h8.25v36.8a3.62,3.62,0,0,1-1.18,2.76A4.19,4.19,0,0,1,328.9,470.69Z" class="cls-2"/><path d="M373.05,436.24l-13.7,32.23a4,4,0,0,1-1.36,1.87,3.38,3.38,0,0,1-2,.66,3.17,3.17,0,0,1-2.54-.95,3.43,3.43,0,0,1-.82-2.34,4.06,4.06,0,0,1,.19-1.21l15.79-37.93a4.11,4.11,0,0,1,1.56-2,3.24,3.24,0,0,1,2.25-.57,3.71,3.71,0,0,1,2.12.66,3.78,3.78,0,0,1,1.43,1.88l15.61,37.17a4.29,4.29,0,0,1,.31,1.52,3.62,3.62,0,0,1-3.55,3.74,3.34,3.34,0,0,1-2.06-.69,4.59,4.59,0,0,1-1.43-1.91l-13.64-31.78Zm-11.73,24.49,3.49-7.3h17.12l1.21,7.3Z" class="cls-2"/><path d="M408.2,470.69a5,5,0,0,1-3.18-1.11,3.39,3.39,0,0,1-1.39-2.76V430.15a3.79,3.79,0,0,1,3.87-3.87h18.27A11.67,11.67,0,0,1,432,428a13.16,13.16,0,0,1,4.66,4.82,13.83,13.83,0,0,1,1.78,7.07,11.81,11.81,0,0,1-1,4.69,14.78,14.78,0,0,1-2.67,4.13,12.32,12.32,0,0,1-3.77,2.85l.06-1.46a10.9,10.9,0,0,1,3,2.25,10.59,10.59,0,0,1,1.84,2.8,9.24,9.24,0,0,1,.79,3.2c.17,1.06.29,2,.35,2.79a8.65,8.65,0,0,0,.38,2,2.26,2.26,0,0,0,1.11,1.27,3.57,3.57,0,0,1,1.75,2.38,3,3,0,0,1-.73,2.76,3.11,3.11,0,0,1-1.78,1.05,5.56,5.56,0,0,1-2.15,0,6.37,6.37,0,0,1-1.78-.61,8.79,8.79,0,0,1-2.16-1.87,9.15,9.15,0,0,1-1.74-3.33,18.23,18.23,0,0,1-.67-5.39,5.06,5.06,0,0,0-.38-2,4.58,4.58,0,0,0-1.08-1.59,4.5,4.5,0,0,0-1.77-1,8.38,8.38,0,0,0-2.54-.35H410.61l.95-1.46v13.77a4.29,4.29,0,0,1-.89,2.76A3,3,0,0,1,408.2,470.69ZM410.67,448h14.78a3.2,3.2,0,0,0,2.22-1.05,8,8,0,0,0,1.78-2.85,11.07,11.07,0,0,0,.69-4,7.21,7.21,0,0,0-1.49-4.66,4.14,4.14,0,0,0-3.2-1.87H410.8l.76-2V449.5Z" class="cls-2"/><path d="M493.77,448.48a24.49,24.49,0,0,1-1.59,8.89,22.43,22.43,0,0,1-4.47,7.26,21,21,0,0,1-30.95,0,22.63,22.63,0,0,1-4.48-7.26,25.77,25.77,0,0,1,0-17.77,22.52,22.52,0,0,1,4.48-7.26,21.08,21.08,0,0,1,30.95,0,22.32,22.32,0,0,1,4.47,7.26A24.48,24.48,0,0,1,493.77,448.48Zm-8.25,0a17.11,17.11,0,0,0-1.71-7.7,14,14,0,0,0-4.69-5.49,12.79,12.79,0,0,0-13.83,0,13.74,13.74,0,0,0-4.66,5.46,18.48,18.48,0,0,0,0,15.44,13.69,13.69,0,0,0,4.66,5.49,12.79,12.79,0,0,0,13.83,0,14,14,0,0,0,4.69-5.49A17.12,17.12,0,0,0,485.52,448.48Z" class="cls-2"/><path d="M527.26,426.28q6.09,0,9.08,2.86c2,1.9,3,4.71,3,8.43a9,9,0,0,1-5.78,8.73,17.79,17.79,0,0,1-7,1.23l.26-2.85a21.89,21.89,0,0,1,4.5.54,17,17,0,0,1,4.92,1.9,10.82,10.82,0,0,1,5.48,10.05A15,15,0,0,1,540.3,464a10.57,10.57,0,0,1-3.58,4.12,14,14,0,0,1-4.76,2,23.46,23.46,0,0,1-4.89.54H511.28a3.79,3.79,0,0,1-3.87-3.87V430.15a3.79,3.79,0,0,1,3.87-3.87Zm-1.14,7.49H514.83l.83-1v11.48l-.77-.57h11.42a5,5,0,0,0,3.3-1.2,4.29,4.29,0,0,0,1.46-3.49,4.54,4.54,0,0,0-5-5.2Zm.51,17.38H515.08l.58-.51V464l-.64-.64h12.05a6.64,6.64,0,0,0,4.63-1.55,6,6,0,0,0,1.72-4.67,6.09,6.09,0,0,0-1.14-4.12,5,5,0,0,0-2.73-1.58A14.37,14.37,0,0,0,526.63,451.15Z" class="cls-2"/><path d="M471.56,351.91c.47,22.85-23.72,41.33-45.73,34.24-29.72-9.57-59-9.51-88.29,1.48-13.87,5.2-25.36-1.78-32.71-11.45-7.68-10.1-14.77-22-5.1-36.62a794.43,794.43,0,0,1,58-76.6c14.4-16.93,37.36-16.95,51.74-.37,21.61,24.89,42.69,50.27,59.4,78.91A21.19,21.19,0,0,1,471.56,351.91Z" class="cls-2"/><path d="M314.76,197.17c-1.46-11.91,4-21.95,8.49-31.45,6.37-13.41,18.36-13.81,30.06-3.44a51.42,51.42,0,0,1,17.83,37.44c.84,18.28-10,32.43-23.93,34.2-17.68,2.25-27.63-12.11-32.38-30.94C314.33,201,314.76,198.82,314.76,197.17Z" class="cls-2"/><path d="M396.19,199.61c1.14-13.92,10.13-28,25-39,5.56-4.1,8.71-2,13.3,2,13,11.14,18.15,42.7,8.94,57-7.2,11.18-17.17,17.82-29.88,13C401.68,228.17,395.82,217.54,396.19,199.61Z" class="cls-2"/><path d="M308.66,263.21c.17,17.61-7.52,29-19.51,30.24-10.37,1.09-21.91-10.64-26.38-23.87-3.81-11.25-1.69-21.65,1-32.13s14.08-14.33,23.27-9.63C301.23,235.05,309.57,251.73,308.66,263.21Z" class="cls-2"/><path d="M452.81,271.53c.24-13.89,12.94-31.4,24.66-35.56,7.09-2.51,10.35,2.62,13.33,6.79,9.22,12.89,8,29.13-3.42,41.14-5.36,5.64-14.91,9.28-20.89,8.1C459.76,290.67,451.4,281.48,452.81,271.53Z" class="cls-2"/><path d="M335,381.15c-9.36,0-18.25-4.89-25.32-14.2-8.7-11.45-15.35-24.16-5.2-39.52a791.54,791.54,0,0,1,58.17-76.84c7.43-8.74,17.3-13.58,27.78-13.63h.17c10.38,0,20.17,4.7,27.59,13.24,19.78,22.79,42.34,49.6,59.67,79.29a23.81,23.81,0,0,1,3,11.56v.05c.24,11.67-5.6,23.09-15.63,30.55s-22.37,9.67-33.36,6.13c-30-9.65-58.32-9.18-86.65,1.44A29.08,29.08,0,0,1,335,381.15ZM390.57,242h-.14c-9,0-17.53,4.26-24,11.87a785.59,785.59,0,0,0-57.8,76.36c-8.86,13.39-2.39,24,5,33.73,11.22,14.77,23.51,13,29.84,10.62,29.42-11,58.83-11.53,89.93-1.52,9.45,3.05,20.24,1,28.85-5.38s13.81-16.36,13.62-26.41a18.6,18.6,0,0,0-2.36-9.22c-17.11-29.32-38.59-54.87-59.13-78.53C407.93,246.05,399.48,242,390.57,242Z" class="cls-1"/><path d="M350.5,225.89c-14.84,0-25.87-11.57-31.29-33a15.83,15.83,0,0,1-.22-5c0-.46.07-.9.08-1.3-1.37-11.63,3.42-21.61,7.65-30.41.37-.76.73-1.51,1.08-2.26,3.13-6.58,7.73-10.66,13.32-11.8,6.45-1.31,13.59,1.31,20.66,7.57a54,54,0,0,1,18.67,39.2c.87,19-10.35,34.78-26.11,36.78A29.81,29.81,0,0,1,350.5,225.89Zm-6.14-79.12a11.73,11.73,0,0,0-2.24.22c-4,.83-7.34,3.87-9.8,9-.36.75-.72,1.51-1.09,2.27-4.15,8.63-8.44,17.56-7.18,27.8l0,.31c0,.55,0,1.15-.09,1.79a11.63,11.63,0,0,0,.08,3.41c3.66,14.51,11.77,31.32,29.64,29.07,13.16-1.68,22.5-15.27,21.75-31.6a49.07,49.07,0,0,0-17-35.69C353.58,149.07,348.65,146.77,344.36,146.77Z" class="cls-1"/><path d="M294.75,285.26c-9.52,0-22-9.2-27.54-25.63-4-11.94-1.84-22.69,1-33.56a19.39,19.39,0,0,1,12.71-13.48,15.09,15.09,0,0,1,14.57,2.55c11.41,9.46,24.28,20.14,22.49,37.44.14,18.69-8.19,31.18-21.75,32.6A14.17,14.17,0,0,1,294.75,285.26Zm-8.68-68.5a11.74,11.74,0,0,0-3.63.59,14.55,14.55,0,0,0-9.4,10c-2.63,10.12-4.69,20.08-1.1,30.71,4.37,12.92,15.25,23.09,23.75,22.18,10.81-1.14,17.43-11.76,17.28-27.73v-.29c1.6-14.71-9.71-24.09-20.64-33.16A9.59,9.59,0,0,0,286.07,216.76Z" class="cls-1"/><path d="M479.56,285.41a16.4,16.4,0,0,1-7.39-1.93c-11.44-5.73-16.36-13.22-15.05-22.9.34-14.47,13.34-33.11,26.33-37.71,8.56-3,12.93,3.1,15.82,7.16l.37.52c10,14,8.61,31.44-3.64,44.33l-1.41,1.5C490.92,280.35,486.24,285.41,479.56,285.41Zm8.23-58.35a8,8,0,0,0-2.67.52c-11.18,4-22.79,20.74-23,33.24l0,.31c-1.07,7.56,2.73,13.07,12.32,17.89,7,3.48,10.88,0,16.52-6l1.45-1.55c10.52-11.06,11.77-26,3.19-38l-.38-.53C492.71,229.43,490.83,227.06,487.79,227.06Z" class="cls-1"/><path d="M428.58,226a25.75,25.75,0,0,1-9.13-1.77c-13.15-5-19.34-16.54-18.95-35.41v-.15c1.19-14.61,10.65-29.47,26-40.79,7.53-5.56,12.46-1.33,16.42,2.07,13.93,11.95,19.11,45.18,9.4,60.28C445.59,220.66,437.5,226,428.58,226ZM405.5,189c-.33,16.44,4.81,26.44,15.71,30.56,10.22,3.86,19.27-.2,26.89-12,8.47-13.17,3.73-43.32-8.46-53.77-4.68-4-6.29-4.73-10.19-1.85C415.32,162.33,406.6,175.85,405.5,189Z" class="cls-1"/><polygon points="402.24 295.99 428.6 298.71 410.41 317.97 415.96 343.88 392.02 332.53 369.1 345.82 372.49 319.54 352.77 301.85 378.81 296.96 389.54 272.74 402.24 295.99" class="cls-3"/><path d="M369.1,348.32a2.51,2.51,0,0,1-2.48-2.82l3.23-25L351.1,303.71a2.51,2.51,0,0,1,1.21-4.32l24.75-4.65,10.2-23a2.5,2.5,0,0,1,4.48-.18l12.07,22.1,25,2.58a2.51,2.51,0,0,1,2.09,1.62,2.48,2.48,0,0,1-.53,2.58l-17.28,18.31,5.28,24.62a2.51,2.51,0,0,1-3.52,2.79l-22.75-10.79L370.36,348A2.49,2.49,0,0,1,369.1,348.32Zm-10.89-44.95,16,14.31a2.47,2.47,0,0,1,.81,2.18l-2.74,21.26,18.54-10.75a2.51,2.51,0,0,1,2.32-.1l19.37,9.18L408,318.5a2.48,2.48,0,0,1,.63-2.24l14.71-15.59L402,298.47a2.48,2.48,0,0,1-1.94-1.28l-10.27-18.81L381.1,298a2.55,2.55,0,0,1-1.83,1.45Z" class="cls-4"/><path d="M550.31,128a7.26,7.26,0,0,1-11.41-1.33,26.25,26.25,0,0,0-13.09-12c-2.74-1.17-3.45-3.77-3.19-6.2s.9-5.25,4.32-6A156.64,156.64,0,0,1,546,99.26a6.62,6.62,0,0,1,7.61,7.1,105.24,105.24,0,0,1-2.26,19.75A4.55,4.55,0,0,1,550.31,128Z" class="cls-5"/><path d="M548.83,83.7c1.44-2,3.63-2.65,5.59-3.42,2.78-1.07,4.59.53,4.86,3.66a10.31,10.31,0,0,1-2.59,7.93c-2.4,2.78-6,3.35-8.22,1.68-2.9-2.12-2.36-5.58-.44-9A6.63,6.63,0,0,1,548.83,83.7Z" class="cls-5"/><path d="M560.39,95.33c2.09-1.89,5.35-2.69,9-2.24,1.37.18,1.54.92,1.67,2.13.36,3.43-3.27,8.75-6.58,9.56-2.61.64-5,.22-6.16-2.24C557.24,100.25,557.84,97.89,560.39,95.33Z" class="cls-5"/><path d="M538.82,92.5c-2.42,2.59-5.12,3.19-7,1.71-1.66-1.27-1.72-4.58-.55-7.12,1-2.18,2.76-3.39,4.6-4.55a3.2,3.2,0,0,1,4.73,1.81A8.19,8.19,0,0,1,538.82,92.5Z" class="cls-5"/><path d="M558.7,113.65c1.95-2,6.22-2.78,8.52-1.76,1.37.61,1.15,1.81,1,2.84a6.31,6.31,0,0,1-6.2,5.53,5.36,5.36,0,0,1-4.18-1.72A4,4,0,0,1,558.7,113.65Z" class="cls-5"/><path d="M246.25,107.07a7.25,7.25,0,0,1-3.62,10.9,26.2,26.2,0,0,0-14.42,10.36c-1.7,2.45-4.39,2.61-6.72,1.86s-5-1.95-5-5.47a159.49,159.49,0,0,1,.81-19.31,6.63,6.63,0,0,1,8.51-6,105.34,105.34,0,0,1,18.87,6.23A4.35,4.35,0,0,1,246.25,107.07Z" class="cls-5"/><path d="M202.61,99.47c-1.61-1.79-1.86-4.08-2.2-6.16-.49-3,1.45-4.39,4.56-4a10.28,10.28,0,0,1,7.24,4.15c2.24,2.92,2.06,6.51,0,8.39-2.67,2.41-6,1.17-8.91-1.41A6.11,6.11,0,0,1,202.61,99.47Z" class="cls-5"/><path d="M216.35,90.54c-1.42-2.43-1.54-5.79-.34-9.3.45-1.31,1.21-1.32,2.42-1.2,3.43.35,7.89,5,8,8.39.1,2.68-.8,4.91-3.44,5.58C220.53,94.63,218.34,93.55,216.35,90.54Z" class="cls-5"/><path d="M209.18,111.08c2,2.89,2.08,5.65.24,7.24-1.58,1.36-4.84.74-7.08-.92-1.93-1.43-2.76-3.39-3.52-5.43a3.21,3.21,0,0,1,2.74-4.27A8.22,8.22,0,0,1,209.18,111.08Z" class="cls-5"/><path d="M234,95.93c-1.56-2.32-1.46-6.66,0-8.7.88-1.22,2-.76,3-.4a6.31,6.31,0,0,1,4.15,7.2,5.31,5.31,0,0,1-2.53,3.73A4,4,0,0,1,234,95.93Z" class="cls-5"/><path d="M118.32,21.73a7.26,7.26,0,0,1-1.65,11.37,26.2,26.2,0,0,0-12.38,12.74c-1.24,2.7-3.86,3.33-6.28,3s-5.23-1-5.92-4.49a159,159,0,0,1-2.6-19.15,6.63,6.63,0,0,1,7.32-7.4,105.64,105.64,0,0,1,19.67,2.82A4.53,4.53,0,0,1,118.32,21.73Z" class="cls-5"/><path d="M74,21.93c-1.9-1.49-2.54-3.7-3.25-5.69-1-2.81.65-4.57,3.79-4.75a10.33,10.33,0,0,1,7.85,2.82c2.72,2.48,3.18,6,1.44,8.27-2.2,2.83-5.64,2.19-9,.17A5.77,5.77,0,0,1,74,21.93Z" class="cls-5"/><path d="M86,10.72c-1.83-2.15-2.53-5.43-2-9.1C84.22.25,85,.11,86.18,0c3.44-.26,8.65,3.52,9.36,6.86.57,2.62.08,5-2.41,6.09C90.81,14,88.47,13.33,86,10.72Z" class="cls-5"/><path d="M82.53,32.19c2.52,2.5,3,5.21,1.51,7.09-1.32,1.62-4.63,1.58-7.14.34-2.15-1.07-3.3-2.85-4.42-4.73a3.21,3.21,0,0,1,2-4.68A8.22,8.22,0,0,1,82.53,32.19Z" class="cls-5"/><path d="M104.25,12.93c-1.94-2-2.61-6.3-1.52-8.56.65-1.36,1.84-1.1,2.87-.92A6.32,6.32,0,0,1,111,9.81a5.36,5.36,0,0,1-1.84,4.12A4,4,0,0,1,104.25,12.93Z" class="cls-5"/><path d="M155.16,376a7.27,7.27,0,0,1,11.07,3.1A26.2,26.2,0,0,0,177.28,393c2.52,1.58,2.81,4.26,2.18,6.62s-1.71,5-5.22,5.29a157.83,157.83,0,0,1-19.33.13,6.62,6.62,0,0,1-6.4-8.2,106.82,106.82,0,0,1,5.32-19.16A4.6,4.6,0,0,1,155.16,376Z" class="cls-5"/><path d="M149.69,420c-1.71,1.69-4,2.05-6.05,2.5-2.92.63-4.45-1.24-4.23-4.37a10.31,10.31,0,0,1,3.8-7.43c2.81-2.38,6.41-2.38,8.38-.37,2.54,2.54,1.46,5.88-1,9A5.84,5.84,0,0,1,149.69,420Z" class="cls-5"/><path d="M140.1,406.65c-2.36,1.54-5.7,1.82-9.27.8-1.33-.39-1.38-1.15-1.32-2.37.19-3.44,4.6-8.12,8-8.4,2.67-.23,4.94.55,5.74,3.17C144,402.28,143,404.52,140.1,406.65Z" class="cls-5"/><path d="M161,412.82c2.8-2.18,5.55-2.35,7.22-.59,1.45,1.52,1,4.8-.57,7.12-1.33,2-3.25,2.91-5.25,3.78a3.21,3.21,0,0,1-4.4-2.54A8.23,8.23,0,0,1,161,412.82Z" class="cls-5"/><path d="M144.64,388.82c-2.24,1.66-6.59,1.77-8.69.41-1.27-.82-.86-2-.55-3a6.33,6.33,0,0,1,7-4.5,5.34,5.34,0,0,1,3.85,2.35A4,4,0,0,1,144.64,388.82Z" class="cls-5"/><path d="M23,462a7.26,7.26,0,0,1,11.29,2.12A26.21,26.21,0,0,0,46.53,477c2.66,1.36,3.18,4,2.75,6.41s-1.26,5.18-4.74,5.73a159.3,159.3,0,0,1-19.24,1.81,6.63,6.63,0,0,1-7.09-7.62,105.09,105.09,0,0,1,3.63-19.54A4.42,4.42,0,0,1,23,462Z" class="cls-5"/><path d="M21.4,506.23c-1.56,1.84-3.8,2.39-5.81,3-2.85.88-4.54-.85-4.59-4a10.32,10.32,0,0,1,3.13-7.73c2.59-2.61,6.18-2.92,8.32-1.1,2.75,2.32,2,5.73-.19,9A5.61,5.61,0,0,1,21.4,506.23Z" class="cls-5"/><path d="M10.69,493.82c-2.22,1.74-5.53,2.31-9.17,1.6-1.36-.27-1.47-1-1.52-2.24-.12-3.44,3.88-8.49,7.24-9.07,2.64-.46,5,.13,6,2.66C14.17,489.13,13.4,491.44,10.69,493.82Z" class="cls-5"/><path d="M32,498.15c2.59-2.42,5.32-2.82,7.14-1.22,1.57,1.39,1.39,4.7,0,7.15-1.15,2.1-3,3.18-4.9,4.22a3.2,3.2,0,0,1-4.59-2.14A8.19,8.19,0,0,1,32,498.15Z" class="cls-5"/><path d="M13.65,475.66c-2.09,1.85-6.4,2.34-8.62,1.17-1.33-.71-1-1.89-.8-2.91a6.3,6.3,0,0,1,6.57-5.08,5.33,5.33,0,0,1,4,2A4,4,0,0,1,13.65,475.66Z" class="cls-5"/><path d="M687.78,59.08a7.26,7.26,0,0,1-11.1-2.94,26.2,26.2,0,0,0-11.24-13.75c-2.55-1.55-2.87-4.23-2.27-6.59s1.64-5.07,5.15-5.37A159.76,159.76,0,0,1,687.64,30a6.63,6.63,0,0,1,6.51,8.12,105.87,105.87,0,0,1-5.06,19.22A4.35,4.35,0,0,1,687.78,59.08Z" class="cls-5"/><path d="M692.66,15.05c1.7-1.72,4-2.1,6-2.58,2.91-.67,4.46,1.18,4.29,4.31a10.35,10.35,0,0,1-3.7,7.48c-2.78,2.41-6.38,2.46-8.38.48-2.57-2.51-1.53-5.86.86-9A6.36,6.36,0,0,1,692.66,15.05Z" class="cls-5"/><path d="M702.43,28.21c2.34-1.56,5.68-1.89,9.26-.92,1.33.37,1.39,1.13,1.35,2.35-.14,3.44-4.49,8.19-7.89,8.52-2.66.25-4.94-.5-5.77-3.1C698.61,32.64,699.55,30.39,702.43,28.21Z" class="cls-5"/><path d="M681.49,22.32c-2.77,2.23-5.52,2.43-7.21.69-1.47-1.49-1-4.78.48-7.12,1.3-2,3.21-3,5.2-3.85a3.2,3.2,0,0,1,4.42,2.47A8.2,8.2,0,0,1,681.49,22.32Z" class="cls-5"/><path d="M698.13,46.11c2.22-1.69,6.57-1.87,8.69-.53,1.27.8.88,2,.58,3a6.31,6.31,0,0,1-6.93,4.58,5.35,5.35,0,0,1-3.88-2.3A4,4,0,0,1,698.13,46.11Z" class="cls-5"/><path d="M598.68,398.21A7.26,7.26,0,0,1,596,387a26.21,26.21,0,0,0,6.82-16.39c.16-3,2.36-4.53,4.73-5.11s5.25-.95,7.17,2a159.16,159.16,0,0,1,9.46,16.85,6.62,6.62,0,0,1-4.09,9.57,105.46,105.46,0,0,1-19.33,4.62A4.53,4.53,0,0,1,598.68,398.21Z" class="cls-5"/><path d="M639.79,381.73c2.32.68,3.73,2.5,5.12,4.09,2,2.24,1.07,4.49-1.77,5.81a10.36,10.36,0,0,1-8.34.27c-3.44-1.31-5.18-4.46-4.39-7.16,1-3.44,4.45-4.11,8.31-3.48A5.93,5.93,0,0,1,639.79,381.73Z" class="cls-5"/><path d="M632.8,396.55c2.49,1.33,4.35,4.12,5.18,7.73.31,1.35-.33,1.76-1.43,2.3-3.1,1.51-9.33-.09-11.23-2.93-1.48-2.23-1.9-4.6,0-6.55S629.52,395,632.8,396.55Z" class="cls-5"/><path d="M628.11,375.31c-3.27-1.39-4.75-3.72-4-6,.62-2,3.72-3.18,6.51-2.94,2.39.2,4.12,1.43,5.84,2.77a3.2,3.2,0,0,1-.09,5.07A8.2,8.2,0,0,1,628.11,375.31Z" class="cls-5"/><path d="M615,401.21c2.54,1.16,4.74,4.91,4.56,7.41-.1,1.5-1.31,1.7-2.33,1.91a6.31,6.31,0,0,1-7.31-3.94,5.31,5.31,0,0,1,.2-4.51A4,4,0,0,1,615,401.21Z" class="cls-5"/><path d="M704,512.76A7.26,7.26,0,0,1,701,501.64a26.23,26.23,0,0,0,6.41-16.56c.09-3,2.25-4.58,4.61-5.22s5.22-1.08,7.21,1.82a160.09,160.09,0,0,1,9.87,16.62,6.63,6.63,0,0,1-3.85,9.67,105.58,105.58,0,0,1-19.21,5.09A4.57,4.57,0,0,1,704,512.76Z" class="cls-5"/><path d="M744.65,495.26c2.33.63,3.78,2.41,5.21,4,2,2.2,1.18,4.47-1.63,5.86a10.31,10.31,0,0,1-8.33.47c-3.47-1.22-5.29-4.32-4.56-7,.92-3.47,4.34-4.23,8.23-3.69A6.75,6.75,0,0,1,744.65,495.26Z" class="cls-5"/><path d="M738,510.26c2.52,1.26,4.45,4,5.37,7.59.34,1.35-.29,1.77-1.37,2.34-3.06,1.58-9.34.13-11.3-2.66-1.54-2.19-2-4.54-.16-6.55S734.71,508.82,738,510.26Z" class="cls-5"/><path d="M732.8,489.14c-3.29-1.31-4.83-3.6-4.15-5.93.58-2,3.64-3.27,6.43-3.11,2.4.14,4.16,1.34,5.91,2.63a3.2,3.2,0,0,1,0,5.07A8.24,8.24,0,0,1,732.8,489.14Z" class="cls-5"/><path d="M720.34,515.35c2.56,1.1,4.86,4.79,4.74,7.3-.06,1.5-1.26,1.73-2.28,2a6.31,6.31,0,0,1-7.41-3.76,5.34,5.34,0,0,1,.09-4.51A4,4,0,0,1,720.34,515.35Z" class="cls-5"/></g></g></svg>