<svg version="1.1" id="Слой_1" xmlns="http://www.w3.org/2000/svg" x="0" y="0" viewBox="0 0 156 130" xml:space="preserve"><style>.st0{fill:#8888e5;stroke:#8888e5;stroke-width:2;stroke-miterlimit:10}</style><path class="st0" d="M107.9 60.1l-4.3-.7c-.4-1.4-1-2.8-1.7-4.2l2.5-3.5c1.1-1.5.9-3.6-.4-4.9l-3.8-3.8c-.7-.7-1.7-1.1-2.7-1.1-.8 0-1.5.2-2.2.7l-3.5 2.5c-1.4-.7-2.8-1.3-4.3-1.8l-.7-4.2c-.3-1.8-1.9-3.1-3.7-3.1h-5.4c-1.8 0-3.4 1.3-3.7 3.1l-.7 4.3c-1.4.4-2.8 1-4.1 1.7l-3.5-2.5c-.7-.4-1.5-.6-2.3-.6-1 0-2 .4-2.7 1.1l-3.8 3.8c-1.3 1.3-1.5 3.4-.4 4.9l2.5 3.6c-.7 1.3-1.3 2.7-1.7 4.2l-4.2.7c-1.8.3-3.1 1.9-3.1 3.7v5.4c0 1.8 1.3 3.4 3.1 3.7l4.3.7c.4 1.4 1 2.8 1.7 4.1l-2.5 3.5c-1.1 1.5-.9 3.6.4 4.9l3.8 3.8c.7.7 1.7 1.1 2.7 1.1.8 0 1.5-.2 2.2-.7l3.6-2.5c1.3.7 2.6 1.2 4 1.7L74 94c.3 1.8 1.9 3.1 3.7 3.1h5.4c1.8 0 3.4-1.3 3.7-3.1l.7-4.3c1.4-.4 2.8-1 4.2-1.7l3.5 2.5c.6.5 1.4.7 2.2.7 1 0 1.9-.4 2.7-1.1l3.8-3.8c1.3-1.3 1.5-3.4.4-4.9l-2.5-3.5c.7-1.3 1.3-2.7 1.7-4.2l4.3-.7c1.8-.3 3.1-1.9 3.1-3.7v-5.4c.1-1.9-1.2-3.5-3-3.8zm-.3 9.1c0 .2-.1.3-.3.3l-5.4.9c-.7.1-1.2.6-1.4 1.3-.5 1.9-1.2 3.7-2.2 5.3-.3.6-.3 1.3.1 1.9l3.1 4.4c.1.1.1.3 0 .4l-3.8 3.8c-.1.1-.2.1-.2.1-.1 0-.1 0-.2-.1l-4.4-3.1c-.6-.4-1.3-.4-1.9-.1-1.7 1-3.5 1.7-5.3 2.2-.7.2-1.2.7-1.3 1.4l-.9 5.4c0 .2-.2.3-.3.3h-5.4c-.2 0-.3-.1-.3-.3l-.9-5.4c-.1-.7-.6-1.2-1.3-1.4-1.8-.5-3.6-1.2-5.2-2.1-.3-.2-.6-.2-.9-.2-.3 0-.7.1-1 .3l-4.5 3.2c-.1 0-.1.1-.2.1s-.2 0-.2-.1l-3.8-3.8c-.1-.1-.1-.3 0-.4l3.1-4.4c.4-.6.4-1.3.1-1.9-1-1.7-1.8-3.5-2.2-5.3-.2-.6-.7-1.1-1.4-1.3l-5.4-.9c-.2 0-.3-.2-.3-.3V64c0-.2.1-.3.3-.3l5.3-.9c.7-.1 1.2-.6 1.4-1.3.5-1.9 1.2-3.7 2.2-5.4.3-.6.3-1.3-.1-1.9l-3.2-4.5c-.1-.1-.1-.3 0-.4l3.8-3.8c.1-.1.2-.1.2-.1.1 0 .1 0 .2.1l4.4 3.1c.6.4 1.3.4 1.9.1 1.7-1 3.5-1.8 5.3-2.2.6-.2 1.1-.7 1.3-1.4l.9-5.4c0-.2.2-.3.3-.3H83c.2 0 .3.1.3.3l.9 5.3c.1.7.6 1.2 1.3 1.4 1.9.5 3.8 1.2 5.5 2.2.6.3 1.3.3 1.9-.1l4.4-3.2c.1 0 .1-.1.2-.1s.2 0 .2.1l3.8 3.8c.1.1.1.3 0 .4l-3.1 4.4c-.4.5-.4 1.3-.1 1.9 1 1.7 1.7 3.5 2.2 5.3.2.7.7 1.2 1.4 1.3l5.4.9c.2 0 .3.2.3.3v5.6zm0 0"/><path class="st0" d="M80.5 53.3c-7.3 0-13.2 5.9-13.2 13.2 0 7.3 5.9 13.2 13.2 13.2 7.3 0 13.2-5.9 13.2-13.2 0-7.3-5.9-13.2-13.2-13.2zm0 22.9c-5.4 0-9.7-4.4-9.7-9.7 0-5.4 4.4-9.7 9.7-9.7 5.4 0 9.7 4.4 9.7 9.7 0 5.3-4.3 9.7-9.7 9.7zm0 0"/></svg>