<svg xmlns="http://www.w3.org/2000/svg" viewBox="0 0 455 352"><defs><style>.cls-1,.cls-12,.cls-5{fill:#edc914;}.cls-2{fill:#efeff9;}.cls-3{fill:#dfdfef;}.cls-10,.cls-17,.cls-4{fill:none;}.cls-17,.cls-4,.cls-5,.cls-8{stroke:#414242;}.cls-10,.cls-11,.cls-17,.cls-4,.cls-5,.cls-8{stroke-linecap:round;stroke-linejoin:round;}.cls-4,.cls-5,.cls-8{stroke-width:3px;}.cls-6{fill:#414242;}.cls-13,.cls-14,.cls-15,.cls-16,.cls-7,.cls-8{fill:#8888e5;}.cls-9{fill:#ebebf2;}.cls-10,.cls-11{stroke:#8888e5;stroke-width:1.5px;}.cls-11{fill:#6bcfd1;}.cls-12{font-size:24px;font-family:Quicksand-SemiBold, Quicksand;font-weight:700;}.cls-13{letter-spacing:-0.02em;}.cls-14{letter-spacing:0em;}.cls-15{letter-spacing:-0.01em;}.cls-16{letter-spacing:-0.01em;}.cls-17{stroke-width:2px;}</style></defs><title>2 illustration</title><g id="Layer_2" data-name="Layer 2"><g id="Layer_1-2" data-name="Layer 1"><path class="cls-1" d="M453.5,13.73V251H1.5V13.73A12.24,12.24,0,0,1,13.73,1.5H441.27A12.24,12.24,0,0,1,453.5,13.73Z"/><path class="cls-2" d="M453.5,247v91.24a12.24,12.24,0,0,1-12.23,12.23H13.73A12.24,12.24,0,0,1,1.5,338.27V247Z"/><rect class="cls-2" x="105" y="21" width="335" height="162" rx="11.06" ry="11.06"/><polygon class="cls-3" points="108 174.5 121.35 174.5 121.35 167.5 128.03 167.5 128.03 177.5 138.88 177.5 138.88 159.5 144.72 159.5 144.72 178.5 151.39 178.5 151.39 167.5 163.08 167.5 163.08 177.5 173.93 177.5 173.93 171.5 183.11 171.5 183.11 161.5 188.11 161.5 188.11 174.5 195.62 174.5 195.62 178.5 204.8 178.5 204.8 161.5 209.81 161.5 209.81 177.5 218.16 177.5 218.16 165.5 226.5 165.5 226.5 183.45 113.84 183.45 108 174.5"/><polygon class="cls-3" points="246 114 235 114 235 144 224 144 224 183 251.33 183 251.33 114 246 114"/><path class="cls-3" d="M248.55,91.43l4.95.07v-17h13v9h7v-36h13v16h10v7l10-6v-19h17v46h7v36h8v-64h10v18h10v-18h16v11h7v18h6v-33h9v12h12v20h17v-12h8v17h7v75a12,12,0,0,1-12,12h-180l0-37Z"/><line class="cls-4" x1="1.5" y1="247.03" x2="453.5" y2="247.03"/><rect class="cls-4" x="105.5" y="22" width="334.5" height="162" rx="13.11" ry="13.11"/><path class="cls-4" d="M103.38,345.6c0,.22,4.79.65,4.79.65.89-.14,16.17-82.19,18.08-93.49,0,0-3.16-.79-3.23-.29.07-.5-14.59,68.51-15.36,72.42Q105.62,335.27,103.38,345.6Z"/><path class="cls-4" d="M153.79,328l-5.26-1c-.9-.08-3.94-14.65-4.37-16.23-1.57-5.84-6.39-20.91-8-26.75-3-11.08-7.86-24.47-10.5-35.63,0,0,6.28.89,6.38,1.38-.1-.49,15.07,54,16.09,57.89Q150.89,317.86,153.79,328Z"/><path class="cls-2" d="M97.73,189.71a17.84,17.84,0,0,1,6.27-1.77,11.55,11.55,0,0,1,8.59,4.05,11,11,0,0,1,2.3,3.63c1.32,3.63.06,7.69-1.63,11.17a10.07,10.07,0,0,1-1.91,2.9,9.14,9.14,0,0,1-3.57,1.94c-3.94,1.32-8.68,1.48-11.83-1.21a11,11,0,0,1-2.65-3.63,14.67,14.67,0,0,1-.81-11.58,10.63,10.63,0,0,1,9-6.86"/><path class="cls-2" d="M116.16,199.86c-1.87-8,3.34-17,11.19-19.48s17.19,1.71,20.68,9.17a12.33,12.33,0,0,1,1.25,5,13.43,13.43,0,0,1-2,6.61c-3.18,5.64-9.88,11.65-16.75,11C123.91,211.49,117.71,206.45,116.16,199.86Z"/><path class="cls-2" d="M159.84,217.92l7.37-4.67c.92-.58,2.26-1.11,2.95-.27a2.28,2.28,0,0,1,.39,1.12,209.25,209.25,0,0,1,2.5,30.51,19.94,19.94,0,0,1-8.39-1.6,31.23,31.23,0,0,0-5.47-2.26c-1.93-.42-4.22,0-5.34,1.61s-.76,3.9-1.86,5.52-3.05,2-4.88,2.33c-14.08,2.52-28.42,3.13-42.71,3.73-2.14.09-4.43.15-6.26-1-3.19-2-3.44-6.45-3.33-10.21l.49-16.53c.07-2.6.21-5.39,1.78-7.46,1.84-2.43,5.1-3.2,8.1-3.74a268.93,268.93,0,0,1,36.59-3.73c3.46-.14,6.61-.36,8.28,3.16,1.06,2.24.68,4.7,3.61,5.42C155.73,220.37,158.18,219,159.84,217.92Z"/><path class="cls-4" d="M150.63,218.92c-.46,9.33,2.78,18.59,2.05,27.9a2.5,2.5,0,0,1-.38,1.37,2.57,2.57,0,0,1-1.32.75,60.5,60.5,0,0,1-12.5,2.11q-18.91,1.78-37.9,2.61a6.57,6.57,0,0,1-3.5-.5c-2.39-1.35-2.14-4.78-1.9-7.52.69-7.88-1.44-15.76-1.23-23.67a7.2,7.2,0,0,1,1.23-4.49,6.57,6.57,0,0,1,3.8-1.94,51.75,51.75,0,0,1,10-.66c9.12-.2,18.11-1.82,27.16-2.81,3.36-.37,7.86-1.48,11.22-.7S150.77,216,150.63,218.92Z"/><path class="cls-5" d="M138.6,219.24c1.21-.26,2.6-.49,3.58.26a4.14,4.14,0,0,1,1.19,1.9,3.84,3.84,0,0,1,.16,3.3,4,4,0,0,1-1.46,1.23,4.54,4.54,0,0,1-2.75.91,4.18,4.18,0,0,1-2.72-2.24C134.94,221.93,135.38,219.93,138.6,219.24Z"/><path class="cls-4" d="M130.44,244.94c-9-.65-17.93,2.55-26.93,2q-.47-7.68-.92-15.34c8.13-.5,16.28-2.09,24.39-2.44,3.84-.17,3.24,1.51,2.87,4.47C129.73,234.68,129.62,244.88,130.44,244.94Z"/><path class="cls-4" d="M145.27,241.41a.83.83,0,0,1-.15.6.85.85,0,0,1-.44.17c-2.39.39-4.89.78-7.21.06a.92.92,0,0,1-.54-.33,1,1,0,0,1-.11-.51l-.14-6.17c0,.12,6.89-1.39,7.74-.73C145.93,235.67,145.24,239.79,145.27,241.41Z"/><path class="cls-4" d="M151.76,219.5l5.52-.73a39.69,39.69,0,0,0,.33,9.36q.62,5.85.72,11.74a1.09,1.09,0,0,1-.23.83,1.06,1.06,0,0,1-.66.21l-4.79.4"/><path class="cls-4" d="M157.13,219.49A40.22,40.22,0,0,1,167.35,212a1.84,1.84,0,0,1,2.67,1.76,31,31,0,0,0,.09,4.72c.6,8.16,1.74,16.27,2.83,24.38a2.7,2.7,0,0,1-.55,2.13c-1,1.21-2.59.58-3.8-.06l-9.81-5.19"/><circle class="cls-6" cx="132.57" cy="191.41" r="1.62"/><circle class="cls-6" cx="132.98" cy="199.99" r="1.62"/><circle class="cls-6" cx="128.09" cy="195.98" r="1.62"/><circle class="cls-6" cx="136.2" cy="195.25" r="1.62"/><circle class="cls-4" cx="132.07" cy="195.22" r="16.6"/><circle class="cls-4" cx="132.54" cy="195.54" r="10.52"/><circle class="cls-4" cx="103.92" cy="201.02" r="12.14"/><circle class="cls-4" cx="103.59" cy="201.49" r="6.88"/><path class="cls-7" d="M109.11,264.12c-.32,1.52-.68,3.05-.94,4.53-.15.82-.17,1.91.6,2.23a1.87,1.87,0,0,0,1.19,0c6.89-1.76,14-3.55,19.52-8.37,1.83-1.61,2.9-3.67,4.62-5.24,1.3-1.18,3.33-1.64,3.93-3.49a3.17,3.17,0,0,0-1.67-3.65,4.19,4.19,0,0,0-4.15.43,5.8,5.8,0,0,0,.51-3.15,1.29,1.29,0,0,0-.33-.85,1.27,1.27,0,0,0-.71-.3,4.35,4.35,0,0,0-4.62,2.67c.32-1.14-.91-2.21-2.09-2.24a3,3,0,0,0-2.44,1.11c-1.4,1.71.06,3.81-.85,5.35s-3.87,2-5.44,1.75A11.1,11.1,0,0,1,110,251.4c.65.59-.13,6.67-.2,7.85A33.3,33.3,0,0,1,109.11,264.12Z"/><path class="cls-7" d="M75.72,307.43a6.85,6.85,0,0,0-3.12-1c-4.25-.33-8.57-.47-12.66-1.7s-8-3.72-9.87-7.55c-1.32-2.72-1.5-5.83-1.65-8.85-.27-5.23-1.11-10.81-.42-16,.75-5.54.92-11.19,1.58-16.75,1.31-11.14,3-22.24,3.93-33.42.35-4.21,0-9,1-13.07.7-3.08,1.86-3.74,4.5-2a52.77,52.77,0,0,1,6.55,5.38l5.9,5.4c1.35,1.23,2.84,2.53,4.67,2.69a7.58,7.58,0,0,0,4.19-1.23C86.36,216,91.39,211,97.62,208a3.38,3.38,0,0,1,2.55-.45,3.51,3.51,0,0,1,1.64,1.79c5.92,11.08,7,24,7.9,36.57.44,6.11.85,12.28.11,18.36a96.88,96.88,0,0,1-3.52,15.09c-2.07,7.13-3.48,14.06-6.68,20.8L89.06,322.38a2.19,2.19,0,0,0-.3,1.56c.18.55.76.85,1.2,1.23,2.07,1.76,1.12,5.26-.78,7.21-1.4,1.44-3.55,2.51-5.41,1.73-2.19-.93-2.7-3.77-2.78-6.14a89.63,89.63,0,0,0-.54-11.12C79.88,313.19,78.63,309.25,75.72,307.43Z"/><path class="cls-4" d="M96.51,261.83c2.64,3.07,3.55,2.86,6.93,5.09a20.78,20.78,0,0,0,3.59,2,14.89,14.89,0,0,0,7,.67,29.12,29.12,0,0,0,7.74-1.89"/><path class="cls-4" d="M106.89,230.71c.44,4.12,2.3,11.4,2.74,15.52a13.66,13.66,0,0,0,1.2,5.08,7,7,0,0,0,6.39,3.67c2.06-.09,3.24-1.26,3.83-3.23a16.53,16.53,0,0,1,1.31-4c.74-1.2,2.37-2,3.59-1.32a3.67,3.67,0,0,1,1.39,2.25c-.24-.88.69-1.61,1.5-2,1-.53,2.31-1,3.31-.42a2.53,2.53,0,0,1,1.06,2.38,7.58,7.58,0,0,1-.87,2.58,3.28,3.28,0,0,1,3.25-1.41,3.32,3.32,0,0,1,2.58,2.44c.48,2.07-1.11,4-2.65,5.5-4.83,4.64-11.38,10.08-18.1,11.55"/><path class="cls-8" d="M66.83,321.87c1.32-.45-.22-.21,1.1-.65a2.55,2.55,0,0,1,1.77-.16,2,2,0,0,1,1,1,6.13,6.13,0,0,1-.91,6.06,15.57,15.57,0,0,1-5,4,10.46,10.46,0,0,1-3.76,1.5,3.91,3.91,0,0,1-3.66-1.3,5.78,5.78,0,0,1-.87-2.25q-4.59-19.6-8.25-39.43c-.85-4.59-.75-9.66-.91-14.33a29.78,29.78,0,0,1,0-3.78,33.77,33.77,0,0,1,.81-4.22c4.37-19.2,2.75-39.38,7.12-58.58a3,3,0,0,1,.53-1.32c.93-1.12,2.74-.46,4,.34a42.8,42.8,0,0,1,9.59,8.62,11.17,11.17,0,0,0,3.7,3.45c3,1.34,6.31-.46,9-2.2l12.68-8.06c1.44-.92,3.18-1.88,4.78-1.27,1.4.53,2.11,2.05,2.65,3.45,2.36,6.08,4.48,16,5.38,22.49"/><path class="cls-4" d="M70.16,306.54c-.54,4.49-3.18,13.92-5.25,17.95"/><path class="cls-4" d="M108.72,271.92a127.21,127.21,0,0,0-4.9,14.15c-.91,3.48-1.52,7-2.48,10.49-1.77,6.44-4.72,12.49-7.65,18.5L88,326.8c-.28-1.66,2-2.91,3.49-2.07a3.63,3.63,0,0,1,1.15,4.49A7.89,7.89,0,0,1,89,332.69c-2.55,1.46-6.3,2.1-8-.29-1.1-1.54-.78-3.64-.53-5.51a46.71,46.71,0,0,0-1.12-18.12,3.09,3.09,0,0,0-1.15-2,3.13,3.13,0,0,0-1.55-.31L70,306.25"/><path class="cls-8" d="M82.06,284.83a11.28,11.28,0,0,0-.51-11.64c-3.48-5.08-10.28-6.3-16-8.46a41.2,41.2,0,0,1-17.42-12.49,11.89,11.89,0,0,1-2.53-4.46c-.54-2.16,0-4.42.36-6.62,1.15-6.9.48-14.49-3.74-20.08s-12.64-8.27-18.58-4.56c-4.8,3-6.73,9-7.4,14.64C15,241.14,17,252,23.92,259.32c11,11.75,30,10.79,43.92,19a14.83,14.83,0,0,1,5,4.2c.92,1.4.8,4.3,1.53,5.22C76.81,290.79,80,288.43,82.06,284.83Z"/><path class="cls-9" d="M393.05,46.09l-2.57.79a86.18,86.18,0,0,1,.07,17.37c-1.52.57-1.86,2.51-2,4.12Q387,90.21,385.44,112c-.34,4.86-.71,9.8-2.37,14.38,3,5.6.51,12.35-.86,18.53A51.45,51.45,0,0,0,381,158.67c.13,2.56.44,5.16-.15,7.65s-2,4.59-2.92,6.93-1.25,5.18.21,7.22c1.19-1.69,3.79-1,5.73-.32a38.33,38.33,0,0,0,18,1.84,5.47,5.47,0,0,0,3.1-1.15,4.53,4.53,0,0,0,1.21-2.85c.55-5-2.76-9.51-3.51-14.45-.48-3.07.06-6.2.18-9.31a70.81,70.81,0,0,0-.39-9.09L401.5,134a21.46,21.46,0,0,0-1.21-6.37c-.38-.93-.9-1.81-1.21-2.78a12.31,12.31,0,0,1-.45-3.32,78.78,78.78,0,0,1,.59-13.47,13.69,13.69,0,0,0,.18-3.83,19.28,19.28,0,0,0-.91-3.13c-1.84-5.64-1.09-11.74-.84-17.66a12.1,12.1,0,0,0-.22-3.56,34.65,34.65,0,0,0-1.59-3.72,20.65,20.65,0,0,1-1-7.1l-.66-22.77-4.55-.16a3,3,0,0,1,.64,3.17"/><polyline class="cls-10" points="390.74 64.24 390.74 46 394.61 46 394.61 64.24"/><polyline class="cls-10" points="388.16 91.69 388.16 64.43 395.53 64.43 395.53 76.22"/><rect class="cls-10" x="386.51" y="91.69" width="6.45" height="26.71"/><polyline class="cls-10" points="392.95 102.01 392.95 76.58 397.93 76.58 397.93 101.64"/><polyline class="cls-10" points="392.95 126.14 392.95 102.01 399.4 102.01 399.4 125.78"/><polyline class="cls-10" points="392.77 172.02 392.77 126.14 402.35 126.14 402.35 162.81"/><polyline class="cls-10" points="384.85 140.47 384.85 118.41 392.59 118.41"/><rect class="cls-10" x="383.01" y="140.88" width="4.24" height="14.23"/><rect class="cls-10" x="396.27" y="145.49" width="4.24" height="17.46"/><polyline class="cls-10" points="396.27 171.47 396.27 162.99 403.64 162.99 403.64 171.01"/><rect class="cls-10" x="380.98" y="155.07" width="8.84" height="17.32"/><rect class="cls-10" x="377.48" y="172.39" width="18.61" height="9.58"/><rect class="cls-10" x="396.09" y="171.47" width="9.21" height="10.5"/><rect class="cls-10" x="385.77" y="174.97" width="10.32" height="7"/><line class="cls-11" x1="392.77" y1="32" x2="392.77" y2="45.27"/><line class="cls-10" x1="390.94" y1="172.49" x2="390.94" y2="174.85"/><polyline class="cls-10" points="274.5 125.5 274.5 95.5 293.5 95.5 293.5 131.5 303.5 131.5 303.5 83.5 320.5 83.5"/><polyline class="cls-10" points="337.5 93.75 345.5 93.75 345.5 120.5 351.5 120.5 351.5 87.5 364.5 87.5 364.5 70.5 368.5 70.5 368.5 101.5 373.5 101.5 373.5 83.5 377.5 83.5 377.5 110.5 386.51 110.5"/><polyline class="cls-10" points="398.39 92.73 405.5 92.73 405.5 113.5 413.5 113.5 413.5 93.5 420.5 93.5 420.5 135.5 426.5 135.5 426.5 102.5 431.5 102.5 431.5 114.5 438.5 114.5"/><line class="cls-10" x1="366.5" y1="58.5" x2="366.5" y2="70.5"/><line class="cls-10" x1="416.67" y1="93.5" x2="416.67" y2="78.5"/><path class="cls-9" d="M253.5,92.5l-3,0-.76,49.64c-.21,13.5-.1,26.33.25,39.82,10.59-1.06,20.95-.59,31.57.06,4-2.87,4.51-8.57,4.63-13.52l.43-18.77c.1-4.33.17-8.8-1.48-12.8-1.25-3-3.4-5.57-4.92-8.46-2-3.8-2.9-8.13-5.11-11.82a42.75,42.75,0,0,0-5.05-6.28q-5.22-5.82-9.89-12.11a25,25,0,0,1-3.62-6.08,22,22,0,0,1-1.16-6.08c-.53-7.06.26-14.26-1.38-21.15a10.58,10.58,0,0,0-1.79,7.29c.18,2.56.87,5,1.23,7.59a29.34,29.34,0,0,1-.14,9,4.76,4.76,0,0,1-.73,2.08,9.71,9.71,0,0,1-1.51,1.34,5.54,5.54,0,0,0-.88,7"/><polyline class="cls-10" points="255.95 92.73 249.89 92.73 249.26 181.28 277 181"/><path class="cls-10" d="M255.31,181.28H283a66.41,66.41,0,0,0,2.55-44.57c-7.33-24.23-29.64-44-29.64-44Z"/><polygon class="cls-10" points="255.95 92.73 255.95 67.23 253.4 65 253.4 92.73 255.95 92.73"/><path class="cls-10" d="M261.15,127.14l-1.7-25.81a87.85,87.85,0,0,1,18.39,25.81Z"/><path class="cls-10" d="M262.4,146.27l-1.09-16.58H279a67.4,67.4,0,0,1,3.12,9.25,66.39,66.39,0,0,1,1.46,7.33Z"/><path class="cls-10" d="M283.89,163.79a60.52,60.52,0,0,1-3.4,15.3H264.55l-1-15.3Z"/><path class="cls-10" d="M263.38,161.24l-.81-12.42h21.3a71.9,71.9,0,0,1,.24,12.42Z"/><line class="cls-10" x1="283.89" y1="163.79" x2="264.55" y2="179.09"/><line class="cls-10" x1="283.87" y1="148.82" x2="263.38" y2="161.24"/><line class="cls-10" x1="278.96" y1="129.69" x2="262.4" y2="146.27"/><line class="cls-10" x1="279.37" y1="131.77" x2="261.84" y2="131.77"/><line class="cls-10" x1="280.17" y1="134.16" x2="261.84" y2="134.16"/><line class="cls-10" x1="281.28" y1="136.55" x2="261.84" y2="136.55"/><line class="cls-10" x1="282.08" y1="138.94" x2="262.48" y2="138.94"/><line class="cls-10" x1="282.4" y1="141.33" x2="262.48" y2="141.33"/><line class="cls-10" x1="283.04" y1="143.72" x2="262.48" y2="143.72"/><line class="cls-10" x1="283.51" y1="150.73" x2="263.12" y2="150.73"/><line class="cls-10" x1="283.51" y1="152.8" x2="263.12" y2="152.8"/><line class="cls-10" x1="283.51" y1="154.87" x2="263.12" y2="154.87"/><line class="cls-10" x1="283.51" y1="156.94" x2="263.12" y2="156.94"/><line class="cls-10" x1="283.51" y1="159.01" x2="263.76" y2="159.01"/><line class="cls-10" x1="283.51" y1="165.71" x2="263.76" y2="165.71"/><line class="cls-10" x1="282.8" y1="167.9" x2="264.31" y2="167.9"/><line class="cls-10" x1="282.48" y1="170.1" x2="264.23" y2="170.1"/><line class="cls-10" x1="282.24" y1="172.3" x2="264.31" y2="172.3"/><line class="cls-10" x1="281.84" y1="174.5" x2="264.39" y2="174.5"/><line class="cls-10" x1="281.05" y1="176.7" x2="264.63" y2="176.7"/><line class="cls-10" x1="283.83" y1="95.44" x2="283.83" y2="76.5"/><path class="cls-9" d="M346.34,58a63.08,63.08,0,0,1-23.45,16.19,4.45,4.45,0,0,0-2.18,1.38,4.37,4.37,0,0,0-.54,2.32c-.35,9.06-.7,18.12-.54,27.19.29,16.56,2.26,33.14.89,49.65-.7,8.39-2.25,16.88-.76,25.16a2.54,2.54,0,0,0,.73,1.6,2.67,2.67,0,0,0,1.47.4c8,.53,17-1.38,25-.85,1.45-8.23-.9-14.22-1.2-22.57-.32-8.87.54-17.73,1-26.58.92-16,.69-32.14.45-48.21l-.37-24.81-7.25,4.09"/><polygon class="cls-10" points="319.99 181.5 320.74 74.51 346.9 58.07 346.9 182.26 319.99 181.5"/><line class="cls-10" x1="347.28" y1="181.77" x2="347.28" y2="42"/><line class="cls-10" x1="345.78" y1="74.14" x2="338.68" y2="74.14"/><polyline class="cls-10" points="345.78 82.73 328.22 82.73 328.22 95.81 328.22 180.28"/><line class="cls-10" x1="345.78" y1="95.82" x2="328.22" y2="95.82"/><line class="cls-10" x1="342.04" y1="83.11" x2="342.04" y2="95.44"/><line class="cls-10" x1="338.31" y1="83.11" x2="338.31" y2="95.44"/><line class="cls-10" x1="334.57" y1="83.11" x2="334.57" y2="95.44"/><line class="cls-10" x1="346.52" y1="99.93" x2="328.59" y2="99.93"/><line class="cls-10" x1="346.52" y1="107.4" x2="328.59" y2="107.4"/><line class="cls-10" x1="346.52" y1="114.87" x2="328.59" y2="114.87"/><line class="cls-10" x1="346.52" y1="118.61" x2="328.59" y2="118.61"/><line class="cls-10" x1="346.52" y1="126.09" x2="328.59" y2="126.09"/><line class="cls-10" x1="346.52" y1="129.82" x2="328.59" y2="129.82"/><line class="cls-10" x1="346.52" y1="133.56" x2="328.59" y2="133.56"/><line class="cls-10" x1="346.52" y1="141.04" x2="328.59" y2="141.04"/><line class="cls-10" x1="346.52" y1="144.77" x2="328.59" y2="144.77"/><line class="cls-10" x1="346.52" y1="152.25" x2="328.59" y2="152.25"/><line class="cls-10" x1="346.52" y1="155.98" x2="328.59" y2="155.98"/><line class="cls-10" x1="346.52" y1="159.72" x2="328.59" y2="159.72"/><line class="cls-10" x1="346.52" y1="167.2" x2="328.59" y2="167.2"/><line class="cls-10" x1="346.52" y1="170.93" x2="328.59" y2="170.93"/><line class="cls-10" x1="346.52" y1="178.41" x2="328.59" y2="178.41"/><text class="cls-12" transform="translate(121.33 67.04)">A<tspan class="cls-7" x="15.41" y="0" xml:space="preserve"> - a</tspan><tspan class="cls-13" x="52.99" y="0">l</tspan><tspan class="cls-14" x="58.8" y="0">w</tspan><tspan class="cls-15" x="77.21" y="0">a</tspan><tspan class="cls-16" x="91.7" y="0">y</tspan><tspan class="cls-7" x="105.41" y="0">s</tspan></text><text class="cls-12" transform="translate(121.33 100.97)">B<tspan class="cls-7" x="15.7" y="0" xml:space="preserve"> - be</tspan></text><text class="cls-12" transform="translate(121.33 133.9)">C<tspan class="cls-7" x="15.26" y="0" xml:space="preserve"> - c</tspan><tspan class="cls-16" x="50.42" y="0">l</tspan><tspan class="cls-7" x="56.35" y="0">osing</tspan></text><path class="cls-7" d="M281.61,253.41a14.8,14.8,0,0,0-10,9.35c-2.57,8.14,3.35,16.3,8.89,22.79l-8.18,1.05a2.4,2.4,0,0,0-1.69.68,2.22,2.22,0,0,0-.32,1.46,9.47,9.47,0,0,0,6.53,8.61,16.31,16.31,0,0,0,5.08.32c6.77-.28,13.72-.59,19.91-3.36,1.87-.84,3.79-1.92,5.83-1.69a10.49,10.49,0,0,1,4,1.72A48.81,48.81,0,0,0,333,300.86a5.17,5.17,0,0,1,2.8.7,6.94,6.94,0,0,1,1.61,2.41,8.44,8.44,0,0,0,11,3.15c-1.44,1.88.7,4.81,3.06,4.88s4.4-1.66,5.9-3.49c.35,2.45,3.12,3.94,5.59,3.77s4.67-1.54,6.76-2.87l10.84-6.92c1.94,1.53,1.23,4.53,1.22,7,0,4.74,3.45,9,7.73,11.07s9.21,2.26,13.94,1.83a57.45,57.45,0,0,0,19.84-5.5c7-3.37,13.43-8.39,16.94-15.29s3.53-15.89-1.29-22c-5.17-6.51-14.27-8.26-22.58-8.61-7.74-.33-16,0-22.54-4.18-6.11-3.93-9.34-11.12-11-18.19s-2-14.43-4-21.41c-1.19-4.09-3-8-3.73-12.23-1.31-7.78-.23-16.18.57-24a218.21,218.21,0,0,1,3.89-24.23c.78-3.55,1.65-7.14,1.42-10.77a3.92,3.92,0,0,0-1.29-3.11c-1.48-1-3.46.06-4.92,1.11a161,161,0,0,1-16,10c-2.46,1.35-5,2.66-7.85,2.88a5.92,5.92,0,0,1-2.89-.39,6,6,0,0,1-2.15-1.76c-4.59-5.57-2.9-14.49-7.46-20.08-1.95,1.66-3.87,3.35-5.78,5.07q-5.94,5.37-11.55,11.09c-3.19,3.25-6.8,6.38-8.76,10.5s-4.43,8-6,12.49-2.76,9.19-4,13.82c-.58,2.11-1.37,4.45-3.33,5.44a6.43,6.43,0,0,1-4.07.3c-6.87-1.3-12.07-7-15.6-13s-6-12.72-10.17-18.3a3.8,3.8,0,0,0-2.18-1.7c-1.36-.24-2.61,1.07-2.81,2.43a6.78,6.78,0,0,0,1,4,7.13,7.13,0,0,1-4.63,3.22l.61,4.25-3.17.53c-1.68,1.84-1,4.89.52,6.84s3.8,3.19,5.65,4.86c7.76,7,7.59,19.92,15.32,26.92,4.12,3.73,9.94,5.2,13.92,9.08a15.85,15.85,0,0,1,3.39,16.59C294.21,255.89,287.25,251.76,281.61,253.41Z"/><path class="cls-4" d="M304.23,197.47a178.45,178.45,0,0,1,10.64-28.58c2.2-4.66,5.69-7.8,9.27-11.42l12.07-12.24c.67-.67,1.53-1.41,2.46-1.19,1.95,4.6,2.61,9.63,3.67,14.52.63,2.84,1.6,5.94,4.1,7.41a7.59,7.59,0,0,0,5.77.54A22.32,22.32,0,0,0,357.6,164l9.3-5.33c4.57-2.63,9.2-5.27,14.26-6.72l-.21,9a59.39,59.39,0,0,1-.42,6.66,80.16,80.16,0,0,1-1.89,8.33,106.75,106.75,0,0,0-3,19.05q-.35,4.9-.22,9.82c.06,2.75-.62,5.28-.4,8.08.53,6.63,3.22,12.85,5.18,19.2s3.17,13.34.77,19.54c-2.69,6.95-9.31,11.46-15.56,15.52a6.14,6.14,0,0,1-4.24,11.49,6.44,6.44,0,0,1-12.24,4c-.79,4-6.53,6-9.6,3.27s-1.86-8.65,2-9.93a4.7,4.7,0,0,1-6.88-.9,5.43,5.43,0,0,1,1.41-7.05,6.49,6.49,0,0,1,7.41.06A20.5,20.5,0,0,1,349,254.5c1.82-1.87,4-3.39,5.74-5.32,4.64-5.1,9.12-13.14,6.11-19.34"/><path class="cls-4" d="M382.38,246.13c.95,7.61,11.74,18.23,13.06,25.78.77,4.43-1.93,12.74-3.69,16.87"/><path class="cls-4" d="M397.88,269.57c10.2-.06,20.53,0,30.45,2.35a28.5,28.5,0,0,1,10.39,4.38c5.92,4.41,8.61,12.41,7.51,19.72s-5.62,13.82-11.48,18.32-13,7.12-20.22,8.6a75.11,75.11,0,0,1-16.59,1.54c-4-.08-8.17-.54-11.39-2.87-5.24-3.78-6.29-11.17-5.73-17.6a18.92,18.92,0,0,1,2.39-8.53c1.68-2.67,4.39-4.53,7.16-6.06a52.67,52.67,0,0,1,31.2-6.12"/><path class="cls-4" d="M349.7,287.07a14.85,14.85,0,0,0,11,7.18,21.53,21.53,0,0,0,13.11-2.69"/><path class="cls-4" d="M350.82,294.24c-3.78-.59-8.25-1-10.84,1.85a8.05,8.05,0,0,0-1.82,5.79c.1,2.36,1.1,4.93,3.26,5.88,3,1.32,6.33-1.11,8.43-3.64a7.74,7.74,0,0,0-1.13,4.4,4.27,4.27,0,0,0,2.48,3.61,4.6,4.6,0,0,0,4.74-1.31,12.64,12.64,0,0,0,2.56-4.5,10.9,10.9,0,0,0,1,4.48,4.59,4.59,0,0,0,3.63,2.56,4.72,4.72,0,0,0,4.16-2.77,13.69,13.69,0,0,0,1.18-5.11,13.38,13.38,0,0,0,9.28-2.06"/><path class="cls-4" d="M294.07,254.41a14.66,14.66,0,0,0-23.31,9,17.31,17.31,0,0,0,.9,9A20.8,20.8,0,0,0,298,284.94"/><path class="cls-4" d="M281.2,286.62a13.87,13.87,0,0,0-4.83-1.47,5.12,5.12,0,0,0-4.5,1.83,5.2,5.2,0,0,0-.9,2.59,8.16,8.16,0,0,0,9.35,8.86,2.12,2.12,0,0,0,1.17-.46,2.41,2.41,0,0,0,.58-1.32l1-4.37a4.48,4.48,0,0,0,.43,5,3.9,3.9,0,0,0,4.83.83,3.46,3.46,0,0,0,1.11-4.65,4.25,4.25,0,0,0,2.2,4,7.32,7.32,0,0,0,4.68.73,7.09,7.09,0,0,0,4.83-2.59c.57-.8.9-1.74,1.47-2.53a2.53,2.53,0,0,1,2.48-1.22"/><path class="cls-4" d="M298.19,237.93a66.74,66.74,0,0,0-2.69,26.21c1,8.79,4.4,17.42,10.32,24a37,37,0,0,0,29.52,11.95"/><path class="cls-4" d="M305.05,194.42c-.37,3.25-1,6.9-3.63,8.8a7.58,7.58,0,0,1-6.12.93,16.87,16.87,0,0,1-5.68-2.85,46.18,46.18,0,0,1-12.34-13c-1.3-2.07-2.77-4.15-3.27-6.58a46.7,46.7,0,0,0-2.22-7.2,10.38,10.38,0,0,0-1.51-2.92,3.8,3.8,0,0,0-2.83-1.51c-3.66,0-2.09,4.62-1.24,6.51l3,6.65a6.61,6.61,0,0,0-3.23-4.09,2.84,2.84,0,0,0-4,1.71c-.64,2,1.39,4.4,2.49,5.93-1.27-1.18-6-3.36-7.08-.36a4.48,4.48,0,0,0-.08,2.66,6.63,6.63,0,0,0,2.55,3.19c1.11.83,1.66,1.79,2.77,2.62a19.84,19.84,0,0,1,5.56,6.8"/><path class="cls-4" d="M325.14,189a4.45,4.45,0,0,0,2.52,1.95,8,8,0,0,0,9.34-3.63c-1.07,1.41-2.15,3.17-1.57,4.84.29.84,2.08,4.88,6.43,4.51"/><path class="cls-4" d="M260.06,192.5a6.17,6.17,0,0,0,3.3,1.57,2.93,2.93,0,0,0,1.5-.12,2.53,2.53,0,0,0,1.4-2,6.4,6.4,0,0,0-.31-2.56,3.82,3.82,0,0,0,3.75,1.48,2.35,2.35,0,0,0,1.57-.67,2.51,2.51,0,0,0,.46-1.13,3,3,0,0,0-.51-2.91"/><path class="cls-1" d="M351.82,256.64a4.93,4.93,0,0,0-1.84,1.23,5.44,5.44,0,0,0-1.08,3.21,8.51,8.51,0,0,0,1.79,6.41,4.11,4.11,0,0,0,1.44,1.07,6.66,6.66,0,0,0,2.48.34,10.23,10.23,0,0,0,3.49-.41,6,6,0,0,0,3.18-2.9,8.78,8.78,0,0,0,.89-4.28,3.43,3.43,0,0,0-.33-1.58,4.1,4.1,0,0,0-1.28-1.24c-1.19-.86-2.52-2.23-4-2.5A8.74,8.74,0,0,0,351.82,256.64Z"/><path class="cls-8" d="M276.18,183.8a7.32,7.32,0,0,0-4-.43,2.87,2.87,0,0,0-1.09.27,1.93,1.93,0,0,0-.87,2,3.4,3.4,0,0,0,1.13,1.93,3.92,3.92,0,0,0,1.6.93,10.48,10.48,0,0,0,1.37.18,16,16,0,0,1,2.17.43c.59.14,1.93.77,2.31.19s-.05-1.71-.17-2.18C278.35,185.88,277.47,184.2,276.18,183.8Z"/><circle class="cls-6" cx="355.58" cy="262.63" r="1.97"/><path class="cls-1" d="M309.72,215.29a1.16,1.16,0,0,0,.48.6,1.18,1.18,0,0,0,.9,0l6.69-2.15a36.61,36.61,0,0,1,3.61,6,5,5,0,0,1,.68,2.86,5.69,5.69,0,0,1-1.26,2.34,48.64,48.64,0,0,0-4.85,8,18.06,18.06,0,0,0-2,6.45,22,22,0,0,0,.37,4.86l3.31,21.81c.12.76.36,1.67,1.1,1.88a137.13,137.13,0,0,1,6.08-22.07c1.15-3.13,2.43-6.33,2.26-9.66-.21-4-2.55-7.86-2.05-11.86a11.63,11.63,0,0,1,3.81-6.84,5.52,5.52,0,0,1,2.7-1.6,2.37,2.37,0,0,1,2.64,1.29c.39,1.08-.06,2.77,1.05,3.07a1.8,1.8,0,0,0,.89-.07l31.64-7.82a93.17,93.17,0,0,0-21.37.66c-5.34.78-10.68,2-16.07,1.69a38.12,38.12,0,0,1-5.92-.9,13.6,13.6,0,0,1-5.77-2.35,22.37,22.37,0,0,1-2.89-3.24,23.58,23.58,0,0,0-9.31-6.78c-3.4-1.36-1.19,3.44-.72,4.71A86.66,86.66,0,0,0,309.72,215.29Z"/><line class="cls-17" x1="357.16" y1="263.79" x2="359.01" y2="264.61"/><path class="cls-4" d="M305.07,200.51c5.07,2.18,12.15,9.14,15.61,14"/><path class="cls-4" d="M333.05,215.71c10.29-3.08,29.93-6.13,41.22-4.71"/><path class="cls-4" d="M331.44,215.67l-6.63,6.4a1.12,1.12,0,0,1-1.75-.24c-1.26-2.26-4.13-6.48-2.93-7.82S329.72,215.35,331.44,215.67Z"/><path class="cls-4" d="M315.8,232.94a9.16,9.16,0,0,0-1.54,3.21,8.93,8.93,0,0,0,.16,3.13s.75,21.44,4.92,29.85c.27.55,1.12.72,1.15.1,1.12-22.85,7.93-30.24,7.84-31.4a7.42,7.42,0,0,0-.72-2.27c-1-2.15-1.83-12.59-4.06-13C321.15,222.19,317.07,231.15,315.8,232.94Z"/><path class="cls-17" d="M336.94,233.37a15.51,15.51,0,0,1,8.75-.62,45.74,45.74,0,0,1,8.45,2.72"/><path class="cls-17" d="M335.79,229.84c1.6-1.54,3.25-3,4.93-4.47a25.53,25.53,0,0,1,2.86,3.78,29.4,29.4,0,0,1,6.38-2.21l2.89,4.95"/><path class="cls-4" d="M317.71,213.85q-3.15,1.64-6.41,3a.5.5,0,0,1-.41,0,.48.48,0,0,1-.21-.25,100.67,100.67,0,0,1-6.2-14.54"/><path class="cls-1" d="M349.17,254.56a5.09,5.09,0,0,0-3.28-.72,1.89,1.89,0,0,0-.86.33,2.44,2.44,0,0,0-.57.74l-2.6,4.38a5.25,5.25,0,0,0-.54,1.12c-.15.56,1.31-.08,1.58.44.07.15-.14.94,0,1s-.21-.07,0,0c.38.13.28,1.19.67,1.05s.58-.59.76-1,.47-.81.89-.82a1.26,1.26,0,0,1,.66.26l1.49,1a1.51,1.51,0,0,0,.44.22c.5.1.94-.36,1.16-.81.43-.87.51-1.88,1-2.73a6.18,6.18,0,0,1,1.22-1.48c.23-.23.63-.48.55-.84s-.57-.63-.78-.81A8.25,8.25,0,0,0,349.17,254.56Z"/><path class="cls-4" d="M333.53,215.61a51.76,51.76,0,0,1,1.88,6.06c5.84-2.4,34-9.49,38.86-10.67"/><path class="cls-4" d="M398.46,286.88a56.78,56.78,0,0,1,8.73,6.46q-1.94,4-3.51,8.21l9.31,5.59L409.78,314a39.22,39.22,0,0,1,11.39,3.1l-1,4.12"/><path class="cls-4" d="M263.92,195.8c3.77,2.69,7.13,12.12,7.91,14.15,4.93,12.91,13.94,20.45,26.5,26.2"/><circle class="cls-17" cx="355.58" cy="262.63" r="6.89"/><line class="cls-17" x1="354.47" y1="264.25" x2="351.48" y2="268.16"/><ellipse class="cls-6" cx="328.13" cy="179.7" rx="4.75" ry="3.16" transform="translate(68.68 449.23) rotate(-74.8)"/><ellipse class="cls-6" cx="349.23" cy="187.57" rx="4.75" ry="3.16" transform="translate(76.65 475.4) rotate(-74.8)"/><path class="cls-4" d="M327.71,168.43a12.3,12.3,0,0,1,9,5.17"/><path class="cls-4" d="M357.28,175a12.28,12.28,0,0,1,9,5.3"/><path class="cls-17" d="M351.18,256.71a7.85,7.85,0,0,0-5-3.12,2,2,0,0,0-1.17.2,2.47,2.47,0,0,0-.77.89c-.47.76-1.89,3.9-2.42,5.14.52-.53.4.08,1.13.11a7.38,7.38,0,0,1,5.08,3"/><path class="cls-17" d="M341.86,259.82c-.84,1.79,1.62,3,2.07,3.1"/><path class="cls-1" d="M362,268.46a15.86,15.86,0,0,1,6.66,1.22,5.29,5.29,0,0,1,1.86,1.17l.4-2.85a5.28,5.28,0,0,0-.32-3.54,3.48,3.48,0,0,0-1.73-1.33,10.59,10.59,0,0,0-2.16-.5l-2.59-.4c-.47-.08-.91-.61-1.09-.07a9.62,9.62,0,0,0,0,2.08A13.09,13.09,0,0,1,362,268.46Z"/><path class="cls-17" d="M366.82,262.21a7.53,7.53,0,0,1,3.79,2.48,2.86,2.86,0,0,1,.51.88,4.57,4.57,0,0,1-.26,2.54,13.23,13.23,0,0,0-.45,3.06,4.53,4.53,0,0,0-2.15-1.41,27.1,27.1,0,0,0-7.77-1.66c2.58-.73,2.63-6.48,2.13-6.24-.06,0,1.49-.08,2.08,0A10.83,10.83,0,0,1,366.82,262.21Z"/><rect class="cls-4" x="1.5" y="1.5" width="452" height="349" rx="12.23" ry="12.23"/><path class="cls-6" d="M26.87,94.74H24.5a3.62,3.62,0,0,0-3.61,3.61v4.18H79V98.35a3.62,3.62,0,0,0-3.6-3.61H69.28v4.72a1.6,1.6,0,0,1-1.59,1.6H64.33a1.6,1.6,0,0,1-1.59-1.6V94.74H37.16v4.72a1.6,1.6,0,0,1-1.6,1.6H32.21a1.6,1.6,0,0,1-1.6-1.6V94.74Z"/><rect class="cls-6" x="32.21" y="90.59" width="3.36" height="8.87" rx="0.9" ry="0.9"/><path class="cls-1" d="M32.21,89a1.6,1.6,0,0,0-1.6,1.59v8.87a1.6,1.6,0,0,0,1.6,1.6h3.35a1.6,1.6,0,0,0,1.6-1.6V90.59A1.59,1.59,0,0,0,35.56,89Zm3.35,10.46H32.21V90.59h3.35Z"/><rect class="cls-6" x="64.33" y="90.59" width="3.36" height="8.87" rx="0.65" ry="0.65"/><path class="cls-1" d="M64.33,89a1.59,1.59,0,0,0-1.59,1.59v8.87a1.6,1.6,0,0,0,1.59,1.6h3.36a1.6,1.6,0,0,0,1.59-1.6V90.59A1.59,1.59,0,0,0,67.69,89Zm3.36,10.46H64.33V90.59h3.36Z"/><path class="cls-2" d="M25.49,134.23a3.74,3.74,0,0,1-3.73-3.73V103.35H78.1V130.5a3.73,3.73,0,0,1-3.73,3.73Z"/><path class="cls-6" d="M77.29,104.17V130.5a2.92,2.92,0,0,1-2.92,2.92H25.49a2.92,2.92,0,0,1-2.91-2.92V104.17H77.29m1.62-1.63H21v28A4.54,4.54,0,0,0,25.49,135H74.37a4.54,4.54,0,0,0,4.54-4.54v-28Z"/><path class="cls-6" d="M38.38,123.16a.83.83,0,0,1,.59,1.42.82.82,0,0,1-.59.23H32.16a.85.85,0,0,1-.62-.23.86.86,0,0,1-.23-.62.92.92,0,0,1,.25-.64l3.95-4.27a7.73,7.73,0,0,0,1.17-1.56A3,3,0,0,0,37.1,116a2.2,2.2,0,0,0-.28-1.13,2.13,2.13,0,0,0-.78-.77,2.19,2.19,0,0,0-1.12-.28,2.26,2.26,0,0,0-1.19.36,2.81,2.81,0,0,0-1,1,1,1,0,0,1-.34.31.86.86,0,0,1-1-.16.71.71,0,0,1-.28-.56.79.79,0,0,1,.16-.48,3.29,3.29,0,0,1,.41-.48,4.25,4.25,0,0,1,1.5-1.22,4.1,4.1,0,0,1,1.79-.44,4.18,4.18,0,0,1,2.08.48A3.19,3.19,0,0,1,38.44,114a3.9,3.9,0,0,1,.47,1.92,4.39,4.39,0,0,1-.26,1.44,7.3,7.3,0,0,1-.75,1.47,10.81,10.81,0,0,1-1.17,1.48l-2.74,3-.2-.17Z"/><path class="cls-6" d="M45.22,125a3.91,3.91,0,0,1-2.52-.82,5.09,5.09,0,0,1-1.55-2.27,9.57,9.57,0,0,1-.52-3.28,9.66,9.66,0,0,1,.52-3.31A5.05,5.05,0,0,1,42.7,113a4,4,0,0,1,2.52-.81,3.87,3.87,0,0,1,2.5.81,5.05,5.05,0,0,1,1.55,2.26,10.32,10.32,0,0,1,0,6.59,5.09,5.09,0,0,1-1.55,2.27A3.82,3.82,0,0,1,45.22,125Zm0-1.79a2,2,0,0,0,1.42-.53,3.29,3.29,0,0,0,.92-1.56,8.16,8.16,0,0,0,.33-2.49,8.28,8.28,0,0,0-.33-2.52,3.29,3.29,0,0,0-.92-1.56,2.07,2.07,0,0,0-1.42-.53,2.12,2.12,0,0,0-1.44.53,3.29,3.29,0,0,0-.92,1.56,8.63,8.63,0,0,0-.32,2.52,8.51,8.51,0,0,0,.32,2.49,3.29,3.29,0,0,0,.92,1.56A2.07,2.07,0,0,0,45.22,123.19Z"/><path class="cls-6" d="M58.82,123.16a.81.81,0,0,1,.6.24.85.85,0,0,1,0,1.18.85.85,0,0,1-.6.23H52.6a.79.79,0,0,1-.85-.85,1,1,0,0,1,.25-.64l4-4.27a7.73,7.73,0,0,0,1.17-1.56,2.93,2.93,0,0,0,.43-1.45,2.21,2.21,0,0,0-.29-1.13,2.13,2.13,0,0,0-.78-.77,2.18,2.18,0,0,0-1.11-.28,2.32,2.32,0,0,0-1.2.36,2.89,2.89,0,0,0-1,1,1,1,0,0,1-.34.31.89.89,0,0,1-.35.08.9.9,0,0,1-.6-.24.73.73,0,0,1-.29-.56.86.86,0,0,1,.16-.48,4.06,4.06,0,0,1,.41-.48,4.2,4.2,0,0,1,1.51-1.22,4.06,4.06,0,0,1,1.78-.44,4.25,4.25,0,0,1,2.09.48A3.23,3.23,0,0,1,58.88,114a3.8,3.8,0,0,1,.47,1.92,4.14,4.14,0,0,1-.26,1.44,7.3,7.3,0,0,1-.75,1.47,9.46,9.46,0,0,1-1.17,1.48l-2.74,3-.2-.17Z"/><path class="cls-6" d="M68.5,123.16a.81.81,0,0,1,.59.24.85.85,0,0,1,0,1.18.84.84,0,0,1-.59.23H62.28a.85.85,0,0,1-.62-.23.82.82,0,0,1-.23-.62,1,1,0,0,1,.24-.64l4-4.27a8.05,8.05,0,0,0,1.16-1.56,2.93,2.93,0,0,0,.43-1.45,2.31,2.31,0,0,0-.28-1.13,2.13,2.13,0,0,0-.78-.77,2.22,2.22,0,0,0-1.12-.28,2.26,2.26,0,0,0-1.19.36,2.84,2.84,0,0,0-1,1,.89.89,0,0,1-.34.31.85.85,0,0,1-.35.08.92.92,0,0,1-.6-.24.73.73,0,0,1-.29-.56.86.86,0,0,1,.16-.48,5.29,5.29,0,0,1,.41-.48,4.29,4.29,0,0,1,1.51-1.22,4.1,4.1,0,0,1,1.79-.44,4.21,4.21,0,0,1,2.08.48A3.31,3.31,0,0,1,68.56,114,3.9,3.9,0,0,1,69,116a4.16,4.16,0,0,1-.27,1.44,7.24,7.24,0,0,1-.74,1.47,10.81,10.81,0,0,1-1.17,1.48l-2.75,3-.19-.17Z"/></g></g></svg>