<svg xmlns="http://www.w3.org/2000/svg" viewBox="0 0 455.72 353.14"><defs><style>.cls-1,.cls-3{fill:#fff;}.cls-2{fill:#efeff9;}.cls-3,.cls-6,.cls-7{stroke:#414242;}.cls-11,.cls-3,.cls-6,.cls-7{stroke-linecap:round;stroke-linejoin:round;}.cls-3,.cls-6{stroke-width:3px;}.cls-4{fill:#edc914;}.cls-5{fill:#8888e5;}.cls-11,.cls-6,.cls-7{fill:none;}.cls-11,.cls-7{stroke-width:2px;}.cls-8{fill:#a9d4ff;}.cls-12,.cls-9{fill:#414242;}.cls-10{fill:#ef7565;}.cls-11{stroke:#f7e821;}.cls-12{font-size:14.96px;font-family:Quicksand-SemiBold, Quicksand;font-weight:700;}</style></defs><title>1 illustration_1</title><g id="Layer_2" data-name="Layer 2"><g id="Layer_1-2" data-name="Layer 1"><polygon class="cls-1" points="23.72 164.13 431.22 163.63 371.72 262.13 72.72 262.13 23.72 164.13"/><path class="cls-2" d="M105.35,344c.07,1.47.23,3.15,1.41,4,14.25,10.63-11.14,1.38,3.34.59,33.77-1.84,67.62,2,101.44,1.81l35.18-.18c33-.17,66.12-.33,99.16.44a4.61,4.61,0,0,0,2.16-.31c1.3-.67,1.6-2.36,1.76-3.82,2.92-27.1,4.62-59.23,14.92-84.47-41,1-72.54,2-114,1-15.75-.4-35.25.39-51,0-9.32-.23-20.13,1.27-29.45,1.12q-32.43-.56-64.87.11c-2.67.05-12.84-1.29-14.51.81-1.8,2.26,2.42,10.49,3.2,13.1a275.15,275.15,0,0,1,7.24,30.23A273.57,273.57,0,0,1,105.35,344Z"/><path class="cls-2" d="M99.26,2.72C105.11,33.65,95,66.38,75.92,91.39S29.35,134.18,0,145.58a84.4,84.4,0,0,1,34,19.48c2.58,2.44-3.34-1.65-.24.07,5,2.77,22.28,0,28,0,73.24.06,141.76-1.06,215-1,41.73,0,135-1,146,3,3.06,1.11-3.13.93,0,0s-3.53,1.59-.76.05l31.19-17.44-48.41-36.06A132,132,0,0,1,389.37,101c-6.34-6.43-11.28-14.1-15.6-22C362,57.36,364.59,33.45,362,9c-.28-2.72-.74-5.85-3.08-7.28C357.62.92,346,.88,344.4.87Q222.48-.29,100.55.32l-.27,19.81"/><path class="cls-3" d="M303.56,66.72l15.3-.11c44.42-.29,89.58-2.56,133.86-1.9a32.76,32.76,0,0,1-.41-17.7c-1.15,4.53-202.64,6.25-221.56,6.84-46.27,1.44-92.14,0-137.83,1.42-6.51.21-84.52,3.93-86.2,1.62C9.61,61,9.4,65.2,8.89,69.36c56.61,2.74,118.27.77,175.1-.64Q243.71,67.24,303.56,66.72Z"/><path class="cls-4" d="M99.56,3.05c-3.4-3.6-17.88-1-22.7-1l-53,.39C18.7,2.51,13.08,2.7,9.07,6c-5.3,4.31-5.72,12.12-5.69,19,0,11.5.29,37.72.34,49.22h.09l-.25.32q.06,17.85.13,35.69l0,7.66.06,15.31q0,6.64.05,13.3v1.4C3.93,175,1.62,203,1.72,230.13v102c0,15,8.31,17.06,15.57,17.13l89.43.87c0-30-33-185-100.57-201.17a2.32,2.32,0,0,1,0-.38c.44-2.71,3.24-4.41,5.7-5.77,19.49-10.78,37.5-25.6,54-40.48a111.51,111.51,0,0,0,14.21-14.7C93.87,69.71,98.69,47,100.5,25,100.9,20.11,103.26,7,99.56,3.05Z"/><path class="cls-4" d="M357.67,3.1c3.4-3.6,17.88-1.05,22.7-1l53,.28c5.17,0,10.79.2,14.81,3.45,5.31,4.3,5.75,12.11,5.73,18.94,0,11.5-.2,37.72-.23,49.22h-.09l.25.31q0,17.85-.05,35.69c0,2.55,0,5.1,0,7.66l0,15.31q0,6.65,0,13.3v1.4l-.12,81.42c0,.9.16,75.89.19,106.81a13.24,13.24,0,0,1-13.08,13.25l-89.43,1.07c-.46,0,8.22-62,9.26-67.29,4.76-24.18,11.6-48.2,23.55-69.89,2.74-5,5.74-9.81,8.81-14.6,7.07-11,14.58-21.95,24-31.06,5.86-5.66,14.46-13.65,21.8-17.23,6-2.91,18.19-1.26,6.92-7.46-19.51-10.73-36.37-21.7-52.92-36.54-5.08-4.56-11.26-13.08-15.43-18.49C363.51,69.75,358.64,47,356.78,25,356.37,20.17,354,7,357.67,3.1Z"/><path class="cls-5" d="M77,250.13h1.82v.08Z"/><polyline class="cls-6" points="365.22 262.63 365.22 262.63 328.02 262.63 327.84 262.63 133.6 262.63 132.35 262.63 89.22 262.63 89.22 262.63 89.22 262.63"/><polyline class="cls-6" points="348.72 272.58 347.72 272.58 308.28 272.58 307.56 272.58 140.16 272.58 139.48 272.58 100.04 272.58 99.82 272.58"/><path class="cls-6" d="M107.22,350.63c-1.89-6.32-15-168-101-202-.78-.27-1.57-.53-2.37-.77a.23.23,0,0,0-.11,0l-1.2-.37c.4-.31.8-.62,1.2-.91a.31.31,0,0,1,.11-.09c9.84-7.46,20.67-13.5,31.23-20a198.41,198.41,0,0,0,18.28-12.35c13.49-10.49,30.77-34.46,38.88-49.48,0,0,10.08-18.83,7-61.91"/><path class="cls-6" d="M44.22,173.81c11.15-.05,41.82-.1,53-.15L110,173.6c55.91-.26,246.29-.51,302.2-.77"/><path class="cls-6" d="M33.72,164.81c11.76-.05,44.09-.1,55.85-.15l13.52-.06c58.95-.26,252.18-.72,311.13-1"/><path class="cls-7" d="M105.49,232.39l1.75,2.06a9.32,9.32,0,0,0,1.53-5.54l2.24,4.75c.69,1.46,1.68,3.13,3.29,3.2a3,3,0,0,0,2.64-1.7,9,9,0,0,0,.83-3.2l1.63,2.26a15.28,15.28,0,0,0,5.37-4.12l-.88,2.66a1.68,1.68,0,0,0,0,1.37,1.4,1.4,0,0,0,.88.54c3.72,1,8-1.93,11.36,0,.82.48,1.48,1.21,2.31,1.66,2.53,1.36,5.86-.19,8.45,1.05a8.11,8.11,0,0,1,1.71,1.2L158.72,247a106.61,106.61,0,0,1-20.87,5.43,5.78,5.78,0,0,0,1-4.11,5.4,5.4,0,0,1-2.62.92,12.51,12.51,0,0,0,1.58-6.24,25.26,25.26,0,0,1-1.69,2.44c-.22.27-.5.57-.84.54a1.13,1.13,0,0,1-.66-.44l-3.33-3.67-.75,6.64a2.66,2.66,0,0,1-3.42,3l-9-.58c-4.34-.28-4.94-6.19-8.95-7.6-2.31-.82-7.79-2.51-5.53-6.29a8.9,8.9,0,0,0,2.18,1.59C105.93,237.51,106.2,233.22,105.49,232.39Z"/><path class="cls-7" d="M124.69,238.06a6,6,0,0,1,3.49,5"/><path class="cls-7" d="M129.54,237.16a3.14,3.14,0,0,1,1.44,1.92"/><path class="cls-7" d="M133.13,237.47a5.42,5.42,0,0,1,1.72,4.41"/><path class="cls-7" d="M131.39,225.61l-1.88.67c-.18.07-.41.19-.4.39s.22.31.41.38a6.39,6.39,0,0,1,3.23,2.81,4.75,4.75,0,0,1,2.24-.6,1.47,1.47,0,0,1-.1-1.51,8.06,8.06,0,0,1,1,0,.92.92,0,0,0,.82-.45,1.2,1.2,0,0,0-.24-1.07l-1-1.6a1,1,0,0,0-.3-.35.87.87,0,0,0-.48-.1,5.33,5.33,0,0,0-3.33,1.18,7.47,7.47,0,0,1-1,.78,1.29,1.29,0,0,1-1.22.08"/><path class="cls-7" d="M86.92,225.4a3.24,3.24,0,0,1,1.1,1,3.29,3.29,0,0,1,.32,1.59c0,1,0,2.09,0,3.13l10.25-5.34a15,15,0,0,1,3.55-1.47c1.11-.26,2.35-.29,3.23-1a37.89,37.89,0,0,1-7.13-.71,10.63,10.63,0,0,0,4.71-2.73l-5.78-.29c-1.17-.06-2.6-.28-3-1.38a2.62,2.62,0,0,0,1.34-1.07,45,45,0,0,1-4.81,2.41,4.18,4.18,0,0,1,1-3.06c-3.59,2.69-7.45,4.06-11.67,5.37-.12.83,2.46,1.25,3.13,1.53A24,24,0,0,1,86.92,225.4Z"/><path class="cls-7" d="M92.85,220.08l-3.24,2"/><path class="cls-7" d="M92.64,223.27a3,3,0,0,1,1-.58"/><path class="cls-8" d="M149.21,213.87c1.68,0,3-1.35,4.43-2.23,3.61-2.22,8.17-1.78,12.37-1.27l8.33,1c2,.23,4,.46,5.84-.28s3.29-2.78,2.67-4.65c-.52-1.57-2.28-2.42-3.93-2.53a31.62,31.62,0,0,0-4.93.46,29.63,29.63,0,0,1-7.2-.57,16.92,16.92,0,0,0-6.57-.16c-2.4.56-4.42,2.1-6.59,3.26a11.21,11.21,0,0,1-4.46,1.41c-.91.07-1.9-.2-2.61.51C144.63,210.74,146.94,213.94,149.21,213.87Z"/><path class="cls-5" d="M83.78,163.93c-1.28-.82-2.55-2-2.6-3.51,0-.92-1.94-3.51-1.46-4.29,4.48-7.27,12,1,21-16,3.18-6,.18-16.6-5-21s-14.64-4.41-21.18-2.53a28.33,28.33,0,0,0-15.72,12.3,34.78,34.78,0,0,0-2.49,31.91c2.37,5.45,4.69,11.66,8.39,16.32,1.35,1.7,4.16,2,6,3.07,1.52.92,3.47.9,5,1.8,7,4.13,13.7,3.49,20.55,5.23a7.88,7.88,0,0,1,3.06,1.26,8,8,0,0,1,1.89,2.74l4.65,9.3a4.22,4.22,0,0,1,.65,2.46c-.12.77-.67,1.44-.76,2.22-.2,1.68,1.66,2.8,3.23,3.45,4.16,1.73,8.47,3.5,13,3.47s9.32-2.31,10.93-6.53c.68-1.79.74-3.79,1.58-5.52s3-3.12,4.64-2.2c-1,.37-.4,2.18.7,2.32s1.91,1.48,2.88.93A18.9,18.9,0,0,1,156.05,199c2.67-.82,3.67-2.82,1.94-6.14,3-.91,7.33-1.08,8,1.95.22,1-.13,2.16.29,3.13.83,1.92,3.62,1.53,5.63.93a56,56,0,0,1,11.63-2.17,43.18,43.18,0,0,1,14,1c5.1,1.29,9.83,3.71,14.86,5.23s10.69,2.08,15.37-.29a7.51,7.51,0,0,0,4.09-4.41c.55-2,1.9-5.54-.1-6.06-1.83-.48-7,1.28-7.35-.59a6.92,6.92,0,0,1,2-2.3c-7.62-11.11-8.62-1.11-8.62-.11,0,.75-3.26-4.86-4-5a5.15,5.15,0,0,0-4.76,1.05c-1.71,1.21-1.57,4.6.51,4.81-4.75-.86-14.14-6.09-19.31-12-2.85-3.25-5.83-6.79-6.28-11.09-.3-2.79.53-5.56,1.4-8.23,1.64-5.06,3.5-10.11,4-15.4s1.88-11.11-1.58-15.14c-.63-.73-3.28-2.08-3-3s1.06-.64,2.07-.75c1.9-.21,6,1,7.93.75-4.15-10.1-14.29-19.89-25-22-5.37-1.06-12.54-2.4-18-2-7.57.55-15.2,3.67-22.05,6.94-.7.33-4.82.29-4.95,1.06-.09.54,3.52,1.56,3.77,2.05l2.85,5.42c-9.07,4.38-16.23,12.08-21.45,20.7A110.82,110.82,0,0,0,99.3,161.42c-.84,2.69-1,4.73-4.11,5.23A17.3,17.3,0,0,1,83.78,163.93Z"/><path class="cls-7" d="M157.56,193.49c1.91.55,2.31,3.43,1,4.89s-3.67,1.63-5.55,1a20.73,20.73,0,0,1-5.07-3.1,6.79,6.79,0,0,1-5,4.83,4,4,0,0,1-3.11-.4,2.31,2.31,0,0,1-.9-2.82c-2,.65-4.7,1.1-5.9-.66s.21-4.06,2.08-4.78,3.95-.25,5.89.21a53.9,53.9,0,0,1-14.76-40.56"/><path class="cls-7" d="M126.66,107.89c8-3.18,16.42-5.79,24.94-6.69a54.11,54.11,0,0,1,13.75.22c13.08,2,25.83,10.57,29.48,23.29a25.05,25.05,0,0,0-10.38-.22c4.91,3.14,6.58,9.71,6,15.51s-3,11.25-4.54,16.89-2,12,1,17c2.1,3.55,18.65,16.47,22.7,17.68-.67.14-2.36-6-1.94-6.51a5.35,5.35,0,0,1,9.48,4.26c.41-2,1.21-4.36,3.18-5s4.23.79,5.11,2.72.75,4.15.61,6.27c.53-2,3.45-2.71,5.12-1.45a4.94,4.94,0,0,1,1.23,5.71A9.68,9.68,0,0,1,228,202a19.33,19.33,0,0,1-20.34-.9c-1.08-.76-2.09-1.63-3.22-2.32-1.73-1.05-10.81-3.36-12.76-3.92"/><path class="cls-7" d="M149.54,157.81c-.08,10.62,4.16,25.54,8.11,35.4"/><path class="cls-7" d="M128.87,209.41A6.61,6.61,0,0,0,132,206.5a4.13,4.13,0,0,0-6.32-5,5.52,5.52,0,0,0,.55-5.31,4.51,4.51,0,0,0-4.52-2.58,3.81,3.81,0,0,0-3.25,3.87,10.52,10.52,0,0,0-3.42-2.74,4.67,4.67,0,0,0-4.26.09,3,3,0,0,0-1.22,3.83,4.65,4.65,0,0,0,1.24,1.34,43.36,43.36,0,0,0,4,3,6.93,6.93,0,0,0-8.92,1,1.52,1.52,0,0,0-.51,1.12,1.72,1.72,0,0,0,.69,1C111.81,210.93,122.07,212.87,128.87,209.41Z"/><path class="cls-7" d="M106.29,199.44a23.42,23.42,0,0,1-7-11.88c-9.33.82-18.51-2.61-26.86-6.84a37.35,37.35,0,0,1-6.89-4.23c-7-5.71-9.69-15.1-11.18-24-1-5.92-1.6-12.15.39-17.83,1.73-5,5.31-9.07,9.18-12.64,3-2.78,6.37-5.38,10.3-6.58a25.49,25.49,0,0,1,8.88-.8,25.55,25.55,0,0,1,8.36,1.63c7.19,2.94,11.68,11.13,10.74,18.83s-6.95,14.43-14.39,16.67a32.26,32.26,0,0,0-5.11,1.61,5.55,5.55,0,0,0-3.3,4c-.24,1.83.85,3.58,2.14,4.91a15.61,15.61,0,0,0,14.65,4.21"/><path class="cls-7" d="M125.43,108.25a34.64,34.64,0,0,0,8.25,10.27c-2.61-1-5.65-.3-8,1.22a25.94,25.94,0,0,0-5.9,5.93c-6,7.56-11.87,15.34-16,24.07s-6.44,18.56-5,28.11"/><path class="cls-7" d="M162.32,157.36a96.12,96.12,0,0,0,5.38,35.38c-2,.5-2.82,3.2-1.78,4.94a4.72,4.72,0,0,0,5.36,1.8,7.63,7.63,0,0,0,4.34-4,4.53,4.53,0,0,0,8.68-.78,3.49,3.49,0,0,0,6.85-.49c.28-2.77-2.68-4.76-5.39-5.38a16.62,16.62,0,0,0-7.65.07c.93-11.88,6.77-28.07,10.35-39.44"/><path class="cls-7" d="M157.37,192.29l9.73-.28"/><path class="cls-7" d="M132.65,197.58A11.73,11.73,0,0,1,132,207"/><path class="cls-7" d="M159.2,127.78a71.13,71.13,0,0,0-3.08,9.78"/><ellipse class="cls-9" cx="144.29" cy="128.65" rx="4.63" ry="2.78" transform="translate(-44.59 169.79) rotate(-54.01)"/><ellipse class="cls-9" cx="170.24" cy="131.89" rx="2.78" ry="4.63" transform="translate(-14.41 21.07) rotate(-6.8)"/><circle class="cls-7" cx="219.26" cy="196.45" r="3.24"/><path class="cls-7" d="M116.18,209.87a2.58,2.58,0,0,1,.64-3.11,4.75,4.75,0,0,1,3.21-1,5.19,5.19,0,0,1,3.39,1.14,3,3,0,0,1,.87,3.3"/><path class="cls-7" d="M149.12,139.39a10.56,10.56,0,0,1,5.48-1.1,6,6,0,0,1,4.65,2.81"/><path class="cls-8" d="M138.19,134.57a3.44,3.44,0,0,0-1.45,1.35,1.81,1.81,0,0,0,.09,1.89,1.46,1.46,0,0,0,1.87.33,1.07,1.07,0,0,0,.42-.45,1.84,1.84,0,0,0,0-1.16,3.17,3.17,0,0,0-1.18-2.11"/><path class="cls-8" d="M149.55,202.67a3.41,3.41,0,0,0-1.46,1.35,1.81,1.81,0,0,0,.09,1.89,1.46,1.46,0,0,0,1.87.33,1.07,1.07,0,0,0,.42-.45,1.84,1.84,0,0,0,0-1.16,3.17,3.17,0,0,0-1.18-2.11"/><path class="cls-8" d="M172.25,163.76a3.44,3.44,0,0,0-1.46,1.34,1.83,1.83,0,0,0,.09,1.9,1.47,1.47,0,0,0,1.87.32,1.07,1.07,0,0,0,.42-.45,1.81,1.81,0,0,0,0-1.15,3.14,3.14,0,0,0-1.18-2.11"/><path class="cls-8" d="M147.92,178.35a3.42,3.42,0,0,0-1.45,1.34,1.8,1.8,0,0,0,.09,1.9,1.47,1.47,0,0,0,1.87.33,1.13,1.13,0,0,0,.42-.45,1.84,1.84,0,0,0,0-1.16,3.17,3.17,0,0,0-1.18-2.11"/><path class="cls-8" d="M171.66,135.39c.74-.38.85-.67,1.15-1.42a.33.33,0,0,1,.1-.15.27.27,0,0,1,.3,0,1.05,1.05,0,0,1,.37.69,7.53,7.53,0,0,0,.45,1.26,11.45,11.45,0,0,1,.31,1.75c0,.33,0,.79-.33.85a.57.57,0,0,1-.34-.07,6.66,6.66,0,0,1-1.09-.91c-.38-.28-1-.4-1.29,0-.08.11-.13.23-.21.34-.29.37-.87.29-1.32.15s-1-.24-1.34.1-.24.56-.46.76a.73.73,0,0,1-1.1-.4c-.23-.72.5-1.35.55-2.06a8.34,8.34,0,0,1,0-1c.07-.33.37-.66.7-.57s.46.51.73.7a2.92,2.92,0,0,0,1.26.37A3.51,3.51,0,0,0,171.66,135.39Z"/><path class="cls-8" d="M144.45,132a.6.6,0,0,1,.35,0,.35.35,0,0,1,.21.15c.15.25-.08.56-.32.72-.67.47-.41.82-.64,1.54a.89.89,0,0,1-.29.46c-.35.22-.8-.11-1-.47s-.41-.8-.81-.91-.92.22-1.33,0c-.23-.11-.35-.35-.53-.53a1.11,1.11,0,0,0-1.27-.17,3.32,3.32,0,0,0-.73.72,1.12,1.12,0,0,1-.89.44.86.86,0,0,1-.68-.77,2.15,2.15,0,0,1,1.28-1.93l.37-.16c.57-.26,1-.78,1.54-1.07a.64.64,0,0,1,.55-.07c.38.17.35.76.56,1.06a2.52,2.52,0,0,0,.78.63A3.59,3.59,0,0,0,144.45,132Z"/><path class="cls-7" d="M169.2,121.85a5.56,5.56,0,0,1,2.91,1,8.42,8.42,0,0,1,1.41,1.26A8.19,8.19,0,0,1,176,129"/><path class="cls-7" d="M138.77,123.82a5.66,5.66,0,0,1,2.06-2.28,8.38,8.38,0,0,1,1.73-.77,8.18,8.18,0,0,1,5.45-.26"/><path class="cls-3" d="M115.06,349.11A217.78,217.78,0,0,1,117.92,296c.6-3.39,1.37-6.93,3.65-9.5,2.45-2.74,6.27-3.89,9.94-4.11s7.56.52,9.92,3.25c1.71,2,2.29,4.71,2.63,7.32.84,6.53.59,13.15.33,19.74-.45,11.47-1.72,26.46-2.17,37.93"/><path class="cls-3" d="M152.91,349.14c-2.57-13,1.17-26.22,3.84-39.16,1-5,1.91-10,4-14.57s5.66-8.77,10.43-10.42,10.8-.11,13.29,4.28c1.34,2.35,1.55,5.15,1.69,7.85.81,16.49-1,37.26-4,53.51"/><path class="cls-3" d="M199.22,350.63c.22-8.91.18-22.63.4-31.54.14-5.86.29-11.8,1.91-17.43s4.9-11,10-14,12.1-2.84,16.37,1.18c4.6,4.32,4.86,11.43,4.7,17.74-.32,12.41-1.27,30.65-2.36,43"/><path class="cls-3" d="M243.22,349.63c-.43-10.39-.06-26.63.5-37,.31-5.78.8-11.65,2.89-17.05s6-10.34,11.41-12.4,12.33-.55,15.46,4.32c1.84,2.85,2.21,6.37,2.48,9.75a312.85,312.85,0,0,1-.74,52.39"/><path class="cls-3" d="M289.22,349.63c-1.35-12.62,1.9-27.1,5.08-39.38,1.53-5.88,3.15-11.85,6.4-17s8.41-9.4,14.44-10.09a7.47,7.47,0,0,1,3.67.34c2.18.88,3.43,3.17,4.13,5.41,1.63,5.12,1.28,10.64.92,16-1,14.28-1.68,31.41-2.64,45.69"/><path class="cls-3" d="M218.09,163.82c.13-.19,14.13-.19,14.13-.19s-6.31-161.38-4-162c.31-.3-15,0-14.78.09C210.7,22.53,218.75,147.55,218.09,163.82Z"/><path class="cls-10" d="M257.05,243a4.8,4.8,0,0,0-.85,4.86,15.69,15.69,0,0,0,1.92,4.18,1.5,1.5,0,0,0,.49.54,1.53,1.53,0,0,0,.87.13,80.73,80.73,0,0,0,14.62-2.37c.21-.91-.54-1.73-1.22-2.36a10.46,10.46,0,0,0-2.29-1.75c-1.55-.78-3.56-.86-4.6-2.25-1.16-1.56-.37-3.75-.47-5.69,0-.76-.31-2.78-1.19-3.1s-1.81,1.58-2.33,2.17A58.92,58.92,0,0,0,257.05,243Z"/><path class="cls-10" d="M241.51,217.48a8.46,8.46,0,0,1,.24,5.57c-.64,1.88-2.15,3.4-2.62,5.33a107.78,107.78,0,0,0,20-.38,2.62,2.62,0,0,0,3-3.07l.12-3.79a5.65,5.65,0,0,0-.28-2.39c-.72-1.68-2.78-2.22-4.58-2.56l-9.1-1.69c-2.87-.54-6-1.57-9-1.61C239.39,214.26,241,216.06,241.51,217.48Z"/><path class="cls-7" d="M227.82,226.68c-2.11,1.69-7,.42-9.68.22l3.62-3.24c-1.73-1.8-4.64-1.45-7.08-1l-6.17,1.23c-.58.11-1.16,1-.57,1a2,2,0,0,1,2.57,1.1,2.14,2.14,0,0,1-1.1,2.62c-1,.44-2.19.08-3.24.36a2.78,2.78,0,0,0-1.75,3.59q-9-.19-18,.39a6.31,6.31,0,0,0-3.87,1.14,3.49,3.49,0,0,1,1.41,1.63L173.18,237c-3,.33-6.18.76-8.29,2.87,3,2.54,7.67,1.45,11,3.42,1.3.76,2.32,2,3.64,2.66a10.38,10.38,0,0,0,4.41,1c8,.4,16.27-1.95,23.77.78,1.66.6,3.24,1.45,5,1.91a21.73,21.73,0,0,0,5.92.49,144.5,144.5,0,0,0,23.47-2.35c.39-.37.12-1.05-.27-1.42s-.91-.65-1.09-1.16c-.31-.89.6-1.75.61-2.69,0-1.11-1.17-1.83-2.24-2.12s-2.3-.45-3-1.33c-.55-.7-.6-1.68-1.09-2.42-.79-1.17-2.39-1.37-3.75-1.75s-3.19-4.58,4.5-5.45"/><path class="cls-7" d="M215,229.84c0,1.21,1.42,1.84,2.6,2.15l3.47.95c.18.23,0,.6-.25.74a1.82,1.82,0,0,1-.87.1,10,10,0,0,0-4.76,1,1.23,1.23,0,0,0-.57.46c-.33.6.37,1.23,1,1.56l4.71,2.59"/><path class="cls-7" d="M234.07,245.09a15.28,15.28,0,0,1-10.66.25"/><path class="cls-7" d="M179.09,240.32c0,.41.4.71.76.92,4.71,2.81,10.58,2.4,16,1.91"/><path class="cls-7" d="M203.19,243.26A17.42,17.42,0,0,1,214,244.81"/><path class="cls-7" d="M230.38,214c1.35-1.47,3.17-2.72,5.17-2.62a5.84,5.84,0,0,1,4.77,3.71,13.88,13.88,0,0,1,.75,6.28c-.16,2.58-.74,5.47-2.9,6.88-1.77,1.15-4,1-6.13.66a9.24,9.24,0,0,1-3.36-1C224.13,225.31,227.79,216.82,230.38,214Z"/><path class="cls-7" d="M236,211l25.88,6"/><path class="cls-7" d="M233.87,229.32c8.85-.08,17.7-.61,26.5-1.57"/><path class="cls-7" d="M262.72,216.63a72.14,72.14,0,0,1-.29,11"/><path class="cls-7" d="M233.63,220.47c-9.95-2.24-14.58-3.66-24.76-4.34"/><path class="cls-7" d="M254.93,245.61c1.12,2.17,2.33,4.3,3.62,6.37a1.65,1.65,0,0,0,.52.59c.26.14,12.54-2.3,16.84-2.61-1.28-1.09-2.56-2.18-3.8-3.32-.24-.23-.65-.81-1-.92s-.49,0-.82.07a4.34,4.34,0,0,1-2-.24,5.51,5.51,0,0,1-2.79-1.88,4.09,4.09,0,0,1-.74-2.47c0-1,.58-1.56.84-2.44.19-.64-.36-1.8-.55-2.5a5.52,5.52,0,0,0-.92-2.22C261.77,236.9,256.93,242.43,254.93,245.61Z"/><path class="cls-7" d="M264.35,233.14a17.18,17.18,0,0,1,11.24,16.36"/><path class="cls-7" d="M268,241.29l3.78-6.81"/><path class="cls-7" d="M270.46,242.23a23,23,0,0,0,6.3-1.35"/><path class="cls-7" d="M280.31,247.15a32.49,32.49,0,0,1,6.87,2.9"/><path class="cls-11" d="M259.78,244.25a5.66,5.66,0,0,1,1.82-.36c.54,0,1.2.14,1.37.65a1.13,1.13,0,0,1-.61,1.2c-.42.25-.91.34-1.33.58a5.16,5.16,0,0,1,2-.5,1.74,1.74,0,0,1,1.63,1,1.57,1.57,0,0,1-.27,1.46,2.55,2.55,0,0,1-1.29.81"/><path class="cls-11" d="M250.16,225.34a5.31,5.31,0,0,1-1.78-.53c-.48-.24-1-.68-.9-1.21a1.1,1.1,0,0,1,1.1-.77c.48,0,1,.11,1.44.1a5.08,5.08,0,0,1-2-.47,1.74,1.74,0,0,1-1-1.63,1.55,1.55,0,0,1,.93-1.16,2.51,2.51,0,0,1,1.51-.12"/><path class="cls-6" d="M374.72,179.13c2.09-.22,15.77-2.86,18,2,.87,1.91-1.93,4.14-2,6.24a5.26,5.26,0,0,1-3.5,4.76c-2.6.79-5.36-.14-8.08-.11-8.42.11-14.62,6-15.42,8.11"/><path class="cls-7" d="M342.76,206.1c3.82,2.13,8.72,1.1,12.73,2.85,5.2-2.31,10.75-5.18,16.12-7.42a.26.26,0,0,0-.11-.5,42.82,42.82,0,0,1-7.3-.65c-2.15-.37-4.46-1.09-6.66-1C352.52,199.69,347.11,203.87,342.76,206.1Z"/><path class="cls-7" d="M342.31,206.37l.41,5a1.23,1.23,0,0,0,.2.68,1.2,1.2,0,0,0,.74.32l10.89,2c5.68-3.45,11.81-6.09,17.83-8.91a.86.86,0,0,0,.46-.35.94.94,0,0,0,0-.62l-.7-3.44"/><path class="cls-7" d="M351,202.09a72.67,72.67,0,0,1,11.57,2.57"/><path class="cls-7" d="M362.72,200.13a16.73,16.73,0,0,1-4.61,2.59"/><path class="cls-3" d="M300,174.75c-.11,4.51.26,9.92,4.18,12.16a12.83,12.83,0,0,0,5.61,1.2c19,1.09,38.3,2.16,57-1.54,2.65-.52,5.62-1.4,6.81-3.83a9,9,0,0,0,.65-4q.18-15,.34-29.9c.11-9.59.22-19.24-1.36-28.7a5.18,5.18,0,0,0-3.68-4.69c-3.2-1.63-6.48-3.09-9.76-4.56a45.67,45.67,0,0,0-9-3.27c-4.27-.89-8.7-.53-13-.08q-9.79,1-19.54,2.62c-4.15.68-12.73.67-15.57,4.37-2.72,3.55-1.28,11.9-1.41,16.11q-.33,10.38-.62,20.74Q300.31,163.07,300,174.75Z"/><path class="cls-6" d="M354,110.29l-2.63,61c-.1,2.16-.34,4.63-2.09,5.9a7.29,7.29,0,0,1-4.08,1,345.67,345.67,0,0,1-45-1.46"/><path class="cls-6" d="M307.45,148.4a4.14,4.14,0,0,0,.59,2.36c.7.92,2,1.07,3.16,1.13a244.11,244.11,0,0,0,28.37-.09,8.11,8.11,0,0,0,3.48-.76c2.36-1.33,2.79-4.5,2.88-7.21.18-5.64.09-11.29-.27-16.92-.21-3.18-.69-6.72-3.2-8.67-2-1.58-4.81-1.65-7.38-1.58-7.18.18-20.27-.75-25.73,5.17S307.18,141.23,307.45,148.4Z"/><path class="cls-6" d="M343.79,160.72a.91.91,0,0,1,.63.18,1,1,0,0,1,.19.77l-.28,5.09a1.57,1.57,0,0,1-2,1.69,66.75,66.75,0,0,1-7.87-.46,1.39,1.39,0,0,0-.76-1.82,4.21,4.21,0,0,0-2.18-.2,58,58,0,0,1-10.46-.11,1.85,1.85,0,0,1,1-2.24,5.35,5.35,0,0,1,2.64-.36l6.68.21c3.27.11,2-1.73,3.78-2.82S341.7,160.62,343.79,160.72Z"/><path class="cls-6" d="M352.11,170c2.11,0,4.7.35,5.48,2.31a5.49,5.49,0,0,1,.23,2.18L357.34,188"/><path class="cls-6" d="M311,127q8.37.54,16.75.66"/><path class="cls-6" d="M332.72,127l5-.06"/><path class="cls-6" d="M312,134.77l10.4.55a19.21,19.21,0,0,0,4.61-.13"/><path class="cls-6" d="M332.22,134.65a62.81,62.81,0,0,1,7.26.09"/><path class="cls-6" d="M311.72,144.13H318"/><path class="cls-6" d="M323.22,144.36a125.1,125.1,0,0,1,17-.14"/><path class="cls-3" d="M257.18,187.58c-2.1.79-4.3,1.59-5.86,3.2s-2.23,4.35-.86,6.12l57.81,4.51c3.17.24,6.46.47,9.44-.64a28.44,28.44,0,0,0,6.11-3.77A48,48,0,0,1,337,190.5l-1.13-6.39-42.13-4.24c-6.23-.63-14.32-2.27-20.36.08C267.89,182.1,262.79,185.46,257.18,187.58Z"/><path class="cls-3" d="M252.3,192.14l54.18,4.23a23.06,23.06,0,0,0,5.87-.05,22.58,22.58,0,0,0,7.38-3.31l12-7.2"/><path class="cls-6" d="M276.94,182.48a35.17,35.17,0,0,0,6,1.16"/><path class="cls-6" d="M288.73,183.84h4.86"/><path class="cls-6" d="M299.34,185.4a16,16,0,0,0,5.48.87"/><path class="cls-6" d="M310.58,186.92l4.26.55"/><path class="cls-6" d="M304.82,190.22l3.31,1"/><path class="cls-6" d="M292.67,189.33a8.6,8.6,0,0,0,3.95.58"/><path class="cls-6" d="M279.32,188.76l4.26.49"/><path class="cls-6" d="M266.88,188.08l4.85.68"/><path class="cls-6" d="M132.76,6.67a37.6,37.6,0,0,0-5.53,7"/><path class="cls-6" d="M116.19,29.09a22.29,22.29,0,0,0-6,6.54"/><path class="cls-6" d="M152.22,10.13a35.6,35.6,0,0,1-9,9"/><path class="cls-6" d="M151.81,32.26a64.93,64.93,0,0,0-10.48,9.47"/><path class="cls-6" d="M199.37,15.26l-8.1,8.91"/><path class="cls-6" d="M174.34,79.21a55.08,55.08,0,0,1-6.68,7.86"/><path class="cls-6" d="M129.75,84.65l-6.56,9.46"/><path class="cls-6" d="M87.82,94.74l-7.53,6.47"/><path class="cls-6" d="M261.4,12.73a107.68,107.68,0,0,1-6.21,9.88"/><path class="cls-6" d="M295.75,27.14a70.13,70.13,0,0,1-5.35,12.59"/><path class="cls-6" d="M328.86,11.21l-5.65,10.41"/><path class="cls-6" d="M253.25,83.15a66.31,66.31,0,0,0-4.55,8.47"/><path class="cls-6" d="M253.35,119.19a80.14,80.14,0,0,0-3.73,10.41"/><path class="cls-6" d="M276.07,135.89a53.25,53.25,0,0,0-6.6,11.63"/><path class="cls-6" d="M291.69,82.11l-5,12"/><path class="cls-6" d="M338.87,77.17,335.2,89.62"/><path class="cls-6" d="M366.63,89.12a25.55,25.55,0,0,1-3.38,9.53"/><path class="cls-6" d="M390.42,119.21a35.25,35.25,0,0,0-2.76,10.91"/><path class="cls-6" d="M408.89,137.66l-2.3,11.94"/><path class="cls-6" d="M198.18,152.6l5.42-7.06"/><path class="cls-6" d="M198.62,95.59a24,24,0,0,1,4.59-7"/><path class="cls-6" d="M30.62,141.92a50.37,50.37,0,0,0,8.29-5"/><rect class="cls-6" x="2.22" y="1.63" width="452" height="349" rx="12.23" ry="12.23"/><path class="cls-6" d="M356.72,2.52a138.46,138.46,0,0,0,20.44,84.61,101,101,0,0,0,15.29,19.26c7.83,7.56,17.1,13.44,26.3,19.26l32.94,20.83c-24.07,3-39.47,26.15-53.49,45.36C365.28,237,356.63,294,351.22,349.63"/><path class="cls-2" d="M295.79,232.32c-1.44-.84-1.37-2.23.15-3.11l20.11-11.61,39.46,22.79L335.4,252a5.92,5.92,0,0,1-5.37.08Z"/><path class="cls-9" d="M354.34,240.41l-19.51,11.26a4.64,4.64,0,0,1-4.2.07L296.39,232c-1.12-.65-1.07-1.74.12-2.43L316,218.28l38.33,22.13m2.34,0-40.6-23.44-20.71,11.95c-1.86,1.08-1.94,2.77-.18,3.78l34.24,19.77a7.22,7.22,0,0,0,6.54-.1l20.71-12Z"/><text class="cls-12" transform="matrix(1.01, 0.58, -0.87, 0.5, 303.98, 228.87)">2019</text><path class="cls-9" d="M361,237.09a1.74,1.74,0,0,0-1-1.48l-1.52-.87a1,1,0,0,0-1.19.19,3.36,3.36,0,0,1-.78.61,6.69,6.69,0,0,1-6,0c-1.67-1-1.68-2.53,0-3.49a5.68,5.68,0,0,1,2.19-.67l-1.51-.88-1.31-.75a1,1,0,0,0-1.19.19,3.36,3.36,0,0,1-.78.61,6.69,6.69,0,0,1-6,0c-1.67-1-1.68-2.53,0-3.49a5.68,5.68,0,0,1,2.19-.67l-3.69-2.13a1,1,0,0,0-1.19.19,3.29,3.29,0,0,1-.77.61,6.71,6.71,0,0,1-6.05,0c-1.67-1-1.68-2.53,0-3.49a5.68,5.68,0,0,1,2.19-.67l-1.24-.72-1.58-.91a1,1,0,0,0-1.19.19,3.29,3.29,0,0,1-.77.61,6.71,6.71,0,0,1-6.05,0c-1.67-1-1.68-2.53,0-3.49a5.68,5.68,0,0,1,2.19-.67l-1.13-.66-.32-.18a5,5,0,0,0-2.57-.58,5.47,5.47,0,0,0-2.62.66l-3.1,1.79,40.7,23.5,3.1-1.79A2,2,0,0,0,361,237.09Z"/></g></g></svg>