<svg xmlns="http://www.w3.org/2000/svg" viewBox="0 0 455.5 352"><defs><style>.cls-1,.cls-5{fill:#edc914;}.cls-2,.cls-3{fill:#efeff9;}.cls-10,.cls-11,.cls-12,.cls-13,.cls-14,.cls-2,.cls-4,.cls-5,.cls-6,.cls-9{stroke:#414242;}.cls-12,.cls-2,.cls-4,.cls-5,.cls-6,.cls-9{stroke-linecap:round;}.cls-11,.cls-12,.cls-13,.cls-2,.cls-4,.cls-5,.cls-6,.cls-9{stroke-linejoin:round;}.cls-2,.cls-4,.cls-5,.cls-6{stroke-width:3px;}.cls-4,.cls-9{fill:none;}.cls-10,.cls-12,.cls-13,.cls-6,.cls-8{fill:#8888e5;}.cls-14,.cls-7{fill:#414242;}.cls-9{stroke-width:2px;}.cls-10,.cls-14{stroke-miterlimit:10;}.cls-11{fill:#6e6ecc;}.cls-15{fill:#8686e0;}</style></defs><title>3 illustration</title><g id="Layer_2" data-name="Layer 2"><g id="Layer_1-2" data-name="Layer 1"><path class="cls-1" d="M455,13.73V251H3V13.73A12.24,12.24,0,0,1,15.23,1.5H442.77A12.24,12.24,0,0,1,455,13.73Z"/><rect class="cls-2" x="320.5" y="44.11" width="85.24" height="95.89" rx="10.79" ry="10.79"/><path class="cls-3" d="M452,247v91.24a12.24,12.24,0,0,1-12.23,12.23H12.23A12.24,12.24,0,0,1,0,338.27V247Z"/><path class="cls-4" d="M49.27,78.55c18.55,1.93,157.55.65,186.92-.64"/><path class="cls-5" d="M57.43,78c1.65-9.81-.78-19.82-.82-29.77a.9.9,0,0,1,.11-.54.84.84,0,0,1,.53-.26,27.36,27.36,0,0,1,7.33-.71c1,8.77.48,17.61,0,26.41l-.28,5.25"/><path class="cls-4" d="M65.5,50.72c2.52-.11,5-.18,7.56-.23a25.31,25.31,0,0,0-.43,6.27L72.93,78"/><path class="cls-4" d="M73.5,56.68A33.44,33.44,0,0,0,81.1,56q1.25,11.3,1.75,22.66"/><path class="cls-6" d="M83.46,78.5C82.8,72.42,80.65,45.8,81,39.69A88.92,88.92,0,0,0,93.64,39l-2.71.69a5.46,5.46,0,0,0,2.44-.26l3,39.29"/><path class="cls-5" d="M194.05,21a2.89,2.89,0,0,0-2.57,1.1,2,2,0,0,0,.28,2.64,4.48,4.48,0,0,0-5.41,4.05,3,3,0,0,0,.86,2.3,1.94,1.94,0,0,0,2.33.26c-.56,1.26-1.14,2.7-.64,4A3,3,0,0,0,192.49,37a3.83,3.83,0,0,0,2.58-3.18,3.27,3.27,0,1,0,6.06-2.45A3.15,3.15,0,0,0,205,30.13a3.62,3.62,0,0,0-.47-4.14,4.24,4.24,0,0,0-4.07-1.21,2.36,2.36,0,0,0-.9-3.19,4.58,4.58,0,0,0-3.6-.23"/><path class="cls-4" d="M95.16,50.57a66.21,66.21,0,0,1,9.55-.18A185,185,0,0,1,106,78.33"/><path class="cls-4" d="M183.17,52.91a26.92,26.92,0,0,1,5.19-8.6,28.07,28.07,0,0,0,2.71-3.16,9.34,9.34,0,0,0,1.45-3.78"/><circle class="cls-7" cx="195.5" cy="28" r="2"/><path class="cls-5" d="M110.25,53.73a1.83,1.83,0,0,1,3,.12c7.23,6.34,13.62,13.51,20.53,20-1,1.33-3.89,5.16-5.76,5.14s-5.09-3.9-6.55-5.15L107.71,62.11C103.25,58.28,107,56.5,110.25,53.73Z"/><path class="cls-6" d="M177.1,46.44l6,9.24c-3-1.91-7.3-.64-9.65,2.06s-3.13,6.43-3.3,10,.2,7.18-.24,10.74L200.4,78a83.9,83.9,0,0,0-.56-17.28,11,11,0,0,0-1.91-5.58c-1.27-1.54-3.69-2.3-5.3-1.13a38.92,38.92,0,0,1,5.45-8.44c-6.83.09-15.25-.16-22.08-.07"/><line class="cls-4" x1="2" y1="248.5" x2="454" y2="248.5"/><rect class="cls-4" x="2" y="1.5" width="452" height="349" rx="12.23" ry="12.23"/><path class="cls-2" d="M174.6,301.44a.85.85,0,0,0,1.58-.63c-9.45-26.49-30.36-80.43-30.36-80.43a3.12,3.12,0,0,0-4.17-1.76l-.06,0a3.44,3.44,0,0,0-1.67,4.41Z"/><path class="cls-2" d="M98.87,306.5a.65.65,0,0,1-1.29-.22l11.08-90.56A3.15,3.15,0,0,1,112.3,213h.06a3.39,3.39,0,0,1,2.63,3.89S104.06,281.37,98.87,306.5Z"/><path class="cls-2" d="M61.76,293.51a1.16,1.16,0,0,1-2.15-.88l26.51-72.25a3.12,3.12,0,0,1,4.17-1.76l.06,0A3.45,3.45,0,0,1,92,223.05S73.83,266.27,61.76,293.51Z"/><path class="cls-2" d="M129.94,301.89a.83.83,0,0,0,1.64-.25c-3.15-27.94-11.3-85.92-11.3-85.92a3.15,3.15,0,0,0-3.64-2.73h-.07a3.39,3.39,0,0,0-2.62,3.89Z"/><path class="cls-2" d="M153.34,207.28a37.8,37.8,0,0,1-17.65-13.78H58.16c-2.11,2.95-1.81,6.75-1,9.88,1.22,5,4.31,13.17,8.42,16.53,7.66,6.25,19.91,7.76,29.36,9.32,10.15,1.68,20.84,4.66,31.11,5.27,15.32.92,54.45-8,51-15.17C173.81,212.72,163.58,211.06,153.34,207.28Z"/><path class="cls-2" d="M153.09,202.79a41.51,41.51,0,0,1-21.54-20.46C122.84,164,124.89,129.6,115,126.88c-12.7-3.52-57.57-.25-60.63,5.1s6.94,39.35,2.45,63c-4.9,25.86,52.65,29.52,67.9,32.94,15.53,3.49,57.79-2.61,54-10.42C175.26,210.33,163.84,207.14,153.09,202.79Z"/><path class="cls-8" d="M68.23,195.46l16.5-78.92c.47-2.26,1.08-4.73,2.64-6.32a1.45,1.45,0,0,1,1.91-.15c6.77,5.2,20.22,11.93,30.24,1.87,8.34-8.36,20.18,18.3,22.41,23.44,1.78,4.08,2.93,8.49,4.3,12.73a37.56,37.56,0,0,0,2.12,5.55c3.29,6.44,9.78,10.27,14.65,15.37s9.09,11.13,8.18,18.67a10.09,10.09,0,0,1-2.19,5.77c-1.61,1.75-4.05,2.37-6.2,3.37-1.69.79-4.22,2.5-4.15,4.66.07,2.32,3.6,6.06,3.86,8.5.76,7.24-4,12,0,18,1.41,2.11,1.24,7.52,1.82,10a43.81,43.81,0,0,1,.87,6.36l1,12c.16,1.84,2,8.4-1.46,7.77a9.34,9.34,0,0,1-6.14-4.13,6,6,0,0,1-4,4.47,4.77,4.77,0,0,1-5.41-2.2c-1.67,2-4.8,3-6.85,1.48a4.82,4.82,0,0,1-1.66-3.8,12.63,12.63,0,0,1,.9-4.18c1.27-3.57,2.83-7.07,3.57-10.79.61-3,1.14-10.58-2.72-11.7-2.58-.74-5.26-1.13-7.81-1.82A34.74,34.74,0,0,0,126.5,230c-3.14-.07-5.88-2.63-9-2-.41.08-1,4.46-1.33,4.72a3,3,0,0,0-.73,1.19l-4.67,11.62a10.76,10.76,0,0,0-.81,2.7,15.91,15.91,0,0,0,.24,3.5,31.4,31.4,0,0,1-.23,6.35c-.45,4.33-4.34,3.4-6.08.37a1.42,1.42,0,0,0-2.09-.4,4.68,4.68,0,0,1-5.76-.21A8.23,8.23,0,0,1,94,252.4a1.42,1.42,0,0,0-2.44-.89l-.69.72a1.4,1.4,0,0,1-1.66.29c-2.6-1.34-2.07-6.16-1.07-9.43a40.07,40.07,0,0,0-3.83-31.62,1.44,1.44,0,0,0-2.4-.13,4.65,4.65,0,0,1-8.54-1.8,1.42,1.42,0,0,0-2-1,8.13,8.13,0,0,1-3.51,1,4.53,4.53,0,0,1-3.94-2.07,1.4,1.4,0,0,1,.45-1.88,11.25,11.25,0,0,0,2.51-2.15,1.41,1.41,0,0,0-1.33-2.29,11.09,11.09,0,0,1-4.76-.21,1.42,1.42,0,0,1-.89-2c1.53-3.2,5.62-4.92,9.1-4.25a1.41,1.41,0,0,0,1.55-1.88c-2.64-7.15-.06-15.94,2.38-23.57A318,318,0,0,0,84.26,120.8"/><path class="cls-4" d="M106.78,119.07A93.31,93.31,0,0,1,90.54,108C86,114.93,84,123.15,82,131.21L71.22,174.88a85.38,85.38,0,0,0-2.12,10.46,43.09,43.09,0,0,0-.21,7.36"/><path class="cls-4" d="M85.87,190.56l-4.53,18.11a7.93,7.93,0,0,1-1.21,3,3.92,3.92,0,0,1-6.94-3.2,7.92,7.92,0,0,1-4.57,2.3,5.45,5.45,0,0,1-4.7-1.74,3.11,3.11,0,0,1-.8-1.83c-.08-2.07,2.37-3.16,4.37-3.68a8.93,8.93,0,0,1-6.15-1.72,3.41,3.41,0,0,1-1.62-2.68c.07-1.47,1.61-2.42,3.05-2.78a10.36,10.36,0,0,1,6.74.63"/><path class="cls-4" d="M83.29,209.08c4.85,4.61,6.53,11.71,6.42,18.4s-1.79,13.23-2.61,19.87c-.21,1.72-.29,3.68.91,4.94,2,2.12,5.91.15,6.73-2.65a6.23,6.23,0,0,0-.75,5.75,18.67,18.67,0,0,0,3,5.2,5.57,5.57,0,0,0,4.86-6.19c.63,2.84,2.15,6.37,5,6.15,2.18-.18,3.51-2.6,3.61-4.77s-.61-4.33-.6-6.51c0-5,3.65-9.08,5.27-13.75a17.93,17.93,0,0,0-4-17.92"/><path class="cls-4" d="M117,228.5c10.3,2.55,18,5,32,2"/><path class="cls-4" d="M111.86,185.05c4.51-2.88,10-3.64,15.4-3.74,5-.09,10.39.53,13.87,4.06"/><path class="cls-5" d="M140.72,192,137,193.56c-2.64,1.11-4.53-1-4.21-4.73l1.64-19.11c.32-3.72,2.72-7.62,5.37-8.73l3.74-1.55c2.64-1.11,4.53,1,4.21,4.73l-1.64,19.11C145.77,187,143.37,190.9,140.72,192Z"/><path class="cls-8" d="M146.18,173.42a2.44,2.44,0,0,0-1.2,0,2.08,2.08,0,0,0-1,.86,5.28,5.28,0,0,0-.88,4,1.79,1.79,0,0,0-2.15-.69,3,3,0,0,0-1.64,1.76,2.8,2.8,0,0,0-.18,1.78A4.12,4.12,0,0,0,140.5,183a5.94,5.94,0,0,0-4,1.1,2.92,2.92,0,0,0-1,1.17c-.58,1.36.56,2.93,1.93,3.49a17.23,17.23,0,0,0,4.38.63,11.13,11.13,0,0,1,6.5,3.17,2.16,2.16,0,0,0,1,.68,1.81,1.81,0,0,0,1-.23c3.23-1.49,8.28-6.19,7.08-10.24C156.14,178.54,150.26,174.38,146.18,173.42Z"/><path class="cls-4" d="M107.43,118.21a100.74,100.74,0,0,0,15.13-10.28c7.35,3.19,12.89,9.67,16.51,16.83,3.14,6.22,5,13,6.64,19.72a32.17,32.17,0,0,0,9.12,15.86c8.37,8.29,20.16,18.07,14.15,31.43-1.73,3.85-5.5,7-9.72,7.07-3.2.09-5.64-1.46-8.11-3.26-3-2.17-6.13-4.14-9.18-6.21a18.4,18.4,0,0,0-3.87-2c-1-.39-2.17-.71-2.32-2a2.3,2.3,0,0,1,.51-1.64,3.29,3.29,0,0,1,4.71-.35,6.66,6.66,0,0,1-2-3.7,2.63,2.63,0,0,1,0-1.15c.32-1.16,1.87-1.6,3-1.17a6.52,6.52,0,0,1,2.65,2.41,9,9,0,0,1-1.29-3.23c-.44-3.24,2.37-3.84,4.77-2.48s3.52,3.65,4.69,5.87a7.42,7.42,0,0,0,2.23,2.56"/><path class="cls-9" d="M113.14,138.26a70.19,70.19,0,0,0-.31,10.25"/><ellipse class="cls-7" cx="99.03" cy="140.14" rx="4.63" ry="2.78" transform="translate(-66.74 184.48) rotate(-69.73)"/><ellipse class="cls-7" cx="124.88" cy="136.23" rx="2.78" ry="4.63" transform="translate(-42.65 58.21) rotate(-22.52)"/><path class="cls-9" d="M106.58,152.17a10.7,10.7,0,0,1,5-2.55,6,6,0,0,1,5.24,1.45"/><path class="cls-9" d="M121.16,126.85a5.49,5.49,0,0,1,3.06.13,9,9,0,0,1,1.7.84,8.14,8.14,0,0,1,3.67,4"/><path class="cls-9" d="M92.4,137a5.65,5.65,0,0,1,1.37-2.75A8.87,8.87,0,0,1,95.22,133a8.18,8.18,0,0,1,5.18-1.72"/><path class="cls-3" d="M95.44,158.13a1.54,1.54,0,0,0,.24.82,1.48,1.48,0,0,0,.73.42c10.43,3.53,22,1.6,32.38-2a3.32,3.32,0,0,0,1.52-.85,3,3,0,0,0,.58-1.38c.65-3.3-.44-6.68-1.67-9.8a2.36,2.36,0,0,0-.58-1,2.31,2.31,0,0,0-1.76-.28c-8.25.95-16.34,3.37-24.63,3.42-1.93,0-6-.64-6.91,1.26C94.3,151,95.23,155.79,95.44,158.13Z"/><path class="cls-9" d="M95,159.57a1.13,1.13,0,0,0,1.25,1.33l6.07.41a67.39,67.39,0,0,0,8.16.21,68.09,68.09,0,0,0,8.51-1.21c4.46-.83,9-1.7,13-3.91-.51-5.4-.51-8.4-3.4-12.56-.21-.31-17.6,3.29-19.25,3.53a55.9,55.9,0,0,1-10,.66c-2.45-.09-4.48-1.09-4.26,1.9C95.33,153.16,94.72,156.33,95,159.57Z"/><path class="cls-9" d="M128.18,144.08a25.29,25.29,0,0,0,14.76-8.83"/><path class="cls-9" d="M131.84,156.51a25.21,25.21,0,0,0,14.85-9.82"/><path class="cls-9" d="M95.64,148.24A76.5,76.5,0,0,1,79.77,141"/><path class="cls-9" d="M95.85,160.64a56.83,56.83,0,0,1-10.39-3.22A22.35,22.35,0,0,1,76.82,151"/><path class="cls-4" d="M155,218.5c10,10,12.58,18,10.08,30.4a20.6,20.6,0,0,0-.63,4c0,2.91,1.54,5.36,1.73,8.13a3.19,3.19,0,0,1-1.59,3.15c-1.39.63-3.06-.25-4-1.46a38.06,38.06,0,0,1-2.12-4.06,12.78,12.78,0,0,1-1.32,4.64,4,4,0,0,1-7.33,0,13.27,13.27,0,0,1-1.28-4.12,6.78,6.78,0,0,1-1.82,5.1,3.94,3.94,0,0,1-5.07.39,5.09,5.09,0,0,1-1.43-3.66c-.29-5.43,3.72-8.61,4.86-13.55a16.65,16.65,0,0,0-2.51-13.29"/><path class="cls-4" d="M158.28,200.94a34.92,34.92,0,0,1,3.46,20.9"/><path class="cls-10" d="M353,108a5.31,5.31,0,0,1-1.55-3,12,12,0,0,1-.16-4.19c.29-2.2,1.43-4.45.8-6.58-4.06-13.69-20.58-5.44-12,8.09.78,1.23,1.38,2.57,2.24,3.75,1.72,2.36,4,4.6,6.84,5.09a10.43,10.43,0,0,0,8.11-2.55C355.81,108.87,354.25,109.06,353,108Z"/><polygon class="cls-2" points="338.11 177 338.11 176.98 332.61 172.51 335.74 280.87 339.12 283.01 341.81 280.81 343.56 172.38 338.11 177"/><polygon class="cls-2" points="242.48 234.99 242.48 234.97 237.4 230.49 240.29 338.86 243.41 341 245.89 338.8 247.5 230.37 242.48 234.99"/><polygon class="cls-2" points="215.93 168.91 210 168.5 213.49 272.81 216.97 274.95 219.72 272.75 221.53 164.32 215.93 168.94 215.93 168.91"/><polygon class="cls-2" points="113.78 238.41 109.6 234.42 111.98 331.15 114.55 333.06 116.58 331.1 117.91 234.31 113.78 238.43 113.78 238.41"/><rect class="cls-2" x="108.9" y="223.62" width="132.47" height="16.33" rx="5.09" ry="5.09"/><path class="cls-2" d="M342.41,179.51l-99.29,59.43a2.08,2.08,0,0,1-3.14-1.83l.25-11a2.11,2.11,0,0,1,1-1.75l99-58.41a2.08,2.08,0,0,1,3.14,1.79v10A2.08,2.08,0,0,1,342.41,179.51Z"/><path class="cls-2" d="M241.56,225.37l99.72-58.89a.79.79,0,0,0-.4-1.48H214.51a13,13,0,0,0-6.64,1.83L111.75,224a.79.79,0,0,0,.4,1.47h129A.77.77,0,0,0,241.56,225.37Z"/><path class="cls-11" d="M358.8,107.89c.05.21-4.17,4.34-5.05,7.52-1,3.65,3.78,4.08,4.12,3.36a1.9,1.9,0,0,0-1.32-1.6c0-2.9,2-3.25,4-4.19Z"/><path class="cls-12" d="M384.58,101.71s6-1.11,8.52-5.11c2.29,3.56-6.62,9.92-10.68,10.27l2.13-3.84Z"/><path class="cls-10" d="M391.8,92.92s1.57,4.11-3.19,8.85h0c-3.62,15.61-25,19.17-32.74,9.66.14-16.62,18.76-15.77,21.61-16.85,2.08-.8,3.84-5.31,12.22-5h.22c1.42.13,2.72,1,2.09,2.81A3.36,3.36,0,0,1,391.8,92.92Z"/><path class="cls-12" d="M387.55,103.33c1.95-.59,5.34-2,7.05-4.74,1.82,2.82-3.39,7.4-7.65,9.35a1.41,1.41,0,0,1-1.87-1.84l.35-.84A3.41,3.41,0,0,1,387.55,103.33Z"/><path class="cls-7" d="M385.48,93.46a.81.81,0,0,1-.5,1,.8.8,0,0,1-.51-1.51A.8.8,0,0,1,385.48,93.46Z"/><path class="cls-12" d="M381.73,95.21s-2.28-1.27-2.69.36c0,0,.07,2,1.57,2.35a4.1,4.1,0,0,0,1.86-1.47Z"/><path class="cls-12" d="M392,92.42h-.13a2.23,2.23,0,0,1-2-2.4,2,2,0,0,1,0-.42C391.34,89.74,392.64,90.6,392,92.42Z"/><path class="cls-13" d="M364,117.72s4.19.19,4.6.61c0,0,1.2,1.09-3.12,1.33,0,0-6.33.34-6.26-1.94,0,0,.35-2.23,2.35-2.37-2.89-2.59-.19-8,4.28-8.07C370.71,107.15,375,117.53,364,117.72Z"/><path class="cls-7" d="M364.41,57a33.07,33.07,0,1,0,33.07,33.06A33.06,33.06,0,0,0,364.41,57Zm0,62.79a29.73,29.73,0,1,1,29.73-29.73A29.73,29.73,0,0,1,364.41,119.81Z"/><rect class="cls-7" x="330.61" y="107.15" width="43.71" height="2.66" transform="matrix(0.54, -0.84, 0.84, 0.54, 70.83, 346.55)"/><rect class="cls-7" x="375.04" y="86.62" width="2.66" height="43.71" transform="translate(1.01 220.4) rotate(-32.68)"/><path class="cls-1" d="M369.41,90.08a5,5,0,1,1-5-5A5,5,0,0,1,369.41,90.08Z"/><path class="cls-2" d="M393.37,126.56H335.46a3.14,3.14,0,0,0-3.22,3.22,3.06,3.06,0,0,0,3.22,3.22h57.91a3.06,3.06,0,0,0,3.22-3.22A3.13,3.13,0,0,0,393.37,126.56Z"/><path class="cls-14" d="M387.13,44.15a1.09,1.09,0,0,1-.76-.32L366.14,23.6a1.26,1.26,0,0,0-1.76,0L345.16,42.83a1.07,1.07,0,1,1-1.52-1.52l19.22-19.22a3.39,3.39,0,0,1,4.8,0l20.23,20.22a1.07,1.07,0,0,1,0,1.52A1.09,1.09,0,0,1,387.13,44.15Z"/><circle class="cls-7" cx="365.73" cy="30.05" r="2.65"/><polygon class="cls-2" points="284 183.5 217 183.5 224 138.5 291 138.5 284 183.5"/><path class="cls-2" d="M188.69,199.62,216,183.5l68.24.25-25.1,14.88a4.41,4.41,0,0,1-2.21.62Z"/><path class="cls-4" d="M218.12,188.37h2.63"/><path class="cls-4" d="M226.87,188.13l2.63.14"/><path class="cls-4" d="M233.37,188.27a15.42,15.42,0,0,0,2.88.1"/><path class="cls-4" d="M240.62,188.62a15,15,0,0,0,3-.12"/><path class="cls-4" d="M249,188.75h2.75"/><path class="cls-4" d="M258,188.7a31.58,31.58,0,0,0,3.37,0"/><polyline class="cls-4" points="215.93 198.85 224 193.5 240 193.5 232.67 198.85"/><path class="cls-15" d="M259.23,167.54a4,4,0,0,1-3.59,2.83,2.09,2.09,0,0,1-.67-.11,9.56,9.56,0,0,0-6.77,0,1.65,1.65,0,0,1-2.24-1,2.45,2.45,0,0,1,.43-3q2.94-3.19,6.15-6.11c1.17-1.15,2.81-1.35,3.66-.45a1.8,1.8,0,0,1,.31.45,30.84,30.84,0,0,1,2.76,6.41A1.81,1.81,0,0,1,259.23,167.54Z"/><path class="cls-15" d="M250.74,154.93a6.1,6.1,0,0,1,1.35-2.53c.78-1.07,1.71-1.1,2.35-.25a3.82,3.82,0,0,1-2.06,5.77c-1.41.17-1.84-1-1.78-2.52A2.54,2.54,0,0,1,250.74,154.93Z"/><path class="cls-15" d="M256.9,155.2a6.51,6.51,0,0,1,2.78-3.12c.51-.32.7-.15,1,.17.74.91.42,3.46-.6,4.6-.8.9-1.71,1.42-2.56,1S256.46,156.64,256.9,155.2Z"/><path class="cls-15" d="M248.79,160.24c-.38,1.43-1.23,2.34-2.17,2.43s-1.43-.88-1.48-1.95a5.23,5.23,0,0,1,.8-2.59,1.6,1.6,0,0,1,1.75-.88.85.85,0,0,1,.25.13A2.55,2.55,0,0,1,248.79,160.24Z"/><path class="cls-15" d="M259.6,161a5.21,5.21,0,0,1,2.67-2.84c.59-.19.73.22.86.56a3,3,0,0,1-1.19,3.32,2.51,2.51,0,0,1-1.77.63A1.24,1.24,0,0,1,259.6,161Z"/><path class="cls-4" d="M226.94,154c.06-.5,2.06-9.5,1.59-10.28,5.43-.34,45.36-.2,56.65-.17-.18-.05-2.18,9.95-1.68,10.23"/><path class="cls-4" d="M281,168.5c-.09.5-3,9-2.5,9.45-5.43.33-45.36.19-56.65.17.15-.62,3.15-9.62,3.15-9.62"/><path class="cls-4" d="M212.17,191.7a11.26,11.26,0,0,1,3.33,0"/><path class="cls-4" d="M205,195.33a25.07,25.07,0,0,1,3.67.18"/><path class="cls-4" d="M246.84,194.12c3.22.14,6.44.19,9.66.17"/></g></g></svg>