<svg xmlns="http://www.w3.org/2000/svg" viewBox="0 0 241.49 47.11"><defs><style>.cls-1{fill:#fff}</style></defs><g id="Layer_2" data-name="Layer 2"><g id="Слой_1" data-name="Слой 1"><path class="cls-1" d="M42.18 39.88a7.26 7.26 0 01-9.27 6.79 26.23 26.23 0 00-17.76.1c-2.8 1-5.09-.42-6.55-2.37s-2.91-4.47-.94-7.4A156.43 156.43 0 0119.5 21.75a6.62 6.62 0 0110.41 0 105.89 105.89 0 0111.77 16 4.55 4.55 0 01.5 2.13zM11 8.42c-.27-2.4.85-4.4 1.77-6.3 1.31-2.68 3.72-2.74 6-.63a10.31 10.31 0 013.53 7.58c.14 3.67-2.09 6.5-4.88 6.82-3.57.42-5.52-2.49-6.44-6.3A5.67 5.67 0 0111 8.42zM27.37 9.09c.25-2.8 2.09-5.6 5.1-7.78 1.13-.8 1.75-.37 2.67.43 2.6 2.27 3.55 8.63 1.67 11.48-1.47 2.24-3.49 3.54-6 2.55-2.4-.92-3.56-3.07-3.44-6.68zM9.63 21.68c0 3.55-1.58 5.82-4 6.05-2.08.19-4.37-2.2-5.24-4.86-.75-2.27-.28-4.35.28-6.46a3.2 3.2 0 014.7-1.88 8.19 8.19 0 014.26 7.15zM38.59 23.68c.08-2.79 2.67-6.28 5-7.09 1.42-.49 2.07.55 2.66 1.4a6.32 6.32 0 01-.79 8.28 5.32 5.32 0 01-4.22 1.57 4 4 0 01-2.65-4.16zM59.33 46.57V18.24h10q15.09 0 15.09 13.81 0 6.62-4.12 10.57t-11 4zm6.38-23.14v18h3.16a8.53 8.53 0 006.51-2.49 9.42 9.42 0 002.36-6.77 8.59 8.59 0 00-2.34-6.38 9 9 0 00-6.57-2.32zM113.46 46.57h-6.95l-2-6.3H94.42l-2 6.3h-6.91l10.31-28.33h7.57zM103 35.37l-3-9.53a12.52 12.52 0 01-.47-2.55h-.16a10.62 10.62 0 01-.5 2.47l-3.08 9.61zM134.07 23.43H126v23.14h-6.4V23.43h-8v-5.19h22.52zM160 46.57h-7l-2-6.3h-10.07l-2 6.3H132l10.31-28.33h7.57zm-10.43-11.2l-3-9.53a12.52 12.52 0 01-.47-2.55h-.16a10.62 10.62 0 01-.5 2.47l-3.08 9.61zM187.28 46.57H180l-4.41-7.29c-.33-.56-.64-1.05-.95-1.48a7.76 7.76 0 00-.92-1.12 3.45 3.45 0 00-1-.71 2.4 2.4 0 00-1.1-.25h-1.72v10.85h-6.38V18.24h10.12q10.31 0 10.31 7.7a7.84 7.84 0 01-.46 2.74 7.64 7.64 0 01-1.28 2.26 8.22 8.22 0 01-2 1.74 10.52 10.52 0 01-2.62 1.15v.07a4.13 4.13 0 011.22.65 8.42 8.42 0 011.15 1 13.26 13.26 0 011.04 1.31c.34.45.65.9.92 1.33zM169.89 23v7.9h2.77a4.55 4.55 0 003.3-1.19 3.94 3.94 0 001.26-3q0-3.7-4.44-3.71zM201.5 47.06a13.17 13.17 0 01-9.91-4 14.2 14.2 0 01-3.84-10.32 15.27 15.27 0 013.89-10.87A13.52 13.52 0 01202 17.76a12.9 12.9 0 019.81 4q3.73 4 3.74 10.47 0 6.69-3.88 10.77a13.31 13.31 0 01-10.17 4.06zm.28-23.81a6.4 6.4 0 00-5.33 2.52 10.51 10.51 0 00-2 6.67 10.29 10.29 0 002 6.66 6.32 6.32 0 005.17 2.45 6.39 6.39 0 005.24-2.38 10.21 10.21 0 001.93-6.61 11.08 11.08 0 00-1.87-6.86 6.14 6.14 0 00-5.14-2.45zM220.21 46.57V18.24h10.32q4.74 0 7.29 1.73a5.6 5.6 0 012.55 4.9 5.84 5.84 0 01-1.55 4 8.25 8.25 0 01-4 2.39v.08a7.81 7.81 0 014.83 2.23 6.22 6.22 0 011.81 4.52 7.59 7.59 0 01-2.78 6.18 11.69 11.69 0 01-7.61 2.28zm6.39-23.63v6.72h2.8a4.66 4.66 0 003.11-1 3.27 3.27 0 001.14-2.64c0-2.08-1.56-3.12-4.66-3.12zm0 11.46v7.47h3.45a5.36 5.36 0 003.47-1 3.44 3.44 0 001.26-2.87 3.2 3.2 0 00-1.24-2.66 5.43 5.43 0 00-3.45-1z"/></g></g></svg>