<svg version="1.1" id="Слой_1" xmlns="http://www.w3.org/2000/svg" x="0" y="0" viewBox="0 0 681 452" xml:space="preserve"><style>.st2{fill:none;stroke:#414242;stroke-width:2.5;stroke-linecap:round;stroke-linejoin:round;stroke-miterlimit:10}.st3{fill:#414242}.st5{fill:#edc914}</style><path d="M579.8 318c3.8 4.5 5.8 10.9 2.7 15.8-1.6 2.5-4.2 4.3-7 5.9-9.5 5.3-20.5 8.4-31.6 8.9-8.8.4-20 .4-23.2 8-3 7.1 4.3 14.1 10.7 18.9 6.4 4.9 13.4 12.4 9.5 19.2-2.9 5.1-10.2 6.2-16.4 6.7-72.9 5.3-146.1 3.7-219.2 2.2-17.2-.4-34.4-.7-51.5-2.3-5.1-.5-11.1-1.7-12.8-6.1-2-5.1 3.7-10.2 9.5-11.4 5.8-1.2 11.9-.1 17.6-1.2-1.9-10-16.6-11.9-27.7-11.7-51.3.9-102.8-4.8-152.4-16.9-9-2.2-19.1-5.5-22.8-13.4-2.9-6.2-.7-13.7 3.8-19.2 4.4-5.4 10.8-9.3 17-13 16.9-10.1 35-20.5 55.2-20.7 7.1-.1 14.3 1.2 21.3.3 7.1-.9 14.4-4.6 16.3-10.9 1-3.3.3-6.7.7-10.1.9-9 8.7-16.5 17.8-20.2 9-3.7 19.2-4.3 29.1-4.6 93.4-3.3 199.4 5.5 284.3 43.6 20.6 9.2 54.6 15.1 69.1 32.2z" fill="#f9f9f4"/><path d="M228.1 284.7c5-14.7 10-29.4 16.5-43.6 2.2-4.8 4.6-9.6 5.9-14.7 1.8-6.6 1.8-13.6 2.5-20.4 1.3-12.5 5-24.7 10.8-35.9.9-1.7 2.1-3.6 4-4 1.3-.3 2.7.3 4 .9 5.9 2.6 11.9 5.3 17.8 7.9 6.3-3.6 5.5-16.4 12.8-16.4 1.7 0 3.2 1 4.6 1.7 29.8 15.9 26.7 62.3 25.1 62.3 0 0 9.9-3.4 11.2-2.7 1.5.8 1.7 2.9 1.6 4.6-.3 7.7-1.6 15.4-3.6 22.8-8.9 1.3-7.7 3.1-7.7 3.1 7.7 13.9 4.6 38.6-3.9 51.2-1.3 1.9-.3 4.7.8 6.7 1.2 2.2 3.6 3.4 5.5 5.2 1.8 1.7 3 4.9 1.2 6.7-5.6 5.8-14.1 7.7-22 9.2-11.4 2.3-22.9 4.5-34.3 6.8-3.7 7.2-11.4 11.6-19.4 13.1-7.9 1.5-16.1.4-24-1.3-5.3-1.1-12.1-5.2-9.8-10.2-12.2.8-24.6 1.4-36.6-1.1s-23.7-8.4-30.9-18.3c-6.9-9.6-9-22.3-6.3-33.8 2.7-11.5 9.8-21.8 19.1-29.1 6.1-4.8 13.5-8.5 21.2-7.8s15.2 6.9 15.1 14.6c-.1 5.6-3.8 10.4-7.2 14.8-4 5.3-7.9 10.9-9.3 17.4-1.3 6.5.5 14.1 6 17.7 4.3 2.9 20.6 5.4 24 1.2 1.5-1.9.5-11.5 1.1-14.4 1-4.7 2.6-9.5 4.2-14.2z" fill="#8888e5"/><path class="st2" d="M280 239.8c21.2-8.2 42.9-15.1 65-20.7M282.8 268.5c2.9-3.1 7-4.5 11-5.8 15.7-5.1 31.5-9.7 47.5-13.7M258.6 188.7c1.9-5.6 4.3-11 7-16.2.5-1 1.2-2.1 2.3-2.4.9-.3 1.9.1 2.8.5 4.2 1.8 8.3 3.6 12.5 5.4M296.8 170.3c1.8-1.4 2-4.2 3.4-6 1.3-1.7 3.7-2.3 5.7-1.6.7.3 1.4.7 2 1.1 3.8 2.5 7.5 5.1 11.3 7.6M287.9 219.1c4.3.6 8.8-.8 12.1-3.6s5.3-7.1 5.3-11.4c-1.1 2.2.5 5.1 2.7 6.1 7.2 3.3 12.4.5 15 .3"/><path class="st3" d="M285.9 205.7c-1.7 0-3.1-1.4-3.1-3.1v-3.1c0-1.7 1.4-3.1 3.1-3.1 1.7 0 3.1 1.4 3.1 3.1v3.1c0 1.7-1.4 3.1-3.1 3.1zM318.3 196.4c-1.7 0-3.1-1.4-3.1-3.1v-3.1c0-1.7 1.4-3.1 3.1-3.1 1.7 0 3.1 1.4 3.1 3.1v3.1c0 1.7-1.4 3.1-3.1 3.1z"/><path class="st2" d="M289.3 334c4.2-1 8.4-2 12.4-3.6s7.7-4.1 10.3-7.6M313 329.7c.9 1.7 3.6 1.7 5 .4 1.5-1.3 1.9-3.3 2.2-5.3 2.5 2.4 6.1 3.7 9.6 3.5 1.6-2.3 2.1-5.4 1.2-8.1 1.3 1.7 4.1 2 5.7.6 1.8-1.5 1.9-4.5.6-6.4-1.3-2-3.7-3-6-3.2s-4.7.3-7 .7c5.6-2.9 9-9.4 8.3-15.7-.2-1.4-.5-2.8-1.3-4-1.7-2.6-5.1-3.7-8.3-3.3M250.3 343.8c.4 1.9 3 2.6 4.8 1.7 1.7-.9 2.7-2.7 3.5-4.5 1.8 3 4.9 5.2 8.3 5.9 2.2-1.8 3.4-4.7 3.2-7.5.8 2 3.4 3 5.3 2.1 2.1-1 3-3.8 2.2-6s-2.8-3.8-5-4.7c-2.2-.8-4.6-1-6.9-1.1 6.1-1.3 11.2-6.7 12.1-13 .2-1.4.2-2.9-.2-4.2-1-3-4-5-7.1-5.4"/><path d="M347.9 311.6c20.5-5.6 41.7-11.1 61.2-19.5 1.3-.6 3.6.2 3.4 1.6-1 5.5-2.5 13-4.6 18.5-.5 1.2-36.9 14.2-50.6 18.1-11.7 3.4-24.4 5.8-32.6 15-1.1 1.2-1.7 2.9-1.3 4.5.5 2.2 2.3 2.5 3.9 2.8 30.7 5.6 61.7 11.1 92.9 9.2 32.1-2 64.7-12.7 87.1-35.9 1.1-1.2 2.1-2.5 2.6-4 2.6-7.1-4-11.3-9.8-13.3-4.8-1.6-10.3-3-12.9-7.3-4.7-7.9-3.8-21.4-3.2-30.2.1-1.6.3-3.4 1.4-4.6 1-1.1 2.4-1.5 3.6-2.2 3.2-1.8 4.9-5.5 5.5-9.2.6-3.6 4.9-62.8 6-73.6 2.1-21 6.3-42.9 6.3-64 .6-6.2 1-13-2.9-17.9-.9-1.1-2-2-3.3-2.4-2.1-.6-4.3.4-6.3 1.3-10.2 4.3-21.2 6.1-32 8.3-34.1 7.1-67.1 18.8-99.9 30.4-2 .7-4.2 1.5-5.5 3.2-1.3 1.6-1.6 3.8-1.9 5.8-7 53.4-14.1 106.9-21.1 160.3-1.1 8.4 8.7 6.5 14 5.1z" fill="#8888e5" stroke="#414242" stroke-width="2.5" stroke-linecap="round" stroke-linejoin="round" stroke-miterlimit="10"/><path class="st2" d="M360.9 142c4.1.4 7 4.6 7.5 8.7s-.7 8.2-1.5 12.3c-1.7 9-1.4 18.2-2.1 27.4-.6 7.8-1.9 15.5-3.2 23.2-4.1 24.4-8.2 48.9-12.3 73.3-1.4 8.6-3 17.4-7.2 24.9M401.1 202.7c19.6-4.5 39.3-9 58.9-13.5 1.3-.3 2.8-.6 3.9.1 1 .5 1.5 1.6 2 2.5 20.6 40.1 17.5 94.2 17.5 94.2.9 5.4 2.8 27.4-1.5 30.9-4.3 3.4-59.1 22.3-63 22.4-3.9.1-20.6-3.1-25.2-3.2 11.3-12.7 18.1-29.2 19.3-46.2 1.1-15.6-2.6-31.1-6.2-46.3-1.4-5.9-2.9-11.9-5.7-17.3-3.3-6.4-8.7-13.3-5.9-20M400.9 209.4c19.3 34 27.7 74.2 23.7 113.1"/><path class="st5" d="M306.1 119c7.1 1.2 14.3.4 21.4-.3 2.5-.2 5.1-.5 7.1-2 2.1-1.5 3.3-3.9 4.3-6.3 9.7-23.6-10.7-53.2-38.2-45.3-26.9 7.7-20.7 49.6 5.4 53.9z"/><path class="st2" d="M309.7 114.2c7.1 1.2 14.3.4 21.4-.3 2.5-.2 5.1-.5 7.1-2 2.1-1.5 3.3-3.9 4.3-6.3 9.7-23.6-10.7-53.2-38.2-45.3-27 7.7-20.8 49.6 5.4 53.9z"/><path class="st5" d="M472.3 78.1c5.5-4.5 9.8-10.4 14-16.2 1.4-2 2.9-4.1 3.2-6.6.3-2.6-.8-5.1-1.9-7.4-11.3-22.9-47-27.1-59.3-1.3-12 25.2 23.5 48.3 44 31.5z"/><path class="st2" d="M471.1 72.3c5.5-4.5 9.8-10.4 14-16.2 1.4-2 2.9-4.1 3.2-6.6.3-2.6-.8-5.1-1.9-7.4-11.3-22.9-47-27.1-59.3-1.3-12 25.2 23.5 48.3 44 31.5z"/><path class="st5" d="M535.1 173.4c6.4 3.2 13.5 4.7 20.5 6.1 2.4.5 5 1 7.3.2 2.5-.8 4.3-2.8 5.9-4.8 16.3-19.6 5.6-54-23-54.6-27.8-.6-34.4 41.3-10.7 53.1z"/><path class="st2" d="M539.9 169.9c6.4 3.2 13.5 4.7 20.5 6.1 2.4.5 5 1 7.3.2 2.5-.8 4.3-2.8 5.9-4.8 16.3-19.6 5.6-54-23-54.6-27.8-.6-34.4 41.3-10.7 53.1zM322.6 99.9h-14.3c-4.4 0-8-3.6-8-8V80.6c0-4.4 3.6-8 8-8h14.3c4.4 0 8 3.6 8 8v11.3c0 4.4-3.6 8-8 8z"/><path class="st2" d="M303.5 77.1c2.6 3.9 6.6 6.6 10.5 9.1.5.3 1.1.7 1.7.7.8 0 1.5-.5 2.1-1 3.1-2.5 6.3-5.1 9.4-7.6M461 38.1c-.1-1.1-.4-2.2-1-3.1-1.1-1.7-2.7-2-4.6-2-4.4-.1-9.2 2.2-10.6 6.4-.9 2.7-.4 5.6.1 8.3.6 3.1 1.2 6.2 1.7 9.4.7 4 1.8 8.5 5.3 10.6 3.5 2 10.2 1.5 13.3-1 .5-.4 1.1-.9 1.5-1.5.5-.8.6-1.7.6-2.6 0-.7.1-1.3 0-2-.2-2-1.7-3.8-3.6-4.4-1-.3-2-.4-3-.4-2.6 0-7.2 1.6-8.5-1-1-1.9-2.1-8.2-.4-9.9 1.3-1.3 3.5-.7 5.3-1.2 1.7-.4 3.2-1.9 3.7-3.6.2-.6.2-1.3.2-2zM544.8 139.1v18.4M544.4 130.5c.5-.5.6-1.4.2-2.1-.3.6-.7 1.1-1 1.7M551.4 138.5v18.2c-1.1-7.9-.7-19 7.7-18.8 4.7 1 5.4 3.6 5.9 7.1.5 3.5.1 7.1-.2 10.6M252 235.6c-.6 3.3-2.9 6-4.8 8.7-9.4 13.4-13 29.9-16.4 45.9"/></svg>