<svg version="1.1" id="Слой_1" xmlns="http://www.w3.org/2000/svg" x="0" y="0" viewBox="0 0 681 452" xml:space="preserve"><style>.st2,.st3,.st5,.st6{fill:none;stroke:#424242;stroke-width:2;stroke-linecap:round;stroke-linejoin:round;stroke-miterlimit:10}.st3,.st5,.st6{fill:#edc914;stroke-width:3}.st5,.st6{fill:#8888e5;stroke:#414242;stroke-width:2.5}.st6{fill:none}.st7{fill:#414242}</style><path d="M94.6 222.4c-8.2 2.9-17.3 6.8-20.4 15-3.6 9.5 3.2 20.4 12.2 25.2s19.6 5.3 29.7 6.5S137 272.6 144 280c.8.9 1.6 1.8 1.9 2.9 1.2 4.3-4.3 7.2-8.6 8.4-21 5.8-41.3 14.2-60.3 24.8-6.6 3.7-13.4 8.1-16.4 15-4.2 9.7.7 21.5 8.9 28.1 15.7 12.7 36.6 14.1 55.9 15.8 25.9 2.3 51.7 5.4 77.7 7 13 .8 27 1.1 37.7-6.3 2.2-1.5 4.3-3.9 3.8-6.5-.5-2.8-3.8-4.1-6.6-4.7-9.8-1.9-21-.8-28.7-7.1-1.1-.9-2.1-2-2.2-3.3-.4-3.2 3.8-4.8 7.1-5.1 41.5-4 87.5 4.9 128.8 10 6 .7 13.7 3.5 13.3 9.5-.6 8.1-14.9 8.3-16.9 16.2-1.8 7.2 7.9 11.3 15.3 12.1 69.7 7.3 140.4-2.4 208.3-20.1 17.9-4.7 36.2-10.2 50.9-21.4 14.7-11.3 25.4-29.6 22.7-47.9-2.8-18.9-19.2-33.5-37.2-40.2-17.9-6.7-37.5-7.2-56.6-8.4-32.4-2.1-64.6-6.7-96.3-13.7-8.9-2-17.9-4.2-25.9-8.5-7.9-4.3-14.5-10.5-21.7-15.7-21.9-16-49.2-23.3-76.3-25.2-35.9-2.6-74.5.8-110.5 3.1-40 2.5-79.6 10.4-117.5 23.6z" fill="#f9f9f4"/><path d="M302.2 215.5l-88.7 51.2c-9.8 5.6-17.7-.4-17.7-13.4V122.2c0-13 8-28.3 17.7-33.9l88.7-51.2c9.8-5.6 17.7.4 17.7 13.4v131.1c0 13-8 28.3-17.7 33.9z" fill="#8888e5" stroke="#414242" stroke-width="3" stroke-linecap="round" stroke-linejoin="round" stroke-miterlimit="10"/><path class="st2" d="M303.4 126.2l-89.3 51.5c-1 .6-1.8 0-1.8-1.4 0-1.3.8-2.9 1.8-3.4l89.3-51.5c1-.6 1.8 0 1.8 1.4 0 1.3-.8 2.8-1.8 3.4z"/><path class="st3" d="M279.8 115.7l-44.3 25.6c.3-4.9 2.1-10.3 4.9-15.1 3.1-5.3 7.3-10 12-12.6l10.4-6c9-5.3 16.4-1.5 17 8.1z"/><ellipse transform="rotate(-59.689 257.705 100.01)" class="st3" cx="257.7" cy="100" rx="21.5" ry="12.4"/><path class="st2" d="M287.7 166.4l-6.2 3.6-68.4 39.5c-1 .6-1.8 2.1-1.8 3.4 0 1.3.8 1.9 1.8 1.3l69.6-40.2 5.8-3.3M291.5 176.2l-78.4 45.3c-1 .6-1.8 2.1-1.8 3.4 0 1.3.8 1.9 1.8 1.4l81.8-47.2M302.3 186.7L213 238.2c-1 .6-1.8 0-1.8-1.4 0-1.3.8-2.9 1.8-3.4l89.3-51.5c1-.6 1.8 0 1.8 1.4 0 1.3-.8 2.8-1.8 3.4zM303.4 138.2l-89.3 51.5c-1 .6-1.8 0-1.8-1.4 0-1.3.8-2.9 1.8-3.4l89.3-51.5c1-.6 1.8 0 1.8 1.4 0 1.3-.8 2.8-1.8 3.4zM301.7 151.1l1.7-1c1-.6 1.8-2.1 1.8-3.4 0-1.3-.8-1.9-1.8-1.4l-89.3 51.5c-1 .6-1.8 2.1-1.8 3.4 0 1.3.8 1.9 1.8 1.4l76.3-44"/><path d="M436.1 114.9c-2.9 0-13.3 4.4-15.7 6-19.2 12.9-32.5 52.7-40.9 44.2-5.8-5.8-18.6-24.3-25.2-29.2-5.3-3.9-16-6.9-18.9.8-2.9 7.6-.5 15.3 3.8 21.6 7.9 11.7 33.2 32.2 28.1 47-2.1 6.2-3.8 13.1-5.1 19.5-.5 2.4-1.2 18.7-2.6 19.6-11.3 6.5-23.4 11.7-35.8 15.5-2.5.8-5.1 1.5-7.8 1.3-3.5-.3-6.7-2.1-9.8-3.6-9.9-4.8-24.2-5.4-29.4 4.3-3.7 7-.2 16.2 6.1 20.9 6.3 4.8 14.6 6 22.6 6.1 33.4.4 65.5-16.3 98.9-14.3 4 .2 8.1.8 11.4 3.1 3.3 2.3 5.3 6.7 3.7 10.3-9.5-3.4-21.3 1.3-25.7 10.4-4.5 9.1-1.1 21.3 7.4 26.8 9.8 6.3 22.7 3.5 34 .3 19.5-5.4 39.3-10.8 57.1-20.5 2.4-1.3 4.7-2.7 7.4-3.3 3.2-.8 6.6-.4 9.8 0 18.8 1.9 37.9 1.6 56.7-.9 10.5-1.4 21.9-4.1 28.5-12.3 9.1-11.4 5-29.4-5.8-39.2-10.8-9.8-26.2-12.8-40.8-12.8-4.9 0-10 .3-14.5 2.4s-8.2 6.4-8.3 11.3c-.1 3.3 1.4 6.6.7 9.8-.6 2.7-2.7 4.8-5.1 6.1-8.1 4.5-18.9.6-24.6-6.7-5-6.4-6.2-14-7.1-21.8-.9-7.7 3.3-13 4.6-20.3 1-5.9-1-11.9-2.8-17.7-1.8-5.7-3.4-11.6-3.6-17.6-.2-6 1.1-12.2 4.8-17 3.6-4.7 8.5-8.3 12-13.2.8-1.1 1.5-2.4 1.2-3.6-.3-1.1-1.3-1.9-2.2-2.6-7.9-5.7-17.1-9.5-26.8-11.2-2.5-.4 3.3-9.9 3.2-10.3-.7-2.9-10.2-4.3-12.9-5-10-2.7-20.3-4-30.6-4.2z" fill="#8888e5"/><path class="st5" d="M376.7 120l.7 1.2c1 1.6.4 3.7-1.2 4.7l-55.6 33.4c-1.6 1-3.7.4-4.7-1.2l-.7-1.2c-1-1.6-.4-3.7 1.2-4.7l55.6-33.4c1.6-.9 3.7-.4 4.7 1.2z"/><path class="st5" d="M284.2 177.4c6.2 10.3 19.5 13.6 29.8 7.4 10.3-6.2 13.6-19.5 7.4-29.8-6.2-10.3-19.5-13.6-29.8-7.4-10.2 6.2-13.5 19.5-7.4 29.8zm31.6-19c4.3 7.2 2 16.5-5.2 20.7-7.2 4.3-16.5 2-20.7-5.2-4.3-7.2-2-16.5 5.2-20.7 7.1-4.3 16.4-1.9 20.7 5.2zM337.1 140c-7.6 0-5.5 7.2-3 9.3.7.6 1.5 1 2.3 1.2 2.9.9 7.4-1.1 7.4-5.8"/><path class="st5" d="M347.6 127.6c-2.8-1.9-5.9.1-6.7 1.8s0 4 1.7 4.7c-1.2-1.1-3.2-.8-4.4.3-5.8 5.6 3 9 5.1 9.5 2 .4 4.5-2 5.3-3.9"/><path class="st6" d="M313.5 278.4c2.8-1.6 4.8-4.6 5-7.8s-1.3-6.5-3.9-8.4c-1-.7-2.2-1.3-3.4-1.4-3.8-.2-6.2 4.1-7.2 7.8 0-3.3-.3-6.8-2-9.7-1.7-2.9-5.3-4.8-8.5-3.8-2.3.7-4 2.9-4.5 5.2-.5 2.4 0 4.8 1 7-.7-3.2-4.1-5.4-7.3-4.8-3.2.6-5.6 3.7-5.6 6.9s2.3 6.2 5.4 7.3c1.2.4 2.5.5 3.6 1.3 1.5 1.1 1.9 3 2.8 4.6 2.8 5.2 9.7 6.2 15.6 6.1 9.1-.2 18.2-1.9 26.8-4.9M377.5 272.9c7.9-.4 15.8-.8 23.7-1.1 5.1-.2 10.4-.5 15.1 1.6s8.4 7.2 7.1 12.1M432.5 309c0-3.5 0-14.9-7.1-17.1-1.7-.5-3.8-.3-5.2.9-.7.6-1.2 1.4-1.6 2.2-1.2 2.5-1.6 5.5-.4 7.9 1.2 2.4 4.5 3.9 6.9 2.6M418 289.4c-3-2.5-8.1-1.5-9.9 1.9-1.8 3.4.2 8.3 4 9.3"/><path class="st6" d="M401.9 290.9c-2.9.8-4.7 4.3-3.7 7.2 1 2.8 4.6 4.4 7.4 3.1-5 1.1-8.2 6.6-7.6 11.7.6 5.1 4.3 9.4 8.9 11.6 8.8 4.3 19.3 1.6 28.7-1.3 10.7-3.2 21.5-6.4 32.2-9.6 10.1-3 20.9-6.5 27-15.1M433.5 292c5.2-2.8 10.4-5.5 15.5-8.3M498.1 267.7c4.4 2.2 9.5 2.5 14.5 2.6 6.4.1 12.8.1 19.2 0 4.7-.1 10.2-.8 12.7-4.8 1.7-2.7 1.3-6.6-.9-8.9"/><path class="st6" d="M530.5 244.3c4.9-3.7 11.4-4.4 17.6-4.1 12.2.6 24.1 5.1 33.7 12.6 5 3.9 9.6 9 10.9 15.3 1.6 7.7-2.3 15.9-8.5 20.9s-14.1 7.2-22 8.1"/><path class="st7" d="M428.8 145.5l-.9-.5c-1.2-.7-1.6-2.2-.9-3.4l2.3-4c.7-1.2 2.2-1.6 3.4-.9l.9.5c1.2.7 1.6 2.2.9 3.4l-2.3 4c-.7 1.2-2.2 1.6-3.4.9zM457.7 163.6l-.9-.5c-1.2-.7-1.6-2.2-.9-3.4l2.3-4c.7-1.2 2.2-1.6 3.4-.9l.9.5c1.2.7 1.6 2.2.9 3.4l-2.3 4c-.7 1.2-2.2 1.6-3.4.9z"/><path class="st6" d="M418.4 152.3c-.3 2.7 2.4 4.8 4.9 5.9 4.5 2 9.5 2.9 14.4 2.6-.1 3.8 1.4 7.5 4.1 10.2 2.6 2.7 6.4 4.2 10.1 4.2M467.7 133c1.3-2.9 3.3-5.5 5.8-7.5-2.1-1.6-4.5-2.8-7.1-3.7-1.8-.6-3.7-.8-5.5-1.4-35.7-10.7-56.2 21.2-56.8 23M486 141.5c5.2 2.2 10.2 4.9 14.8 8.2-7.1 2.8-12.8 9-14.9 16.3"/><path class="st5" d="M351.8 143.5c4.8-2.4 7.3-10.5 4.5-13.5-2.2-2.3-6.4-2.3-8.5.2-1.4 1.6-1.7 4.2-.6 6.1s3.8 2.7 5.7 1.6"/><path class="st2" d="M287.8 164.8l11.7-7c1.7-1 3.9-.5 5 1.2.3.6.5 1.2.5 1.8 0 1.2-.6 2.4-1.8 3.1l-14.2 8.5M291.3 175.9l14.3-8.6c1.7-1 3.9-.5 5 1.2.3.6.5 1.2.5 1.8 0 1.2-.6 2.4-1.8 3.1l-11.5 6.9"/><path class="st6" d="M485.6 183.6c-.7 3.2.6 6.5 1.7 9.6 1.6 4.6 2.7 9.3 3.1 14.2.5 5.3.4 10.7-1.3 15.8-1.6 5.1-4.8 9.7-9.4 12.5-5.2 3.1-11.7 3.5-17.6 2-5.9-1.5-26-17.1-31-20.6M457.9 209.8c-6.5-2.5-13.5-10.2-20.3-8.7"/><g><path class="st5" d="M432 217.6c-1.1-1.6-3.1-2.4-5.1-2.6s-3.9.3-5.8.8c-2.4.7-4.9 1.7-7.4 1.5-2.5-.2-5.2-2.2-5.1-4.7 0-1.3.8-2.5 1.6-3.5.4-.5.9-1 1.6-1.3 1.7-.7 5.6 2 7.1 3M406.5 211.1c-1.3-1.1-2.3-2.6-2.3-4.3 0-1.7 1.1-3.4 2.8-3.7 1.7-.3 3.3.9 4.6 2.1M408.6 202.4c0-1.5 0-5.7 3.8-5.3 1.5.1 2.9.6 4 1.6.8.8 1.4 1.8 1.5 2.9.1 1.1-1.1 2.8-2.1 3.2M418.3 198.8c-2.3-4.2 7.4-7.8 7.4.5 0 .9-.8 1.7-1.5 2.2-.7.5-1.8.7-2.5.2"/></g><path class="st6" d="M358.5 175c3.9 5.1 7.3 10.6 10 16.4 1.1 2.5 2.1 5 2.4 7.7.4 4.3-1.2 8.6-2.4 12.8-2.7 9.7-2.8 19.9-3 30"/></svg>