<svg version="1.1" id="Слой_1" xmlns="http://www.w3.org/2000/svg" x="0" y="0" viewBox="0 0 681 452" xml:space="preserve"><style>.st3{fill:#424242}.st5,.st6{fill:#8888e5;stroke:#414242;stroke-width:3;stroke-linecap:round;stroke-linejoin:round;stroke-miterlimit:10}.st6{fill:none}</style><path d="M49.9 303.6c-4.4 5.7-6.7 13.9-3.2 20.1 1.8 3.2 5 5.5 8.1 7.5 11.1 6.8 23.9 10.8 37 11.4 10.3.5 23.4.6 27.2 10.1 3.5 9.1-5 18-12.6 24.2-7.5 6.2-15.6 15.8-11.1 24.5 3.4 6.5 11.9 7.9 19.2 8.5 85.2 6.8 170.8 4.8 256.3 2.8 20.1-.5 40.2-.9 60.2-3 5.9-.6 12.9-2.2 15-7.8 2.4-6.5-4.3-13-11.1-14.5-6.7-1.5-13.9-.1-20.6-1.6 2.3-12.8 19.4-15.2 32.4-15 60 1.2 120.2-6.1 178.2-21.5 10.6-2.8 22.4-7 26.7-17 3.4-8 .8-17.5-4.4-24.4-5.2-6.9-12.6-11.8-19.9-16.6-19.7-12.9-41-26.1-64.5-26.4-8.3-.1-16.7 1.5-24.9.3s-16.8-5.9-19-13.9c-1.1-4.2-.4-8.6-.8-12.9-1-11.5-10.2-21.1-20.8-25.8-10.6-4.7-22.4-5.4-34-5.9-109.2-4.2-233.1 7-332.4 55.6-24.3 11.9-64.1 19.4-81 41.3z" fill="#f9f9f4"/><path d="M228.2 160.3c-8.6 13.7-12.2 30.5-8.3 46.2 1.8 7.1 8.9 16 23.1 19.5 2.8.7-1.6 7.6-1 16 .7 8.9 9.7 21 9.7 21-21.2 8.8-23.5 19.6-22.7 26.8 1 8.7 1.8 20.8 6.8 28 4.5 6.4 14 7.2 17.2 14.4 4.9 10.7 15.7 18.5 27.5 19.8s24-4.1 31-13.5c1.8-2.4 3.3-5 5.8-6.6 2.8-1.8 6.4-3 9.6-2 41.4 12.7 65.8-1.7 98.7-2.5 1.2 2.3 11.4 16.8 33.4 16.8 11.2 0 24.9-7.2 22.3-18.2 15.6-10.5 43.5 2.7 62.2.9 15.9-1.5 30.1-11.7 39.2-24.8s13.5-29 15.7-44.8c2-14.7-5.5-35.1-16-45.6-11.7-11.7-32-10.6-45.9-1.4-13.8 9.1-22.5 24.2-29.6 39.2-3 6.4-8.3 14.1-15.1 12.1-3.6-1-5.8-4.5-8.2-7.5-6-7.4-15.1-12.2-24.7-13-2.5-.2-5.2-.2-7.5-1.2-2.7-1.1-4.6-3.5-6.4-5.7-7.8-9.5-15.9-19.7-17.4-32-.8-6.6 0-13.2-.4-19.8-2.4-37.6-32.2-35.7-36-48.3-5.3-17.7-1.5-46.3-16.4-70-16.5-26.3-51-39.9-81-32 1.8 6 2.7 12.3 2.9 18.5-17.2 3.7-33.6 11-48 21.1 17.5 7.1 27 29.5 20 47.1-7.5 19.2-29.6 24-40.5 41.5z" fill="#8888e5"/><path d="M363.2 228.4h-79.9c-9.6 0-17.5-7.9-17.5-17.5v-26.8c0-9.6 7.9-17.5 17.5-17.5h79.9c9.6 0 17.5 7.9 17.5 17.5v26.8c0 9.6-7.9 17.5-17.5 17.5z" fill="#edc914" stroke="#424242" stroke-width="3" stroke-linecap="round" stroke-linejoin="round" stroke-miterlimit="10"/><ellipse transform="rotate(-26.237 344.556 73.964)" class="st3" cx="344.5" cy="74" rx="4.5" ry="6.9"/><path fill="#8888e5" stroke="#414242" stroke-width="2" stroke-linecap="round" stroke-linejoin="round" stroke-miterlimit="10" d="M296.8 182.5l3.2 6.4 7 1-5.1 5 1.2 7-6.3-3.3-6.3 3.3 1.2-7-5.1-5 7.1-1z"/><ellipse transform="rotate(-17.224 293.658 93.163)" class="st3" cx="293.6" cy="93.2" rx="4.5" ry="6.9"/><path class="st5" d="M352.8 228.4H304c.3-4.6 2.4-8.7 5.4-11.8 3.4-3.4 8.1-5.5 13.2-5.5h11.5c9.9 0 18 7.7 18.7 17.3z"/><circle class="st5" cx="328.4" cy="201.1" r="16.8"/><path class="st6" d="M489.8 267.4c6.1 2 12.9.5 18.3-2.9 5.4-3.5 9.4-8.7 12.4-14.4 3-5.7 5-12 8.1-17.7 6.3-11.6 18.4-21 31.5-20 11.7.9 21.8 10.2 25.4 21.4 3.7 11.1 1.6 23.6-3.5 34.1-4.3-2.4-8.3-16.2-8.7-16.5-.7-.5-12.1 8.8-15.9 10.4 0-6.6 0-13.1.1-19.7 0-.4 0-.9-.4-1.2-.3-.2-.7-.2-1.1-.2-2.5.4-4.6 2.1-6.6 3.7-3.5 2.8-6.9 5.5-10.4 8.3-1-3.4-1.3-7.1-.9-10.7M231 158.2c-42.8 70.2 28.1 67.7 38.5 63.3M386 138.3C389.6 35.8 317 36 300.6 36c.6 4.3.8 9.6.5 14M275.9 61.4c-6.5 1.8-13 4-19.2 6.7l-2.1 3.3c10.7 5.1 18.1 16.3 18.5 28.1M396.5 141.6c19.2 11 30.6 34.2 27.5 56-.5 3.6-1.4 7.2-3.5 10.2-5.1 7-15 7.9-23.6 8.1-6 .2-11.3.9-16.3-2.4M243.4 226.1c-1 6.5-1.9 13.1-.9 19.6 1 6.5 4.3 13 10 16.2M263 260.3c-63.5 19.2-20.5 74.2-4.7 71.2-.5 2.7-1.8 4.6-1.5 7.3.3 2.8 1.6 5.6 3.9 7.1 2.1 1.3 4.7 1.5 7.2 1.6 1.2 0 2.5.1 3.5-.6 2.3-1.6 1.1-5.5 2.5-7.9-1.6 2.5-1 5.9.8 8.1 1.9 2.2 4.8 3.4 7.7 3.6 2.1.1 4.5-.4 5.4-2.3 1-2-.2-4.5.8-6.5.3 4.9 5.8 8.5 10.7 7.7 4.9-.9 8.6-5.3 9.8-10.1 1.2-4.8.1-9.9-1.7-14.5s-4.4-8.8-6.6-13.3M318.2 327.7c22.1 3 44.6 6 66.7 2.3s43.9-15.2 54.6-34.7M426.5 323.9c.5 2.6 1.4 5.2 3.1 7.1 2.6 2.8 7.2 3.6 10.5 1.7 3.4-1.8 5.3-6 4.4-9.7 1.3 4.3-1.1 10.2 2.5 13 1.1.9 2.6 1.2 4 1.5 2.3.5 4.7.9 6.9.1 4.3-1.6 5.5-7 6-11.6-1.9 3.8.3 9 4.4 10.2 3.6 1.1 7.4-.8 10.5-2.9 2.3-1.6 4.5-3.5 5.3-6.2 1.6-4.9-2.3-9.8-5.9-13.5M438.1 249c1.5-3.8 5.6-5.7 9.6-6.6 8.4-1.9 17.6-.5 25.1 3.8 1.8 1 3.5 2.2 4.8 3.8 1.5 1.8 2.4 4 3.1 6.2 3.1 10.1 1.6 21.3-2.8 30.9-4.4 9.6-11.6 17.8-19.8 24.5M426.6 213.7c2.9 6.9 6.3 13.6 10 20.1M246.3 162.3c1.8-2.6 12.3-12.3 27.5-5.7M397.7 158c-.6-5.6-14-11.5-28-2"/><path class="st5" d="M254.5 179.5c.6 1.7 12.6 7.8 13.8 9.1 1.2 1.3 3.1 2.1 4.8 1.5 1.4-.5 2.4-2 2.7-3.5s.1-3.1-.2-4.6c.1 1.5.8 3 2.1 3.7 1.3.7 3.2.5 4-.7 1-1.5.2-3.6.8-5.3.6 1.8 2.5 3.2 4.4 3.1 1.9 0 3.8-1.5 4.3-3.3.6-2.2-.7-4.3-2.1-6.2-3.8-4.9-12.6-7.8-16.6-6.8M363.5 162.5c-5.3 0-16.3 4.1-15.5 13.4 0 .4 0 .8.2 1.1.4.7 1.3.9 2.1.9 2.7.3 5.9.3 7.2-2v4.7c0 .4 0 .9.2 1.3s.6.6 1 .8c1.7.9 3.9 1.3 5.6.5s3-2.9 2.4-4.8c-.1 2.4.8 4.9 2.6 6.5 1.8 1.6 4.6 2.1 6.7 1 2.2-1.1 9.2-10.3 8.4-12.5"/><path d="M303.2 107.7c27.4 5.5 19.7-16.8 19.4-20.2 7.7 8.5 20.8 16.5 28.1 3.8" fill="none" stroke="#424242" stroke-width="3" stroke-linecap="round" stroke-linejoin="round" stroke-miterlimit="10"/><path class="st6" d="M505.1 313.4c7.9 1.1 15.8 2.1 23.7 3.2 4.2.6 8.5 1.2 12.8 1 14.5-.7 27.5-10.5 35-23"/></svg>