<svg version="1.1" id="Слой_1" xmlns="http://www.w3.org/2000/svg" x="0" y="0" viewBox="0 0 566 452" xml:space="preserve"><style>.st0,.st2{fill:#edc914;stroke:#424242;stroke-width:2.5;stroke-linecap:round;stroke-linejoin:round;stroke-miterlimit:10}.st2{fill:none;stroke:#414242}.st3{fill:#414242}</style><path class="st0" d="M229.2 279.1c-2.2 7.1-5.3 14.6-10.1 20.1-5.6 6.2-2.6 16.2 5.6 18h.2c54.3 11.4 110.6 4.7 165.7-2.1 16.3-2 32.7-4 48.5-8.4 6-1.7 9.4-8.1 7.4-14-1.9-5.4-4.1-10.7-6.3-16-11.7-27.9-23.5-55.8-35.2-83.7-.7-1.6-1.4-3.2-2.8-4.2-2.1-1.3-4.9-.6-7.3.2-36.4 12.1-73.8 21-111.6 26.6-10.5 1.6-36.3 1.4-43 10.9-3.5 5.1-2.6 17.9-3.8 24.2-2 9.6-4.4 19.1-7.3 28.4z"/><path d="M265.3 65.3c8.8-10.5 13.1-22.8 21.6-33.6.7-.9 1.4-1.8 2.4-2.3 1.8-.9 3.9-.3 5.8.4 9.5 3.4 17.2 12.2 27 13.3 10.6 1.1 21.2-3.7 31.4-5.6 2-.4 4.2-.6 6.1.4 2.5 1.4 3.3 4.6 3.9 7.4 4.3 23.3 6.7 47 7 70.7 0 3.6.1 7.2 1.4 10.6 1.4 3.5 4.1 6.2 6.8 8.8 12.3 11.7 21.8 22.5 31.3 36.8 4.8 7.3 8.4 16.2 6.6 24.8-.8 3.7-2.6 7.1-3.6 10.8-2.1 7.9 1 15.4-.1 23.1-1 7.4-6.1 13.9-9 20.6-5.8 13.7-4.2 29.4-8.2 43.7-5.5 20.9-19.4 38.8-11.6 61.3.7 2 2.3 3.5 3.5 5.2 1.2 1.7 1.9 4.2.6 5.9-1.1 1.4-3.1 1.7-5 1.7-18 .7-27.5-1.9-35.2-19.1-3.4-7.5-6.1-15.5-11.5-21.8-5.4-6.2-14.5-10.2-22-6.8-4.7 2.1-7.8 6.6-10.7 10.8-5.1 7.6-13.5 16.6-16 25.6-.8 2.8-.7 5.9-2.3 8.3-2.5 3.7-7.5 4.2-11.9 4.3-4.5.1-9.1.3-13.6-.5-2.8-.5-5.8-1.5-7.6-3.7-4.9-6 3.9-8.4 5.3-12.8 2.1-6.4 1.1-18.2 1.6-25.3-19.4 9-39.6 16.9-60.9 18.3s-43.9-4.7-58.5-20.3c-16.4-17.6-19.5-46.2-7.2-66.9 1.6-2.7 11.9-8.1 14.7-8.2 9.8-.2 20.3.1 28.6 5.4 12.3 7.7 16.4 23.6 17.8 38.1.7 6.6 1.1 13.7 5.1 19.1 2.5 3.4 6.2 5.9 10.2 7.4 17.2 6.6 37.8-4.1 45.7-20.7 7.9-16.6 4.9-36.9-4-52.9 0-4.9-7.4-9.8-10.2-13.2-4.6-5.6-7.9-12.7-11.5-19-1.7-3-3.5-6.1-3.8-9.5-.3-3 .5-5.9 1.5-8.8 4.1-12.6 10.7-23.8 19.4-33.7 7.3-8.2 17.3-17 17.3-28.9 0-7.2-3.9-13.8-6.4-20.6.1-.1-10.6-26 8.2-48.6z" fill="#8888e5"/><path class="st2" d="M276.3 53.7c3.8-6.8 7.6-13.6 11.3-20.4.6-1 1.2-2.1 2.2-2.7 1.9-1.1 4.2-.1 6.1 1 4.6 2.6 9 5.8 12.9 9.4M336.1 45.2c6.6-1.8 13.3-3.4 20-4.9.5-.1.9-.2 1.4 0 .7.3 1 1.1 1.2 1.8 2.5 9.7 3.6 19.7 4.7 29.6M125.4 288.6c28 5.2 48.6-10 57.5-19.3M127 300.6c18.2 7.6 43.1 5.5 62.3-18.3M261.6 332.7c-.8 7.6-2.1 15.1-3.8 22.5-.2.7-.4 1.5-1 2-.7.5-1.5.3-2.3.5-2.3.4-3.7 3.1-3.2 5.4.5 2.3 2.4 4 4.5 5.1 2.8 1.4 7 1.3 8.1-1.6 0 .9 0 1.9.1 2.8 1.7.5 3.4 1 5.1.6s3.3-1.8 3.2-3.5c1.8 1 3.7 2 5.8 2.3 2.1.3 4.4-.1 5.8-1.7.9-1 1.3-2.4 1.8-3.6 3.4-10 9-19.2 16.5-26.7M382 323.3c-1.1 9.4-1.2 18.9-.3 28.4.2 2.2.6 4.7 2.4 6.1 1.7 1.3 4.3 1.3 5.6 3 1.4 1.7.5 4.5-1.3 5.6-1.8 1.2-4.3.9-6.3-.1-1.9-1-3.5-2.6-4.9-4.2 1.9 2.6-.2 6.8-3.4 7.4s-6.4-2.1-7-5.2c0 2.6-3.3 4.3-5.8 3.5-2.5-.8-4-3.4-4.5-6s-.2-5.2-.1-7.8c.3-11.9-5-23.9-14.1-31.7M250.5 160.1c-3.5 4.6-7.1 9.2-10.6 13.8-4.3 5.5-8.6 11.2-11.1 17.7s-3.1 14.2.2 20.4c3.6 6.9 11.2 10.8 18.6 13.2 5.8 1.9 13 4.2 14.1 10.2.6 3.1-.7 6.7 1.1 9.3 1.5 2.3 4.8 2.8 7.3 1.8 2.5-1 4.3-3.3 5.6-5.7 3.7-7 3.7-15.8-.1-22.7-2.4-4.5-6.4-8.3-7.7-13.2-1.5-5.7 1.1-12.3 6.2-15.3M393.1 154.2c3.3.9 5.9 3.3 8.3 5.6 4.7 4.5 9.4 9 13 14.4 3.5 5.4 5.7 12 4.7 18.4-.9 5.6-4 10.5-6.5 15.6s-4.4 11-2.6 16.3c1 2.9 3 5.9 2 8.8-.8 2.4-3.4 3.7-5.9 4.2-1.6.3-3.4.3-4.6-.7-1.8-1.4-1.8-4-1.6-6.2 1.4-23.1-.4-47.6-13.2-66.9-2.2-3.3-4.9-6.6-8.5-8.2M279.3 290.5c-.1 1.5 1 2.7 2 3.8 11.7 12.4 26.5 24 43.5 24.1 17.9.1 33.1-12.5 46.6-24.3M322.5 100.7c-17.3 7.5-19.6-11.2-19.6-11.2s-6.8 15.7-23.5 5"/><ellipse transform="rotate(-69.445 332.774 84.24)" class="st3" cx="332.8" cy="84.2" rx="5.9" ry="3.9"/><ellipse transform="rotate(-75.275 285.92 77.684)" class="st3" cx="285.9" cy="77.7" rx="5.9" ry="3.9"/><path class="st0" d="M315.6 155.5l9.9-2.3-4.3 9.3 5.2 8.7-10.1-1.2-6.7 7.6-2-10-9.3-4 8.9-4.9.9-10.2z"/><path class="st0" d="M264.1 134.6s27.7 22.1 38.7 26.4c0 0-12.2 7.4-48.3-6.8 0 0 6.1-9 9.6-19.6zM371.5 124.1c-2.3 13.8-50.9 38.6-49.3 38.7 30.8 2.2 61.7-21.2 61.6-21.2-10.5-8.7-12.3-17.5-12.3-17.5z"/></svg>