<svg version="1.1"  id="Слой_1" xmlns="http://www.w3.org/2000/svg" x="0" y="0" viewBox="0 0 566 452" xml:space="preserve"><style>.st3{fill:#414242}</style><path d="M348.2 216.4c-4.3-22.4-12-84.8 34.1-95 56.4-12.5 64.4 66.2 64.4 66.2-3.1 20.3-31.6 39.1-69 55 41.3 20.7 27.9 50.7 27.9 50.7-35.8 2.2-57.1-21.8-65-32.9-23.9 36.3-63.5 49.9-99.4 54.1-1 3.1-2.3 6-4.3 8.7-15.3 20.9-14.8 48.1-14.8 48.1s-13.4 15.7-29.2-13.7c-7.6-14.1-7.3-30-4.9-42.7-15.5-1.4-25.5-3.6-25.5-3.6s-16.6 5.6-22.5 1.5c-3.3-2.3 2.8-11.1 8.8-18.3" fill="#8888e5" stroke="#414242" stroke-width="2.5" stroke-linecap="round" stroke-linejoin="round" stroke-miterlimit="10"/><path d="M352.2 215.8s-40.2-90.9-105.1-90.2c-64.9.6-111.5 90-103 149.8s218.1-40.8 208.1-59.6z" fill="#edc914"/><path d="M352.2 224.6s-40.2-90.9-105.1-90.2c-64.9.6-111.5 90-103 149.8s218.1-40.8 208.1-59.6z" fill="none" stroke="#414242" stroke-width="2.5" stroke-linecap="round" stroke-linejoin="round" stroke-miterlimit="10"/><path class="st3" d="M412 166.2c.7 5.6 4.1 9.8 7.5 9.4 3.4-.4 5.6-5.4 4.9-11s-4.1-9.8-7.5-9.4-5.6 5.3-4.9 11zM197.7 160c-1.2 10.3-2.1 20.6-2.8 30.9-.3 5.2-.6 10.3-.8 15.5-.2 5.2-.3 10.3-.3 15.5 0 10.3.5 20.6 1.5 30.9.6 5.1 1.2 10.2 2.2 15.3.9 5.1 2.1 10.1 3.6 15.1-2-4.8-3.5-9.8-4.8-14.8-1.3-5-2.2-10.2-3-15.3-.8-5.1-1.2-10.3-1.6-15.5-.3-5.2-.5-10.4-.5-15.6 0-10.4.5-20.8 1.6-31.1 1.2-10.5 2.7-20.8 4.9-30.9zM261.3 149c-.7 8.9-.9 17.8-.9 26.6 0 4.4.1 8.9.4 13.3l.3 6.6.5 6.6c.1 2.2.4 4.4.6 6.6.2 2.2.4 4.4.7 6.6l.8 6.6c.3 2.2.7 4.4 1 6.6.6 4.4 1.4 8.8 2.2 13.1.3 2.2.8 4.4 1.3 6.5.4 2.2.9 4.4 1.3 6.6-.7-2.1-1.3-4.3-1.9-6.4-.6-2.1-1.3-4.3-1.8-6.4-1-4.3-2.1-8.7-2.9-13.1-1.8-8.8-2.9-17.6-3.7-26.5-.7-8.9-.9-17.9-.7-26.8.3-8.8 1.1-17.7 2.8-26.5z"/><path class="st3" d="M160.3 234.7c.9.3 1.9.4 2.9.5l2.9.5 5.8 1c3.9.7 7.7 1.5 11.6 2.4 3.8.8 7.7 1.8 11.5 2.8 3.8 1 7.6 2.2 11.3 3.4 3.7 1.2 7.5 2.6 11.1 4 3.7 1.5 7.3 3.1 10.8 4.8 3.5 1.7 7 3.7 10.3 5.8 3.3 2.2 6.5 4.5 9.3 7.2-6.4-4.6-13.4-8.2-20.5-11.3-7.1-3.1-14.5-5.8-21.9-8.3-7.4-2.5-14.9-4.6-22.5-6.7l-11.4-3-5.7-1.5c-1.7-.4-3.7-.9-5.5-1.6zM183.1 182.1c.2-.3.7-.4 1-.6.4-.1.7-.2 1.1-.3.8-.2 1.5-.3 2.3-.5 1.5-.3 3.1-.4 4.6-.6 3.1-.3 6.2-.5 9.3-.5 6.2-.1 12.5.1 18.7.7 6.2.5 12.4 1.4 18.6 2.4 6.1 1.1 12.2 2.5 18.3 4.1 12.1 3.3 23.8 7.5 35.2 12.8 11.3 5.3 22.1 11.5 32.2 18.8-10.7-6.4-21.7-12.1-33-17-5.7-2.4-11.4-4.7-17.3-6.7-5.8-2-11.7-3.9-17.7-5.4-11.9-3.2-24.1-5.5-36.4-7-6.1-.7-12.3-1.2-18.5-1.4-3.1-.1-6.2-.1-9.3 0-1.5.1-3.1.1-4.6.3-.8.1-1.5.1-2.3.3-.4.1-.8.1-1.1.2-.4 0-.8.1-1.1.4z"/><g><path class="st3" d="M444.6 175.9c.3 2.1-.1 4.2-.8 6.2-.7 2-1.9 3.8-3.5 5.3-1.6 1.4-3.5 2.6-5.5 3.1-1 .4-2.1.4-3.1.6-1 .1-2.1 0-3.1-.1 1-.4 2-.6 2.9-.9l1.4-.5.7-.2.7-.3c.4-.2.9-.4 1.3-.6l1.2-.8c.4-.2.8-.5 1.1-.8.4-.3.8-.6 1.1-.9 1.4-1.3 2.6-2.8 3.5-4.5.8-1.8 1.6-3.6 2.1-5.6z"/></g></svg>