<svg xmlns="http://www.w3.org/2000/svg" viewBox="0 0 229.85 274.34"><defs><style>.cls-1{fill:#8888e5}.cls-2{fill:#424242}.cls-4{fill:#636463}</style></defs><g id="Layer_2" data-name="Layer 2"><g id="Слой_1" data-name="Слой 1"><path class="cls-1" d="M62.4 190.24c-3.09.45-6.42-1.12-8.65-4.15-3.42-4.65-1.18-7.81.21-11.19 4.89-11.9-2.4-26.9-14.42-31.54s-26.69.76-33.94 11.4-7.26 25.38-1.18 36.74S22 210.81 34.51 213.91c18.48 4.58 38.24-.75 56.87 3.16 5.32 1.12 10.64 3 16.05 2.44 5.71-.59 10.85-3.83 16.52-4.75 5.17-.84 10.44.31 15.6 1.21a163.61 163.61 0 0053.63.36c5.92-1 12.87-3.18 14.4-9 .9-3.43-.48-7-.67-10.56-.31-5.84 4.22-18.3 3.51-24.11-1-7.91-5.87-7.11-9.21-14.34-2.43-5.24-6.63-10.74-7.15-16.5a167.13 167.13 0 00-10.61-45.32c-2.51-6.5-5.45-12.91-10.16-18.09-10.86-12.09-27.94-14.83-44.62-15.41a1.89 1.89 0 00-1.3 3.32 5.5 5.5 0 011.89 5 7.42 7.42 0 01-7.92 6.27L97 76c-4.33-.27-10.61 1.71-9.28 5.85 6 .91 10.74 5.93 13 11.55 6.88 16.85-.29 35.23-10 49.35-7.53 10.98-16.41 21.52-19.72 34.38-.79 3.06-1.28 6.27-2.89 9a8 8 0 01-5.71 4.11z"/><path class="cls-2" d="M148.13 216.28a18.45 18.45 0 01-2.63-.24 10.85 10.85 0 01-4.73-1.47 5.5 5.5 0 01-1.7-1.85 6.31 6.31 0 01-2.48.64 5.3 5.3 0 01-4.87-8.43 6 6 0 013-2.42c-2-4.72-5.79-8.48-9.76-12.44a75.47 75.47 0 01-7.17-7.86 37 37 0 01-7.06-26.61 1.5 1.5 0 013 .37 34 34 0 006.49 24.44A72.93 72.93 0 00127 188c4.48 4.47 9.11 9.09 11.12 15.31a1.48 1.48 0 01-.26 1.4 1.52 1.52 0 01-1.32.55 2.58 2.58 0 102.2 3.79 1.5 1.5 0 012.76 1.17 1.87 1.87 0 00.91 1.92 8.42 8.42 0 003.46 1A7.81 7.81 0 00150 213a2.11 2.11 0 001.09-1.22.79.79 0 00.06-.29 4.24 4.24 0 01-.25-.88 1.48 1.48 0 01.94-1.69 1.5 1.5 0 011.83.66 4.09 4.09 0 01.4 1c.67 1.07 2.54 1.61 4.1 1.88 2.1.37 4.42.58 5.71-.63s1.09-3.53.36-5.16a20.26 20.26 0 00-2.21-3.51c-.58-.8-1.18-1.63-1.71-2.51-2.56-4.25-3.23-9.28-3.81-13.72L154 167.8a1.5 1.5 0 113-.4l2.54 19.11c.55 4.14 1.17 8.84 3.41 12.56.47.78 1 1.52 1.57 2.3a23.14 23.14 0 012.52 4c1.19 2.66 1.33 6.34-1 8.57s-5.62 1.87-8.29 1.41a12.13 12.13 0 01-4.32-1.49 5.09 5.09 0 01-2.1 1.78 7.35 7.35 0 01-3.2.64zM101 213.73a12.78 12.78 0 01-4.12-.87 8.92 8.92 0 01-5.27-5.13 7.13 7.13 0 01-5.74.45A6.22 6.22 0 0182 201a5.43 5.43 0 012.5-3.24 35 35 0 01-10.3-12.32c-2.81-5.44 1.7-16.52 8.27-20.44 7.76-4.69 13.79 2.16 16 5.32a1.5 1.5 0 11-2.42 1.68c-2.66-3.75-6.9-7.59-12-4.48-5.54 3.35-9.07 12.87-7.19 16.56a31.7 31.7 0 0012.62 13.36 1.5 1.5 0 01-1.38 2.66 2.16 2.16 0 00-1.8.08 2.59 2.59 0 00-1.41 1.58 3.25 3.25 0 002 3.62 4.35 4.35 0 004.51-1.24 1.48 1.48 0 011.6-.41 1.5 1.5 0 011 1.32 5.85 5.85 0 003.82 5c1.42.49 3.05 1 4.28.51A4.59 4.59 0 00104 208a3.89 3.89 0 01-.34-1.3 1.5 1.5 0 012.58-1.16A2.79 2.79 0 01107 207a5.86 5.86 0 003.45.69 5.1 5.1 0 001.79-.28 2.84 2.84 0 001.17-3 11.43 11.43 0 00-2.08-4.21 1.5 1.5 0 112.49-1.67 13.8 13.8 0 012.55 5.4c.36 2.25-.51 5.09-2.87 6.18a7.68 7.68 0 01-2.91.55 10 10 0 01-4.19-.6 6.76 6.76 0 01-3.23 3.24 6.09 6.09 0 01-2.17.43zM181.7 216.86a6.31 6.31 0 01-4.83-2.33 5.34 5.34 0 01-3.46 1.57 4.78 4.78 0 01-4-2.24 1.5 1.5 0 112.39-1.81c.54.71 1 1.08 1.54 1.06a4 4 0 002.5-2 1.5 1.5 0 012.63.29 3.46 3.46 0 003.81 2.37c1.25-.24 2.58-1.35 2.58-3.75a1.49 1.49 0 012.39-1.2 3 3 0 003.32-.1 1.9 1.9 0 001-2c-.58-2.49-3.79-3.83-6.41-3.51a1.5 1.5 0 01-1.32-.52 1.47 1.47 0 01-.3-1.38 169.39 169.39 0 006.14-60.79 1.5 1.5 0 113-.24 172.58 172.58 0 01-5.7 59.93c3.37.33 6.7 2.33 7.52 5.83a4.82 4.82 0 01-2.25 5.17 6.22 6.22 0 01-4.63.94 6.06 6.06 0 01-4.73 4.55 6.6 6.6 0 01-1.19.16z"/><path class="cls-2" d="M196.6 213.6a1.5 1.5 0 01-.32-3c2.13-.46 2.34-3 2.08-5.21a3.45 3.45 0 01-.07-.55 1.51 1.51 0 011.35-1.58 1.48 1.48 0 011.63 1.28v.37a1.82 1.82 0 001.51 1.33 1.79 1.79 0 001.75-1.33 3.9 3.9 0 00-.21-1.79 8.64 8.64 0 00-3-4.57 4.8 4.8 0 00-4.65-.66c-1.26.59-2.69 1.17-3.94.67a2.37 2.37 0 01-1.35-1.37 1.49 1.49 0 01.19-1.44l8.67-11.64a19.22 19.22 0 003.4-5.89 8.68 8.68 0 00-9.08-11 1.5 1.5 0 11-.25-3 11.69 11.69 0 0112.22 14.84 21.81 21.81 0 01-3.89 6.86L196 195a7.85 7.85 0 017.19 1.15 11.62 11.62 0 014.08 6.15 6.6 6.6 0 01.27 3.23 4.8 4.8 0 01-4.91 3.73 4.51 4.51 0 01-1.36-.33 5.55 5.55 0 01-4.34 4.64 1.63 1.63 0 01-.33.03zM50.16 212.22c-14.53 0-43.27-10.45-46.53-31.64-1.37-8.91 2.23-24.9 12.55-31.72 5.19-3.43 14.19-5.76 27.61 2.57a1.5 1.5 0 11-1.58 2.57c-9.7-6-17.9-6.9-24.37-2.61C12 155.21 4.68 167.66 6.6 180.13c3.15 20.47 33.81 30.3 45.91 29a1.5 1.5 0 11.32 3 24.61 24.61 0 01-2.67.09zM131.68 107.31a19.6 19.6 0 01-2.88-.22 1.5 1.5 0 01.43-3c3.73.54 6.52-.09 8.28-1.85 3.08-3.07 2.32-8.68 2.31-8.74a1.5 1.5 0 012.65-1.15s2.95 3.58 7.19 3.7c3 .08 6-1.53 9-4.79a1.5 1.5 0 112.22 2c-3.59 4-7.39 5.91-11.3 5.78a12.41 12.41 0 01-6.7-2.37 12.3 12.3 0 01-3.21 7.68 10.76 10.76 0 01-7.99 2.96zM98.75 87.52a1.54 1.54 0 01-1.2-.59 14.5 14.5 0 00-8.67-5.35 1.5 1.5 0 010-3 53.83 53.83 0 0120.08.56 1.51 1.51 0 011.18 1.86 1.5 1.5 0 01-1.79 1.14 50.79 50.79 0 00-13-1.14 17.38 17.38 0 014.55 4.12 1.5 1.5 0 01-1.18 2.42zM130.89 74.77a1.5 1.5 0 01-.74-2.8 2 2 0 00.53-2.78l-.34-.4c-.69-.79-2.12-2.44-.92-4.14a1.49 1.49 0 011.68-.56 54.48 54.48 0 0017.19 2.6 1.5 1.5 0 010 3 58.49 58.49 0 01-14.91-1.82 4.94 4.94 0 01.52 3.38 4.78 4.78 0 01-2.28 3.32 1.46 1.46 0 01-.73.2z"/><path class="cls-2" d="M48.7 175.57a1.49 1.49 0 01-1.33-2.2 14.14 14.14 0 00-1.48-15.21 1.5 1.5 0 012.33-1.9A17.23 17.23 0 0150 174.78a1.49 1.49 0 01-1.3.79z"/><ellipse class="cls-2" cx="118.11" cy="95.5" rx="3.02" ry="4.53" transform="rotate(-35.83 118.123 95.5)"/><ellipse class="cls-2" cx="151.51" cy="81.16" rx="3.02" ry="4.53" transform="rotate(-30 151.514 81.158)"/><path class="cls-1" d="M205.88 42a3.8 3.8 0 01-2.76-1 3.49 3.49 0 01-1.12-2.66V8.1l.84 1.32-4.56 2.76a3.67 3.67 0 01-1.92.54 3.28 3.28 0 01-2.58-1.17 3.74 3.74 0 01-1-2.49 3.42 3.42 0 011.86-3.12l9.06-5.4a5.48 5.48 0 012.6-.54 3.35 3.35 0 012.55 1.05 3.66 3.66 0 011 2.61v34.68a3.45 3.45 0 01-1.12 2.66 4 4 0 01-2.85 1z" opacity=".7"/><path class="cls-4" d="M17.24 250.21a9.93 9.93 0 014.35.91 9.26 9.26 0 013.22 2.57 11.49 11.49 0 012 3.81 15.64 15.64 0 01.66 4.6 14.77 14.77 0 01-1.19 6 10.08 10.08 0 01-3.45 4.3 9.36 9.36 0 01-5.56 1.6H9.12a2 2 0 01-1.48-.59 2 2 0 01-.59-1.48v-19.65a2 2 0 01.59-1.48 2 2 0 011.48-.59zm-.34 19.88a5.39 5.39 0 003.5-1.1 6.32 6.32 0 002-2.93 12 12 0 00.63-4 12.53 12.53 0 00-.36-3 7.73 7.73 0 00-1.1-2.55 5.3 5.3 0 00-4.66-2.39H11l.34-.31v16.65l-.2-.37zM43.31 255.54L36 272.81a2 2 0 01-.73 1 1.77 1.77 0 01-1.07.36 1.71 1.71 0 01-1.36-.51 1.88 1.88 0 01-.44-1.26 2.13 2.13 0 01.1-.64l8.47-20.33a2.18 2.18 0 01.83-1.05 1.79 1.79 0 011.2-.31 2 2 0 011.14.36 2 2 0 01.77 1l8.36 19.92a2.35 2.35 0 01.17.81 1.93 1.93 0 01-1.9 2 1.85 1.85 0 01-1.11-.37 2.41 2.41 0 01-.76-1l-7.31-17zM37 268.66l1.87-3.91h9.17l.65 3.91zM58.54 254.12a2.13 2.13 0 01-1.48-.55 1.86 1.86 0 01-.59-1.43 1.8 1.8 0 01.59-1.41 2.16 2.16 0 011.48-.52h15.09a2.11 2.11 0 011.48.54 1.84 1.84 0 01.6 1.43 1.78 1.78 0 01-.6 1.41 2.15 2.15 0 01-1.48.53zM66.05 274a2.18 2.18 0 01-1.56-.59 2 2 0 01-.61-1.48v-19.72h4.42v19.72a2 2 0 01-.63 1.48 2.29 2.29 0 01-1.62.59zM89.71 255.54l-7.34 17.27a2 2 0 01-.73 1 1.79 1.79 0 01-1.07.36 1.7 1.7 0 01-1.36-.51 1.83 1.83 0 01-.44-1.26 2.13 2.13 0 01.1-.64l8.46-20.33a2.2 2.2 0 01.84-1.05 1.79 1.79 0 011.2-.31 2 2 0 011.14.36 2 2 0 01.77 1l8.36 19.92a2.35 2.35 0 01.17.81 1.95 1.95 0 01-1.91 2 1.84 1.84 0 01-1.1-.37 2.51 2.51 0 01-.77-1l-7.3-17zm-6.29 13.12l1.87-3.91h9.18l.65 3.91zM108.54 274a2.7 2.7 0 01-1.7-.59 1.81 1.81 0 01-.74-1.48v-19.65a2 2 0 01.59-1.48 2 2 0 011.48-.59H118a6.3 6.3 0 013.31.93 7 7 0 012.5 2.58 7.41 7.41 0 011 3.79 6.32 6.32 0 01-.52 2.52 8.06 8.06 0 01-1.43 2.21 6.67 6.67 0 01-2 1.53v-.78a5.62 5.62 0 012.57 2.7 5.11 5.11 0 01.42 1.72c.09.56.15 1.06.19 1.49a4.43 4.43 0 00.2 1.09 1.21 1.21 0 00.6.68 1.88 1.88 0 01.93 1.27 1.56 1.56 0 01-.39 1.48 1.63 1.63 0 01-1 .56 2.83 2.83 0 01-1.16 0 3.4 3.4 0 01-1-.32 4.89 4.89 0 01-1.15-1 4.94 4.94 0 01-.94-1.79 9.66 9.66 0 01-.36-2.89 2.72 2.72 0 00-.2-1.07 2.52 2.52 0 00-.58-.85 2.44 2.44 0 00-1-.54 4.3 4.3 0 00-1.36-.19h-6.86l.5-.78v7.38a2.28 2.28 0 01-.47 1.48 1.63 1.63 0 01-1.26.59zm1.33-12.17h7.92a1.73 1.73 0 001.19-.56 4.22 4.22 0 001-1.53 5.83 5.83 0 00.37-2.12 3.9 3.9 0 00-.79-2.5 2.24 2.24 0 00-1.72-1h-7.85l.4-1.09v9.62zM154.4 262.1a13.28 13.28 0 01-.85 4.76 12.21 12.21 0 01-2.4 3.89 11 11 0 01-3.67 2.64 11.29 11.29 0 01-4.64.95 11 11 0 01-8.28-3.59 12 12 0 01-2.39-3.89 13.75 13.75 0 010-9.52 12 12 0 012.39-3.89 11.32 11.32 0 0116.59 0 12.21 12.21 0 012.4 3.89 13.32 13.32 0 01.85 4.76zm-4.42 0a9.21 9.21 0 00-.92-4.13 7.59 7.59 0 00-2.51-2.94 6.9 6.9 0 00-7.41 0 7.38 7.38 0 00-2.5 2.93 9.95 9.95 0 000 8.27 7.27 7.27 0 002.5 2.94 6.84 6.84 0 007.41 0 7.45 7.45 0 002.51-2.94 9.18 9.18 0 00.94-4.13zM172.34 250.21a6.82 6.82 0 014.87 1.53 6 6 0 011.59 4.52 4.83 4.83 0 01-3.09 4.67 9.53 9.53 0 01-3.77.66l.13-1.53a12.07 12.07 0 012.42.29 9 9 0 012.63 1 5.78 5.78 0 012.94 5.39 8 8 0 01-.73 3.67 5.71 5.71 0 01-1.92 2.21 7.33 7.33 0 01-2.55 1.07 12.81 12.81 0 01-2.62.29h-8.46a2 2 0 01-1.48-.59 2 2 0 01-.59-1.48v-19.63a2 2 0 01.59-1.48 2 2 0 011.48-.59zm-.61 4h-6l.44-.55v6.16l-.4-.31h6.11a2.71 2.71 0 001.77-.65 2.28 2.28 0 00.78-1.87 2.44 2.44 0 00-2.65-2.78zm.27 9.31h-6.18l.3-.27v7.17l-.34-.34h6.46a3.57 3.57 0 002.48-.83 3.19 3.19 0 00.92-2.5 3.24 3.24 0 00-.61-2.21 2.64 2.64 0 00-1.46-.85 8.34 8.34 0 00-1.57-.16zM189.44 250.21h11.39a2.05 2.05 0 011.48.56 1.9 1.9 0 01.59 1.44 1.77 1.77 0 01-.59 1.38 2.17 2.17 0 01-1.48.53h-9.52l.31-.58v6.63l-.27-.28h8a2.1 2.1 0 011.48.56 1.94 1.94 0 01.59 1.45 1.78 1.78 0 01-.59 1.38 2.16 2.16 0 01-1.48.52h-7.85l.17-.27v6.87l-.27-.31h9.48a2 2 0 011.48.6 1.89 1.89 0 01.59 1.37 1.84 1.84 0 01-.59 1.4 2.13 2.13 0 01-1.48.54h-11.44a2 2 0 01-2.07-2.07v-19.65a2 2 0 012.07-2.07zM212.66 274a2.68 2.68 0 01-1.7-.59 1.82 1.82 0 01-.75-1.48v-19.65a2 2 0 012.07-2.07h9.79a6.34 6.34 0 013.32.93 7.12 7.12 0 012.5 2.58 7.51 7.51 0 011 3.79 6.33 6.33 0 01-.53 2.52 7.84 7.84 0 01-1.43 2.21 6.55 6.55 0 01-2 1.53v-.78a5.63 5.63 0 011.58 1.2 5.91 5.91 0 011 1.5 5.12 5.12 0 01.43 1.72c.09.56.15 1.06.18 1.49a4.39 4.39 0 00.21 1.09 1.22 1.22 0 00.59.68 1.93 1.93 0 01.94 1.27 1.61 1.61 0 01-.39 1.48 1.63 1.63 0 01-1 .56 2.79 2.79 0 01-1.15 0 3.29 3.29 0 01-.95-.32 4.92 4.92 0 01-1.16-1 4.79 4.79 0 01-.93-1.79 9.66 9.66 0 01-.36-2.89 2.72 2.72 0 00-.21-1.07 2.36 2.36 0 00-.57-.85 2.48 2.48 0 00-1-.54 4.19 4.19 0 00-1.35-.19H214l.51-.78v7.38a2.29 2.29 0 01-.48 1.48 1.61 1.61 0 01-1.37.59zm1.34-12.17h7.92a1.72 1.72 0 001.19-.56 4 4 0 00.95-1.53 5.83 5.83 0 00.38-2.12 3.9 3.9 0 00-.8-2.5 2.23 2.23 0 00-1.72-1h-7.85l.41-1.09v9.62z"/></g></g></svg>