<svg xmlns="http://www.w3.org/2000/svg" width="30" height="28" fill="none" viewBox="0 0 30 28"><path fill="#ECC711" d="M14.1033 0.816984C14.4701 0.0737379 15.5299 0.0737401 15.8967 0.816986L19.4696 8.05642C19.6153 8.35157 19.8968 8.55614 20.2225 8.60346L28.2117 9.76436C29.032 9.88355 29.3595 10.8915 28.766 11.4701L22.9849 17.1052C22.7492 17.3349 22.6417 17.6659 22.6973 17.9903L24.062 25.9472C24.2022 26.7641 23.3447 27.3871 22.6111 27.0014L15.4653 23.2446C15.174 23.0915 14.826 23.0915 14.5347 23.2446L7.38891 27.0014C6.65528 27.3871 5.79785 26.7641 5.93796 25.9472L7.30268 17.9903C7.35831 17.6659 7.25077 17.3349 7.01508 17.1052L1.23404 11.4701C0.640526 10.8915 0.968038 9.88355 1.78826 9.76436L9.77745 8.60346C10.1032 8.55614 10.3847 8.35157 10.5304 8.05642L14.1033 0.816984Z"/></svg>