<svg version="1.1" id="Слой_1" xmlns="http://www.w3.org/2000/svg" x="0" y="0" viewBox="0 0 1579 1009"
     xml:space="preserve"><style>.st0{fill:#f9f9f4}.st1{fill:#414242}.st2{fill:#8888e5}.st3{fill:#fff}.st4{fill:none;stroke:#424242;stroke-width:3;stroke-linecap:round;stroke-linejoin:round;stroke-miterlimit:10}.st5{fill:#424242}.st7,.st8,.st9{fill:none;stroke:#424242;stroke-width:3;stroke-miterlimit:10}.st8,.st9{stroke:#414242}.st9{stroke:#424242;stroke-width:2;stroke-linecap:round;stroke-linejoin:round}</style>
    <path class="st0"
          d="M1477.3 274.4l-89.5-51.8c-20.7-12-46.3-12.1-67.1-.1L848.5 493.1c-17.6 10.1-39.3 10.2-57 .1l-63.3-36c-17.2-9.8-.3 15.3-17.5 25.1l-252.1 145c-16.4 9.4-54.4 8-38 17.4l101 64.5-117.5 55.5L247 860.3c-12.9 7.5-12.9 26.2 0 33.6l89.5 51.8c20.7 12 46.3 12.1 67.1.1l216.2-125.6c17.6-10.1 39.3-10.2 57-.1l63.3 36c17.2 9.8 38.3 9.7 55.5-.1l252.1-145c16.4-9.4 16.4-33 0-42.4l-93.3-53.7 109.8-66.3L1477.3 308c12.9-7.5 12.9-26.1 0-33.6z"/>
    <g id="XMLID_55_"><g id="XMLID_56_"><path id="XMLID_60_" class="st0" d="M1402.7 329.4l-30.2 17.6c-.6.4-1.4-.1-1.4-.8v-55.5l31.6-18.4v57.1z"/><path
            id="XMLID_57_" class="st1"
            d="M1372 349.1c-.5 0-1-.1-1.4-.4-.9-.5-1.4-1.5-1.4-2.5v-56.6l35.5-20.6v61.6l-31.1 18.1c-.6.2-1.1.4-1.6.4zm1-57.3v52.7l27.8-16.2v-52.7l-27.8 16.2z"/></g></g>
    <g id="XMLID_49_"><g id="XMLID_50_"><path id="XMLID_54_" class="st0" d="M1271.2 405.7l-30.2 17.6c-.6.4-1.4-.1-1.4-.8V367l31.6-18.4v57.1z"/><path
            id="XMLID_51_" class="st1"
            d="M1240.5 425.3c-.5 0-1-.1-1.4-.4-.9-.5-1.4-1.5-1.4-2.5v-56.6l35.5-20.6v61.6l-31.1 18.1c-.6.3-1.1.4-1.6.4zm1-57.2v52.7l27.8-16.2v-52.7l-27.8 16.2z"/></g></g>
    <g id="XMLID_43_"><g id="XMLID_44_"><path id="XMLID_48_" class="st2" d="M1369.7 347l-53.5-31.2 55-25v55.5c-.1.6-.9 1.1-1.5.7z"/><path
            id="XMLID_45_" class="st1"
            d="M1370.1 349.1c-.5 0-1-.1-1.4-.4l-56.7-33.1 61.1-27.8v58.4c0 1-.6 2-1.4 2.5-.6.2-1.1.4-1.6.4zm-49.8-33.1l48.9 28.5v-50.8l-48.9 22.3z"/></g></g>
    <g id="XMLID_37_"><g id="XMLID_38_"><path id="XMLID_42_" class="st2" d="M1238.1 423.3l-53.5-31.3 55-25v55.5c-.1.7-.9 1.1-1.5.8z"/><path
            id="XMLID_39_" class="st1"
            d="M1238.6 425.3c-.5 0-1-.1-1.4-.4l-56.7-33.1 61.1-27.8v58.4c0 1-.6 2-1.4 2.5-.6.3-1.1.4-1.6.4zm-49.9-33.1l48.9 28.5V370l-48.9 22.2z"/></g></g>
    <g id="XMLID_31_"><g id="XMLID_32_"><path id="XMLID_36_" class="st0" d="M1130.7 481.4l-30.2 17.6c-.6.4-1.4-.1-1.4-.8v-55.5l31.6-18.4v57.1z"/><path
            id="XMLID_33_" class="st1"
            d="M1100 501.1c-.5 0-1-.1-1.4-.4-.9-.5-1.4-1.5-1.4-2.5v-56.6l35.5-20.6v61.6l-31.1 18.1c-.6.2-1.1.4-1.6.4zm1-57.3v52.7l27.8-16.2v-52.7l-27.8 16.2z"/></g></g>
    <g id="XMLID_25_"><g id="XMLID_26_"><path id="XMLID_30_" class="st0" d="M999.2 557.7L969 575.3c-.6.4-1.4-.1-1.4-.8V519l31.6-18.4v57.1z"/><path
            id="XMLID_27_" class="st1"
            d="M968.5 577.3c-.5 0-1-.1-1.4-.4-.9-.5-1.4-1.5-1.4-2.5v-56.6l35.5-20.6v61.6l-31.1 18.1c-.6.3-1.1.4-1.6.4zm1-57.2v52.7l27.8-16.2v-52.7l-27.8 16.2z"/></g></g>
    <g id="XMLID_19_"><g id="XMLID_20_"><path id="XMLID_24_" class="st2" d="M1097.7 499l-53.5-31.2 55-25v55.5c-.1.6-.9 1.1-1.5.7z"/><path
            id="XMLID_21_" class="st1"
            d="M1098.1 501.1c-.5 0-1-.1-1.4-.4l-56.7-33.1 61.1-27.8v58.4c0 1-.6 2-1.4 2.5-.6.2-1.1.4-1.6.4zm-49.8-33.1l48.9 28.5v-50.8l-48.9 22.3z"/></g></g>
    <g id="XMLID_13_"><g id="XMLID_14_"><path id="XMLID_18_" class="st2" d="M966.1 575.3L912.6 544l55-25v55.5c-.1.7-.9 1.1-1.5.8z"/><path
            id="XMLID_15_" class="st1"
            d="M966.6 577.3c-.5 0-1-.1-1.4-.4l-56.7-33.1 61.1-27.8v58.4c0 1-.6 2-1.4 2.5-.6.3-1.1.4-1.6.4zm-49.9-33.1l48.9 28.5V522l-48.9 22.2z"/></g></g>
    <g id="XMLID_1_"><g id="XMLID_7_"><path id="XMLID_12_" class="st3" d="M1322.1 100.1c-3.2-1.7-7.3-1.5-11.7 1L656.7 477.7c-10 5.8-18.2 21.4-18.2 34.7 0 7.6 2.6 12.9 6.7 14.9L796 613.2l162.5-114.4L1450 219.6l23.9-32.7-151.8-86.8z"/><path
            id="XMLID_8_" class="st1"
            d="M796.1 615.5L644.3 529c-4.9-2.5-7.7-8.5-7.7-16.6 0-14 8.6-30.3 19.1-36.4l653.6-376.5c4.9-2.8 9.7-3.2 13.6-1.1l153.7 87.9-25.8 34.9-491.3 279.3-163.4 115zm521.4-514.6c-1.9 0-4 .6-6.2 1.9L657.7 479.3c-9.5 5.5-17.2 20.3-17.2 33.1 0 6.6 2.1 11.4 5.7 13.2L795.9 611l161.5-113.7 491.2-279.1 22.4-30.6-149.9-85.7c-1.1-.7-2.3-1-3.6-1z"/></g>
        <g id="XMLID_2_"><path id="XMLID_6_" class="st0" d="M1463 236.9L809.4 613.4c-10 5.8-18.2-.4-18.2-13.7 0-13.4 8.1-28.9 18.2-34.7L1463 188.4c10-5.8 18.2.4 18.2 13.7 0 13.4-8.1 29-18.2 34.8z"/>
            <path id="XMLID_3_" class="st1"
                  d="M802.2 617.5c-2 0-3.9-.5-5.6-1.5-4.6-2.7-7.2-8.6-7.2-16.4 0-14 8.6-30.3 19.1-36.4l653.6-376.5c5-2.9 9.9-3.2 13.8-1 4.6 2.7 7.2 8.6 7.2 16.4 0 14-8.6 30.3-19.1 36.4L810.4 615c-2.8 1.7-5.6 2.5-8.2 2.5zm668.1-429.4c-1.9 0-4.1.6-6.3 1.9L810.4 566.5c-9.5 5.5-17.2 20.3-17.2 33.1 0 6.3 1.9 11.1 5.3 13 2.7 1.5 6.2 1.2 10-1l653.6-376.5c9.5-5.5 17.2-20.3 17.2-33.1 0-6.3-1.9-11.1-5.3-13-1.1-.6-2.4-.9-3.7-.9z"/></g></g>
    <path class="st0"
          d="M930.9 347.8c4.1 4.9 9.8 8.3 15.2 11.7 1.9 1.2 4.1 2.8 4 5.1-.1 2.8-3.4 4-5.7 5.4-5.9 3.6-8 11.8-6.1 18.4 1.9 6.7 7 12 12.7 16 12.3 8.6 27.6 12 42.5 12.2 15 .2 29.8-2.7 44.5-5.7 10-2.1 20.8-4.7 27-12.8 4.1-5.3 5.6-12.2 9.9-17.2 5.3-6.2 13.8-8.5 21.9-9.4 8.1-.9 16.4-.6 24.2-3 7.7-2.4 15.4-9.1 14.3-17.2-.9-6.9-7.5-11.3-13.6-14.8-15-8.6-30.3-16.6-45.9-24.2-2-.9-3.9-1.9-5.6-3.2-1.5-1.2-2.8-2.7-4.2-4-7.9-7.5-19.3-9.7-30.1-10.7-13.8-1.3-27.6-1.2-41.4.2-13.5 1.4-26.9 4.2-39.1 10.1-14.5 7.2-39.2 25.5-24.5 43.1z"/>
    <path class="st2"
          d="M925.6 304c-1.4 14-2.6 29.3 5 41.2 9.6 15.1 29.6 19.2 47.4 20.6-64.9 5-67.1 31.8-47.2 43.3 56 32.4 125.4-5.2 131.1-19.9 2.9-7.6 2.6-17.7-4.2-22.1 7.2 1 14.6.2 21.5-2.3 3.7-1.4 7.3-3.3 11.3-3.9 5.7-.9 11.5 1 17 2.8 5.5 1.9 11.2 3.8 17 2.9 5.7-.8 11.4-5.4 11.4-11.2 0-3.2-1.7-6.2-3.8-8.5-6.2-6.8-15.7-9.1-24.5-11.5-13.8-3.8-27.2-8.6-40.3-14.5-2.9-15.1-9.9-29.4-20-41.1-3.1-3.6-6.6-7-8.7-11.3-6.1-12.1.4-27 9.3-37.2 1.1-1.2 2.2-2.5 2.2-4.1.1-3.4-4.3-4.7-7.7-4.9-7.2-.5-12.8 1.6-20 1.1-1.3-.1-4.5-2.7-5.2-3.8-3.6-5.1.3-8.6-.2-11.6-.6-3.4-4.7-4.6-8.1-4.9-16.3-1.5-33.1 6.5-45.9 16.6-1.3 1-2.8 2.2-4.4 2.1-2.7-.2-4-3.3-5.3-5.7-3.8-7.1-13.4-10.8-20.8-7.4-7.3 3.4-10.6 13.9-5.9 20.5 3.5 5 10.6 7.8 11.6 13.9.8 5.4-3.9 10-8.5 12.9-4.6 2.9-10 5.6-12 10.7-1.7 4.5-.2 9.7 2.6 13.5 2.2 3 7.6 5.4 8.6 8.9.5 3.3-3 11.2-3.3 14.9z"/>
    <path class="st4"
          d="M1010 334.8c3.2 2.5 5.8 5.6 7.7 9.1M1006.9 343.8c4-2.7 8-5.3 11.9-8M1002.8 362.2c-15.6-1.7-31.5-.3-46.6 4.1-4.2 1.2-8.5 2.8-12.1 5.3-6.2 4.5-10 12.3-9.6 19.9M939.1 401.7c11.8 11.8 42.9 11.6 50.1 11.8M968 244.7c-5.3-8.1-10.7-16.3-14.2-25.3-.7-1.8-1.4-3.6-2.9-4.7-2.5-1.8-6.7 0-7.1 3.1-.3-2.2-1.1-4.5-2.8-6s-4.2-2.2-6.2-1.2c-2.2 1.1-3.2 3.9-2.9 6.4.2 1.6.8 3.1 1.5 4.5.3.5.5 1 .6 1.5-2.5-.1-4.7.1-5.8 2.7-1.2 3 1.2 6.9 3.8 8.4 2.6 1.5 5.7.5 7.7 3 1.8 2.2 2.6 4.9 3.7 7.5 1.7 4.1 3 8.3 5.3 12.2"/>
    <path class="st4"
          d="M944 255.4c-2 .8-2.5 3.6-1.3 5.4s3.5 2.5 5.6 2.2c2.1-.3 4-1.3 5.8-2.5 1.2-.8 2.3-1.6 3.7-1.9 2.2-.4 4.6 1.1 5.2 3.2.6 2.1-.6 4.7-2.7 5.5 2.6-.3 5.4.5 7.4 2.2 2.2 2 4.1 5.7 1.6 8.1-1.6 1.6-6.5 1.8-8.1-.1 2.2 2.8 4.6 6.1 4 9.6-.7 3.9-5.5 6.4-9 4.7-2.7-1.3-4.2-4.3-6.7-5.9-3.2-2.1-7.4-1.7-11.3-1.5-3.9.2-8.3-.3-10.5-3.5M949.7 291.4c-.3 6-.3 12 .1 17.9M980 268.4c8 13.7 14.9 28 20.7 42.7M1056.1 292.7c6.8 11.7 8.2 23.5 8.5 24.7 2.7 1.1 5.4 2.2 8 3.3 1.3.6 2.7 1.1 3.8 2.1 1.1 1 1.9 2.4 1.7 3.9-.3 1.7-1.9 3-3.7 3.3-1.7.3-3.5-.3-5-1.2 1.2 1.4 1.6 3.4 1.6 5.3 0 1.1-.1 2.2-.7 3.1-1.5 2.1-4.7 1.8-7.1.7-4-1.9-7.2-5.3-8.9-9.4-.5 2.4-1.1 4.8-2.6 6.7s-4.4 3-6.5 1.8c-.9-.5-1.6-1.4-2.1-2.3-2.5-4.5-1.7-10.1-.7-15.1 1.3-7-5.9-12.6-11.2-17.4M1083.3 358.8c2.2-1.6 5-2.3 7.7-2.9 3.5-.8 7.1-1.6 10.7-1.5.7 0 1.4.1 2.1.3 4.4 1.6 6 6.3 11.1 7.2 1.6.3 3.3.2 4.7-.6s2.5-2.3 2.2-3.9c2.3 2.6 6.3 2.7 9.7 2.5.9 0 1.9-.1 2.7-.6.7-.4 1.1-1.2 1.4-1.9 1.6-4.3-1.5-9.7-6.1-10.4 1.6-3.8-.6-8.7-4.5-10.1-3.5-1.2-7.4.2-11.1 0-2.7-.2-5.3-1.2-7.8-2.3-2.4-1-4.9-2-7.3-3.1M1034.9 350.8c8.4 1.7 15.3 8 20.1 15.1 1.8 2.7 16.7 29.8-42.5 42.4M989.2 207.2c8.8-2.9 26.5-5.9 23.6 0-2.9 5.9 0 8.8 0 8.8M1031.7 222.7c4.3-.3 8.6 0 12.8 1 .5.1 1 .3 1.4.6.5.5.5 1.3.2 1.9-.3.6-.8 1.1-1.2 1.6-4 4.3-6.9 9.7-8.4 15.4M930.3 310.3c-5.9 32.4 27.1 44.5 33.3 45.6M975.5 240.1c-.1.3.1.6.3.9 3.3 4.4 9.6 6.1 14.7 4-1.4 2.3-1.8 5.3-.9 7.9s3 4.8 5.5 5.7M978.9 247.5c-1.8.2-3.3 1.4-4.6 2.8-1.6 1.7-3.1 3.7-3.2 6-.1 1.9.8 3.7 1.8 5.2.6.9 1.4 1.8 2.3 2.4 1.4.9 3.1 1.1 4.7 1.2 1.6.1 3.3 0 4.5-.9 2.2-1.7 1.7-5.2 2.8-7.7M983 251.9c-2.1.9-3.6 2.9-4.2 5.1"/>
    <ellipse transform="rotate(-38.769 983.308 229.259)" class="st5" cx="983.3" cy="229.3" rx="4.4" ry="2.9"/>
    <ellipse transform="rotate(-35.025 1006.86 246.987)" class="st5" cx="1006.9" cy="246.9" rx="4.4" ry="2.9"/>
    <g id="XMLID_8686_"><g id="XMLID_8688_"><path id="XMLID_9459_" class="st0" d="M634.7 771.4L604.5 789c-.6.4-1.4-.1-1.4-.8v-55.5l31.6-18.4v57.1z"/><path
            id="XMLID_9460_" class="st1"
            d="M604 791.1c-.5 0-1-.1-1.4-.4-.9-.5-1.4-1.5-1.4-2.5v-56.6l35.5-20.6v61.6l-31.1 18.1c-.6.2-1.1.4-1.6.4zm1-57.3v52.7l27.8-16.2v-52.7L605 733.8z"/></g></g>
    <g id="XMLID_8661_"><g id="XMLID_8684_"><path id="XMLID_9405_" class="st0" d="M499.2 847.7L469 865.3c-.6.4-1.4-.1-1.4-.8V809l31.6-18.4v57.1z"/><path
            id="XMLID_9406_" class="st1"
            d="M468.5 867.3c-.5 0-1-.1-1.4-.4-.9-.5-1.4-1.5-1.4-2.5v-56.6l35.5-20.6v61.6l-31.1 18.1c-.6.3-1.1.4-1.6.4zm1-57.2v52.7l27.8-16.2v-52.7l-27.8 16.2z"/></g></g>
    <g id="XMLID_8450_"><g id="XMLID_9603_"><path id="XMLID_8935_" class="st2" d="M601.7 789l-53.5-31.2 55-25v55.5c-.1.6-.9 1.1-1.5.7z"/><path
            id="XMLID_9000_" class="st1"
            d="M602.1 791.1c-.5 0-1-.1-1.4-.4L544 757.6l61.1-27.8v58.4c0 1-.6 2-1.4 2.5-.6.2-1.1.4-1.6.4zM552.3 758l48.9 28.5v-50.8L552.3 758z"/></g></g>
    <g id="XMLID_8459_"><g id="XMLID_9595_"><path id="XMLID_8801_" class="st2" d="M466.1 865.3L412.6 834l55-25v55.5c-.1.7-.9 1.1-1.5.8z"/><path
            id="XMLID_8931_" class="st1"
            d="M466.6 867.3c-.5 0-1-.1-1.4-.4l-56.7-33.1 61.1-27.8v58.4c0 1-.6 2-1.4 2.5-.6.3-1.1.4-1.6.4zm-49.9-33.1l48.9 28.5V812l-48.9 22.2z"/></g></g>
    <g id="XMLID_1002_"><path id="XMLID_9575_" fill="#f3f3ff" d="M700.2 480.6L481.4 606.9l35.5-143.4 141-58.7z"/>
        <path id="XMLID_9576_" class="st1"
              d="M478.5 610.8l36.8-148.7 143.5-59.8 44.1 78.9-224.4 129.6zm40-145.9l-34.1 138 213.3-123.1-40.7-72.6-138.5 57.7z"/></g>
    <g id="XMLID_994_"><g id="XMLID_1000_"><path id="XMLID_9571_" class="st3" d="M590 523.1c-3.2-1.7-7.3-1.5-11.7 1L170.7 754.7c-10 5.8-18.2 21.4-18.2 34.7 0 7.6 2.6 12.9 6.7 14.9L310 890.2l407.9-247.7 23.9-32.7L590 523.1z"/><path
            id="XMLID_9572_" class="st1"
            d="M310.1 892.5L158.3 806c-4.9-2.5-7.7-8.5-7.7-16.6 0-14 8.6-30.3 19.1-36.4l407.6-230.5c4.9-2.8 9.7-3.2 13.6-1.1l153.7 87.9-25.8 34.9-408.7 248.3zm275.4-368.6c-1.9 0-4 .6-6.2 1.9L171.6 756.3c-9.5 5.5-17.2 20.3-17.2 33.1 0 6.6 2.1 11.4 5.7 13.2L309.9 888l406.7-246.9 22.4-30.6-149.9-85.7c-1.1-.6-2.3-.9-3.6-.9z"/></g>
        <g id="XMLID_991_"><path id="XMLID_9567_" class="st0" d="M731 659.9L323.4 890.4c-10 5.8-18.2-.4-18.2-13.7 0-13.4 8.1-28.9 18.2-34.7L731 611.4c10-5.8 18.2.4 18.2 13.7 0 13.4-8.2 29-18.2 34.8z"/>
            <path id="XMLID_9568_" class="st1"
                  d="M316.1 894.5c-2 0-3.9-.5-5.6-1.5-4.6-2.7-7.2-8.6-7.2-16.4 0-14 8.6-30.3 19.1-36.4L730 609.7c5-2.9 9.9-3.2 13.8-1 4.6 2.7 7.2 8.6 7.2 16.4 0 14-8.6 30.3-19.1 36.4L324.3 892c-2.8 1.7-5.6 2.5-8.2 2.5zm422.1-283.4c-1.9 0-4.1.6-6.3 1.9L324.3 843.5c-9.5 5.5-17.2 20.3-17.2 33.1 0 6.3 1.9 11.1 5.3 13 2.7 1.5 6.2 1.2 10-1L730 658.2c9.5-5.5 17.2-20.3 17.2-33.1 0-6.3-1.9-11.1-5.3-13-1.1-.7-2.3-1-3.7-1z"/></g></g>
    <path id="XMLID_9563_" class="st0" d="M947.4 666.2L728.6 792.5V538.8l218.8-126.4z"/>
    <path id="XMLID_9559_" class="st3" d="M481.4 397.1l247.2 141.7 218.8-126.4-247.2-141.7z"/>
    <g id="XMLID_1003_"><path id="XMLID_9555_" class="st2" d="M728.6 792.5l-55-31.3V581.1l-143.9-85.2v56.4l-48.3 27.9V397.1l247.2 141.7z"/>
        <path id="XMLID_9492_" class="st1"
              d="M949.3 411.3l-1.9-1.1-247.2-141.7-218.8 126.4-1.9 1.1v187.5l52.1-30.1v-54.1l140.1 82.9v180.2l55 31.3 1.9 1.1 1.9-1.1 217.8-125.8 1-.6v-256zm-464-14.2l215-124.1 243.3 139.5-215 124.1-60.8-34.9-182.5-104.6zm190.2 363V580l-147.7-87.4v58.6l-44.5 25.7V400.4L665.8 505l60.8 34.9v249.3l-51.1-29.1zm270-95l-215 124.1V539.9l80.5-46.5 134.4-77.6v249.3z"/></g>
    <g id="XMLID_8664_"><path id="XMLID_9509_" class="st1" d="M318.8 846.8l-153-86.3 2-3.3 152.9 86.3z"/></g>
    <path id="XMLID_9499_" class="st3" d="M570.1 371.4l166.4 96.1L858.6 397l-166.4-96.1z"/>
    <path id="XMLID_9495_" class="st0" d="M736.5 467.5v23.1l122.1-70.5V397z"/>
    <path class="st0"
          d="M1173.5 241.4c14.1 2 28.5-.9 42.2-4.7 4.9-1.3 11.1-2.5 14.5 1.4 1.8 2.1 2.2 4.9 2.5 7.6 1.8 15.1 4.2 30.1 7.3 44.9.8 3.7 2.9 8.3 6.6 7.7 3.3-.5 4.3-4.7 4.6-8.1l1.8-23.4c.8-10.4 1.9-21.7 9-29.4 5.3-5.8 13.2-8.6 21.1-9.3 7.8-.7 15.7.7 23.4 2 6.8 1.1 13.7 2.3 19.9 5.3 6.7 3.3 13.6 8.8 20.7 6.5 3.8-1.3 6.5-4.6 10.2-6.2 2.9-1.2 6.2-1.2 9.3-1.7 6.7-1 13.1-4.3 17.8-9.3 2-2.1 3.8-4.9 3.1-7.8-.8-3.7-5.1-5.3-8.7-6.3-71.6-19.1-148.9-17.7-219.8 4.4-7.9 2.5-19.3 5.9-10.9 14.8 6 6.8 16.6 10.3 25.4 11.6z"/>
    <g id="XMLID_8675_"><path id="XMLID_9491_" class="st2" d="M570.1 371.4v23.1l166.4 96.1v-23.1z"/>
        <path id="XMLID_9586_" class="st1"
              d="M860.5 395.9l-168.3-97.1-124 71.6v25.3l168.3 97.1 124-71.6v-25.3zm-286.6-24.5l118.3-68.3L854.8 397l-118.3 68.3-40.6-23.5-122-70.4zm-1.9 22v-18.7l121.9 70.4 40.6 23.5v18.7L572 393.4zM856.7 419l-118.3 68.3v-18.7l118.3-68.3V419z"/></g>
    <g id="XMLID_9653_"><ellipse id="XMLID_9645_" class="st1" cx="597.8" cy="371.4" rx="5.2" ry="3"/>
        <path id="XMLID_9654_" class="st1"
              d="M831.1 397.9c-2 1.2-5.3 1.2-7.3 0s-2-3.1 0-4.2c2-1.2 5.3-1.2 7.3 0 2 1.1 2 3 0 4.2z"/>
        <ellipse id="XMLID_9655_" class="st1" cx="731.3" cy="449.1" rx="5.2" ry="3"/>
        <path id="XMLID_9656_" class="st1"
              d="M695.8 319.1c-2 1.2-5.3 1.2-7.3 0s-2-3.1 0-4.2c2-1.2 5.3-1.2 7.3 0s2 3.1 0 4.2z"/></g>
    <g><path class="st2" d="M790.7 699.6c1.3.3 2.3 1.1 3 2.5.7 1.4 1 3.1 1 5.3 0 2.2-.3 4.3-1 6.5-.7 2.1-1.7 4.1-3 5.9-1.3 1.8-2.8 3.2-4.7 4.2l-6.9 4c-.5.3-.9.3-1.3.1-.3-.2-.5-.6-.5-1.1v-19.1c0-.6.2-1.1.5-1.7.3-.6.8-1 1.3-1.3l6.9-4c1.8-1.2 3.4-1.6 4.7-1.3zm-1.1 16.2c.9-2 1.3-4.1 1.3-6.3s-.4-3.8-1.3-4.8-2.2-.9-3.9 0l-4.8 2.7V723l4.8-2.7c1.8-1 3.1-2.5 3.9-4.5zM816.7 704.4c0 .6-.2 1.1-.5 1.7-.3.6-.7 1-1.1 1.2-.3.2-.7.3-.9.2-.3-.1-.5-.3-.6-.6l-1.5-3.1-8.6 5-1.5 4.9c-.1.5-.3.9-.6 1.3s-.6.7-.9.9c-.5.3-.9.4-1.1.2s-.4-.5-.4-1c0-.2 0-.4.1-.7l7.2-23.9c.2-.5.4-1 .7-1.4.3-.4.7-.7 1-.9.3-.2.7-.3 1-.2s.5.3.6.6l7.1 15.3c-.1 0 0 .3 0 .5zm-11.9-.3l5.8-3.3-2.9-6.1-2.9 9.4zM835.1 673c.3.2.5.5.5 1.1s-.2 1.1-.5 1.7c-.3.5-.7.9-1.3 1.2l-4.5 2.6v17.3c0 .6-.2 1.2-.5 1.8-.4.6-.8 1-1.4 1.4-.5.3-1 .4-1.3.2-.3-.2-.5-.6-.5-1.1v-17.3l-4.5 2.6c-.5.3-.9.4-1.3.2-.3-.2-.5-.5-.5-1.1 0-.5.2-1.1.5-1.6s.8-1 1.3-1.3l12.8-7.4c.4-.4.8-.5 1.2-.3zM856 681.7c0 .6-.2 1.1-.5 1.7s-.7.9-1.1 1.2c-.3.2-.7.3-.9.2s-.5-.3-.6-.6l-1.5-3.1-8.6 5-1.5 4.9c-.1.5-.3.9-.6 1.3s-.6.7-.9.9c-.5.3-.9.4-1.1.2-.3-.2-.4-.5-.4-1 0-.2 0-.4.1-.7l7.2-23.9c.2-.5.4-1 .7-1.4.3-.4.7-.7 1-.9.3-.2.7-.3 1-.2s.5.3.6.6l7.1 15.3c-.1.1 0 .3 0 .5zm-11.9-.3l5.8-3.3-2.9-6.1-2.9 9.4zM877.7 668.4c.1.2.2.5.2.8 0 .4-.1.8-.3 1.3-.3.6-.7 1-1.3 1.4-.5.3-.9.4-1.3.4-1.4-.1-2.1-1.5-2.1-4.3 0-.8-.2-1.3-.7-1.5-.5-.2-1.1-.1-1.9.4l-5.4 3.1v6.4c0 .6-.1 1.2-.4 1.7-.3.5-.6.9-1.1 1.2-.6.3-1 .4-1.5.3-.4-.1-.6-.5-.6-1.1v-19.1c0-.6.2-1.1.5-1.7.3-.6.8-1 1.3-1.3l8.3-4.8c1-.6 1.9-.8 2.8-.7.9.1 1.6.5 2.1 1.3s.8 1.8.8 3.2c0 1.1-.3 2.3-.8 3.7-.5 1.3-1.2 2.6-2 3.7 1.2.3 1.9 1.2 2 2.8.1.3.1.6.1 1 .1.6.2 1.1.2 1.3.1.3.2.4.5.4.2-.2.4-.1.6.1zm-5.5-6.6c.3-.6.6-1.2.8-2 .2-.7.3-1.5.3-2.2 0-.6-.1-1.1-.3-1.5-.2-.4-.5-.7-.8-.8-.3-.1-.7-.1-1 .1l-6.3 3.6v7.5l6.3-3.6c.3-.2.7-.6 1-1.1zM900.9 652c-.8 2.3-2 4.4-3.5 6.3-1.5 1.9-3.2 3.4-5 4.5s-3.5 1.5-5 1.3c-1.5-.2-2.6-1-3.5-2.3-.8-1.3-1.3-3.1-1.3-5.3 0-2.2.4-4.4 1.3-6.7s2-4.4 3.5-6.3c1.5-1.9 3.2-3.4 5-4.5s3.5-1.5 5-1.3c1.5.2 2.7 1 3.5 2.3.8 1.3 1.3 3.1 1.3 5.3s-.4 4.4-1.3 6.7zm-3.2-8.1c-.5-.9-1.2-1.4-2.2-1.6-.9-.2-2 .1-3.1.7-1.2.7-2.2 1.6-3.1 2.8-.9 1.2-1.6 2.6-2.1 4.1-.5 1.5-.8 3-.8 4.5s.3 2.7.8 3.6c.5.9 1.2 1.5 2.1 1.6.9.2 2-.1 3.1-.8 1.2-.7 2.2-1.6 3.1-2.9s1.6-2.6 2.2-4.1c.5-1.5.8-3 .8-4.5 0-1.4-.3-2.5-.8-3.4zM923 634.1c.6.6 1 1.6 1 3.1 0 2.6-.7 4.8-2 6.6-1.3 1.8-2.9 3.2-4.7 4.2l-7.2 4.1c-.5.3-.9.3-1.3.1-.3-.2-.5-.6-.5-1.1V632c0-.6.2-1.1.5-1.7.3-.6.8-1 1.3-1.3l7.3-4.2c3.6-2.1 5.5-1.2 5.5 2.7 0 1-.2 2-.6 3-.4 1-1 1.9-1.8 2.8 1 0 1.8.2 2.5.8zm-4.5-5.3c-.4-.2-.9-.1-1.7.3l-4.8 2.7v5.2l4.8-2.8c.6-.3 1.1-.8 1.5-1.5.4-.7.6-1.4.6-2.2.2-.9 0-1.4-.4-1.7zm.9 13.4c.5-.8.8-1.8.8-2.9 0-1.3-.3-2-.9-2-.6-.1-1.3.2-2.2.7l-5 2.9v6.4l5.2-3c.9-.5 1.6-1.2 2.1-2.1z"/></g>
    <path class="st0"
          d="M293.9 709c-8.3 5.4-15.7 12.2-21.8 20.1-2.5 3.2-4.8 6.8-5.1 10.9-.6 8.6 8.4 15.3 17 15.9 8.6.6 16.9-2.9 25.2-5.3 32.4-9.5 67.2-2.6 100.7-6.7 20.4-2.4 40.2-8.9 59.6-15.9 18.8-6.8 37.9-14.3 53.3-27.1 15.5-12.7 27.1-31.6 26.6-51.6-.2-6.7-1.9-13.8-6.7-18.5-2.8-2.8-6.4-4.5-10.1-5.8-26.9-9.3-55.9 6.1-78 24-10.9 8.8-21.8 18.7-35.6 21.3-14.3 2.8-28.7-2.8-43.1-4.7-37.9-5-77.7 19-91 54.9"/>
    <path class="st2"
          d="M79.9 530.9c-2.9 14.3-4.1 30.3 4 42.4 9.4 14.1 28.1 18.3 45 20 19.1 2 39.3 2.2 56.5-6.4 29.7-14.8 43-51.5 72-67.7 9.7-5.4 21.6-9.2 26.3-19.2 3.5-7.5.4-16.2 1.5-24.4 1-7.4 3.6-27.5 18-34.1 3.5-1.6 14 .8 17.5 1.4 3.2.6 6.8.9 9.6-.7 1.8-1 3.3-11.5 4.9-13 10.5-9 24.2-.5 29.5 2 4.5 2.1 22.6 19.6 25 24.1-16.1-84.8-114.1-14.6-139.4-1.6-34.3 17.7-76.5 5.6-113.5-3.1-13.4-3.1-40.5-17-53.7-12.9-13 4-8.4 20.9-5.3 30.3 7.9 23.4 7 38.9 2.1 62.9z"/>
    <path class="st2"
          d="M290.6 703.2c2.7 8.7 6.9 17.5 14.4 22.5s19.3 4.7 24.5-2.8c6.8-9.8-5.4-32.1-2.6-43.7 1.6-6.8 6.8-12.1 11.8-16.9 5.1-4.9 10.6-9.8 17.5-11.1 10.1-2 20.1 4.5 26.7 12.4 6.6 7.9 11.3 17.4 18.3 24.8 10.1 10.6 24.3 16.2 38.7 19 20.9 4.1 43.3 2.6 62.4-6.8s34.6-27.2 38.7-48.1c1.3-6.6 1.5-13.7-.8-20-1.7-4.7-4.7-8.9-8.4-12.4-13.1-12.4-34.9-14.4-50.1-4.5-10.9 7.1-17.7 18.9-26.5 28.5-8.8 9.6-22.3 17.4-34.5 12.9-1.1-3.1 46.7-124.2-2.6-246.7-6.3-15.6-12.5-32.4-27-41-5.4-3.2-11.9-5.3-18.1-4.4s-12.3 5.2-14 11.3c-1.8 6.5 1.5 13.5 6 18.6s10.2 9 14.6 14.2c13 15.2 12.7 37.3 11.7 57.3-11.5-17.8-44.7-41.2-50-37.2-3.8 2.9 1 17.5-7.6 21.8-7.6 3.8-11.7 1.4-19-2.9-2.7-1.6-5.5-3.8-8.7-3.5-3.6.3-6.1 3.7-7.8 6.9-5.8 11.5-6.8 25.3-2.8 37.5 3.2 9.7 9.1 21.4 2.3 29-2.5 2.8-6.3 4.2-9.8 5.6-10.4 4.1-18.8 15.3-18.8 26.5 0 30.2 24 29.7 24.2 37.3.4 10.7-7.4 25.4-9.4 36.3-4.3 23.6-.4 56.7 6.7 79.6z"/>
    <g><path class="st4" d="M353.6 528.7c-11.4-5.4-30.4-14.8-53.4-14.7-25.3.2-55.5 11.8-86.4 52.7-36.9 48.9-138.8 28.6-147.4 7.1-8.6-21.6 9.5-41.6 9.5-71.8 0-15.6-4.6-31.2-9.1-42.7-2.2-5.7 2.2-11.5 7.8-11.4.8 0 1.6.1 2.5.4 20.6 6.3 57.5 14.9 106.5 14.9 5.8 0 11.5-.3 17-.7 20-1.7 38.1-6.2 54.5-11.5 39.6-12.9 69.4-30.8 92.3-26.6 27.6 5 37.7 18.8 41.3 29.5 1.4 4.3 1.8 8 1.9 10.5v.8c0 1.5-.1 2.3-.1 2.3"/>
        <path class="st4"
              d="M327.2 491.7c16.9 3.4 12.1-10.3 11.9-12.4 4.7 5.2 12.8 10.2 17.3 2.3M399.5 630.7c-4.4-.2-8.9-.3-13.3-.4-3.9-.1-7.8-.1-11.5.8-3.8 1-7.9 3.7-7.9 7.7 0 3.1 2.6 5.7 5.6 6.4 3 .6 6.2-.5 8.5-2.4-.9 3.2-1.5 7.3 1.3 9.1.9.6 2.1.7 3.2.8 1.6.1 3.3-.1 4.6-1 1.3-.9 2.2-2.6 1.7-4.2-.3 2 1.2 3.8 3 4.7 1.8.9 3.8 1 5.8 1 2.3.1 4.7.1 6.7-1 2.5-1.5 3.6-4.5 4.5-7.2M428.6 596.8c-4.4-3.1-9.4-5.6-14.7-6.2s-11.1.7-15 4.5c-1.7 1.6-3 3.7-3.9 5.8-2.8 6.4-2.4 14 .9 20.1M282.7 661.6c0 25.9 5.6 46 7.3 49.4 6.7 13.5 14.4 5.8 16.4 2.6-1.4 3.9-.1 8.8 3.2 11.3 3.4 2.5 8.6 2.3 11.5-.7 2.9-3 2.9-8.4-.1-11.3 1.8 1.9 5.3 1.1 6.8-1s1.5-5 .7-7.5-2.2-4.7-3.3-7.1c-4.1-8.8-3.2-19.8 2.2-27.8M481.1 624.4c8.7-5.8 20.4-7.7 30.2-3.8 38.7 15.2 21.5 54-8.7 71.2M393.3 671.8c18.8 24.3 41.1 32.3 51.7 34.3M365 371c-4.1 2.3-4.8 9-1.1 12.1 3.6 3 10.1 1.2 11.7-3.3-.2 4.2 3.4 8.3 7.7 8.5 4.2.2 8.3-3.6 8.4-7.8-1.3 6 3.5 12.5 9.6 13 1.5.1 3.2-.1 4.6.5 1.9.8 2.9 2.8 3.8 4.7 3.8 8.6 6.1 17.8 6.8 27.1M313.1 454c-2.5-1.2-6.3-5-8.8-3.7-5.1 2.7-8.6 25.9-8.6 25.9M363.3 446.7c-4.9-3.8-10-7.3-15.4-10.4-1.8-1-3.8-2.1-5.9-1.7 1.1 11.5-3.2 15.8-3.2 15.8M367.3 393.2c31.8 18.4 28.2 51.6 28.1 62.1M292.9 553.8c.2 2.9 2.6 5.4 5.5 6.1 10.3 2.5 13.4-7.6 12.3-10.2-1.1-2.6-3.8-4.5-6.6-4.3 2.7.2 5.5.3 8.1-.6 2.6-.9 4.9-3 5.2-5.7.3-2.9-1.9-5.6-4.6-6.8-2.7-1.2-5.7-1.3-8.6-1.4 1.9 0 3.9 0 5.8-.7s3.4-2.3 3.6-4.2c.2-3.1-3.4-5.3-6.5-5.1-3.1.1-18.5 3.4-22.1 6.2-8 6.2-15 15.2-14.6 25.2.1 2.6.7 5.1 1.5 7.5 2.4 7.4 6.9 14.3 13.6 18.2 6.7 3.9 15.7 4.3 22-.2M425.7 478.9c.6 6.5 2 12.8 3 19.2 2.4 15.3 2.1 30.8 1.7 46.2-.1 6.3-.3 12.8-2.4 18.7M291.2 584c2.2 14.1-5.9 27.5-8.3 41.5-.7 3.9-.9 7.9-.9 11.8M390.2 462.4c.2.6.3 1.3.4 2.1 0 .3.1.5.1.8.9 14.5-14.7 47.8-22.4 61.3"/></g>
    <ellipse transform="rotate(-17.224 315.769 479.568)" class="st5" cx="315.7" cy="479.5" rx="3.5" ry="5.4"/>
    <ellipse transform="rotate(-17.224 354.567 466.635)" class="st5" cx="354.5" cy="466.6" rx="3.5" ry="5.4"/>
    <g><path class="st2" d="M877.7 609c.2 11.8-10.8 27.7-20.8 29.8-13.5 2.8-26.8 10.5-40.1 23.9-6.3 6.3-11.5 5.7-14.8 2.6-3.5-3.3-6.7-7.6-2.3-17.7 8-18.6 16.9-36.9 26.3-55.1 6.5-12.6 17-18.6 23.5-13.8 9.8 7.3 19.4 15 27 25.5.8 1.4 1.1 3 1.2 4.8zM806.5 569.5c-.7-5.8 1.8-12.5 3.9-18.6 2.9-8.7 8.3-12 13.6-9.7 5.1 2.3 7.8 7.3 8.1 14.8.4 9.3-4.6 19.5-10.9 24.1-8 5.8-12.5.9-14.7-7.6-.2-.8 0-2.1 0-3zM843.5 549.5c.5-7.5 4.6-17.2 11.3-26.8 2.5-3.6 4-3.3 6-2.5 5.9 2.4 8.2 17.5 4.1 27.4-3.3 7.7-7.8 13.8-13.6 14.6-5.3.7-8-3.3-7.8-12.7zM803.7 605.5c.1 9.1-3.4 17.1-8.9 20.9-4.7 3.3-9.9.2-12-5.5-1.7-4.9-.8-10.8.5-17 1.2-6.2 6.4-11.2 10.6-11.1 6.5 0 10.2 6.5 9.8 12.7zM869.2 572.1c.1-7.3 5.9-19.7 11.2-25 3.2-3.2 4.7-1.3 6 0 4.2 4.3 3.6 13.1-1.5 22.3-2.4 4.3-6.8 8.7-9.5 9.7-3.1 1.1-6.9-1.5-6.2-7z"/>
        <path class="st8"
              d="M880.8 601.7c.2 11.8-10.8 27.7-20.8 29.8-13.5 2.8-26.8 10.5-40.1 23.9-6.3 6.3-11.5 5.7-14.8 2.6-3.5-3.3-6.7-7.6-2.3-17.7 8-18.6 16.9-36.9 26.3-55.1 6.5-12.6 17-18.6 23.5-13.8 9.8 7.3 19.4 15 27 25.5.8 1.3 1.1 2.9 1.2 4.8zM809.6 562.2c-.7-5.8 1.8-12.5 3.9-18.6 2.9-8.7 8.3-12 13.6-9.7 5.1 2.3 7.8 7.3 8.1 14.8.4 9.3-4.6 19.5-10.9 24.1-8 5.8-12.5.9-14.7-7.6-.2-.9 0-2.2 0-3zM806.8 598.2c.1 9.1-3.4 17.1-8.9 20.9-4.7 3.3-9.9.2-12-5.5-1.7-4.9-.8-10.8.5-17 1.2-6.2 7-12.5 10.6-11.1 5.1 1.8 10.6 3.8 9.8 12.7zM872.2 564.7c.1-7.3 5.9-19.7 11.2-25 3.2-3.2 4.7-1.3 6 0 4.2 4.3 3.6 13.1-1.5 22.3-2.4 4.3-4.9 9.7-9.5 9.7-4 .1-6.8-1.4-6.2-7zM846.6 542.1c.5-7.5 4.6-17.2 11.3-26.8 2.5-3.6 4-3.3 6-2.5 5.9 2.4 8.2 17.5 4.1 27.4-3.3 7.7-7.8 13.8-13.6 14.6-5.4.7-8-3.3-7.8-12.7z"/></g>
    <g><path class="st9" d="M1390.7 266.4c7.9.4 15.8.8 23.6.1 7.9-.7 15.7-2.6 22.6-6.5"/>
        <path class="st2"
              d="M1250.3 233.7c.7-3.9 2.1-8 5.4-10 2.1-1.3 4.7-1.4 7.2-1.5 17.5-.7 35 0 52.3 2.1 2.2.3 4.5.6 6.2 1.9 4.3 3.4 5.1 15.1 5.9 20.1 1.4 9 2.3 18.1 2.6 27.2.2 7.9 0 15.9 2.1 23.5 1.1 4.2 3.2 8.5 7 10.5 2.1 1.1 4.6 1.5 7 1.8 4.6.6 9.7 1.1 13.5-1.7 3.4-2.5 4.7-7 5.4-11.1 2.2-12.3 1.5-24.2-.2-36.5-1.2-9.2-3.4-21.6 1.9-30 7.8-12.2 20.3 9 21.8 16.5 2.3 11.6 1.1 23.6 1.4 35.4.3 11.8 2.6 24.3 10.5 33.1s23 11.9 31.6 3.8c5.7-5.3 7.2-13.7 7.8-21.5 2.8-40.7-13.9-82.4-43.9-110s-72.9-40.7-113.3-34.6c-7.7 1.2-19 8-23.1 1.4-6-9.7-9-9.7-21.3-4.7-7.4 3-15.3 9.2-22.5 5.7-3-1.4-4.9-7.5-7.3-9.8-6.5-6-11-9.7-24.8-1.2-7.5 4.6-13.3 14.5-18.6 21.6-6.7 8.8-13.3 17.7-20 26.5-6.4 8.4-12.1 20.6-5.1 28.4 17.1 19.2 47.7 18.2 54.3 15.7 6.5-2.5 11.4-10.3 8.6-16.7 3.5-3.1 8.8-.8 11.3 2.4 3.5 4.6.9 12.4.6 17.7-.9 14.3-.6 28.7.8 43 .7 6.9 2.3 14.7 8.2 18.2 3.6 2.1 8 2.1 12.2 1.9 2.2-.1 4.4-.3 6.3-1.3 4.7-2.4 6-8.4 6.7-13.7 2.5-17.7-2.1-36 1.5-54.1z"/>
        <path class="st4"
              d="M1170.4 182.3s2.9 8.8 14.7 2.9M1226.4 191.2s2.9 8.8 14.7 2.9M1191 197.1c5.9 2.9 8.8-2.9 8.8-2.9s0 5.9 8.8 2.9M1215.8 220.9c2.1 1.7 3.3 4.3 3.8 7s.2 5.4-.1 8.1c-.7 8.1-2.6 15.8-1.6 23.9.6 4.8 1.1 9.6 1.7 14.4.3 2.5 1.3 5.1.1 7.4-1.8.6-2.3 2.9-2.4 4.7-.1 2 .2 4.3 1.6 5.8s4.2 1.8 5.3.1c-1.6 1.2-2.4 3.4-1.9 5.4.8 3.3 4.6 5 8 4.8.5 0 1-.1 1.5-.3.6-.3 1-.8 1.3-1.4 1-1.6 1.8-3.4 2.2-5.3.1 2.3 1.7 4.4 3.9 5 2.2.6 4.7-.3 6-2.1.7-1 1-2.2 1.2-3.4.6-3.4.3-7-.9-10.3.3-1.3.6-2.4.9-3.7 1.2-5.7 2.4-11.4 2.3-17.2M1369.6 224.8c-3 .7-5.2 3.4-6.2 6.2-1.1 2.9-1.1 6-1.1 9.1 0 7.4 0 14.8 1.1 22 1.2 8 1.2 16.3.2 24.3 2 2.7 3 6.2 2.5 9.5-.2 1.5-.7 2.9-1.7 4s-2.6 1.7-4 1.2c1.9 2.4 1 6.2-1.3 8.2-2.3 1.9-5.7 2.2-8.7 1.4-1.1-.3-2.2-.8-3-1.5-1.8-1.6-2.4-4.2-2-6.6-2.1 2.5-5.8 3.3-8.7 2.1-2.9-1.3-4.8-4.6-4.4-7.8.3-2.5 2.4-3.9 3-6.1.9-2.8.2-7.1.1-10-.3-6.7-1.2-13.3-2.8-19.7M1152 225.7c6.6.7 13.3.1 19.6-1.8-2.4.6-3.6 3.7-2.7 6.1.9 2.3 3.3 3.8 5.8 4.1 3.7.5 8.1-2.2 7.6-5.9.9 3.3 2.3 7.2 5.6 8 2.5.6 5.2-.9 6.5-3.1 1.3-2.2 1.5-5 1.1-7.5.3 1.7 2.2 2.9 3.9 2.7 1.7-.1 3.3-1.3 4.3-2.7 1.6-2.2 2.2-5.2 1.5-7.9-.9-3.5-3.7-6.2-6.6-8.5-11.7-9-27.1-13.2-41.8-11.2M1179.3 152.9s14.7-8.8 17.7-8.8 11.8 11.8 11.8 11.8M1232.3 158.8s11.8-8.8 17.7-8.8 17.7 20.6 17.7 29.5M1291.7 154c.9 12.8.9 25.6.2 38.4-.1 1.8-.1 3.9 1.4 4.9.6.4 1.4.6 2.2.7 2.6.4 5.6.6 7.5-1.2.9-.9 1.5-2.1 1.9-3.3 2.3-6.5 2.5-13.5 2.6-20.3.1-6.3.3-12.6.4-18.9M1317.8 154.3c-.2 6.2-.3 12.5-.5 18.7-.1 2.3-.1 4.7.6 6.9s2.4 4.2 4.6 4.8c2.8.7 5.7-1.2 7.1-3.6 1.5-2.5 1.8-5.4 2-8.3.4-5 .5-10.1.5-15.2M1274.3 220.2c11.6.9 23.2 1.7 34.8 2.6"/></g>
    <path class="st4"
          d="M1388.5 247.4c7.4 1 14.9 2 22.3.8s14.7-4.8 18.7-11.1M1392.8 299.7c16.2 3.6 33.9-.8 46.6-11.5M955.6 368.2c-2 .8-2.7 3.5-1.9 5.5s2.5 3.4 4.4 4.5c.8.5 1.8.9 2.3 1.7 2.4 3.2-2.6 8.1-.5 11.6 1.3 2.1 4.4 2.3 5.8 4.3.9 1.4.7 3.3.2 5s-1.2 3.3-1.1 5c.2 1.7 1.7 3.4 3.4 3.1"/>
    <path fill="#edc914" stroke="#424242" stroke-width="3" stroke-linecap="round" stroke-linejoin="round"
          stroke-miterlimit="10" d="M366.9 526.7l9.5.4-6.1 7.3 2.5 9.2-8.8-3.6-8 5.2.7-9.5-7.4-5.9 9.2-2.3 3.4-8.9z"/></svg>