<svg version="1.1" id="Слой_1" xmlns="http://www.w3.org/2000/svg" x="0" y="0" viewBox="0 0 381 382" xml:space="preserve"><style>.st0{fill:#8888e5}</style><path class="st0" d="M302.6 292.2c.6 29.1-30.2 52.7-58.3 43.7-37.9-12.2-75.2-12.1-112.6 1.9-17.7 6.6-32.3-2.3-41.7-14.6-9.8-12.9-18.8-28.1-6.5-46.7 22.6-34.2 47.5-66.6 74-97.7 18.4-21.6 47.7-21.6 66-.5 27.6 31.7 54.4 64.1 75.8 100.7 2.4 4.3 3.1 8.6 3.3 13.2zM102.6 94.9c-1.9-15.2 5.1-28 10.8-40.1 8.1-17.1 23.4-17.6 38.3-4.4 14.4 12.8 21.9 28.9 22.7 47.8 1.1 23.3-12.8 41.4-30.5 43.6-22.6 2.9-35.2-15.4-41.3-39.5-.5-2.5 0-5.3 0-7.4zM206.5 98c1.4-17.8 12.9-35.7 31.8-49.7 7.1-5.2 11.1-2.5 17 2.5 16.6 14.2 23.1 54.5 11.4 72.7-9.2 14.3-21.9 22.7-38.1 16.6-15.1-5.7-22.6-19.2-22.1-42.1zM94.9 179.1c.2 22.5-9.6 37-24.9 38.6-13.2 1.4-27.9-13.6-33.6-30.4-4.9-14.4-2.1-27.6 1.3-41 3.5-13.4 18-18.3 29.7-12.3 18 9.2 28.6 30.5 27.5 45.1zM278.7 189.7c.3-17.7 16.5-40 31.5-45.3 9-3.2 13.2 3.3 17 8.7 11.8 16.4 10.2 37.2-4.4 52.5-6.8 7.2-19 11.8-26.7 10.3-8.5-1.8-19.2-13.5-17.4-26.2z"/></svg>