<svg version="1.1" id="Слой_1" xmlns="http://www.w3.org/2000/svg" x="0" y="0" viewBox="0 0 156 130" xml:space="preserve"><style>.st0,.st3{fill:#8888e5;stroke:#8888e5;stroke-width:2;stroke-miterlimit:10}.st3{fill:none;stroke-width:5;stroke-linecap:round;stroke-linejoin:round}</style><path class="st0" d="M86.7 71.9h-3c-1.1 0-2-.9-2-2s.9-2 2-2H89c.7 0 1.3-.6 1.3-1.3 0-.7-.6-1.3-1.3-1.3h-2.5v-1.8c0-.7-.6-1.3-1.3-1.3-.7 0-1.3.6-1.3 1.3v1.8h-.2c-2.5 0-4.6 2.1-4.6 4.6 0 2.5 2.1 4.6 4.6 4.6h3c1.1 0 2 .9 2 2s-.9 2-2 2h-5.4c-.7 0-1.3.6-1.3 1.3 0 .7.6 1.3 1.3 1.3h2.6V83c0 .7.6 1.3 1.3 1.3.7 0 1.3-.6 1.3-1.3v-1.9h.3c2.5 0 4.6-2.1 4.6-4.6-.1-2.5-2.1-4.6-4.7-4.6zm0 0"/><path d="M108.9 81.4c0 6.3-5.1 11.5-11.5 11.5H71.6c-.4 0-.8-.1-1.2-.2-1.1-.2-2.2-.6-3.2-1.1-.6-.6-1.2-1-1.8-1.4-1.2-.8-1.9-2.3-2-3.9v-.1c0-1.5.5-2.8 1.5-3.7.1-.1.3-.3.5-.4.2-.1.4-.3.7-.5l.1.7c.1.7.3 1.4.7 2l.3.6c1.2 1.8 3.1 2.9 5.3 2.9h24.9c1.7 0 3.3-.7 4.5-1.9 1.2-1.2 1.8-2.8 1.8-4.5 0-6.8-2.5-13.2-7.4-19.1-1.3-1.6-2.8-3.1-4.4-4.5-1.3-1.1-2.3-1.9-2.8-2.2l-.1-.2c-1.4-1.3-1.7-3.3-.7-5l4.7-7.8h-.3c-.8 0-1.8.4-2.8.8-1.2.5-2.6 1.1-4.2 1.1-.7 0-1.3-.1-1.9-.3-2.2-.8-3.9-1.3-5.2-1.3-.8 0-1.5.2-2.2.6l4.6 6.4c1.3 1.8 1 4.4-.7 5.8-2 1.7-4.8 4.3-6.7 6.5-1.3 1.6-2.5 3.3-3.5 4.9l-.3.6c-.4.7-.7 1.3-1 2h-5.6l.2-.5c.1-.3.3-.6.4-1 .2-.4.4-.8.5-1.2l.3-.6c1.3-2.7 3-5.3 5.1-7.7 2.4-2.9 4.9-5.1 6.5-6.4l-5.4-8.2c-.7-1-.5-2.4.3-3.2 2.3-2.4 4.7-3.5 7.5-3.5 2.1 0 4.3.6 7 1.6h.2c.5 0 1.3-.3 2.1-.6l.1-.1c1.3-.5 2.9-1.2 4.7-1.2 2.1 0 3.9.8 5.6 2.5.8.8 1 2 .5 3.1l-5.1 9.4c1.6 1.3 4.2 3.5 6.7 6.5 2.5 2.9 4.4 6.1 5.9 9.5 1.7 4.5 2.6 8.8 2.6 13.3z" fill="#8888e5"/><path class="st3" d="M119.4 85s-5.4 21.6-30 16.3M120.4 94.4s.1-5.2-.4-10.1c0 0-2.9 1.9-8.6 4.2"/><g><path class="st0" d="M75.3 102.4h-2.2v-4c0-2-.5-3.9-1.6-5.6-.3-.5-.6-.9-.9-1.4-1-1.2-2.2-2.4-3.7-3.4-.5-.3-.8-1.1-.8-1.9 0-.2 0-.4.1-.6.1-.6.4-1 .7-1.3 4-2.7 6.2-6.4 6.2-10.4v-4h2.2c.7 0 1.3-.6 1.3-1.3 0-.7-.6-1.3-1.3-1.3h-26c-.7 0-1.3.6-1.3 1.3 0 .7.6 1.3 1.3 1.3h2.2v4c0 4 2.2 7.7 6.2 10.4.5.3.8 1.1.8 1.9s-.3 1.6-.8 1.9c-4 2.7-6.2 6.4-6.2 10.4v4h-2.2c-.7 0-1.3.6-1.3 1.3 0 .7.6 1.3 1.3 1.3h26c.7 0 1.3-.6 1.3-1.3 0-.7-.6-1.3-1.3-1.3zm-4.8 0H54.1v-4c0-4.2 3.2-7 5.1-8.3 1.2-.8 2-2.3 2-4 0-1.7-.7-3.2-2-4-1.9-1.3-5.1-4-5.1-8.3v-4h16.4v4c0 3.8-2.5 6.4-4.4 7.8-.2.2-.5.3-.7.5-.2.1-.3.2-.5.4-.9.9-1.5 2.2-1.5 3.7v.1c0 1.7.7 3.1 2 3.9.5.4 1.1.8 1.8 1.4 1.6 1.5 3.3 3.8 3.3 6.9v3.9z"/></g></svg>