<svg xmlns="http://www.w3.org/2000/svg" viewBox="0 0 295.57 273.94"><defs><style>.cls-2{fill:#424242}.cls-3{fill:#636463}.cls-5{fill:#8686e1}</style></defs><g id="Layer_2" data-name="Layer 2"><g id="Слой_1" data-name="Слой 1"><path d="M42.81 152c-11.84 11.26-16 30.88-7.15 44.63 5.34 8.37 14.55 13.66 24.11 16.3s19.6 2.9 29.51 3.15l37.9.95c28.53.72 57.16 1.43 85.52-1.73 6.71-.74 13.77-1.86 19-6.16 6.55-5.42 8.55-14.46 10.15-22.81s3-18.15-2.18-25.07c-6.69-8.93-17.69-12.11-25.94-19-5.14-4.31-9.3-10-10.88-16.52-2.76-11.31-3.43-18.08-10.12-27.93-5.2-7.66-11.44-14.69-19.17-19.88-18.68-12.55-45.11-12.2-63.46.83C94.41 89.84 86 109.05 86.78 128c.16 3.63 2.25 8.67-1.26 11.13-2.51 1.77-11.63 0-15 .42-10.19 1.31-20.18 5.32-27.71 12.45z" fill="#8888e5"/><path class="cls-2" d="M115.71 108.52a1 1 0 01-1-.85 94.73 94.73 0 01-1-12.37 25.37 25.37 0 01-3.59 4.53 1 1 0 01-1.41 0 1 1 0 010-1.42 23.83 23.83 0 005.12-7.72 1 1 0 011.93.41 91.36 91.36 0 00.89 16.28 1 1 0 01-.84 1.13zM147.25 107.26a1 1 0 01-1-.86 92.89 92.89 0 01-1-12.37 25.56 25.56 0 01-3.59 4.53 1 1 0 11-1.42-1.41 23.7 23.7 0 005.13-7.72 1 1 0 011.92.41 92.36 92.36 0 00.9 16.28 1 1 0 01-.85 1.13zM128.5 107.27a4.78 4.78 0 01-1.8-.36c-2.43-1-3.67-3.76-3.61-7.92 0-2.42.3-5.18 2-7.32 2.17-2.79 4.29-2.63 5.36-2.28 2.73.87 4.49 4.49 4.61 7.49.1 2.3 0 5-1.29 7.19a6.41 6.41 0 01-5.27 3.2zm.72-16.07a3.56 3.56 0 00-2.59 1.7c-1.3 1.67-1.51 4-1.54 6.12 0 1.87.24 5.14 2.38 6 1.67.7 3.65-.5 4.54-2 1.05-1.79 1.1-4.08 1-6.09-.11-2.51-1.62-5.16-3.23-5.68a2 2 0 00-.56-.05zm-3.38 1.09zM161.27 107.35a1 1 0 01-1-.85 94.73 94.73 0 01-1-12.37 25.37 25.37 0 01-3.59 4.53 1 1 0 11-1.41-1.41 23.87 23.87 0 005.12-7.73 1 1 0 011.93.41 91.36 91.36 0 00.89 16.28 1 1 0 01-.84 1.13zM174.06 106.1a4.59 4.59 0 01-1.8-.36c-2.42-1-3.67-3.76-3.61-7.92 0-2.42.3-5.18 2-7.32 2.17-2.78 4.29-2.62 5.36-2.28 2.73.87 4.49 4.49 4.62 7.49.09 2.31 0 5-1.3 7.2a6.41 6.41 0 01-5.27 3.19zm-1.87-14.37c-1.3 1.68-1.51 4-1.54 6.12 0 1.87.24 5.15 2.38 6 1.67.7 3.65-.49 4.54-2 1.05-1.78 1.1-4.08 1-6.09-.11-2.51-1.61-5.16-3.23-5.68-1-.32-2.09.22-3.17 1.61zM109.87 134.55a1 1 0 01-1-.86 94.6 94.6 0 01-1-12.37 25.11 25.11 0 01-3.59 4.53 1 1 0 01-1.41 0 1 1 0 010-1.42 23.83 23.83 0 005.12-7.72 1 1 0 011.92.41 92.36 92.36 0 00.9 16.28 1 1 0 01-.84 1.13zM141.41 133.29a1 1 0 01-1-.86 94.61 94.61 0 01-1-12.37 25.77 25.77 0 01-3.58 4.53 1 1 0 11-1.42-1.41 23.86 23.86 0 005.13-7.72 1 1 0 011.92.41 92.36 92.36 0 00.9 16.28 1 1 0 01-.85 1.13zM122.66 133.29a4.59 4.59 0 01-1.8-.36c-2.43-1-3.68-3.75-3.61-7.91 0-2.42.29-5.18 2-7.32 2.17-2.79 4.29-2.63 5.36-2.29 2.73.88 4.49 4.5 4.61 7.5.1 2.3 0 5-1.29 7.19a6.4 6.4 0 01-5.27 3.19zm-1.87-14.36c-1.3 1.67-1.51 4-1.54 6.12 0 1.87.24 5.14 2.38 6 1.67.7 3.65-.5 4.53-2 1-1.79 1.11-4.08 1-6.1-.11-2.5-1.62-5.15-3.23-5.67-1-.33-2.09.21-3.17 1.61zM155.43 133.38a1 1 0 01-1-.85 94.87 94.87 0 01-1-12.37 25.37 25.37 0 01-3.59 4.53 1 1 0 01-1.41 0 1 1 0 010-1.42 23.83 23.83 0 005.12-7.72 1 1 0 011.93.41 91.41 91.41 0 00.89 16.28 1 1 0 01-.84 1.13zM185.81 132.21a1 1 0 01-1-.85 93 93 0 01-1-12.37 25.77 25.77 0 01-3.58 4.53 1 1 0 01-1.42 0 1 1 0 010-1.41 23.71 23.71 0 005.12-7.73 1 1 0 011.14-.6 1 1 0 01.79 1 91.37 91.37 0 00.9 16.28 1 1 0 01-.85 1.13zM168.22 132.13a4.78 4.78 0 01-1.8-.36c-2.43-1-3.67-3.76-3.61-7.92 0-2.42.29-5.18 2-7.32 2.17-2.79 4.29-2.63 5.36-2.28 2.73.87 4.49 4.49 4.61 7.49.1 2.3 0 5-1.29 7.19a6.41 6.41 0 01-5.27 3.2zm-1.87-14.37c-1.3 1.67-1.51 4-1.54 6.12 0 1.87.24 5.14 2.38 6 1.67.7 3.65-.49 4.54-2a11.35 11.35 0 001-6.09c-.11-2.51-1.62-5.16-3.23-5.68-1-.32-2.09.22-3.17 1.61zM101.69 161.65a1 1 0 01-1-.85 94.74 94.74 0 01-1-12.37 25.77 25.77 0 01-3.54 4.57 1 1 0 01-1.42 0 1 1 0 010-1.41 23.9 23.9 0 005.13-7.73 1 1 0 011.92.41 92.31 92.31 0 00.9 16.28 1 1 0 01-.85 1.13zM115.71 161.75a1 1 0 01-1-.86 94.6 94.6 0 01-1-12.37 25.37 25.37 0 01-3.59 4.53 1 1 0 01-1.41-1.41 23.83 23.83 0 005.12-7.72 1 1 0 011.93.41 91.3 91.3 0 00.89 16.27 1 1 0 01-.84 1.14zM146.09 160.58a1 1 0 01-1-.86 92.9 92.9 0 01-1-12.37 25.77 25.77 0 01-3.58 4.53 1 1 0 11-1.42-1.41 23.67 23.67 0 005.12-7.72 1 1 0 011.14-.6 1 1 0 01.79 1 92.36 92.36 0 00.9 16.28 1 1 0 01-.85 1.13zM128.5 160.49a4.59 4.59 0 01-1.8-.36c-2.43-1-3.67-3.75-3.61-7.91 0-2.42.3-5.18 2-7.32 2.17-2.79 4.29-2.63 5.36-2.29 2.73.87 4.49 4.5 4.61 7.5.1 2.3 0 5-1.29 7.19a6.4 6.4 0 01-5.27 3.19zm.72-16.07a3.55 3.55 0 00-2.59 1.71c-1.3 1.67-1.51 4-1.54 6.12 0 1.87.24 5.14 2.38 6 1.67.69 3.65-.5 4.54-2 1.05-1.79 1.1-4.09 1-6.1-.11-2.51-1.62-5.16-3.23-5.67a1.69 1.69 0 00-.56-.06zm-3.38 1.09zM160.1 161.75a1 1 0 01-1-.86 93 93 0 01-1-12.37 25.77 25.77 0 01-3.58 4.53 1 1 0 01-1.42 0 1 1 0 010-1.41 23.83 23.83 0 005.12-7.72 1 1 0 011.14-.61 1 1 0 01.79 1 91.31 91.31 0 00.9 16.27 1 1 0 01-.85 1.14zM191.64 160.49a1 1 0 01-1-.86 94.73 94.73 0 01-1-12.37 25.83 25.83 0 01-3.59 4.53 1 1 0 01-1.42-1.41 23.63 23.63 0 005.13-7.73 1 1 0 011.13-.6 1 1 0 01.79 1 92.25 92.25 0 00.9 16.27 1 1 0 01-.84 1.14zM172.89 160.49a4.59 4.59 0 01-1.8-.36c-2.42-1-3.67-3.75-3.61-7.91 0-2.42.3-5.18 2-7.32 2.17-2.79 4.29-2.63 5.36-2.29 2.73.87 4.49 4.5 4.62 7.5.09 2.3 0 5-1.3 7.19a6.38 6.38 0 01-5.27 3.19zm.72-16.07a3.55 3.55 0 00-2.59 1.71c-1.3 1.67-1.51 4-1.54 6.12 0 1.87.24 5.14 2.38 6 1.67.69 3.65-.5 4.54-2 1-1.79 1.1-4.09 1-6.1-.11-2.51-1.61-5.16-3.23-5.67a1.65 1.65 0 00-.56-.06zm-3.38 1.09zM204.86 160.49a4.59 4.59 0 01-1.8-.36c-2.43-1-3.68-3.75-3.61-7.91 0-2.42.3-5.18 2-7.32 2.17-2.79 4.29-2.63 5.36-2.29 2.73.87 4.49 4.5 4.61 7.5.1 2.3 0 5-1.29 7.19a6.4 6.4 0 01-5.27 3.19zm.72-16.07a3.55 3.55 0 00-2.59 1.71c-1.3 1.67-1.51 4-1.54 6.12 0 1.87.24 5.14 2.38 6 1.67.69 3.65-.5 4.54-2 1-1.79 1.1-4.09 1-6.1-.11-2.51-1.62-5.16-3.23-5.67a1.69 1.69 0 00-.56-.06zm-3.38 1.09zM62.17 187.22a1 1 0 01-1-.86 94.73 94.73 0 01-1-12.37 25.37 25.37 0 01-3.59 4.53 1 1 0 01-1.41-1.41 23.83 23.83 0 005.12-7.72 1 1 0 011.93.41 91.46 91.46 0 00.89 16.28 1 1 0 01-.84 1.13zM76.19 188.39a1 1 0 01-1-.86 94.73 94.73 0 01-1-12.37 25.37 25.37 0 01-3.59 4.53 1 1 0 11-1.41-1.41 23.76 23.76 0 005.12-7.73 1 1 0 011.93.42 91.3 91.3 0 00.89 16.27 1 1 0 01-.84 1.14zM107.73 187.12a1 1 0 01-1-.85 94.74 94.74 0 01-1-12.37 25.77 25.77 0 01-3.58 4.53 1 1 0 01-1.42 0 1 1 0 010-1.41 23.79 23.79 0 005.13-7.73 1 1 0 011.92.42 92.25 92.25 0 00.9 16.27 1 1 0 01-.85 1.13zM89 187.13a4.59 4.59 0 01-1.8-.36c-2.43-1-3.68-3.75-3.61-7.91 0-2.42.3-5.18 2-7.32 2.17-2.79 4.29-2.63 5.36-2.29 2.73.87 4.49 4.5 4.61 7.5.1 2.3 0 5-1.29 7.19a6.4 6.4 0 01-5.27 3.19zm-1.87-14.36c-1.3 1.67-1.51 4-1.54 6.11 0 1.88.24 5.15 2.38 6.05 1.67.69 3.65-.5 4.53-2 1-1.78 1.11-4.08 1-6.09-.11-2.51-1.62-5.16-3.23-5.68-1-.32-2.09.22-3.17 1.62zM122 186.44a1 1 0 01-1-.85 94.73 94.73 0 01-1-12.37 25.37 25.37 0 01-3.59 4.53 1 1 0 11-1.41-1.41 23.87 23.87 0 005.12-7.73 1 1 0 011.93.41 91.36 91.36 0 00.95 16.28 1 1 0 01-.84 1.13zM152.4 185.28a1 1 0 01-1-.86 93 93 0 01-1-12.37 25.77 25.77 0 01-3.58 4.53 1 1 0 01-1.42 0 1 1 0 010-1.41 23.61 23.61 0 005.12-7.73 1 1 0 011.93.42 92.25 92.25 0 00.9 16.27 1 1 0 01-.85 1.13zM134.81 185.19a4.59 4.59 0 01-1.8-.36c-2.43-1-3.67-3.76-3.61-7.92 0-2.42.3-5.18 2-7.32 2.17-2.79 4.29-2.62 5.36-2.28 2.73.87 4.49 4.49 4.61 7.49A13 13 0 01140 182a6.41 6.41 0 01-5.19 3.19zm-1.87-14.37c-1.3 1.68-1.51 4-1.54 6.12 0 1.87.24 5.15 2.38 6 1.67.7 3.65-.49 4.54-2 1.05-1.78 1.1-4.08 1-6.09-.11-2.51-1.62-5.16-3.23-5.68-1-.32-2.09.22-3.17 1.61zM58.09 165.13a1 1 0 01-1-.85 93 93 0 01-1-12.37 26.3 26.3 0 01-3.59 4.53 1 1 0 11-1.37-1.44 23.7 23.7 0 005.13-7.72 1 1 0 011.92.41 92.31 92.31 0 00.9 16.28 1 1 0 01-.85 1.13zM88.46 164a1 1 0 01-1-.85 94.73 94.73 0 01-1-12.37 25.37 25.37 0 01-3.59 4.53 1 1 0 01-1.41-1.41 23.87 23.87 0 005.12-7.73 1 1 0 011.93.41 91.36 91.36 0 00.89 16.28 1 1 0 01-.84 1.13zM70.88 163.88a4.78 4.78 0 01-1.8-.36c-2.43-1-3.68-3.76-3.62-7.92 0-2.42.3-5.18 2-7.32 2.17-2.78 4.29-2.63 5.37-2.28 2.73.87 4.49 4.49 4.61 7.49.1 2.31 0 5-1.29 7.19a6.41 6.41 0 01-5.27 3.2zm.71-16.07a3.56 3.56 0 00-2.59 1.7c-1.3 1.67-1.5 4-1.54 6.12 0 1.87.25 5.14 2.39 6 1.66.7 3.65-.49 4.53-2 1.05-1.78 1.11-4.08 1-6.09-.1-2.51-1.61-5.16-3.22-5.68a2 2 0 00-.57-.05zm-3.38 1.09zM45.57 186.52a4.59 4.59 0 01-1.8-.36c-2.43-1-3.68-3.75-3.61-7.92 0-2.41.3-5.18 2-7.31 2.17-2.79 4.29-2.63 5.36-2.29 2.73.87 4.49 4.5 4.61 7.49a13 13 0 01-1.29 7.2 6.4 6.4 0 01-5.27 3.19zm.72-16.07a3.56 3.56 0 00-2.59 1.7c-1.3 1.68-1.51 4-1.54 6.12 0 1.88.24 5.15 2.38 6 1.67.69 3.65-.5 4.53-2 1-1.78 1.11-4.08 1-6.09-.11-2.51-1.62-5.16-3.23-5.68a2 2 0 00-.55-.05zm-3.38 1.09zM225.93 184a4.59 4.59 0 01-1.8-.36c-2.42-1-3.67-3.75-3.61-7.92 0-2.41.3-5.18 2-7.31 2.17-2.79 4.29-2.63 5.36-2.29 2.73.87 4.49 4.5 4.62 7.49.09 2.31 0 5-1.3 7.2a6.41 6.41 0 01-5.27 3.19zm.72-16.07a3.56 3.56 0 00-2.59 1.7c-1.3 1.68-1.51 4-1.54 6.12 0 1.87.24 5.15 2.38 6 1.67.7 3.65-.49 4.54-2 1.05-1.78 1.1-4.08 1-6.09-.11-2.51-1.61-5.16-3.23-5.68a1.9 1.9 0 00-.56.02zm-3.38 1.07zM166.41 186.44a1 1 0 01-1-.85 93 93 0 01-1-12.37 25.77 25.77 0 01-3.58 4.53 1 1 0 01-1.42 0 1 1 0 010-1.41 23.87 23.87 0 005.12-7.73 1 1 0 011.93.41 91.37 91.37 0 00.9 16.28 1 1 0 01-.85 1.13zM198 185.18a1 1 0 01-1-.85 94.73 94.73 0 01-1-12.33 25.83 25.83 0 01-3.59 4.53 1 1 0 01-1.41 0 1 1 0 010-1.42 23.83 23.83 0 005.12-7.72 1 1 0 011.92.41 92.31 92.31 0 00.9 16.28 1 1 0 01-.84 1.13zM179.2 185.19a4.63 4.63 0 01-1.8-.36c-2.42-1-3.67-3.76-3.61-7.92 0-2.42.3-5.18 2-7.32 2.17-2.79 4.29-2.62 5.36-2.28 2.73.87 4.49 4.49 4.62 7.49.09 2.31 0 5-1.3 7.2a6.41 6.41 0 01-5.27 3.19zm-1.87-14.37c-1.3 1.68-1.51 4-1.54 6.12 0 1.87.24 5.15 2.39 6 1.66.7 3.64-.49 4.53-2 1-1.78 1.1-4.08 1-6.09-.1-2.51-1.61-5.16-3.23-5.68-1-.32-2.08.22-3.17 1.61zM214.31 184.11a1 1 0 01-1-.86 94.73 94.73 0 01-1-12.37 25.37 25.37 0 01-3.59 4.53 1 1 0 01-1.41-1.41 23.76 23.76 0 005.12-7.73 1 1 0 011.93.42 91.3 91.3 0 00.94 16.31 1 1 0 01-.84 1.14zM60.84 211.19a1 1 0 01-1-.85 94.73 94.73 0 01-1-12.37 25.83 25.83 0 01-3.59 4.53 1 1 0 01-1.41 0 1 1 0 010-1.42 23.72 23.72 0 005.16-7.72 1 1 0 011.92.41 92.31 92.31 0 00.9 16.28 1 1 0 01-.84 1.13zM74.86 212.36a1 1 0 01-1-.85 94.73 94.73 0 01-1-12.37 26.3 26.3 0 01-3.59 4.53 1 1 0 01-1.41 0 1 1 0 010-1.42 23.7 23.7 0 005.14-7.72 1 1 0 011.92.41 92.31 92.31 0 00.9 16.28 1 1 0 01-.85 1.13zM106.4 211.1a1 1 0 01-1-.86 92.9 92.9 0 01-1-12.37 25.41 25.41 0 01-3.58 4.53 1 1 0 11-1.38-1.4 23.67 23.67 0 005.12-7.72 1 1 0 011.93.41 91.42 91.42 0 00.9 16.28 1 1 0 01-.85 1.13zM87.65 211.11a4.78 4.78 0 01-1.8-.36c-2.43-1-3.68-3.76-3.61-7.92 0-2.42.29-5.18 2-7.32 2.17-2.79 4.28-2.63 5.36-2.28 2.73.87 4.49 4.49 4.61 7.49.1 2.31 0 5-1.29 7.19a6.41 6.41 0 01-5.27 3.2zm.72-16.11a3.55 3.55 0 00-2.59 1.7c-1.3 1.67-1.5 4-1.53 6.12 0 1.87.24 5.14 2.38 6 1.66.7 3.65-.49 4.53-2 1-1.78 1.11-4.08 1-6.1-.1-2.5-1.61-5.15-3.22-5.67a2 2 0 00-.57-.05zM85 196.13zM120.69 210.42a1 1 0 01-1-.86 94.6 94.6 0 01-1-12.37 25.83 25.83 0 01-3.59 4.53 1 1 0 01-1.42-1.41 23.7 23.7 0 005.13-7.72 1 1 0 011.92.41 92.36 92.36 0 00.9 16.28 1 1 0 01-.85 1.13zM151.06 209.25a1 1 0 01-1-.86 92.89 92.89 0 01-1-12.36 25 25 0 01-3.59 4.52 1 1 0 01-1.41 0 1 1 0 010-1.42 23.83 23.83 0 005.12-7.72 1 1 0 011.14-.6 1 1 0 01.79 1 90.49 90.49 0 00.9 16.28 1 1 0 01-.85 1.13zM133.48 209.16a4.59 4.59 0 01-1.8-.36c-2.43-1-3.68-3.75-3.61-7.91 0-2.42.29-5.18 2-7.32 2.17-2.79 4.29-2.63 5.36-2.29 2.73.88 4.49 4.5 4.61 7.5.1 2.3 0 5-1.29 7.19a6.4 6.4 0 01-5.27 3.19zm-1.87-14.36c-1.3 1.67-1.51 4-1.54 6.12 0 1.87.24 5.14 2.38 6 1.67.69 3.65-.5 4.53-2 1.05-1.79 1.11-4.09 1-6.1-.11-2.5-1.62-5.16-3.23-5.67-1-.33-2.09.21-3.17 1.61zM165.08 210.42a1 1 0 01-1-.86 94.6 94.6 0 01-1-12.37 25.37 25.37 0 01-3.59 4.53 1 1 0 01-1.41-1.41 23.83 23.83 0 005.12-7.72 1 1 0 011.93.41 91.41 91.41 0 00.89 16.28 1 1 0 01-.84 1.13zM196.62 209.16a1 1 0 01-1-.86 92.89 92.89 0 01-1-12.37 26.3 26.3 0 01-3.59 4.53 1 1 0 01-1.42-1.41 23.7 23.7 0 005.13-7.72 1 1 0 011.92.41 92.2 92.2 0 00.9 16.27 1 1 0 01-.85 1.14zM177.87 209.16a4.59 4.59 0 01-1.8-.36c-2.42-1-3.67-3.75-3.61-7.91 0-2.42.3-5.18 2-7.32 2.17-2.79 4.29-2.63 5.36-2.29 2.73.88 4.49 4.5 4.62 7.5.09 2.3 0 5-1.3 7.19a6.38 6.38 0 01-5.27 3.19zM176 194.8c-1.3 1.67-1.51 4-1.54 6.12 0 1.87.24 5.14 2.38 6 1.67.69 3.65-.5 4.54-2 1.05-1.79 1.1-4.09 1-6.1-.11-2.5-1.61-5.16-3.23-5.67-1-.33-2.09.21-3.17 1.61zM213 208.08a1 1 0 01-1-.85 94.73 94.73 0 01-1-12.37 25.83 25.83 0 01-3.59 4.53 1 1 0 01-1.41 0 1 1 0 010-1.42 23.7 23.7 0 005.13-7.72 1 1 0 011.92.41 92.31 92.31 0 00.9 16.28 1 1 0 01-.85 1.13z"/><path class="cls-2" d="M132.22 218.94c-19.55 0-39.1-.39-58.52-1.19-5.87-.24-12.54-.51-18.85-2.5a37.85 37.85 0 01-17.46-60.65C43 148 51 143.26 61.06 140.62a73.62 73.62 0 0113.42-2.11 37.33 37.33 0 014.34.18c2.31.18 7.11.54 8-.07 1.67-1.27 1.77-8.78 1.84-13.75.06-4.1.11-8 .76-10.27a56.2 56.2 0 0113.81-24C115.5 78 133.93 71.1 152.54 72a55.61 55.61 0 0120.35 5.36c19.37 8.81 35.32 43.16 32.24 60.29 15.53-.37 30.49 16.2 35.14 32.82C244.86 186.93 236 206 220.42 213c-8.37 3.79-18 4.21-25.72 4.55-20.7.94-41.61 1.39-62.48 1.39zm-57.06-77.45h-.46a71.33 71.33 0 00-12.88 2c-9.45 2.49-16.9 6.87-22.15 13a34.84 34.84 0 0016.08 55.84c5.93 1.87 12.38 2.13 18.08 2.36 40.06 1.64 80.68 1.59 120.74-.16 7.47-.33 16.77-.73 24.61-4.28 14.25-6.45 22.41-23.94 18.2-39-5.6-20-22.09-31.94-34-30.5a1.5 1.5 0 01-1.61-1.93c4.54-15-11.55-50.31-30.12-58.76A52.76 52.76 0 00152.38 75c-17.76-.9-35.32 5.7-47 17.65a53.19 53.19 0 00-13.06 22.72c-.54 1.92-.6 5.78-.65 9.51-.12 8.42-.39 14.09-3 16.09-1.6 1.22-5 1.06-10.07.67-1.34-.06-2.6-.15-3.44-.15zm-36.63 14.09z"/><path class="cls-3" d="M10.2 249.81a9.93 9.93 0 014.35.91 9 9 0 013.21 2.57 11.49 11.49 0 012 3.81 15.64 15.64 0 01.66 4.6 14.77 14.77 0 01-1.18 6 10.17 10.17 0 01-3.46 4.3 9.31 9.31 0 01-5.55 1.6H2.07a2 2 0 01-1.48-.6 2 2 0 01-.59-1.47v-19.65a2 2 0 01.59-1.48 2 2 0 011.48-.59zm-.34 19.88a5.41 5.41 0 003.5-1.1 6.39 6.39 0 002-2.93 12 12 0 00.63-4 12.53 12.53 0 00-.36-3 8 8 0 00-1.11-2.55 5.5 5.5 0 00-1.9-1.75 5.56 5.56 0 00-2.75-.65H3.91l.34-.3v16.65l-.25-.37zM36.27 255.14l-7.34 17.27a2.16 2.16 0 01-.73 1 1.79 1.79 0 01-1.07.36 1.69 1.69 0 01-1.36-.51 1.84 1.84 0 01-.45-1.26 2.15 2.15 0 01.11-.64L33.89 251a2.24 2.24 0 01.83-1.05 1.77 1.77 0 011.21-.31 2 2 0 011.9 1.36l8.36 20a2.1 2.1 0 01.17.81 1.89 1.89 0 01-.59 1.47 1.91 1.91 0 01-1.31.54 1.8 1.8 0 01-1.1-.37 2.43 2.43 0 01-.77-1l-7.31-17zM30 268.26l1.87-3.91H41l.64 3.91zM51.5 253.71a2.11 2.11 0 01-1.48-.54 1.84 1.84 0 01-.6-1.43 1.78 1.78 0 01.6-1.41 2.14 2.14 0 011.48-.52h15.09a2.13 2.13 0 011.48.54 1.86 1.86 0 01.59 1.43 1.8 1.8 0 01-.59 1.41 2.16 2.16 0 01-1.48.52zM59 273.6a2.11 2.11 0 01-1.56-.6 2 2 0 01-.62-1.47v-19.72h4.42v19.72a1.92 1.92 0 01-.63 1.47 2.23 2.23 0 01-1.61.6zM82.67 255.14l-7.35 17.27a2 2 0 01-.73 1 1.75 1.75 0 01-1.07.36 1.71 1.71 0 01-1.36-.51 1.88 1.88 0 01-.44-1.26 2.5 2.5 0 01.1-.64L80.29 251a2.24 2.24 0 01.83-1.05 1.76 1.76 0 011.21-.31 2 2 0 011.14.36 2 2 0 01.76 1l8.36 20a2.1 2.1 0 01.17.81 1.93 1.93 0 01-1.9 2 1.85 1.85 0 01-1.11-.37 2.49 2.49 0 01-.76-1l-7.31-17zm-6.29 13.12l1.87-3.91h9.18l.64 3.91zM119.62 273.94a14.25 14.25 0 01-4.29-.6 10 10 0 01-3.63-2.09 2.48 2.48 0 01-.68-.85 2.06 2.06 0 01-.24-.95 1.9 1.9 0 01.56-1.37 1.84 1.84 0 011.41-.6 1.8 1.8 0 011.15.41 11.36 11.36 0 002.57 1.6 8.09 8.09 0 003.15.54 6.67 6.67 0 002.31-.39 4.55 4.55 0 001.7-1.05 2.13 2.13 0 00.64-1.52 2.56 2.56 0 00-.61-1.73 4.63 4.63 0 00-1.87-1.21 14.25 14.25 0 00-3.19-.76 14.34 14.34 0 01-3.23-.83 7.54 7.54 0 01-2.33-1.43 5.51 5.51 0 01-1.41-2 6.9 6.9 0 01-.48-2.64 6.22 6.22 0 011.14-3.77 7.17 7.17 0 013.08-2.38 11 11 0 014.28-.81 12.37 12.37 0 014.1.66 9.51 9.51 0 013.07 1.68 2.26 2.26 0 011 1.8 2 2 0 01-.58 1.36 1.81 1.81 0 01-1.36.61 1.51 1.51 0 01-.92-.3 5.92 5.92 0 00-1.46-.9 13.15 13.15 0 00-1.94-.72 7.48 7.48 0 00-4.36.09 3.4 3.4 0 00-1.52 1 2.34 2.34 0 00-.51 1.49 2.44 2.44 0 00.6 1.69 4 4 0 001.71 1.05 21.12 21.12 0 002.69.7 27.77 27.77 0 013.59.88 8.42 8.42 0 012.56 1.31 4.92 4.92 0 011.53 2 7.5 7.5 0 01.51 2.93 6.09 6.09 0 01-1.22 3.81 7.89 7.89 0 01-3.21 2.45 10.79 10.79 0 01-4.31.84zM157.55 261.7a13.06 13.06 0 01-.85 4.76 12.21 12.21 0 01-2.4 3.89 11 11 0 01-3.67 2.64 11.26 11.26 0 01-4.64.95 11 11 0 01-8.27-3.59 11.87 11.87 0 01-2.4-3.89 13.75 13.75 0 010-9.52 11.87 11.87 0 012.4-3.89 11.31 11.31 0 0116.58 0 12.21 12.21 0 012.4 3.89 13.1 13.1 0 01.85 4.76zm-4.42 0a9.21 9.21 0 00-.92-4.13 7.59 7.59 0 00-2.51-2.94 6.84 6.84 0 00-7.41 0 7.38 7.38 0 00-2.5 2.93 9.95 9.95 0 000 8.27 7.27 7.27 0 002.5 2.94 6.84 6.84 0 007.41 0 7.45 7.45 0 002.51-2.94 9.18 9.18 0 00.92-4.13zM181.75 249.77a1.85 1.85 0 011.43.6 2.11 2.11 0 01.54 1.48v12.3a10.09 10.09 0 01-1.21 5 8.73 8.73 0 01-3.31 3.4 9.62 9.62 0 01-4.89 1.22 9.76 9.76 0 01-4.92-1.22 8.85 8.85 0 01-3.33-3.4 10.19 10.19 0 01-1.2-5v-12.3a2 2 0 01.61-1.48 2.14 2.14 0 011.56-.6 2 2 0 011.41.6 1.94 1.94 0 01.63 1.48v12.3a5.68 5.68 0 00.73 2.94 5.22 5.22 0 004.51 2.6A5.69 5.69 0 00177 269a5.41 5.41 0 002-1.92 5.34 5.34 0 00.79-2.94v-12.3a2.18 2.18 0 01.51-1.48 1.72 1.72 0 011.45-.59zM194.67 273.6a2.62 2.62 0 01-1.7-.6 1.79 1.79 0 01-.75-1.47v-19.65a2 2 0 01.59-1.48 2 2 0 011.48-.59h9.79a6.36 6.36 0 013.32.93 7 7 0 012.49 2.58 7.41 7.41 0 011 3.79 6.33 6.33 0 01-.53 2.52 7.84 7.84 0 01-1.43 2.21 6.55 6.55 0 01-2 1.53v-.78a5.77 5.77 0 011.58 1.2 5.91 5.91 0 011 1.5 4.88 4.88 0 01.42 1.71c.09.57.16 1.07.19 1.5a4.39 4.39 0 00.21 1.09 1.19 1.19 0 00.59.68 1.88 1.88 0 01.93 1.27 1.56 1.56 0 01-.39 1.48 1.6 1.6 0 01-.95.56 2.79 2.79 0 01-1.15 0 3.37 3.37 0 01-1-.32 4.89 4.89 0 01-1.15-1 4.94 4.94 0 01-.94-1.79 10 10 0 01-.35-2.89 2.72 2.72 0 00-.21-1.07 2.49 2.49 0 00-.57-.85 2.36 2.36 0 00-1-.54 4.21 4.21 0 00-1.36-.19H196l.51-.78v7.38A2.24 2.24 0 01196 273a1.6 1.6 0 01-1.33.6zm1.33-12.17h7.92a1.72 1.72 0 001.19-.56 4.09 4.09 0 001-1.53 5.83 5.83 0 00.38-2.12 3.9 3.9 0 00-.8-2.5 2.24 2.24 0 00-1.72-1h-7.85l.41-1.08v9.62zM235.29 251a1.82 1.82 0 011 1.4 2.1 2.1 0 01-.49 1.73 1.57 1.57 0 01-1.14.68 2.77 2.77 0 01-1.41-.27 8.68 8.68 0 00-3.6-.79 8.84 8.84 0 00-3.28.58 7 7 0 00-2.47 1.65 7.18 7.18 0 00-1.54 2.53 9.28 9.28 0 00-.53 3.23 10.12 10.12 0 00.59 3.61 7.21 7.21 0 001.65 2.55 6.63 6.63 0 002.48 1.51 9.46 9.46 0 003.1.49 10.3 10.3 0 001.83-.17 6.41 6.41 0 001.77-.61 2.38 2.38 0 011.41-.24 1.8 1.8 0 011.17.71 2.07 2.07 0 01.5 1.76 1.78 1.78 0 01-1 1.3 11.34 11.34 0 01-1.82.73 13.67 13.67 0 01-1.89.45 12.36 12.36 0 01-1.93.15 13.74 13.74 0 01-4.64-.78 11.7 11.7 0 01-3.91-2.31 10.55 10.55 0 01-2.7-3.83 13.32 13.32 0 01-1-5.32 12.65 12.65 0 01.9-4.82 11.18 11.18 0 012.55-3.83 11.89 11.89 0 013.89-2.51 13.06 13.06 0 014.9-.9 12.4 12.4 0 012.92.34 11.67 11.67 0 012.69.98zM245.42 249.81h11.38a2.05 2.05 0 011.48.56 1.87 1.87 0 01.6 1.44 1.75 1.75 0 01-.6 1.38 2.16 2.16 0 01-1.48.52h-9.52l.31-.57v6.63l-.27-.28h8a2.1 2.1 0 011.48.56 1.91 1.91 0 01.6 1.45 1.76 1.76 0 01-.6 1.38 2.16 2.16 0 01-1.48.52h-7.85l.17-.27V270l-.27-.31h9.48a2 2 0 011.48.6 1.86 1.86 0 01.6 1.37 1.82 1.82 0 01-.6 1.4 2.13 2.13 0 01-1.48.54h-11.43a2 2 0 01-1.48-.6 2 2 0 01-.6-1.47v-19.65a2 2 0 01.6-1.48 2 2 0 011.48-.59zM273.83 273.94a14.23 14.23 0 01-4.28-.6 10.16 10.16 0 01-3.64-2.09 2.75 2.75 0 01-.68-.85 2.06 2.06 0 01-.24-.95 1.94 1.94 0 01.56-1.37 1.87 1.87 0 011.42-.6 1.8 1.8 0 011.15.41 11.14 11.14 0 002.57 1.6 8 8 0 003.14.54 6.59 6.59 0 002.31-.39 4.48 4.48 0 001.7-1.05 2.14 2.14 0 00.65-1.52 2.61 2.61 0 00-.61-1.73 4.63 4.63 0 00-1.87-1.21 14.35 14.35 0 00-3.2-.76 14.48 14.48 0 01-3.23-.83 7.66 7.66 0 01-2.33-1.43 5.75 5.75 0 01-1.41-2 7.1 7.1 0 01-.47-2.64 6.22 6.22 0 011.14-3.77 7.19 7.19 0 013.07-2.38 11 11 0 014.29-.81 12.31 12.31 0 014.09.66 9.57 9.57 0 013.08 1.68 2.28 2.28 0 011 1.8 2 2 0 01-.57 1.36 1.81 1.81 0 01-1.36.61 1.51 1.51 0 01-.92-.3 5.92 5.92 0 00-1.46-.9 13.58 13.58 0 00-1.94-.72 7.52 7.52 0 00-4.37.09 3.36 3.36 0 00-1.51 1 2.34 2.34 0 00-.51 1.49 2.49 2.49 0 00.6 1.72 4.07 4.07 0 001.72 1.05 20.69 20.69 0 002.69.7 27.19 27.19 0 013.58.88 8.48 8.48 0 012.57 1.31 4.92 4.92 0 011.53 2 7.5 7.5 0 01.51 2.93 6 6 0 01-1.23 3.81 7.75 7.75 0 01-3.21 2.45 10.75 10.75 0 01-4.33.81z"/><g opacity=".7"><path class="cls-5" d="M212.83 42.6a3.8 3.8 0 01-2.76-1.05 3.49 3.49 0 01-1.07-2.61V8.7l.84 1.32-4.56 2.76a3.67 3.67 0 01-1.92.54 3.28 3.28 0 01-2.58-1.17 3.74 3.74 0 01-1-2.49 3.42 3.42 0 011.86-3.12l9.06-5.4a5.48 5.48 0 012.55-.54 3.35 3.35 0 012.55 1 3.66 3.66 0 011 2.61v34.73a3.45 3.45 0 01-1.11 2.61 4 4 0 01-2.86 1.05zM241.21 43.2a14 14 0 01-8.73-2.73 16.85 16.85 0 01-5.43-7.62 31.51 31.51 0 01-1.86-11.25 31.45 31.45 0 011.86-11.28 16.86 16.86 0 015.43-7.59 15.32 15.32 0 0117.46 0 16.86 16.86 0 015.43 7.59 31.45 31.45 0 011.86 11.28 31.51 31.51 0 01-1.86 11.25 16.85 16.85 0 01-5.43 7.62 14 14 0 01-8.73 2.73zm0-7.2a6.41 6.41 0 004.35-1.59 10.34 10.34 0 002.85-4.8 26.82 26.82 0 001-8 26.76 26.76 0 00-1-8 10.33 10.33 0 00-2.85-4.77 6.7 6.7 0 00-8.67 0 10.2 10.2 0 00-2.89 4.72 26.76 26.76 0 00-1 8 26.82 26.82 0 001 8 10.21 10.21 0 002.88 4.8 6.45 6.45 0 004.33 1.64zM279.55 43.2a14 14 0 01-8.73-2.73 16.85 16.85 0 01-5.43-7.62 31.51 31.51 0 01-1.86-11.25 31.45 31.45 0 011.86-11.28 16.86 16.86 0 015.43-7.59 15.32 15.32 0 0117.46 0 16.86 16.86 0 015.43 7.59 31.45 31.45 0 011.86 11.28 31.51 31.51 0 01-1.86 11.25 16.85 16.85 0 01-5.43 7.62 14 14 0 01-8.73 2.73zm0-7.2a6.41 6.41 0 004.35-1.59 10.34 10.34 0 002.85-4.8 26.82 26.82 0 001-8 26.76 26.76 0 00-1-8 10.33 10.33 0 00-2.85-4.77 6.7 6.7 0 00-8.67 0 10.2 10.2 0 00-2.88 4.77 26.76 26.76 0 00-1 8 26.82 26.82 0 001 8 10.21 10.21 0 002.88 4.8 6.45 6.45 0 004.32 1.59z"/></g></g></g></svg>