<svg xmlns="http://www.w3.org/2000/svg" viewBox="0 0 253.19 273.94"><defs><style>.cls-1{fill:#8888e5}.cls-2{fill:#424242}.cls-4{fill:#8686e1}.cls-5{fill:#636463}</style></defs><g id="Layer_2" data-name="Layer 2"><g id="Слой_1" data-name="Слой 1"><path class="cls-1" d="M6.45 200.25c.55 2.75 1.18 5.63 2.91 7.85 2.9 3.74 8.06 4.72 12.75 5.36a467.84 467.84 0 0089.77 3.54c6.89-.39 13.94-1 20.23-3.82 9.55-4.32 16.25-13.51 19.67-23.42s3.95-20.58 4-31.06a346.89 346.89 0 00-4-52.41c-1.12-7.33-2.67-15-7.71-20.49-7.2-7.78-19.1-8.5-29.7-8.11-29.39 1-62.41 9.32-91.16.93-4.8-1.4-8.45-2.79-13.35-.58-7.64 3.45-7 11.62-7.79 19a338.08 338.08 0 004.38 103.21z"/><path class="cls-2" d="M113.39 217.89h-1.8l-40.85-.47C53 217.2 34.61 217 16.6 215.05c-4-.43-8-1.29-10.19-4.6-1.49-2.3-1.5-5-1.52-7.27L4.24 93.85c0-2.81 0-6.32 1.58-9.29 4.37-8 17.91-5.66 22.64-4.79l8.12-.56h.08l102.5-2c4.53-.08 10.06.36 12.55 4.57 1.25 2.1 1.32 4.57 1.37 6.55l2.07 75.81c.16 5.91.32 12-1.29 17.95-3.42 12.51-14.05 21.47-22.59 28.67-2.58 2.18-5.51 4.64-9.05 5.91a26.2 26.2 0 01-8.83 1.22zM19 81.8c-5.47 0-9 1.4-10.51 4.19-1.25 2.3-1.24 5.24-1.22 7.84l.65 109.34c0 2.31.1 4.2 1 5.65 1.46 2.26 4.7 2.9 8 3.25 17.87 1.92 36.16 2.13 53.86 2.33l40.84.47c3.25 0 6.6.08 9.59-1s5.62-3.26 8.12-5.37c10.1-8.5 18.67-16.43 21.67-27.16 1.5-5.5 1.34-11.39 1.19-17.08l-2.07-75.81c0-1.72-.1-3.67-1-5.1-1.7-2.86-6-3.17-9.91-3.1l-102.47 2-8.27.56a1.22 1.22 0 01-.38 0A52.24 52.24 0 0019 81.8z"/><path class="cls-1" d="M27.07 67.39a14.06 14.06 0 00-2.56 5.44 33.73 33.73 0 00-1 12.33A15.51 15.51 0 0026 92.68 7.55 7.55 0 0032.91 96 8.11 8.11 0 0037 93.9a16.15 16.15 0 005-9.75 29.56 29.56 0 00-.76-11.07 13.06 13.06 0 00-2.52-5.74 7.78 7.78 0 00-11.65.05z"/><path class="cls-2" d="M32.15 97.35a6.32 6.32 0 01-1.62-.21c-4.26-1.18-5.62-6.08-6.28-9.66a41.72 41.72 0 01-.53-6.24 46.17 46.17 0 00-.36-5.07 1.47 1.47 0 01-.31-1.4 19.48 19.48 0 013.16-7.11c1.74-2.15 4.88-3.88 8-2.9A8.26 8.26 0 0138.3 68c4 5.59 3.59 12.91 2.91 17.94a17.54 17.54 0 01-2.54 7.79 8.22 8.22 0 01-6.52 3.62zm-6-22.56v.11a43.08 43.08 0 01.53 6.24 39 39 0 00.48 5.8c.51 2.79 1.5 6.58 4.13 7.31 1.82.5 3.83-.75 4.88-2.24 1.18-1.69 1.66-3.81 2-6.48 1-7.17.22-12.18-2.37-15.77a5.4 5.4 0 00-2.57-2.14c-1.75-.55-3.7.61-4.76 1.92a15.14 15.14 0 00-2.31 5.25z"/><path class="cls-1" d="M74.69 67.39a14.19 14.19 0 00-2.55 5.44 33.51 33.51 0 00-1 12.33 15.4 15.4 0 002.49 7.52A7.56 7.56 0 0080.54 96a8.12 8.12 0 004.11-2.08 16.16 16.16 0 005-9.75 29.77 29.77 0 00-.76-11.07 13 13 0 00-2.53-5.74 7.78 7.78 0 00-11.67.03z"/><path class="cls-2" d="M79.78 97.35a6.39 6.39 0 01-1.63-.21c-4.25-1.18-5.62-6.08-6.27-9.66a43.1 43.1 0 01-.54-6.23 46.18 46.18 0 00-.34-5.08 1.49 1.49 0 01-.31-1.4 19.51 19.51 0 013.17-7.11c1.73-2.15 4.88-3.88 8-2.9A8.3 8.3 0 0185.93 68c4 5.59 3.59 12.91 2.9 17.94a17.29 17.29 0 01-2.54 7.79 8.2 8.2 0 01-6.51 3.62zm-6-22.56v.11a41.83 41.83 0 01.53 6.24 39 39 0 00.49 5.8c.51 2.79 1.49 6.58 4.13 7.31 1.82.5 3.83-.75 4.87-2.24 1.18-1.69 1.67-3.81 2-6.48 1-7.17.22-12.18-2.36-15.77a5.44 5.44 0 00-2.57-2.14c-1.76-.55-3.7.61-4.76 1.92a15.14 15.14 0 00-2.32 5.25z"/><path class="cls-1" d="M122.32 67.39a13.9 13.9 0 00-2.55 5.44 33.52 33.52 0 00-1 12.33 15.51 15.51 0 002.5 7.52 7.55 7.55 0 006.87 3.3 8.11 8.11 0 004.12-2.08 16.15 16.15 0 005-9.75 29.35 29.35 0 00-.76-11.07 13.06 13.06 0 00-2.5-5.74 7.78 7.78 0 00-11.68.05z"/><path class="cls-2" d="M127.4 97.35a6.32 6.32 0 01-1.62-.21c-4.26-1.18-5.62-6.08-6.28-9.66a43.08 43.08 0 01-.53-6.24 46.17 46.17 0 00-.36-5.07 1.47 1.47 0 01-.31-1.4 19.48 19.48 0 013.16-7.11c1.74-2.15 4.88-3.88 8-2.9a8.24 8.24 0 014.09 3.24c4 5.59 3.59 12.91 2.91 17.94a17.54 17.54 0 01-2.54 7.79 8.22 8.22 0 01-6.52 3.62zm-6-22.56v.11a43.08 43.08 0 01.53 6.24 40.4 40.4 0 00.48 5.8c.51 2.79 1.5 6.58 4.13 7.31 1.82.5 3.83-.75 4.88-2.24 1.18-1.69 1.66-3.81 2-6.48 1-7.17.22-12.18-2.37-15.77a5.38 5.38 0 00-2.56-2.14c-1.76-.55-3.7.61-4.76 1.92a15 15 0 00-2.32 5.25zM121.62 212h-.09a1.49 1.49 0 01-1.41-1.58l1.14-20.75c.1-1.79.23-4.24 1.8-6.08 1.84-2.16 4.72-2.51 7.55-2.56a165.36 165.36 0 0117.38.58 1.5 1.5 0 11-.26 3 161.89 161.89 0 00-17.06-.56c-2.13 0-4.25.25-5.33 1.51-.84 1-1 2.53-1.08 4.3l-1.15 20.74a1.49 1.49 0 01-1.49 1.4zM56.18 168.89a25.47 25.47 0 01-7.7-1.06c-4.93-1.59-8.59-5.22-9.55-9.49a1.5 1.5 0 112.93-.65c.71 3.18 3.67 6 7.54 7.28s8.11 1 11.83.65a22 22 0 007-1.43 12.27 12.27 0 006.7-12.19 14.6 14.6 0 00-9-11.4 17.78 17.78 0 00-15 1.08 1.49 1.49 0 01-1.92-.42 1.52 1.52 0 01.14-2l13.69-13.72c-5.89.29-11.83.34-17.71.14a1.5 1.5 0 11.1-3 208.52 208.52 0 0021.36-.38 1.48 1.48 0 011.46.87 1.52 1.52 0 01-.3 1.69L56 136.74a19.9 19.9 0 0111.12 1 17.41 17.41 0 0110.8 13.83 15.13 15.13 0 01-8.46 15.31 24.4 24.4 0 01-8 1.69c-1.65.19-3.46.32-5.28.32zM93.73 169h-.43a12.75 12.75 0 01-10.16-5.08c-2.46-3.5-2.44-8-2.43-11.87v-.57-3a75.77 75.77 0 01.26-9.26 24.38 24.38 0 014.25-12 14.42 14.42 0 0111.52-6.11 11.83 11.83 0 018.78 3.74c5.77 6.24 5.08 18.41 4.66 25.68v.15a29.88 29.88 0 01-1 6.91A16.55 16.55 0 0193.73 169zm2.74-44.95a11.47 11.47 0 00-8.86 4.9 21.4 21.4 0 00-3.68 10.58 75.36 75.36 0 00-.24 8.89v3.64c0 3.64 0 7.42 1.89 10.15a9.88 9.88 0 007.81 3.79 13.45 13.45 0 0012.92-9.33 27 27 0 00.85-6.22v-.15c.36-6.35 1-18.17-3.87-23.47a8.8 8.8 0 00-6.64-2.78zM19.21 189.1a1.51 1.51 0 01-1.5-1.48 1.5 1.5 0 011.48-1.52l61.87-.93a1.5 1.5 0 010 3l-61.87.93zM132.38 110.66H75a1.5 1.5 0 110-3h57.4a1.5 1.5 0 010 3z"/><circle class="cls-2" cx="54.63" cy="108.75" r="1.83"/><circle class="cls-2" cx="94.32" cy="187.52" r="1.83"/><g opacity=".7"><path class="cls-4" d="M132.11 42.6a3.8 3.8 0 01-2.76-1.05 3.49 3.49 0 01-1.08-2.61V8.7l.84 1.32-4.56 2.76a3.67 3.67 0 01-1.92.54 3.28 3.28 0 01-2.58-1.17 3.74 3.74 0 01-1-2.49 3.42 3.42 0 011.86-3.12l9.09-5.4a5.48 5.48 0 012.53-.54 3.35 3.35 0 012.55 1 3.66 3.66 0 011 2.61v34.73a3.45 3.45 0 01-1.08 2.61 4 4 0 01-2.89 1.05zM160.49 43.2a14 14 0 01-8.73-2.73 16.85 16.85 0 01-5.43-7.62 31.51 31.51 0 01-1.86-11.25 31.45 31.45 0 011.86-11.28 16.86 16.86 0 015.43-7.59 15.32 15.32 0 0117.46 0 16.86 16.86 0 015.43 7.59 31.45 31.45 0 011.86 11.28 31.51 31.51 0 01-1.86 11.25 16.85 16.85 0 01-5.43 7.62 14 14 0 01-8.73 2.73zm0-7.2a6.41 6.41 0 004.35-1.59 10.34 10.34 0 002.85-4.8 26.82 26.82 0 001-8 26.76 26.76 0 00-1-8 10.33 10.33 0 00-2.85-4.77 6.7 6.7 0 00-8.67 0 10.2 10.2 0 00-2.88 4.77 26.76 26.76 0 00-1 8 26.82 26.82 0 001 8 10.21 10.21 0 002.88 4.8 6.45 6.45 0 004.32 1.59zM198.83 43.2a14 14 0 01-8.73-2.73 16.85 16.85 0 01-5.43-7.62 31.51 31.51 0 01-1.86-11.25 31.45 31.45 0 011.86-11.28 16.86 16.86 0 015.43-7.59 15.32 15.32 0 0117.46 0 16.86 16.86 0 015.44 7.59 31.45 31.45 0 011.86 11.28A31.51 31.51 0 01213 32.85a16.85 16.85 0 01-5.43 7.62 14 14 0 01-8.74 2.73zm0-7.2a6.41 6.41 0 004.35-1.59 10.34 10.34 0 002.85-4.8 26.82 26.82 0 001-8 26.76 26.76 0 00-1-8 10.33 10.33 0 00-2.85-4.77 6.7 6.7 0 00-8.67 0 10.2 10.2 0 00-2.88 4.77 26.76 26.76 0 00-1 8 26.82 26.82 0 001 8 10.21 10.21 0 002.88 4.8 6.45 6.45 0 004.32 1.59zM237.17 43.2a14 14 0 01-8.73-2.73 16.85 16.85 0 01-5.44-7.62 31.51 31.51 0 01-1.86-11.25A31.45 31.45 0 01223 10.32a16.86 16.86 0 015.43-7.59 15.32 15.32 0 0117.46 0 16.86 16.86 0 015.43 7.59 31.45 31.45 0 011.86 11.28 31.51 31.51 0 01-1.86 11.25 16.85 16.85 0 01-5.43 7.62 14 14 0 01-8.72 2.73zm0-7.2a6.41 6.41 0 004.35-1.59 10.34 10.34 0 002.85-4.8 26.82 26.82 0 001-8 26.76 26.76 0 00-1-8 10.33 10.33 0 00-2.85-4.77 6.7 6.7 0 00-8.67 0 10.2 10.2 0 00-2.85 4.72 26.76 26.76 0 00-1 8 26.82 26.82 0 001 8 10.21 10.21 0 002.88 4.8 6.45 6.45 0 004.29 1.64z"/></g><path class="cls-5" d="M37.4 269.62a2.08 2.08 0 011.48.56 1.91 1.91 0 01.6 1.45 1.85 1.85 0 01-.6 1.41 2.08 2.08 0 01-1.48.56h-11a2 2 0 01-1.48-.6 2 2 0 01-.6-1.47v-19.65a2 2 0 01.62-1.48 2.12 2.12 0 011.56-.59 2 2 0 011.44.59 2 2 0 01.63 1.48v18.32l-.75-.58zM48.86 249.81h11.39a2 2 0 011.47.56 1.87 1.87 0 01.6 1.44 1.75 1.75 0 01-.6 1.38 2.12 2.12 0 01-1.47.52h-9.52l.3-.57v6.63l-.27-.28h8a2.1 2.1 0 011.48.56 1.94 1.94 0 01.59 1.45 1.78 1.78 0 01-.59 1.38 2.16 2.16 0 01-1.48.52h-7.89l.16-.27V270l-.27-.31h9.49a2 2 0 011.47.6 1.86 1.86 0 01.6 1.37 1.82 1.82 0 01-.6 1.4 2.08 2.08 0 01-1.47.54H48.86a2 2 0 01-1.48-.6 2 2 0 01-.59-1.47v-19.65a2 2 0 012.07-2.07zM78.36 255.14L71 272.41a2.09 2.09 0 01-.73 1 1.79 1.79 0 01-1.07.36 1.7 1.7 0 01-1.36-.51 1.88 1.88 0 01-.44-1.26 2.13 2.13 0 01.1-.64L76 251a2.26 2.26 0 01.84-1.05 1.73 1.73 0 011.2-.31 2 2 0 011.14.36 2 2 0 01.77 1l8.34 20a2.31 2.31 0 01.17.81 1.95 1.95 0 01-1.9 2 1.85 1.85 0 01-1.11-.37 2.41 2.41 0 01-.76-1l-7.31-17zm-6.28 13.12l1.86-3.91h9.18l.65 3.91zM104.94 249.81a9.94 9.94 0 014.36.91 9.21 9.21 0 013.21 2.57 11.49 11.49 0 012 3.81 15.64 15.64 0 01.66 4.6 14.77 14.77 0 01-1.19 6 10.08 10.08 0 01-3.45 4.3 9.36 9.36 0 01-5.56 1.6h-8.15a2 2 0 01-2.07-2.07v-19.65a2 2 0 01.59-1.48 2 2 0 011.48-.59zm-.34 19.88a5.44 5.44 0 003.51-1.1 6.38 6.38 0 002-2.93 12 12 0 00.63-4 13.05 13.05 0 00-.35-3 8 8 0 00-1.11-2.55 5.34 5.34 0 00-4.66-2.4h-5.96l.34-.3v16.65l-.21-.37zM130.1 273.94a14.25 14.25 0 01-4.29-.6 10.12 10.12 0 01-3.63-2.09 2.61 2.61 0 01-.68-.85 2.06 2.06 0 01-.24-.95 1.94 1.94 0 01.56-1.37 1.91 1.91 0 012.57-.19 11.09 11.09 0 002.56 1.6 8.09 8.09 0 003.15.54 6.59 6.59 0 002.31-.39 4.55 4.55 0 001.7-1.05 2.13 2.13 0 00.64-1.52 2.56 2.56 0 00-.61-1.73 4.63 4.63 0 00-1.87-1.21 14.25 14.25 0 00-3.19-.76 14.34 14.34 0 01-3.23-.83 7.54 7.54 0 01-2.33-1.43 5.75 5.75 0 01-1.41-2 6.9 6.9 0 01-.48-2.64 6.22 6.22 0 011.14-3.77 7.22 7.22 0 013.08-2.38 11 11 0 014.28-.81 12.37 12.37 0 014.1.66 9.4 9.4 0 013.07 1.68 2.26 2.26 0 011 1.8 1.92 1.92 0 01-.58 1.36 1.8 1.8 0 01-1.36.61 1.53 1.53 0 01-.92-.3 5.92 5.92 0 00-1.46-.9 13.15 13.15 0 00-1.94-.72 7 7 0 00-1.9-.28 7.08 7.08 0 00-2.46.37 3.4 3.4 0 00-1.52 1 2.34 2.34 0 00-.51 1.49 2.44 2.44 0 00.6 1.69A4.07 4.07 0 00128 259a20.5 20.5 0 002.68.7 27.37 27.37 0 013.59.88 8.42 8.42 0 012.56 1.31 4.92 4.92 0 011.53 2 7.5 7.5 0 01.51 2.93 6 6 0 01-1.22 3.81 7.89 7.89 0 01-3.21 2.45 10.79 10.79 0 01-4.34.86z"/></g></g></svg>