<svg xmlns="http://www.w3.org/2000/svg" viewBox="0 0 199.78 273.94"><defs><style>.cls-1{fill:#8888e5}.cls-2{fill:#414242}.cls-4{fill:#8686e1}.cls-5{fill:#636463}</style></defs><g id="Layer_2" data-name="Layer 2"><g id="Слой_1" data-name="Слой 1"><path class="cls-1" d="M124.27 96.54c.69-.7 1.36-1.42 2-2.17 5.16-6.17 16.7-29 27.84-18.94 6.77 6.11.28 19.92-5.23 24.55-4.48 3.77-9.94 6.27-14.35 10.12-3.4 3-6.08 6.67-9.38 9.76-2.94 2.75-6.38 5-8.75 8.31-2.72 3.73-3.78 8.37-5.62 12.6A38.36 38.36 0 0198 156.27c-5.59 4.14-8.69 11.62-12.73 17.4a297.45 297.45 0 01-29.62 35.52c-7 7.24-15.44 14.73-25.49 14.29a10.64 10.64 0 01-5.39-1.5 12.71 12.71 0 01-4.07-5.16c-4.71-9.35-5.69-21.15-.21-30.08 2.57-4.18 6.33-7.47 10-10.69L50.1 159l10.9-9.4a287.42 287.42 0 0125.4-19.94c5.55-3.84 11.14-7.71 15.82-12.57 2.64-2.75 5-5.78 7.68-8.45 4.48-4.38 9.96-7.7 14.37-12.1z"/><path class="cls-1" d="M5.54 119.78C14.88 130.34 34 133 46.77 139.44c8.09 4.09 14.9 10.26 21.6 16.36l20 18.17c10.32 9.39 21 19.09 27.79 31.46 6.55 11.92 17.55 19.64 31.92 17.65 11.74-1.64 22.15-10.2 26.45-21.25a37.37 37.37 0 00-4.11-34c-9.22-13.59-26.94-9.74-40.28-17.76-12.07-7.25-21.15-18.78-33.38-25.74-12.46-7.09-18.56-13.07-25-26.13a202.1 202.1 0 00-11.34-20.09A22.1 22.1 0 0056 72.63a20 20 0 00-7.6-3.4c-3.8-1-36.56-4.53-26.48 4.58 3.38 3.06 7.25 5.56 10.5 8.76s5.92 7.37 6 11.94c.06 7.57-8.67 13.78-15.81 11.24-3.72-1.33-6.51-4.38-9.5-7-5.43-4.68-11.82-7-12.8 1.76-1.05 8.58 1.16 14.68 5.23 19.27z"/><path class="cls-1" d="M30.51 112.11c5.18-.37 9.78-3.28 14.14-6.11L46 95.31a8.11 8.11 0 00-.17-4 8.13 8.13 0 00-2.49-3l-17.48-15a29.41 29.41 0 0125.85 3 29.4 29.4 0 0113 22.55 17.72 17.72 0 00.74 5.59 13.48 13.48 0 003.81 4.67l36.21 32.8c7 6.29 14.18 12.76 23.1 15.63s18.6 1.94 27.12 5.55c14.59 6.17 21 26 13.71 40s-26.21 20.3-40.88 14.32a21.78 21.78 0 01-7.3-4.62c-6.7-6.77-6-17.75-9.72-26.51-6.41-15.08-24.39-21.11-35.77-32.89-8-8.29-13.82-20.26-25-22.95-4-1-8.2-.54-12.32-.29-10.05.6-21.65-.59-27.55-8.75-2.19-3-3.3-6.71-4.36-10.31-2.33-8-3.35-15 5.5-8 5.66 4.44 10.57 9.59 18.51 9.01z"/><path class="cls-2" d="M140.39 220.93a32.59 32.59 0 01-12.34-2.37 22.71 22.71 0 01-7.72-4.89c-4.47-4.51-5.82-10.75-7.13-16.78a56.61 56.61 0 00-2.85-10.13c-3.85-9.06-12-14.7-20.62-20.68-5.18-3.59-10.52-7.29-14.9-11.82-2.34-2.42-4.5-5.16-6.6-7.82-5.27-6.66-10.24-13-17.82-14.78-3.39-.82-7.06-.58-10.61-.35l-1.34.08c-14 .85-23.59-2.27-28.64-9.26-2.38-3.29-3.53-7.22-4.55-10.69C3.12 104.09 3 100.71 5 99.39c1.63-1.1 4-.27 7.74 2.67.78.62 1.54 1.24 2.29 1.86 4.64 3.81 9 7.41 15.39 7 4.78-.35 9.17-3.08 13.06-5.6l1.31-10.12a7.28 7.28 0 00-.09-3.42 7.37 7.37 0 00-2.14-2.48l-17.49-15a1.26 1.26 0 01.39-2.13 30.75 30.75 0 0127 3.14A30.72 30.72 0 0166 98.76c0 .36 0 .72.05 1.07a12.55 12.55 0 00.6 4.12 12.56 12.56 0 003.49 4.21L106.31 141c6.48 5.87 13.83 12.52 22.64 15.36a66.15 66.15 0 0012.14 2.27c5 .63 10.27 1.27 15.09 3.31 7 3 12.69 9.24 15.55 17.18a30.84 30.84 0 01-1.22 24.58c-5.59 10.71-17.83 17.23-30.12 17.23zm-95.5-92.34a25.66 25.66 0 016.1.64c8.42 2 13.9 9 19.2 15.66 2.06 2.61 4.19 5.3 6.44 7.63 4.2 4.35 9.45 8 14.52 11.5 8.54 5.92 17.36 12 21.5 21.77a58.69 58.69 0 013 10.57c1.29 5.94 2.51 11.56 6.47 15.55a20.13 20.13 0 006.88 4.34c14.37 5.86 32.37-.43 39.31-13.73a28.33 28.33 0 001.07-22.59c-2.62-7.28-7.78-13-14.17-15.71-4.5-1.91-9.32-2.5-14.42-3.14a67.78 67.78 0 01-12.59-2.37c-9.33-3-16.89-9.85-23.56-15.89L68.42 110a14.44 14.44 0 01-4.13-5.13 14.47 14.47 0 01-.78-4.95v-1a28.19 28.19 0 00-12.46-21.6 28.21 28.21 0 00-22.65-3.54l15.79 13.58A9.37 9.37 0 0147 90.81a9.36 9.36 0 01.24 4.66l-1.38 10.69a1.28 1.28 0 01-.56.89c-4.06 2.63-9.1 5.9-14.73 6.31-7.37.54-12.34-3.55-17.15-7.51L11.19 104c-3.84-3-4.78-2.56-4.79-2.55s-1.14 1 1.27 9.27c1 3.27 2.05 7 4.18 9.93 4.51 6.25 13.41 9 26.46 8.23l1.33-.09c1.73-.09 3.49-.2 5.25-.2zm-14.38-16.48z"/><path class="cls-1" d="M142.49 177.23c1.41-.39 3.66-.87 5-.4a7.68 7.68 0 012.7 2c2.37 2.36 2.93 2.64 5.3 5 .62.62 3.34 2.76 3.24 3.63-.06.49-2.42 11.33-3.35 13s-3 2.42-4.9 3l-4.4 1.38a14.87 14.87 0 01-6 1c-4.2-.44-7.14-4.21-9.57-7.66-1.14-1.62-2.72-2.53-2.77-4.51a15.69 15.69 0 011.17-4.35c.84-2.42 2.27-7.85 3.56-9.26 2.02-2.19 8.97-2.55 10.02-2.83z"/><path class="cls-2" d="M141 207.09c-.33 0-.65 0-1-.05-4.68-.5-7.85-4.49-10.46-8.19a13.82 13.82 0 00-1-1.2 6 6 0 01-2-4 13.84 13.84 0 011-4.27l.19-.53c.2-.57.43-1.32.69-2.15 1.11-3.55 2-6.36 3.13-7.54 1.69-1.84 5.67-2.49 9.27-2.95.53-.07 1.12-.15 1.27-.19 2.57-.7 4.46-.82 5.78-.37a8.64 8.64 0 013.18 2.28c1.16 1.15 1.86 1.78 2.6 2.45s1.49 1.34 2.7 2.54c.12.12.33.3.58.52 2.2 1.94 3.16 3 3 4.13-.05.47-2.42 11.54-3.51 13.44-1.18 2.05-3.41 2.9-5.61 3.58l-4.3 1.41a18.42 18.42 0 01-5.51 1.09zm5.12-29.2a13.07 13.07 0 00-3.3.54 12.24 12.24 0 01-1.61.26c-2 .25-6.54.84-7.75 2.16-.79.86-1.91 4.45-2.58 6.6-.27.85-.51 1.63-.72 2.23l-.2.55a13 13 0 00-.9 3.35c0 .88.51 1.46 1.35 2.39a14 14 0 011.19 1.44c2.29 3.25 5 6.75 8.68 7.14a14 14 0 005.48-1l4.39-1.38c1.8-.56 3.46-1.17 4.19-2.44s2.83-10.49 3.17-12.3a17.63 17.63 0 00-2.16-2.16c-.3-.26-.55-.48-.69-.62-1.16-1.16-1.86-1.79-2.61-2.45s-1.48-1.34-2.69-2.54a6.57 6.57 0 00-2.23-1.68 3 3 0 00-1.01-.09zm-3.63-.66z"/><path class="cls-1" d="M100.67 123.83l22.2-23.45c2.54-2.69 5.13-5.43 6.83-8.72 1.06-2.07 1.76-4.32 3-6.32 2.28-3.85 6.14-6.45 9.88-8.92l7-4.63c2.54 3.41 9.42 11.12 9.42 11.12s-1.56 4.52-2.09 5.62c-2.43 5-5.33 10.47-10.57 12.37a30 30 0 00-4 1.36 12.42 12.42 0 00-2.92 2.4l-30 30.22"/><path class="cls-2" d="M109.48 136.13a1.28 1.28 0 01-.88-.36 1.25 1.25 0 010-1.77l30-30.22a13.54 13.54 0 013.21-2.62 13.16 13.16 0 012.74-1c.47-.14.94-.27 1.39-.43C150.61 98 153.37 93 155.79 88c.35-.72 1.27-3.28 1.8-4.8-1.48-1.66-5.87-6.62-8.33-9.72l-6 4c-3.43 2.26-7.32 4.83-9.5 8.51a28 28 0 00-1.63 3.44c-.4.92-.8 1.88-1.28 2.81-1.8 3.48-4.46 6.29-7 9l-22.19 23.44a1.25 1.25 0 01-1.9-1.68L122 99.52a38.7 38.7 0 006.63-8.44c.43-.84.8-1.72 1.2-2.64a30.26 30.26 0 011.78-3.74c2.48-4.17 6.62-6.91 10.27-9.32l7-4.63a1.24 1.24 0 011.68.29c2.52 3.32 9.34 11 9.41 11a1.25 1.25 0 01.25 1.24c-.16.47-1.6 4.63-2.15 5.77-2.65 5.47-5.7 11-11.26 13-.52.18-1 .33-1.57.48a11.9 11.9 0 00-2.25.8 12.05 12.05 0 00-2.61 2.18l-30 30.22a1.22 1.22 0 01-.9.4z"/><path class="cls-1" d="M61.55 149.81a350.55 350.55 0 01-28.63 29.95c-6 5.58-12.39 11.19-15.73 18.68s-2.64 17.56 3.93 22.42c5.29 4 12.91 3.47 18.83.54s10.55-7.91 15-12.77l35.33-38.38"/><path class="cls-2" d="M30.41 225a16.68 16.68 0 01-10-3.1c-7.3-5.46-7.68-16.41-4.32-23.93 3.23-7.25 9.15-12.73 14.87-18l1.15-1.06A351.07 351.07 0 0060.6 149a1.25 1.25 0 011.91 1.62 353.13 353.13 0 01-28.74 30l-1.15 1.07c-5.54 5.12-11.26 10.43-14.29 17.21s-2.73 16.22 3.54 20.91c4.44 3.32 11.33 3.49 17.53.42 5.8-2.87 10.3-7.77 14.66-12.5l35.33-38.33a1.25 1.25 0 011.84 1.69L55.9 209.47c-4.3 4.68-9.18 10-15.39 13.05a23 23 0 01-10.1 2.48z"/><path class="cls-1" d="M22.69 198.07a228.79 228.79 0 0016.63 17.62"/><path class="cls-2" d="M39.32 216.94a1.24 1.24 0 01-.86-.35 229.25 229.25 0 01-16.72-17.71 1.25 1.25 0 011.9-1.62 228.19 228.19 0 0016.54 17.52 1.25 1.25 0 01-.86 2.16z"/><path class="cls-1" d="M63 158.41c2.84 2.57 2.34 7.67-.61 10.12s-7.53 2.3-10.73.18"/><path class="cls-2" d="M57.08 171.59a11.12 11.12 0 01-6.08-1.83 1.25 1.25 0 111.37-2.09c2.9 1.91 6.87 1.87 9.24-.1a6 6 0 002-4.46 4.81 4.81 0 00-1.47-3.77 1.25 1.25 0 111.68-1.86 7.42 7.42 0 012.29 5.68 8.49 8.49 0 01-2.94 6.33 9.59 9.59 0 01-6.09 2.1z"/><path class="cls-1" d="M78.92 173.16a15.5 15.5 0 00-5.07-.92 5.3 5.3 0 00-4.4 2.31 6.4 6.4 0 00-.7 3.14 16.58 16.58 0 001 5.84"/><path class="cls-2" d="M69.72 184.78a1.24 1.24 0 01-1.17-.83 17.67 17.67 0 01-1-6.28 7.6 7.6 0 01.88-3.75A6.43 6.43 0 0173.8 171a17.2 17.2 0 015.48 1 1.25 1.25 0 01-.71 2.4 14.48 14.48 0 00-4.67-.87 4.11 4.11 0 00-3.37 1.7 5 5 0 00-.53 2.52 15.06 15.06 0 00.9 5.4 1.25 1.25 0 01-.75 1.6 1.29 1.29 0 01-.43.03z"/><path class="cls-1" d="M65 121.76c1.61 3.38 4.84 5.62 7.88 7.8a192.39 192.39 0 0134.88 32.21"/><path class="cls-2" d="M107.74 163a1.25 1.25 0 01-.95-.44 191.36 191.36 0 00-34.66-32l-.3-.21c-3.09-2.22-6.28-4.51-8-8.06a1.25 1.25 0 012.25-1.08c1.43 3 4.36 5.08 7.19 7.11l.3.21A193.91 193.91 0 01108.7 161a1.25 1.25 0 01-.15 1.76 1.22 1.22 0 01-.81.24z"/><g opacity=".7"><path class="cls-4" d="M149.5 42.6a3.37 3.37 0 01-2.5-1.05 3.6 3.6 0 01-1-2.61v-28.2l1.26.3-11.62 14.34-.3-.78h20.34A3.28 3.28 0 01159 28a3.09 3.09 0 01-1 2.31 3.31 3.31 0 01-2.4.93h-25.24a3.67 3.67 0 01-2.43-1 3.21 3.21 0 01-1.17-2.52 3.66 3.66 0 01.9-2.4L146.62 2a3.42 3.42 0 011.26-1 3.84 3.84 0 011.74-.4 3.35 3.35 0 012.55 1 3.66 3.66 0 011 2.61v34.73a3.59 3.59 0 01-3.66 3.66zM183.76 43.2a14 14 0 01-8.76-2.73 16.85 16.85 0 01-5.43-7.62 31.51 31.51 0 01-1.86-11.25 31.45 31.45 0 011.86-11.28A16.86 16.86 0 01175 2.73a15.32 15.32 0 0117.46 0 16.86 16.86 0 015.43 7.59 31.45 31.45 0 011.86 11.28 31.51 31.51 0 01-1.86 11.25 16.85 16.85 0 01-5.43 7.62 14 14 0 01-8.7 2.73zm0-7.2a6.41 6.41 0 004.35-1.59 10.34 10.34 0 002.85-4.8 26.82 26.82 0 001-8 26.76 26.76 0 00-1-8 10.33 10.33 0 00-2.85-4.77 6.7 6.7 0 00-8.67 0 10.2 10.2 0 00-2.88 4.77 26.76 26.76 0 00-1 8 26.82 26.82 0 001 8 10.21 10.21 0 002.88 4.8 6.45 6.45 0 004.32 1.59z"/></g><path class="cls-5" d="M28.45 253.71a2.08 2.08 0 01-1.47-.54 1.84 1.84 0 01-.6-1.43 1.78 1.78 0 01.6-1.41 2.12 2.12 0 011.47-.52h15.1a2.1 2.1 0 011.47.54 1.84 1.84 0 01.6 1.43 1.78 1.78 0 01-.6 1.41 2.13 2.13 0 01-1.47.52zM36 273.6a2.15 2.15 0 01-1.57-.6 1.94 1.94 0 01-.61-1.47v-19.72h4.42v19.72a1.92 1.92 0 01-.63 1.47 2.25 2.25 0 01-1.61.6zM73.8 261.7a13.28 13.28 0 01-.85 4.76 12.21 12.21 0 01-2.4 3.89 11 11 0 01-3.67 2.65 11.29 11.29 0 01-4.64.95 11 11 0 01-8.24-3.6 12 12 0 01-2.39-3.89 13.75 13.75 0 010-9.52 12 12 0 012.39-3.89 11.15 11.15 0 013.66-2.63 11 11 0 014.62-.95 11.13 11.13 0 014.64.95 11 11 0 013.67 2.63 12.21 12.21 0 012.4 3.89 13.32 13.32 0 01.81 4.76zm-4.42 0a9.21 9.21 0 00-.92-4.13 7.59 7.59 0 00-2.46-2.94 6.84 6.84 0 00-7.41 0 7.38 7.38 0 00-2.5 2.93 9.95 9.95 0 000 8.27 7.27 7.27 0 002.5 2.94 6.84 6.84 0 007.41 0 7.45 7.45 0 002.51-2.94 9.18 9.18 0 00.87-4.13zM103 261.7a13.28 13.28 0 01-.85 4.76 12.21 12.21 0 01-2.4 3.89 11.11 11.11 0 01-3.67 2.65 11.29 11.29 0 01-4.64.95 11 11 0 01-8.28-3.59 12 12 0 01-2.39-3.89 13.75 13.75 0 010-9.52 12 12 0 012.39-3.89 11.32 11.32 0 0116.59 0 12.21 12.21 0 012.4 3.89 13.32 13.32 0 01.85 4.75zm-4.42 0a9.21 9.21 0 00-.92-4.13 7.53 7.53 0 00-2.52-2.94 6.84 6.84 0 00-7.41 0 7.43 7.43 0 00-2.49 2.93 9.85 9.85 0 000 8.27 7.33 7.33 0 002.49 2.94 6.84 6.84 0 007.41 0 7.39 7.39 0 002.52-2.94 9.18 9.18 0 00.92-4.13zM123.42 269.62a2.08 2.08 0 011.48.56 1.91 1.91 0 01.6 1.45 1.85 1.85 0 01-.6 1.41 2.08 2.08 0 01-1.48.56h-11a2 2 0 01-1.48-.6 2 2 0 01-.6-1.47v-19.65a2 2 0 01.62-1.48 2.1 2.1 0 011.56-.59 2 2 0 011.44.59 2 2 0 01.63 1.48v18.32l-.75-.58zM140.45 273.94a14.23 14.23 0 01-4.28-.6 10.16 10.16 0 01-3.64-2.09 2.75 2.75 0 01-.68-.85 2.18 2.18 0 01-.23-.95 1.9 1.9 0 01.56-1.37 1.84 1.84 0 011.41-.6 1.8 1.8 0 011.15.41 11.14 11.14 0 002.57 1.6 8.07 8.07 0 003.14.54 6.68 6.68 0 002.32-.39 4.51 4.51 0 001.69-1.05 2.1 2.1 0 00.65-1.52 2.56 2.56 0 00-.61-1.73 4.63 4.63 0 00-1.87-1.21 14.22 14.22 0 00-3.2-.76 14.48 14.48 0 01-3.23-.83 7.6 7.6 0 01-2.32-1.43 5.51 5.51 0 01-1.41-2 6.9 6.9 0 01-.48-2.64 6.22 6.22 0 011.14-3.77 7.19 7.19 0 013.07-2.38 11 11 0 014.29-.81 12.27 12.27 0 014.09.66 9.46 9.46 0 013.08 1.68 2.26 2.26 0 011 1.8 2 2 0 01-.58 1.36 1.81 1.81 0 01-1.36.61 1.51 1.51 0 01-.92-.3 5.92 5.92 0 00-1.46-.9 13.15 13.15 0 00-1.94-.72 7.52 7.52 0 00-4.37.09 3.36 3.36 0 00-1.51 1 2.34 2.34 0 00-.51 1.49 2.44 2.44 0 00.6 1.69 4 4 0 001.71 1.05 21.12 21.12 0 002.69.7 27.19 27.19 0 013.58.88 8.48 8.48 0 012.57 1.31 4.92 4.92 0 011.53 2 7.5 7.5 0 01.51 2.93 6.09 6.09 0 01-1.22 3.81 7.85 7.85 0 01-3.22 2.45 10.75 10.75 0 01-4.31.84z"/></g></g></svg>