<svg version="1.1" id="Слой_1" xmlns="http://www.w3.org/2000/svg" x="0" y="0" viewBox="0 0 681 452" xml:space="preserve"><style>.st1,.st2{fill:#8888e5;stroke:#414242;stroke-width:2.5;stroke-linecap:round;stroke-linejoin:round;stroke-miterlimit:10}.st2{fill:#edc914;stroke:#424242}.st4{fill:#414242}.st5,.st6{stroke:#414242;stroke-linecap:round;stroke-linejoin:round;stroke-miterlimit:10}.st5{stroke-width:2.5;fill:none}.st6{fill:#8888e5}</style><path d="M251.2 174c-8.3 5.1-16.6 15.6-10.9 23.5 2.3 3.3 6.5 5 8.2 8.7 3.1 6.6-4 13.4-10.5 16.7-31.7 16.3-71.7 18.1-96.6 43.5-10.7 10.9-17.2 29.3-7.7 41.2 5.3 6.7 14 9.3 21.9 12.8s15.9 9.1 17 17.6c1.2 9.6-7.1 17.6-9.7 26.9-3.8 13.8 5.5 28 17 36.5 22.2 16.5 51.4 18.9 79 20.4 78.4 4.1 159.1 4.5 232.6-22.9 4.5-1.7 9.2-3.7 12-7.6 6.5-9.3-1.8-21.3-4.9-32.2-.7-2.4-1.1-5-.2-7.3.8-2.1 2.7-3.6 4.5-4.9 19.4-14.1 44.6-16.8 67.1-25.1 8.9-3.3 18-8 22.6-16.3 3.9-7.2 3.8-16 1.6-23.9-7.3-25.8-33.8-41.2-59.6-48.4-25.8-7.1-53.3-8.9-77.6-20.3-1.8-.8-3.6-1.8-4.8-3.4-3.8-4.9 1-12.1 6.6-14.8 5.6-2.7 12.3-3.3 16.9-7.5 7.7-6.9 5-20.5-2.8-27.3-7.8-6.8-18.7-8.6-29-9.5-34.9-3.3-70.1-1-104.9 2.9-29.2 3.3-62.2 5-87.8 20.7z" fill="#f9f9f4"/><path class="st1" d="M314.6 185.4h69.8V32.5c0-2.7-2.2-4.9-4.9-4.9h-60c-2.7 0-4.9 2.2-4.9 4.9v152.9z"/><path class="st1" d="M324.6 122.8h49.7v54.8h-49.7z"/><path class="st2" d="M349.4 33.3c-19.8 0-24.9 16.1-24.9 16.1V104h49.7V49.4c.1 0-4.9-16.1-24.8-16.1z"/><circle class="st2" cx="324.5" cy="113.5" r="5.5"/><path class="st1" d="M485.4 253l60.4 34.9V136c0-2.7-1.9-6-4.2-7.3l-52-30c-2.3-1.3-4.2-.3-4.2 2.4V253z"/><path class="st1" d="M494 250.3l43.1 24.8v-54.5L494 195.8z"/><path class="st2" d="M515.6 119.3c-17.2-9.9-21.5 3.6-21.5 3.6v54.3l43 24.9v-54.3c0-.1-4.3-18.6-21.5-28.5z"/><ellipse transform="rotate(-30.311 492.925 187.055)" class="st2" cx="492.9" cy="187.1" rx="4" ry="7"/><path class="st1" d="M151.1 287.9l60.4-34.9V101.1c0-2.7-1.9-3.8-4.2-2.4l-52 30c-2.3 1.3-4.2 4.6-4.2 7.3v151.9z"/><path class="st1" d="M159.8 275.1l43-24.8v-54.5l-43 24.8z"/><path class="st2" d="M181.3 119.3c-17.2 9.9-21.5 28.4-21.5 28.4V202l43-24.9v-54.3s-4.3-13.5-21.5-3.5z"/><ellipse transform="rotate(-59.689 160.746 210.892)" class="st2" cx="160.7" cy="210.9" rx="7" ry="4.1"/><path d="M252.9 350.8c-5.3-6.2-8.9-14-15.4-18.8-7.5-5.6-18.3-6.2-26.4-1.6-8.1 4.7-13 14.3-11.9 23.6.6 5 2.7 9.6 5.5 13.8 7.8 11.7 20.5 19.3 33.9 23.6 9.7 3.1 19.8 4.6 29.9 6.2 2.3.4 4.7.7 7 1.1 5.8.9 11.6 1.8 17.4 2.6 7.1 1.1 14.1 2.1 21.2 3.2 1.5.2 3.2.4 4.5-.3 1.5-.9 2.2-2.7 3.6-3.9 1.6-1.3 3.8-1.4 5.8-1.4l50.9-.6c14.8-.2 29.9-.3 44.3 3.3 7.5 1.9 15.1 4.8 22.6 3.3s14.2-10.2 10.4-16.8c-3.4-.4-8-2.3-7.1-5.6.3-1.1 1.2-2 2.1-2.8 5.5-5.2 9.5-12.4 9.7-20 .2-7.6-4-15.5-11-18.4-7-2.9-16.4.4-18.9 7.6-4.1.3-7.8-3-9.3-6.9s-1.3-8.1-1-12.3c5 2.7 11.7 1.9 15.9-1.9 4.2-3.8 5.7-10.4 3.6-15.6-.5-1.2-1.2-2.4-1.4-3.8-.3-2.4 1.3-4.6 2.6-6.6 4.1-7 4.8-16 1.6-23.5-3.1-7.5-10-13.4-17.9-15.3-10.3-2.6-22.6.9-30.9-5.6-6.2-4.9-7.7-13.5-11.2-20.6-5.4-11.2-16.2-19.2-27.9-23.3-11.7-4.1-24.4-4.7-36.9-4 0 3.9-.1 7.7-.1 11.6-11.9 2.6-23.8 5.2-35.7 7.9 11 17.6 14.1 39 14.5 59.8.4 20.8-1.5 41.6.6 62.3-3.2-4-9-5.6-13.8-4-6.5 2.2-6.4 9.6-12 11.8-6.6 2.6-14.9-3.5-18.8-8.1z" fill="#8888e5"/><path class="st4" d="M326.3 250.9c-1 .6-2.3.2-2.9-.8l-3.4-5.8c-.6-1-.2-2.3.8-2.9 1-.6 2.3-.2 2.9.8l3.4 5.8c.6 1 .2 2.3-.8 2.9zM353.3 239.5c-1 .6-2.3.2-2.9-.8l-3.4-5.8c-.6-1-.2-2.3.8-2.9 1-.6 2.3-.2 2.9.8l3.4 5.8c.5 1 .2 2.3-.8 2.9z"/><path class="st5" d="M275 362.8c-2 5.3.8 11.6 5.4 15.1 4.5 3.5 10.4 4.8 16 5.6-6.2-1.3-12.2 2.5-17.4 6.1-2.2 3 1.4 7 5 7.8 2.9.6 6.7-.2 7.6-3-1.1 1.7-.3 4.1 1.3 5.3s3.7 1.5 5.7 1.5c1.8 0 3.6-.4 5-1.4 1.4-1.1 2.2-3.1 1.4-4.7.3 4.7 4.9 8.7 9.7 8.3s8.5-5.3 7.8-10c9.5 1.3 19.2 2.1 28.8 2.2M310.3 322.3c3.3 7.9 8.9 15.1 16.7 18.7 7.7 3.6 17.7 3 24.1-2.6 3-2.6 5-6.1 6.8-9.7 5.3-10.7 8.4-22.5 9-34.4 2.7.9 6-1.3 6.3-4.1s-2.3-5.7-5.2-5.5c3.9.3 7.6-3.4 7.1-7.3s-5.4-6.5-8.8-4.5c3.5-.1 5.2-5.2 3.1-8s-6.4-3.2-9.7-1.9-5.8 4-8.1 6.6c-1.8-3.7-7.6-4.9-10.5-1.9-2.9 3-1.2 9 2.9 9.6-6.7 7.8-12.9 16-18.6 24.5M405.4 291.5c5.2 12.8 6.1 26.9 10 40.2 3.2 10.9 8.3 21 13.4 31.1M409.9 295.1c4.3 3.6 10.9 3.9 15.6.9"/><path class="st5" d="M445.6 344.7c2.8-1.5 6.1.6 8.1 3 4.5 5.7 5.2 13.9 2.5 20.7s-8.6 12-15.3 14.8c3.1-.3 6.3.1 9 1.5 2.7 1.5 4.9 4.2 5.1 7.3.2 3.1-1.9 6.3-5 6.8-3 .5-6.3-2.3-5.9-5.3l.6 8.1c-1.7 3.4-4.7 3.4-8.6.2-.6-2.3-1.2-4.6-1.9-6.8 1.6 2.2.8 5.6-1.5 7.1s-5.4 1.3-7.7-.1c-2.4-1.4-3.9-3.8-5.4-6.2-2.1-3.3-7.1-2.2-11-2.1-11.7.4-23.5 2.4-35 .4M228.8 332.7c-3.2-2.2-7.5-1.8-11-.3-6.6 2.9-10.5 10.3-9.9 17.4 2 24.2 32.6 32.9 42.1 33.7M336 256c8-3 13 3 17-4M339.1 243.3c3.3 2.3 5.8 7.7 5.9 11.7M292 243.2c-.5-1.8-3.2-11.4-5.9-12.5 7.1-1.6 14.3-3.1 21.4-4.7M321.7 219.2c-.1-2.4-.2-4.7-.3-7.1 9.2-.1 18.4 1.1 27.3 3.5M416.6 321.1c3.9 4.9 10.4 7.5 16.7 6.8 2.3-.3 5.1-1.7 4.8-4-.2-2.1-2.7-2.9-4.8-3.3 2.5.7 5.2 1 7.6 0 2.4-.9 4.3-3.5 3.8-6-.4-2.1-2.3-3.6-4.3-4.2-2-.6-4.2-.5-6.3-.4 8.4-3.5 13-13.5 11.8-22.5-.9-7-4.9-13.6-10.7-17.7-5.8-4.1-13.3-5.7-20.2-4.2M277.6 354.8c11.4-14.8 23.4-1.8 22.1 1.5"/><path class="st6" d="M185.2 140c0 2.2-1.6 4.9-3.5 6-1.9 1.1-3.5.2-3.5-2s1.6-4.9 3.5-6c2-1.1 3.5-.2 3.5 2zm-8.8 9.8c-1.2.7-1 1.6-1 1.6v11.9c0 1.2 1.2.5 1.2.5 1.2-.7 1.2-1.7 1.2-1.7v-9.4l.5-.3v24.5c0 2 1.8.9 1.8.9 1.8-1 1.6-2.8 1.6-2.8v-14l.5-.3v13.9c0 .3-.2 2.1 1.7 1s1.7-3 1.7-3v-24.4l.5-.3v9c0 1.7 1.2.8 1.2.8 1.2-.7 1.1-1.9 1.1-1.9V144c0-1-.9-.5-.9-.5s-9.9 5.6-11.1 6.3zM518.3 142.5c0 2.3-1.6 3.2-3.6 2-2-1.1-3.6-3.9-3.6-6.2s1.6-3.2 3.6-2c2 1.1 3.6 3.9 3.6 6.2zm-9.8.1s-1.4 9.2-1.7 10.5c-.2 1.4.7 2.1.7 2.1 1.5 1.4 1.7.1 1.7.1l1.3-8.9.4.2s-1.7 11-2.2 12.9c-.5 1.9.6 2.4.6 2.4l1.4.8v9.2s-.1 1.5 1.6 2.5c1.8 1 1.8-.5 1.8-.5v-9.3l.7.4v9.2c0 .1 0 1.6 1.8 2.6 1.7 1 1.7-.5 1.7-.5v-9.4s.2.1 1.5.9c1.3.7.8-1.3.8-1.3l-2.5-15.8.4.2s1.5 10.5 1.6 10.8c.1.3.3.9 1 1.3s1 .2 1 .2c.4-.1.2-.9.2-.9l-.2-1.3s-1.7-11.1-1.9-12c-.1-.9-.8-1.2-.8-1.2l-10-5.8c-.9-.3-.9.6-.9.6z"/><g><path class="st6" d="M346.2 68.7c.5-.6 1.2-.8 2-.8 2.1 0 3.8-.5 5-1.5 1.3-1 1.9-2.5 1.9-4.5 0-1.6-.6-2.9-1.7-3.9s-2.6-1.6-4.3-1.6c-1.7 0-3.3.6-4.6 1.8-.8.7-1.5 1-2.4 1-.6 0-1.1-.2-1.6-.6-.8-.6-1.2-1.4-1.2-2.2 0-.7.3-1.4.9-2 1.1-1.2 2.5-2.1 4-2.7 1.5-.6 3.2-1 4.9-1 2.1 0 4.1.5 5.9 1.5 1.8 1 3.2 2.3 4.2 4 1 1.7 1.6 3.6 1.6 5.7 0 3-.9 5.4-2.6 7.2-1.7 1.8-4 2.9-6.9 3.3-.2.1-.2.1-.2.2v1.8c0 .8-.3 1.5-.8 2.1-.5.6-1.2.8-2 .8s-1.5-.3-2-.8c-.5-.6-.8-1.2-.8-2.1v-3.6c-.1-.9.2-1.6.7-2.1zm-.3 16.2c-.5-.5-.7-1.2-.7-2.1V82c0-.9.2-1.6.7-2.1.5-.5 1.2-.7 2.1-.7h.6c.9 0 1.6.2 2.1.7.5.5.7 1.2.7 2.1v.8c0 .9-.2 1.6-.7 2.1-.5.5-1.2.7-2.1.7h-.6c-.9.1-1.6-.2-2.1-.7z"/></g></svg>