<svg version="1.1" id="Слой_1" xmlns="http://www.w3.org/2000/svg" xmlns:xlink="http://www.w3.org/1999/xlink" x="0" y="0" viewBox="0 0 681 452" xml:space="preserve"><style>.st0{fill:#8888e5}.st1,.st2{fill:none;stroke:#414242;stroke-width:2.3;stroke-linecap:round;stroke-linejoin:round;stroke-miterlimit:10}.st2{fill:#edc914;stroke:#424242}.st3{fill:#414242}.st5{clip-path:url(#SVGID_2_)}.st6{fill:#edc914}.st7{fill:#424242}</style><path class="st0" d="M103.7 186.8c-.6 7.9-12.4 8.9-17.6 11.8-2.2 1.2-4.1 3.3-4.3 5.8-.1 1.1.1 2.2.4 3.2.7 2.9 2 6.1 4.8 7 2.5.8 5.2-.6 7.5-2 4.9-2.9 10-6.8 15.4-8.7.9-.3 13.4-.7 11.3 1.8-4.5 5.2-10.5 7.7-15.4 12.2-3.3 3-3.8 9.8 1.9 11.5 1.4.4 3 .3 4.5.1 12.4-1.9 22.3-9.8 33-15.9 4.5-2.6 9.1-7.3 14.3-6.3 53.3 10.9 77.4-28.9 81.3-32.9 7.2-7.3 17.1-9.1 24.8-15.1 10.8-8.5 13.5-22.9 25.1-30.3 2.7-1.7 5.9-3.3 7.1-6.3 1-2.2.7-4.8-.2-7-1.9-4.6-10.8-12.6-24.8 1.1-1.1 1.1-1.5 3-3 3.6.4-4.6-1.7-13.9-5.7-17.6 2.1-4.4 14.2-5.6 19.9-6 5.4-.5 10.9-.9 16.2-2.3 8.8-2.4 17.2-6.2 25.5-10 6-2.7 12.3-6.1 15.3-12s2-13.2-1-19.2c-3-5.8-8.5-11.1-15.1-10.9-6.1.2-11.1 4.9-14.5 9.8-3.4 5-6.1 10.7-10.7 14.7-4.2 3.7-9.5 5.6-14.8 7.5l-50.7 18c-7.2 2.6-14 4.7-20.3 8.9-6.7 4.5-12.8 9.7-20.1 13.5-7.2 3.8-14.8 7-22.5 9.6-8.7 2.9-20.3 4.2-25.4-3.5-2.6-4-2.5-9.1-3.9-13.7-5.3-17.5-23.5 5.2-32.4 7.8-3.2.9-6.6 1.4-9.9.9-5.6-1-14.2-6.6-19.7-2.8-2.3 1.6-2.9 4.6-3.3 7.3-10.9 61.9 27.5 59.6 27 66.4z"/><path class="st1" d="M192 203.3c17-3.4 32.7-13 43.4-26.7M123.4 207.3c-4 5.2-10.8 7.2-17.2 8.9-1.3.3-2.5.7-3.6 1.5-1 .8-1.7 2.2-1.3 3.4.5 1.6 3 2.1 4.1.8-1 1.8-3.7 2.6-3.8 4.6 0 1.4 1.3 2.5 2.7 2.6 1.4.1 2.7-.4 4-.9-1.4 0-1.5 2.4-.2 3 1.2.7 2.7.1 4-.4 2.4-1 4.8-2 6.8-3.6 1.4-1.1 2.6-2.5 3.8-3.9 4.5-4.7 10.3-8 16.5-9.6M102.3 190.4c-3.8 3.2-8.3 5.5-13 7-1.6.5-3.6 1.1-4.1 2.7-.5 1.7 1.4 3.6 3.1 3.1-1.5.7-3.2 1.7-3.3 3.3-.2 1.7 1.9 3.1 3.4 2.4-.4 1.3-.5 2.6-.4 4 2.8.9 5.9.3 8.2-1.5 1.3-1 2.3-2.4 3.4-3.7 3.2-3.7 7.6-6.3 12.3-7.5M228 167.9c43.5-.9 48.6-23.5 51.7-28.9 3.5-6 9.8-10.7 16-13.6.8-.4 1.8-.9 1.9-1.8 0-.4-.1-.7-.2-1.1-1-2.2-3.5-3.7-5.9-3.5 1.4-.4 2.9-.9 3.8-2 .9-1.2.9-3.2-.5-3.8-.6-.3-1.3-.2-1.9-.1-2.7.5-5.2 1.9-7.1 3.9.9-1.1.2-3-1.2-3.5-1.3-.6-2.9-.1-4 .8s-1.7 2.3-2.8 3.2C255 135.6 235.5 135 230 134.9M76.7 133.7c.2-4.3 1.2-8.5 2.3-12.7.5-1.8 1.2-3.9 3-4.5.9-.3 1.8-.1 2.7.1 4.7.9 9.4 1.8 14.1 2.6M118.9 111.9c4.4-3.2 9.2-5.8 14.2-7.6.3-.1.7-.2 1-.1.3.1.5.5.7.8 2.5 5.4 5 10.9 7.5 16.3M312.1 53.8c1.1 4.1 1.3 8.5.7 12.7 4.2-1.1 8.3-2.9 11.9-5.3 1 3.2 2.1 6.5 3.1 9.7L338 67"/><path class="st2" d="M153.2 126.2c66.5-31.5 30.9-114.7 85.1-100 54.5 14.8 56.9-33.3 61.6 1.5 3.7 27.7-39.5 43.4-55.4 66.8-7.2 10.5-14.2 21.7-24.7 28.8-13.6 9.1-34.3 10.2-41.4 24.9-22.2 45.9-49.3 37-51.6 34.9 19.7-15 30.1-42.9 26.4-56.9z"/><path class="st1" d="M130.9 160.1c-11.5 9.1-17-4.4-17-4.4s-1.9 13.1-16.6 8.6"/><path class="st2" d="M125.7 127.6c4.1 0 8.5.3 11.9 2.7 5 3.7 5.8 11.6 2.3 16.7s-10.4 7.3-16.5 6.2c-4.7-.9-9-3.5-12-7.2-1.9 4.1-3.9 8.3-7.4 11.1-5.3 4.1-14.3 5-18.7-.1-19.8-22.9 28.4-29.4 40.4-29.4z"/><ellipse transform="matrix(.09427 -.9955 .9955 .09427 -22.548 258.032)" class="st3" cx="130.5" cy="141.4" rx="4.6" ry="3.1"/><ellipse transform="matrix(1 -.0074 .0074 1 -1.092 .716)" class="st3" cx="96.4" cy="148.1" rx="3.1" ry="4.6"/><path class="st2" d="M122.3 178.6l7.6-.4-4.3 6.3 2.7 7.1-7.3-2.1-5.9 4.8-.2-7.7-6.4-4.1 7.2-2.6 2-7.3z"/><path class="st2" d="M107.3 184.4c1.9.2 3.7.4 5.6.6-2.3 2.9-6.2 4.2-8.3 7.2.1-3.1-1.9-5.4-2-8.1 1.5-.2 3.2.1 4.7.3zM600.6 168.9c4.7-4.4 8.4-9.9 13.8-13.4 5.6-3.7 12.8-5.1 17-10.3-9.6 3.8-20.2 4.9-30.4 3.2-4.2-.7-8.4-1.9-12.5-3.2-5.6-1.8-11.1-3.7-16-6.9-.2 9.9-.5 19.9-.7 29.8-.1 3.2-.1 6.7 1.4 9.6 1.9 3.7 4.1 3 7.7 2.1 7.3-2 14.2-5.7 19.7-10.9z"/><path class="st0" d="M434.4 94.1c7.7 7.4 14.7 15.4 20 24.9 5.7 10.3 9.5 21.4 13.4 32.5 5.4 15.1 13 27.8 27 36.4 5.3 3.3 11 5.9 17.2 6.5 2.2.2 4.7.4 6.3 1.9 2 1.8 2.1 4.8 2.4 7.4.6 5 2.4 9.9 5.2 14.1 2.2 3.4 8.1 6.7 8.9 10.6.3 1.2.3 2.6 1.2 3.5.9 1 2.4 1 3.8 1 2.1 0 4.3-.1 6.4-.7s4-1.9 4.9-3.8c.9-1.9.7-4.1.4-6.1-.2-1.2-.5-2.4-1.1-3.5-.7-1.2-1.8-2.2-2.8-3.2-7.6-7.8-5.4-13.7 1.8-20.3 1-.9 2-1.8 3.2-2.3 3.2-1.2 6.6 1 9.6 2.8 4.7 2.8 9.9 4.5 15.3 5.2 2.4.3 5.3-.3 7.6.1 2.1.4 3.5 2.3 5.6 2.6 1.7.2 3.2-1 4.5-2.1 1.9-1.7 4-3.8 4-6.3-.1-3.2-3.3-5.3-6.4-6.1-7.8-2.1-14.1-3.6-18.2-11.9-2.4-4.9-2.4-11.2 1-15.4 9 13.2 20.7 24.7 34.1 33.5 9.3 6.1 20.1 11.1 31.1 9.7s21.5-11.2 20.1-22.2c-1.3-10.2-11.6-16.9-21.5-19.1s-20.5-1.5-30.4-4.2c-18.6-5-32-21-42.4-37.2-5-7.8-10-16.3-18-20.9-10.4-6-23.4-4.1-35.2-2-1.6-2.4 15.8-18.2-11.3-54.8-.9-1.2-1.7-3-3.2-2.8-.7.1-1.3.7-1.9 1.2-5.6 5.4-21.3 10.6-28 5.2-4.9-3.9-10.9-6-16.9-7.9-.6-.2-1.4-.4-1.9 0-.4.3-.5.9-.6 1.4-1 5.9-3 11.6-5.2 17.1-2.1 5.5-2.2 10.7-1.9 16.5.1 1.8.2 3.5.8 5.2.8 2.7-7.7-8.3-13.4-12.3-1.9-1.3-3.7-2.6-5.6-4-2.9-2.1-7.3-4.4-10-.7-1.4 1.9-1.5 4.4-1 6.7 1.4 6.5 7 11.1 12.1 15.5 3.1 2.9 6.1 5.6 9 8.3z"/><path class="st1" d="M509.2 125.8c2.4.3 4.1 2.9 4.3 5.4.2 2.5-.7 4.9-1.6 7.2-.7 1.7-1.4 3.5-2.1 5.2-.6 1.5-1.2 3.1-2.4 4.2s-3.1 1.7-4.5.8c-.5-.3-1-.9-1.6-1.1-1.4-.5-2.8 1.4-2.3 2.8s2.3 2.1 3.8 1.9c-3.7.5-5.7 5.8-3.2 8.7 2.1.6 4.5-.6 5.4-2.5-.1 3 3.8 5.2 6.3 3.7 1.1-.7 1.9-1.9 2.7-3 6-7.5 34.3-21.2 22.3-37-2-2.7-4.9-5.1-8.3-5.1M447.4 57.6c3.1-6.7 2.9-7.8 6-14.5 5.8 1.2 11.3 3.6 15.9 7.2M491.7 49.9c3.4-1.4 6.4-3.6 8.8-6.4 1.5 1.8 8.3 11.8 7 16.9M522.7 200.8c1.2 4.1 1.8 8.4 3.1 12.5s3.5 8.1 7.1 10.4c1.9 1.2 4.3 2.2 4.8 4.4.2.9 0 1.8.3 2.7.4 1.5 2.1 2.5 3.6 2.2 1.5-.3 2.8-1.7 2.9-3.3.1-.5 0-1 .4-1.4.6-.6 1.7 0 2.4.5 1.5 1 3.6 1.2 5.3.6.6-1.6 0-3.5-1.3-4.5 1.4.1 3.3-.1 3.5-1.4.1-1.1-1-1.9-1.9-2.4-3.4-1.9-6.7-4.1-8.8-7.3s-2.9-7.6-1.1-10.9M547.5 193.8c3-2.2 6-4.5 9-6.7 2.6-2 5.3-3.9 7.6-6.2 6-5.7 10.3-13.2 12-21.3M569.8 196.7c2.7 2.2 6.2 3.2 9.7 3.4s7-.3 10.4-.8c-.8.8-1.6 1.7-1.4 2.8.2 1.3 1.7 1.9 2.9 1.9 1.3.1 2.7-.3 3.7-1.3.9-.9 1.3-2.5.7-3.7 1.8.7 4.2-.5 4.7-2.4s-1-4.1-3-4.3c.8-1.2.2-2.8-1-3.6-1.1-.8-2.6-.9-4-.9-1.3.1-2.6.2-3.9.5-.8.2-1.5.4-2.3.3-.8-.1-1.4-.6-2.1-1-3-2.2-5.7-4.7-8.1-7.5M440.8 78c-6-4.4-14.6-8.4-18.1-15-.6-1-1.1-2.1-2-2.9s-2.3-1-3.3-.3c-1.6 1.2-.4 3.8.8 5.4-1.3-1.3-4-.1-4.1 1.8-.1 1.9 2 3.4 3.9 3-1.1 0-1.7 1.5-1.3 2.5s1.4 1.7 2.2 2.4c2.3 1.8 25.4 22 26.5 24.6"/><path class="st2" d="M558.6 127.6c40.7 32.8 87 27.6 88.7-6.3.3-6.2-1.8-15.4-4-23.9-.5-2-3.5-1.7-3.6.4-3.6 55-55 28.1-62.7 21.2-55.1-49.7-86.6-11.6-89.5-8.8 2.1 2.1 39.8-7.8 71.1 17.4zM455.6 119.3c3-4.7 14.9-5.3 20.3-6.9-1.3.4-6-1.1-7.7-1.2-2.5-.2-19.4-7.3-21.7-7.3.2 4 8.4 11.4 9.1 15.4z"/><path class="st2" d="M483.1 104.2l8-.8-4.2 6.8 3.2 7.3-7.8-1.9-5.9 5.3-.6-8-7-4 7.4-3 1.7-7.9zM485.1 57.9c3.4.3 7 .9 9.5 3.2 3.8 3.4 3.9 10 .5 13.9-3.3 3.9-9.1 5.2-14.1 3.8-3.8-1.1-7.1-3.6-9.3-6.9-1.9 3.2-3.9 6.5-7 8.5-4.6 3-11.2 2.2-15.3-1.5-23-21 25.8-22 35.7-21z"/><path class="st3" d="M459.8 73.7c-1.4.4-2.9-.5-3.3-2l-.8-3.1c-.4-1.4.5-2.9 2-3.3 1.4-.4 2.9.5 3.3 2l.8 3.1c.3 1.5-.6 3-2 3.3zM485.5 72.3c-1.4.4-2.9-.5-3.3-2l-.8-3.1c-.4-1.4.5-2.9 2-3.3 1.4-.4 2.9.5 3.3 2l.8 3.1c.3 1.4-.6 2.9-2 3.3z"/><path class="st1" d="M461.2 83.4c2.7 1.2 6.1.6 8.3-1.3 2.2-2 3.1-5.3 2.1-8.1.7 2-.8 4.2-.2 6.2.5 1.7 2.4 2.7 4.2 2.8 1.8.1 3.5-.6 5.2-1.3"/><circle cx="356" cy="293.1" r="129.7" fill="#8888e5" stroke="#414242" stroke-width=".5" stroke-linecap="round" stroke-linejoin="round" stroke-miterlimit="10"/><defs><circle id="SVGID_1_" cx="356" cy="293.1" r="129.7"/></defs><clipPath id="SVGID_2_"><use xlink:href="#SVGID_1_" overflow="visible"/></clipPath><g class="st5"><path class="st6" d="M365.8 423.5c-5.7 1.3-11.8-.8-16.2-4.5-4.4-3.8-7.3-9.1-9-14.6-.9-2.7-1.6-5.6-3.2-7.9-1.2-1.8-3-3.2-4-5.2-1.7-3.4-.6-7.6-1.7-11.2-1.1-3.7-4.2-6.6-5.1-10.3-.8-3.4.4-7.2-1.1-10.4-1.9-4-6.8-5-10.9-6.5-5.8-2.1-10.9-5.9-14.6-10.9-1.4-1.9-2.6-4-2.6-6.3-.1-4 3.2-7 5.8-10.1s4.4-7.8 1.7-10.7c-2.2-2.4-6.1-1.9-9.2-3-5-1.8-7.4-7.5-12.1-10-1.9-1-4.2-1.4-6.3-1.8-1.3-.2-2.6-.4-3.8-.6-3.7-.6-7.5-1.3-11.3-1.3-2.4 0-4.9.2-7.2-.4-2.4-.6-4.6-2.3-5-4.7-.3-1.9.6-3.9.7-5.8.2-4-3-7.4-6.6-9.3-3.6-1.9-7.6-2.7-11.1-4.7-5.1-3-8.6-8.5-9.2-14.4h.2c3-16.6 9.2-30.6 17.9-45.1 4.3-7.1 10.3-14.5 18.5-15 8.1-.5 15.8 5.7 23.7 3.9 1.3-.3 2.7-.9 3.4-2 .7-1.1.6-2.9-.5-3.6-.7-.5-1.7-.4-2.5-.4-2 .1-4.2-.2-5.7-1.6-1.5-1.4-1.6-4.2.2-5.2s3.9.4 5.9.7c6.2 1.1 11-7.7 17.2-6.7 1.4 1.6.1 4.1-1.2 5.8s-2.4 4.4-.7 5.8c1.5 1.2 3.9-.1 4.7-1.9.9-1.8.9-3.8 1.7-5.6.8-1.8 3.2-3.1 4.7-1.9 1.3 1 1.1 3.1 2.1 4.4 1.1 1.3 3.1 1.4 4.7.7 1.5-.7 2.7-2 3.9-3.2 4.6-4.4 11.6-7.3 17.3-4.4 2.8 1.4 5.2 4.3 8.4 4.1.9 0 1.9-.3 2.8-.1 2 .5 2.5 3 2.6 5 0 2.2-.7 5-2.9 5.4-1.3.3-2.6-.6-3.8-1.4-4.1-2.9-9-6.3-13.7-4.4-4.3 1.8-5.9 7.4-10 9.6-4.8 2.4-10.7-.7-15.9.9-3.3 1-5.7 3.9-7.8 6.7-1.8 2.4-3.2 6.4-.7 7.9 2.6 1.6 7.1-1.1 8.6 1.6.6 1.2.1 2.6.3 4 .4 2.1 3.1 3.3 5.2 2.6 2.1-.7 3.5-2.6 4.3-4.6.6-1.6 1.2-3.6 2.9-4.2 2.4-.8 4.6 2.2 7.1 2 2.8-.2 3.8-3.7 5.7-5.7 2-2.2 5.3-2.7 8.1-1.8 2.8.9 5 3.1 6.5 5.7 1.1 1.9 1.7 4.4.2 6-.7.8-1.8 1.1-2.8 1.4-5.6 1.3-12.2.5-16.4 4.6-3 2.9-3.6 7.5-5.5 11.2-3.2 6.4-9.8 10.2-15.4 14.6s-10.9 11-9.5 18c.3 1.7 1 3.6-.1 4.9-1.2 1.5-3.6.9-5-.3-1.4-1.3-2.2-3.1-3.5-4.4-2.9-3-8-3-11.6-.9-3.6 2.1-6 5.8-7.5 9.7-.8 2.1-1.5 4.4-1.2 6.7.3 2.3 1.9 4.5 4.1 5 5.1 1.1 8.4-6.4 13.6-6.5.5 0 1.1.1 1.5.4 2.2 1.8-3 6.2-.5 7.6.6.3 1.4.2 2 .2 1.7.1 3 1.7 3.6 3.3.5 1.6.6 3.4 1 5.1.8 3.3 3.5 6.4 6.9 6.2 5.5-.3 7-8 11.7-10.9 2.8-1.7 6.6-1.3 9 .9 1.3 1.2 2.3 2.8 3.9 3.4 2.6.9 5.4-1.5 8.1-1 2.7.5 4.1 3.3 6.4 4.8 3.4 2.1 8.2.8 11.6 2.9 1.5.9 2.6 2.5 3.9 3.8 2.8 2.9 6.9 4.9 11.1 5.1 3.4.1 8-2.5 11 .1 1.6 1.4 2 3.9 3.9 4.8 1.1.5 2.3.3 3.4.7 2.5.8 3.3 4 2.7 6.5-.6 2.5-2.1 4.7-3 7.1-.9 2.4-1 5.1-.4 7.6.7 3.3 2.6 6.8 1.1 9.7-2.6 4.8-11.4 2.8-13.9 7.7-1.3 2.5-.1 5.4.1 8.2.5 4.7-1.6 9.3-4.6 13-3 3.7-6.7 6.5-10.3 9.6-2.2 1.9-4.6 4.5-3.8 7.3.6 2.1 2.7 3.3 3.9 5.1 1.5 2.2 1.4 5 1.9 7.6.5 2.6 2 5.4 4.6 5.8 1.5.2 3.7-.1 3.8 1.4-.6 1.2-1.5 2.3-2.6 3"/><path class="st7" d="M365.4 422.1c-11.9 2.1-19.9-8-23.4-18.1-1.2-3.6-2.2-6.8-4.6-9.9-2.1-2.7-3.3-4.8-3.6-8.3-.1-2-.1-4.1-.7-6.1-1.1-3.7-4.2-6.5-5.1-10.3-.8-3.6.4-7.3-1.2-10.7-3-6.1-11.8-6.6-17-9.7-3.7-2.2-7.7-5.6-9.7-9.4-3.3-6.2 2-9.6 5.1-14.2 2.9-4.4 3.7-10.7-1.9-13.2-3.4-1.5-7-1-10-3.4-2.8-2.3-4.8-5.5-7.8-7.4-3.2-2.1-7-2.5-10.7-3.1-4.9-.8-9.5-1.4-14.5-1.5-4.5-.1-8.4-.5-8.8-6.1-.1-1.7.8-3.3.5-5-.4-3-2.5-5.5-4.8-7.3-3.8-2.9-8.6-3.7-12.8-5.9-5.3-2.9-8.4-7.9-9.2-13.9-.5.6-1 1.3-1.4 1.9h.2c.6 0 1.3-.4 1.4-1.1 3.1-16.4 9.6-31.9 18.5-46 4.6-7.2 11.2-14.4 20.6-12.8 6.4 1.1 12.5 5 19.3 3.7 3.2-.6 7.8-3.9 4.9-7.6-1.9-2.5-4.9-.1-6.9-1.7-.1-.6-.1-1.3-.2-1.9-.8-1.7-.6-2.3.5-1.7.5-.1 1.7.5 2.3.6 1 .2 2 .2 2.9 0 2.4-.4 4.4-1.8 6.3-3.1 1.1-.8 2.2-1.6 3.4-2.3.8-.4 2-1.4 3-1.2 1.1-.4 1.2-.1.5 1.1 0 .7-.3 1.3-.7 1.8-1.4 2.6-4.1 8.5 1.2 9 1.7.2 3.3-.9 4.4-2.1.8-1 1.2-2.2 1.5-3.4.2-.5.2-1.7.5-2.1 1.2-.4 2.3-.8 3.5-1.2.1.5.3.9.5 1.4 1.4 1.2 1.5 2.7 3.7 3.1 2.3.4 4.4-.8 6.1-2.2 3-2.5 5.6-5.1 9.4-6.3 5.4-1.7 8.2 1 12.6 3.4 2.1 1.2 7 .8 8.1 2.6 2 3.5-1.8 5.5-4.7 4.5-1.8-.7-3.5-2.4-5.3-3.2-5.1-2.4-9.7-1.6-13.4 2.7-2.7 3.1-4.5 6.7-9.2 7-3.4.2-6.9-.9-10.3-.4-5.2.8-9.7 5.4-11.8 10-1.5 3.4-1.2 7.5 3 8.4 1.3.3 3-.4 4.3-.1 2.1.6 1.5 2.5 2.2 4.1.8 1.7 1.6 2.9 3.5 3.6 5.4 1.7 6.9-3.4 9.3-6.7 2.5-3.5 5.1.3 8.3 0 2.2-.2 3.4-1.8 4.6-3.4 1.9-2.5 3.8-4.8 7.3-4.4 2.1.2 6.4 2.7 6.8 5.2.2 1.3-1.6 4.7-2.4 5.3-1 .7-2.7.4-4 .6-1.6.2-3.2.4-4.8.7-6 1.2-9.2 4.6-11.4 10.2-1.5 3.8-2.9 7.1-5.7 10-2.9 3.1-6.5 5.4-9.9 7.9-4.9 3.7-9.8 8.4-11.3 14.7-.3 1.3-.5 2.7-.4 4 .1 2.3 1.6 3.2-1.7 3.2-3 0-2.4-.8-4.2-2.5-.8-.8-1.8-1.5-2.9-1.9-5.1-2.2-10.8 0-14.4 4-3.5 3.9-7.2 11.1-5.1 16.4 1.7 4.2 6 5.7 9.9 3.6 2.3-1.3 4-3.9 6.5-4.8 4.9-1.8 1.1 2.3 1.2 4.5 0 1.2.5 1.9 1.4 2.6.7.5 2.4.6 3.1 1.1 2.7 1.6 2.1 4.5 2.9 7.2 1.3 4 5.1 7.6 9.6 6.5 5.2-1.3 6.3-7.5 10.3-10.3 3-2.1 6.3-1.4 8.9 1 .9.8 1.6 1.8 2.7 2.4 2.8 1.4 4.4-.3 7.1-.3 4.3 0 6 3.7 9.5 5.1 4 1.6 8.5.4 11.8 3.7 4.4 4.3 8.9 8 15.5 7.4 1.7-.1 3.9-1.3 5.6-.9 2.5.5 3.8 2.6 5.4 4.3 2.4 2.6 7.9 2.2 7.1 6.9-.6 3.6-3.2 6.5-3.6 10.2-.4 3.2.7 5.7 1.2 8.7 1.7 10.3-7.7 6.4-12.5 11.4-1.7 1.7-2 3.9-1.8 6.2.4 5.3 1 9.1-1.9 13.8-2.4 3.8-5.8 6.7-9.2 9.6-2.4 2.1-5.6 4.2-6.7 7.4-.6 1.8-.5 3.6.4 5.2.6 1.1 1.6 1.8 2.3 2.8 2 2.6 2.1 4.7 2.7 7.7.4 2.2 1.2 4.8 3 6.3 1.6 1.3 6 1.1 3.4 3.3-1.5 1.2.6 3.3 2.1 2.1 1.2-1 3.3-2.7 3-4.5-.4-2.3-2.6-1.7-4.1-2.4-5.5-2.5-3.8-6.9-5.7-11.3-.6-1.3-1.3-2.1-2.2-3.2-2.5-3-2.4-5.4.6-8.3 5.3-5.1 11.6-9 14.6-16.1 1.1-2.7 1.5-5.4 1.3-8.4-.3-3.6-1.3-7.3 2.6-9.3 1.2-.6 2.8-.8 4.2-1.1 4.3-1.2 7.8-3.3 7.6-8.3-.2-4.6-2.7-8.1-1.4-12.9.8-3.2 3.2-6 3.4-9.4.1-1.8-.4-3.9-1.6-5.3-.8-.8-1.4-1.1-2.4-1.6-.4-.2-1-.1-1.3-.3-1.8-.8-2.9-2.2-4.2-3.6-4.9-5.2-10.5-.7-16.5-2.4-4.5-1.3-6.2-4.4-9.5-7.1-2.4-1.9-4.9-2.2-7.8-2.6-3.7-.5-5.1-1.5-7.8-3.8-.8-.7-1.5-1.4-2.4-1.8-3.6-1.8-7.5 1.2-11.2-.7-2.3-1.2-3.2-3.5-6.2-4.1-2.4-.5-4.9 0-6.9 1.4-1.8 1.2-3.1 3-4.3 4.7-.9 1.2-1.7 2.7-2.8 3.7-2.5 2.4-6.3 2-8-1.2-1.7-3.1-.7-7.1-3.3-9.9-1.6-1.7-4.1-1.1-3.8-3.7.3-3 1.9-6.4-3.1-6.2-2 .1-3.8 1.3-5.4 2.4-1.2.9-2.2 2-3.5 2.8-.6.4-2.3 1.5-3.1 1.3-1.2-1.8-2.5-3.5-3.7-5.3.1-1.5.5-2.9 1.1-4.3 1.7-4.6 5.1-9.5 10.3-10.2 5.6-.7 6.6 3.7 10.2 6.4 3.1 2.4 7.5 1.6 7.8-2.7.1-1.6-.6-3.1-.6-4.7-.1-2.7.8-5.4 2.1-7.7 2.4-4.1 6.2-7 9.9-9.8 5.3-3.9 10.7-7.8 13.5-14.1 1.4-3.2 2.1-7.1 4.7-9.6 3.3-3.2 8.6-3.1 12.8-3.7 4.5-.7 8.9-2.4 7.3-7.8-1.4-4.8-6.4-9.2-11.6-9-2.4.1-4.6 1-6.3 2.7-.8.8-1.2 2-2 2.8-3.3 3.4-5.1.8-8.1.4-1.6-.2-2.9.3-3.9 1.5-1 1-1.3 2.4-1.9 3.7-.4.8-1 2.3-1.8 2.8-3.5.6-5.1-.1-4.9-2.2v-.9c-.6-1.7-.7-2.7-2.5-3.5-1-.4-2.1-.3-3.1-.3-.6 0-2 .4-2.5.2-1.8-.8-1.7-3.9-.9-5.3 2.5-4.3 6.4-7.4 11.5-7.4 3.5 0 7.1 1.1 10.6 0 7.2-2.2 8.4-13.2 17.4-9.7 3.9 1.5 9.6 8.4 13.8 3.9 2.4-2.6 2.3-9.1-.7-11.2-.8-.6-1.5-.7-2.5-.7-2.3-.2-4.1-.2-6.3-1.5-2.7-1.6-4.9-3.3-8.2-3.6-6.7-.5-10.4 3.5-15.4 6.9-1.3.9-4.6 1.1-6.2 0-.4-.3-.2-1.2-.6-1.5-.7-.6-.9-1.3-1.8-1.7-1.5-.8-3.1-.4-4.5.6-.9.6-1.4 1.4-1.9 2.3-.5 1-.5 3.9-1.3 4.4-.4 0-.8-.1-1.3-.1-1.5.2-1.7-.2-.6-1.3.2-.6.8-1.2 1.1-1.7.5-1 .9-2 .9-3.2-.2-4.9-5.6-3.1-8.5-1.5-2.4 1.4-4.5 3.5-7.2 4.5-3.4 1.3-6.7-1.6-9.9-.1-3.1 1.4-2.9 5.7-.7 7.9.9.8 2 1.3 3.2 1.6 1.2.3 7.1-.1 2.7 3.4-2.8 2.2-10.3-1.2-13.2-2.1-6-1.9-11.9-2.7-17.6.5-5.9 3.3-9.9 9.3-13.3 15-3.9 6.6-7.4 13.5-10.4 20.6-3.1 7.5-5.3 15.3-6.8 23.3.5-.4 1-.7 1.4-1.1h-.2c-1.1.1-1.6.9-1.4 1.9 1.1 7.7 5.8 13.7 13 16.7 4.5 1.9 10.3 3 12.8 7.7 2.1 3.9-1.1 8 1.2 11.8 1.3 2.2 3.7 3.4 6.2 3.9 5.4 1.1 11.2.4 16.7 1.3s10.4 1.4 14.5 5.5c2.6 2.6 4.7 5.6 8.3 6.9 1.5.6 3 .6 4.6 1 4.8 1.3 6.1 4.4 3.9 8.4-1.9 3.5-5.6 6-7 9.9-2.3 6.9 4 13.3 9 17.1 2.7 2 5.6 3.6 8.8 4.8 6.1 2.3 10.4 3.3 10.6 10.9.1 3.5.5 6.1 2.2 9.2 1.4 2.5 2.9 4.5 3.5 7.4.4 2.2.2 4.5.6 6.7.3 1.9 1 3.5 2.1 5.1 2.3 3.1 4.1 5.7 5.4 9.4 1.4 4.2 2.9 8.3 5.5 11.9 5.1 7.2 13.2 11.5 22.1 9.9 1.7-.6.9-3.5-1-3.1z"/></g><g class="st5"><path class="st6" d="M432.9 177.6c-.3 4.3-3 8.3-6.8 10.2-1.3.6-2.8 1.1-3.7 2.2-1 1.1-1.2 3.1.1 3.8 1.3.7 3.3-.3 4.2.9.6.7.4 1.8.8 2.6 1.4 2.3 5.4-1.5 7.6.1 1.5 1.1.6 3.5-1 4.4-1.6.9-3.5.9-5.2 1.6-2.4.9-4.1 3-5.6 5-3 3.8-6 7.5-9 11.3-1 1.3-2.1 2.6-3.6 3.4-2.2 1.3-5 1.1-7.5 1.3-2.6.2-5.4 1.2-6.3 3.7-1 2.8 1.3 5.7 3.4 7.8 1.3 1.3 3 2.7 4.8 2.3 1.9-.5 2.6-2.6 3.4-4.3 1.6-3.5 4.2-6.4 6.8-9.2 1.4-1.5 2.9-3 4.8-3.4 2.2-.4 4.4.6 6.6.2 1.9-.4 3.7-1.9 5.6-1.6.7.1 1.3.5 2 .8 1.6.9 3.3 1.8 4.9 2.8 2.4 1.4 5.2 3.4 4.8 6.2-.2 1.4-1.2 3-.2 4 1 1.1 2.9-.1 3.3-1.5.4-1.4.2-3 .7-4.3 1.2 1 2.4 1.9 3.7 2.9-1.5-4.6-4.2-8.7-7.9-11.9 1.1-1.2 3.2-.9 4.5.1 1.3 1 2.1 2.6 3 3.9 1.6 2.3 3.8 4.2 6.3 5.5.5.3 1.1.5 1.7.4 1.4-.3 1.5-2.2 1.4-3.6-.1-1.4.4-3.4 1.8-3.2 1.3 2.8 3.5 5.4 6.4 6.6 2.9 1.2 6.4 1.1 8.9-.9 4.4-3.5 3.5-10.3 1.7-15.6-3-8.4-7.7-16.4-14.8-21.8-7.1-5.4-20.6-16.1-28.8-12.9"/><path class="st7" d="M431.4 177.6c-.7 5.2-3.9 7.5-8 9.9-1.7 1-3.2 2.3-3.3 4.3-.1 1.3.5 2.6 1.6 3.3.7.5 1.7.2 2.4.5 1.7.7 1.1 1.2 2.1 2.4.9 1 1.6 1.4 3 1.5.9 0 1.8-.7 2.7-.6 1 .1 1.8-1.4.1 1-1.1 1.6-1.2 1.3-2.8 1.8-6.1 2-9.9 9.3-13.7 14-1.4 1.7-2.6 3.7-4.4 5.1-2.1 1.6-4.5 1.8-7.1 2-2.3.2-4.7.5-6.5 2.1-3.8 3.1-2 7.7.8 10.9 2.6 3 6.6 5.7 9.9 2 2.1-2.4 3-5.9 5.1-8.5 1.1-1.4 2.4-3.1 3.8-4.3 2.8-2.4 4.9-2.2 8.2-2.2 1.6 0 2.3-.5 3.8-.7 3.6-.7 6.7.2 9.6 2.5 1.8 1.3 1 .2 2.5 3.3 2 4.1.4 1.6 1 4.2.2.7.2 1.7.7 2.3 1 1.1 2.6 1.2 3.8.6 2.6-1.3 2.3-4.5 2.9-6.9-.8.2-1.7.4-2.5.7 1.2 1 2.4 1.9 3.7 2.9 1 .8 3.1.1 2.5-1.5-1.8-4.9-4.4-9-8.3-12.5l-.3 2.4c3-1.9 6.3 4.7 8.1 6.5 1.4 1.3 3.5 3.2 5.5 3.6 1.2.2 2.2.1 3.1-.8 1.1-1.1.7-5.7 1.7-6-.6-.2-1.1-.5-1.7-.7 3.4 6.5 12.5 11.8 18.6 5.2 5.7-6.3 1.4-16.6-1.7-23.1-4.5-9.1-11.3-15.1-19.5-20.9-6.3-4.4-15-10.5-23.1-7.9-1.8.6-1 3.5.8 2.9 6-1.9 12.4 2.1 17.3 5.3 5.3 3.4 11 7.3 15.2 12 4.8 5.3 8.6 12.5 10.2 19.5.9 3.9 1.1 9.2-3 11.4-5.2 2.7-9.9-1.7-12.1-5.9-.3-.6-1.1-.9-1.7-.7-2 .5-2.1 1.4-2.8 3.2-.5 1.2 1.1 2.9-2.1 2.8-1.6 0-4.2-3.8-4.9-4.8-2.3-3.2-5.1-6.7-9.3-4.1-.8.5-1 1.7-.3 2.4 3.5 3.2 5.9 6.8 7.5 11.2.8-.5 1.7-1 2.5-1.5-1.2-1-2.4-1.9-3.7-2.9-.8-.7-2.2-.5-2.5.7-.2.6-.3 1.2-.4 1.8-1 2.7-1.1 3-.5.8-.1-1.4.1-2-.5-3.3-1.3-2.7-4.2-4.1-6.6-5.5-2.6-1.5-4.8-3.2-7.8-2.8-2.1.3-2.9 1.4-5.4 1.5-1.8.1-3.5-.6-5.3-.2-3.3.7-5.7 3.9-7.7 6.3-1.2 1.3-2.3 2.7-3.3 4.2-.9 1.3-1.5 4-2.6 5-2.5 2.3-7.8-2.1-7.9-4.7-.3-5.2 5.2-4.4 8-4.7 3.3-.4 5.7-1.2 8-3.7 3.2-3.5 6-7.5 8.9-11.2 1.3-1.6 2.5-3.3 4.1-4.6 1.9-1.5 3.8-1.6 5.9-2.4 3.2-1.2 6.3-6.3 1.7-8.1-1.9-.7-3.3.8-4.9.6-2.2-.2-1.4-1.5-2.4-2.6-.5-.6-1.5-.6-1.9-1-1.8.2-1.9-.7-.3-2.9.9-.4 1.7-.8 2.6-1.3 1.3-.9 2.4-1.9 3.4-3.2 1.8-2.3 2.6-4.8 2.9-7.7-.1-2.1-3.1-2.1-3.4-.2z"/></g><g class="st5"><path class="st6" d="M487.4 242.1c-5.5-4.2-13.9 1.7-20.3-.9-1.8-.8-3.3-2.1-5.1-2.9-1.8-.8-4.3-.7-5.3 1-.3.5-.4 1-.7 1.5-1.7 3.7-6.9 3.7-10.9 3.1-2.8-.4-6.2-1.4-6.8-4.2-.2-1 .1-2.1-.2-3.1-.7-2.4-4.1-2.7-6.3-1.6s-3.8 3.2-5.9 4.4c-3.5 2-7.9 1.6-11.9 2.1s-8.6 2.9-8.7 7c0 1.1.3 2.2 0 3.3-.3 1.2-1.4 2-2.3 2.8-4.7 3.9-8.4 8.9-10.7 14.6 1.2 1.4 4.3-.5 5.1 1.2.5 1-.5 2-1.2 2.8-3.2 3.8-1.6 9.6.9 13.9 2.2 3.8 4.9 7.5 8.6 9.8 3.7 2.3 8.6 3.2 12.6 1.3 2.4-1.1 4.3-3.1 6.5-4.6 2.2-1.5 4.9-2.7 7.4-1.9 1.8.5 3.2 2 5 2.5 3.5 1 8.4-1.4 10.2 1.7 1.3 2.2-.5 4.9-.2 7.4.3 2.4 2.3 4.1 4.1 5.6 3 2.5 5.7 5.4 7.5 8.9 1.8 3.5 2.4 7.7 1.1 11.3-1.2 3.1-3.8 6.6-1.9 9.4.7 1 1.9 1.6 2.7 2.5 2.8 2.9 1.5 7.9 3.7 11.3 1.2 1.9 3.3 3 4.4 4.9 1 1.8 1 4 1.4 6 .4 2 1.4 4.2 3.5 4.7 1.6.4 3.2-.4 4.6-1.4 4.5-3.3 7.4-8.4 9.2-13.7 1.7-5.3 2.4-10.9 3.4-16.4 4.2-24.4 13.5-47.8 16.5-72.4.7-5.8.9-12-1.9-17-2.9-5.1-9.9-8.1-14.7-4.8"/><path class="st7" d="M488.1 240.8c-4.3-2.8-8.9-1.4-13.7-.7-4.4.6-6.7-.5-10.4-2.4-1.5-.8-3-1.5-4.8-1.3-1.8.2-2.6.9-3.8 2.1-1.4 1.4-2 3.4-4.4 4-1.8.4-3.9.2-5.7-.1-2.3-.4-3.7-.7-4.9-2.7-.7-1.3-.5-2.5-1-3.7-.6-1.3-1.6-2.2-3-2.7-4.8-1.6-7.7 3-11.3 5-5.5 3.1-12.4.4-17.7 4.2-4.3 3-2.5 7.6-5.5 11.1-4.3 4.9-8.3 8.7-10.9 14.9-.3.8-.2 1.6.5 2.1 1.3.8 3.3.3 3.6 1.6.1.6-1.8 3.2-2 4.1-.9 4.2 1 8.7 3 12.2 4.3 7.4 12.6 14.8 21.9 11.4 2-.7 3.6-2 5.3-3.3 2.7-2.1 3-2.6 6.5-2.9 3.5-.3 2.7 0 5.3 1.1 1.8.8 3.3 1 5.2 1 .9 0 2.3-.5 3.2-.2 4.3 1.4 1.9 5 2.2 7.6.5 4.1 4.3 6.3 7 9 3 2.9 5.5 6.3 6.1 10.5.7 4.6-1.8 7.3-2.7 11.5-1 4.6 2 5.2 4.1 8.5 1.6 2.5 1 6 2.2 8.7.8 2 2.3 3.2 3.7 4.7 3.2 3.4 1.5 9.4 5.5 12.3 3.5 2.5 7.5-.3 10.1-2.9 8.6-8.4 9.1-21.4 11.3-32.5 2.6-13.4 6.5-26.5 9.9-39.7 1.9-7.2 3.6-14.4 4.8-21.7 1-6.2 2.3-13 1.1-19.3-1.6-8.5-10.1-16.7-18.9-11.6-1.7 1-.2 3.5 1.5 2.6 5.7-3.3 11.9 1.3 13.8 6.8 2.1 5.9.8 12.9-.1 18.9-1.8 11.6-4.9 23-8 34.3-3 11.1-6 22.1-7.9 33.5-.9 5.4-1.6 11-3.5 16.2-1.2 3.3-9.8 19.4-14 9.6-.9-2-.4-4.3-1.6-6.4-.7-1.3-2-2.1-2.9-3.2-3.4-3.9-2-9.1-5.2-13-2.2-2.6-3.7-3.6-2.1-7.6.6-1.6 1.5-3 1.8-4.7.9-4.2-.3-8.7-2.5-12.3-2.4-3.9-6.4-6.1-9.1-9.7-2.8-3.7 1.1-9.2-2.8-12.2-2.9-2.2-6.7-.2-9.9-1-4.2-1.2-5.9-3.8-10.6-2-6.1 2.3-9.4 8.7-16.9 6.6-6.1-1.7-10.5-7.6-12.9-13.2-1.7-4.2-1.7-6.8.7-10.7.6-1 1.2-1.8.9-3-.8-3.3-3.8-1.2-5.9-2.5.2.7.4 1.4.5 2.1 2.4-5.7 5.9-10.1 10.4-14.3 1.2-1.1 2.3-2 2.7-3.6.4-1.4-.2-2.9.1-4.3.6-2.2 3-3.6 5-4.2 4.6-1.5 9.6-.2 14-2.4 1.7-.9 5.6-5.2 7.2-5 3.7.5 3 3.3 4.3 5.6 3.6 6 14.4 4.5 18.9 1.2 2.1-1.5-.7-.9 3.4-1.9 3.1-.7 2.8-.3 5.1.9 1.9 1 3.7 1.5 5.8 1.6 5.2.1 10.9-3 15.7 0 2.5 1 4-1.6 2.3-2.6z"/></g><g class="st5"><path class="st6" d="M417.9 207.8c-.3 1.2-.5 2.5-1.4 3.4-.9.9-2.5 1.1-3.3.1-.3-.3-.4-.8-.5-1.2l-3.3-13.8c-.1-.3-.2-.7-.1-1 .2-.9 1.3-1.3 2.2-1 .9.3 1.5 1 2 1.8 3 3.8 6.2 8.8 4.2 13.3"/><path class="st7" d="M416.5 207.4c-.2 1-.6 3.3-2.2 2.3-.5-.3-.7-3-.9-3.8-.5-2.3-2.1-5.9-1.9-8.1.2-2.1.9-1 1.9.3.6.9 1.3 1.8 1.8 2.7 1.5 2.6 2.3 5.2 1.3 8.1-.7 1.8 2.2 2.6 2.9.8 1.9-5.2-1.1-10.4-4.3-14.4-1.1-1.3-2.3-2.7-4.2-2.6-1.4.1-2.6 1.1-2.8 2.5-.3 2.7 1.3 6.3 1.9 8.9.5 2.3.7 6 2.2 8 3.1 3.9 6.7-1.1 7.3-4 .3-1.8-2.6-2.6-3-.7z"/></g><g class="st5"><path class="st6" d="M407.2 205.4c-2.5.2-3.7 3.9-1.7 5.5 1.9 1.6 5.4-.3 5.1-2.7-.2-2.5-4-3.6-5.6-1.7"/><path class="st7" d="M407.2 203.9c-2.8.3-4.7 3.1-4.1 5.9.6 2.9 3.9 3.9 6.3 2.6 2.5-1.3 3.5-4.5 1.5-6.7-1.8-2-5.2-2.3-7.1-.3-1.3 1.4.8 3.5 2.1 2.1 1.4-1.6 4.4.8 2.1 2.2-2.5 1.4-2.8-2.6-1-2.8.8-.1 1.5-.6 1.5-1.5.2-.7-.5-1.6-1.3-1.5z"/></g></svg>