<svg xmlns="http://www.w3.org/2000/svg" width="238" height="145" fill="none" viewBox="0 0 238 145"><path fill="#8A8DE3" fill-rule="evenodd" d="M15.507 139.475C25.217 149.194 37.787 154.054 53.227 154.054C61.187 154.054 69.158 152.313 77.13 148.822C85.089 145.339 91.695 140.597 96.923 134.616C102.152 128.635 105.012 121.906 105.513 114.43C105.513 108.951 104.393 104.466 102.152 100.972C99.911 97.491 96.795 94.5 92.815 92C90.318 93.998 87.213 95.494 83.479 96.486C79.744 97.491 76.126 97.982 72.648 97.982C66.672 97.982 61.817 96.113 58.083 92.374C54.348 88.637 52.48 84.033 52.48 78.544C52.48 71.569 54.348 64.969 58.083 58.731C61.817 52.504 66.918 47.645 73.395 44.151C79.37 40.671 85.463 38.17 91.695 36.675C97.916 35.179 101.032 29.947 101.032 20.975C101.032 13.499 98.663 8.14799 93.936 4.90099C89.197 1.66499 83.35 0.0419922 76.383 0.0419922C67.419 0.0419922 58.456 3.16099 49.493 9.38699C40.529 15.624 32.313 23.72 24.844 33.685C17.374 43.662 11.516 54.127 7.29099 65.086C3.05399 76.055 0.941986 86.767 0.941986 97.234C0.941986 115.68 5.79699 129.757 15.507 139.475ZM149.956 139.475C159.667 149.194 172.236 154.054 187.677 154.054C195.636 154.054 203.608 152.313 211.579 148.822C219.538 145.339 226.144 140.597 231.373 134.616C236.602 128.635 239.461 121.906 239.963 114.43C239.963 108.951 238.842 104.466 236.602 100.972C234.361 97.491 231.245 94.5 227.265 92C224.767 93.998 221.663 95.494 217.928 96.486C214.193 97.491 210.575 97.982 207.097 97.982C201.122 97.982 196.267 96.113 192.532 92.374C188.797 88.637 186.93 84.033 186.93 78.544C186.93 71.569 188.797 64.969 192.532 58.731C196.267 52.504 201.367 47.645 207.844 44.151C213.82 40.671 219.912 38.17 226.144 36.675C232.365 35.179 235.481 29.947 235.481 20.975C235.481 13.499 233.112 8.14799 228.385 4.90099C223.646 1.66499 217.8 0.0419922 210.832 0.0419922C201.869 0.0419922 192.906 3.16099 183.942 9.38699C174.979 15.624 166.763 23.72 159.293 33.685C151.824 43.662 145.965 54.127 141.74 65.086C137.504 76.055 135.391 86.767 135.391 97.234C135.391 115.68 140.246 129.757 149.956 139.475Z" clip-rule="evenodd" opacity=".051"/></svg>