<svg width="234" height="254" viewBox="0 0 234 254" fill="none" xmlns="http://www.w3.org/2000/svg"><g clip-path="url(#clip0)"><path d="M194.63 92.85l-6.58 9.5a1.9 1.9 0 01-3.1.1 8.02 8.02 0 018.67-12.53 1.9 1.9 0 011 2.93z" fill="#EDC914"/><path d="M184.9 103.6a2.57 2.57 0 01-.62-.62 8.87 8.87 0 01-.2-10.43 8.82 8.82 0 019.82-3.49c.86.29 1.56.89 1.82 1.76.3.82.18 1.8-.34 2.55l-6.58 9.51a2.85 2.85 0 01-2.26 1.22 3.21 3.21 0 01-1.63-.5zm8.79-12.7c-.09-.06-.17-.12-.28-.14a7.06 7.06 0 00-7.87 2.8 7.13 7.13 0 00.16 8.35 1 1 0 00.84.4c.32-.03.67-.16.87-.46l6.55-9.47a1 1 0 00.11-.97c-.1-.2-.22-.4-.38-.51z" fill="#424242"/><path d="M138.17 202.22l-9.1 7.09c-1.03.77-2.57.4-3.01-.84a8 8 0 0112.02-9.34 1.9 1.9 0 01.09 3.1z" fill="#EDC914"/><path d="M126.25 210.15a2.79 2.79 0 01-1.04-1.34 8.9 8.9 0 0113.37-10.4 2.7 2.7 0 011.2 2.2 2.7 2.7 0 01-1.11 2.33l-9.1 7.08c-.71.57-1.67.71-2.56.47-.22-.03-.5-.16-.76-.34zm11.35-10.24a7.1 7.1 0 00-8.36.29 7.19 7.19 0 00-2.34 8.04c.09.31.35.56.66.65.31.09.66.02.92-.17l9.1-7.09c.26-.19.43-.51.43-.88a.98.98 0 00-.4-.84z" fill="#424242"/><path d="M92.92 180.54c.55-4.02-2.94-3.9-5.55-6.38a21.9 21.9 0 01-5.17-7.54 23.36 23.36 0 01-2-9c-.02-1.5-.4-13.47 15.58-36.86 3.58-5.27 6.25-12.16 10.22-17.1 2.09-2.58 5.2-4.57 7.56-6.9 1.77-1.76 4.2-6.27 6.25-7.27 7.72-10.7 2.39-14.27 6.1-16.96 3.72-2.7 12.45 9.1 12.45 9.1l5.66.32s7.36-11.27 11.9-11.04c4.54.23 2.48 12.43 2.48 12.43-.76 4.31.68 9.83.58 14.28-.15 5.04-.69 10.12-1.47 15.09-.57 3.33-1.09 3.27-1.74 6.54-.93 4.93-5.88 29.44-20.27 49.35-1.98 2.78-5.89 3.42-2.56 7.28.89 1.04 1.8 2.05 2.69 3.1.36.37.7.78.71 1.29.04.4-.11.79-.26 1.18l-2.48 6.28c2-.48 4.21.43 5.3 2.17a4.62 4.62 0 01-2.1 3.94c-.9.56-1.98.8-2.95 1.12-2.43.74-7.89 6.94-15.93.14-3.02-2.52-4.17-4.62-7.7-1.92-2.53 1.96-11.06 14.65-13.76 18.11-17.05 21.79-40.14 11.09-39.81-2.63.14-5.04 10.03-11.64 12.09-12.2 12.78-3.74 22.31-2.84 24.18-15.92z" fill="#8888E5"/><path d="M155.65 90.8s24.62-3.05 26.85-5.29c2.23-2.23-1.04-1.9.58-4.86 1.55-2.95 3.77.19 3.77.19s2.4-3.3 5.23-.6c2.83 2.7-.51 3.61-.51 3.61s4.47.87 1.91 3.5c-2.6 2.6-7.64 2.64-7.64 2.64l-30.34 14.27" fill="#8888E5"/><path d="M116.7 196.6a4.96 4.96 0 01-1.61-1.79 3.65 3.65 0 01-.07-3.02c.36-.8.95-1.38 1.72-1.6a.94.94 0 011.1.64.94.94 0 01-.64 1.1 1 1 0 00-.59.6c-.2.47-.2 1.09.02 1.49.4.77 1.29 1.45 2.73 1.95a17.4 17.4 0 009.33.82l.15-.03c.1-.05.24-.08.3-.1.07-.08.02-.54 0-.87-.1-.68-.2-1.5.36-2.23.23-.33.66-.4 1.05-.26.4.15.61.55.53.93-.11.97.35 1.9 1.08 2.29.72.38 1.79.18 2.22-.45.2-.29.24-.7.2-1.1-.46-.31-.8-.8-1.03-1.27a.94.94 0 01.19-.98c.28-.24.66-.35 1.03-.16.56.27.96.67 1.25 1.24.2.07.39.14.57.15.53.05 1.23-.08 1.65-.6.35-.5.45-1.18.26-1.8-.2-.7-.66-1.2-1.25-1.42a5.32 5.32 0 00-2.5-.05l-6.69.82a.88.88 0 01-.97-.74c-.1-.5.2-.91.65-1.03a10.5 10.5 0 006.5-5.1c1.3-2.52 1.12-5.74-.47-7.83-2.26-2.99-6.8-3.4-10.1-2.28-.62.26-1.08.56-1.04.77a.9.9 0 01-.9.86.9.9 0 01-.86-.9c.01-.74.4-1.76 2.21-2.5 3.87-1.29 9.31-.93 12.17 2.9a9.4 9.4 0 01.63 9.73 11.25 11.25 0 01-3 3.63l1.75-.22c1-.1 2.18-.28 3.29.17 1.1.39 2 1.32 2.37 2.57a4 4 0 01-.51 3.42c-.74.98-2 1.47-3.31 1.3-.06.53-.23.96-.52 1.38a3.6 3.6 0 01-5.25.52c-.06.09-.12.17-.25.27-.37.36-.75.47-1.1.53l-.15.03h-.07c-3.43.67-6.96.33-10.26-.9a4.92 4.92 0 01-2.17-.88z" fill="#414242"/><path d="M152.43 123.01l29.73-23.67s4.9-1.2 6.82-4.33-2.66-2.95-2.66-2.95 3.07-1.66-.33-3.63c-3.32-2-4.94 1.78-4.94 1.78s-2.9-2.5-3.71.72c-.85 3.19 2.22 2.15.58 4.8-1.24 2.05-18.64 8.79-27.14 11.95a22.07 22.07 0 00-10.26 7.78c-2.52 3.46-3.79 7.53 1.24 9.47 3.54 1.33 7.66.46 10.67-1.92zM58.7 148.01s-9.43 18.45-20.2 20.42l1.94 4s12.45-5.39 20.61-23.1l-2.36-1.32z" fill="#8888E5"/><path d="M39.92 173.19c-.12-.09-.22-.22-.32-.35l-1.93-4a.9.9 0 010-.8c.1-.24.36-.44.64-.49 10.23-1.9 19.5-19.78 19.57-19.98.1-.23.3-.34.54-.43a.94.94 0 01.7.06l2.37 1.32c.4.22.57.7.4 1.14-8.22 17.86-20.54 23.34-21.05 23.54a.8.8 0 01-.92-.01zm-.12-4.12l1.05 2.16c2.73-1.46 12.27-7.38 19.03-21.53l-.86-.47c-1.91 3.57-9.83 17.17-19.22 19.84z" fill="#414242"/><path d="M47.96 137.86s-11.67 7.48-12.1 21l4.76-.73s1.1-10.9 9.51-17.96l-2.17-2.3z" fill="#8888E5"/><path d="M35.29 159.58l-.08-.06c-.18-.19-.3-.46-.32-.71.46-13.8 12.03-21.42 12.56-21.73a.86.86 0 011.13.16l2.13 2.28c.18.18.26.42.23.65-.03.23-.14.47-.32.65-8.07 6.74-9.16 17.26-9.18 17.38-.03.4-.34.75-.73.79l-4.77.73c-.24.08-.44 0-.65-.14zm12.52-20.52c-2.26 1.66-10.2 8.31-11.08 18.8l3.03-.45c.36-2.48 2.13-11.04 9.02-17.25l-.97-1.1z" fill="#414242"/><path d="M69.07 90.95s-22.26 5.55-20.8 27.86c0 .07 16.63-8.32 20.8-27.86z" fill="#EDC914"/><path d="M47.74 119.56l-.08-.05c-.21-.15-.29-.39-.3-.64-1.5-22.79 21.28-28.71 21.52-28.8.3-.09.62 0 .84.22.22.21.32.52.23.83a42.98 42.98 0 01-12.2 21.67c-4.54 4.42-8.93 6.83-9.43 6.92-.18 0-.4-.03-.58-.14zm20.11-27.28a33.75 33.75 0 00-9.27 4.99c-6.5 5.03-9.7 11.8-9.53 20.04 3.7-2.21 15-10.14 18.8-25.03z" fill="#424242"/><path d="M86.64 61.97S115.74 51 124.6 79.8c0 0-25.26 53.52-62.37 73.2 0 0-16.63-4.57-24.12-21.82.04.02 33.58-38.91 48.53-69.2z" fill="#EDC914"/><path d="M51.41 148.61a40.12 40.12 0 01-14.11-17.07c-.13-.27-.1-.68.12-.9l.06-.08c.67-.78 33.57-38.98 48.36-68.96.08-.2.26-.37.5-.45.59-.22 13.69-5.04 25.25.6 6.55 3.23 11.26 9.22 13.88 17.78.04.21.05.46-.07.63-.09.13-6.45 13.63-17.32 29.34-18.2 26.32-34.73 38.6-45.45 44.27a.8.8 0 01-.65.04c-.38-.07-5.09-1.4-10.57-5.2zm-12.25-17.26c6.74 14.94 20.65 19.97 22.98 20.71 34.83-18.71 59.38-67.9 61.5-72.3-2.5-7.93-6.82-13.4-12.85-16.4-9.89-4.84-21.44-1.37-23.54-.66-7.8 15.67-20.44 33.5-29.78 45.75a569.47 569.47 0 01-13.21 16.7c-2.96 3.65-4.33 5.36-5.1 6.2z" fill="#424242"/><path d="M74.76 99.1s11.81 2.6 15.63 11.48c0 0-6.9 8.99-11.62 11.17 0 0-7.25-1.6-10.44-7.71-.06.08 1.15-6.76 6.43-14.94z" fill="#8888E5"/><path d="M72.38 119.81a15.47 15.47 0 01-4.8-5.23c-.24-.36-.27-1.3 1.13-5.3a50 50 0 015.27-10.66c.2-.3.57-.47.95-.4.11.02 3.12.68 6.6 2.46 4.64 2.4 7.98 5.7 9.62 9.5.13.28.08.61-.12.9-.26.39-7.08 9.17-11.94 11.45a.81.81 0 01-.58.04 17.3 17.3 0 01-6.13-2.76zm-3.13-5.94c2.67 4.82 8.11 6.6 9.42 6.95 3.88-2.03 9.3-8.62 10.67-10.34-3.26-6.9-11.83-9.73-14.17-10.36-4.35 6.91-5.69 12.6-5.92 13.75z" fill="#414242"/><path d="M92.78 74.83s11.81 2.6 15.63 11.48c0 0-6.9 8.99-11.62 11.17 0 0-7.25-1.6-10.44-7.71-.06.08 1.15-6.77 6.43-14.94z" fill="#8888E5"/><path d="M90.44 95.57a15.47 15.47 0 01-4.8-5.24c-.24-.35-.27-1.3 1.13-5.29.86-2.5 2.5-6.39 5.27-10.66.2-.3.57-.47.95-.4.12.02 3.13.68 6.6 2.46 4.64 2.4 7.99 5.7 9.63 9.5.12.27.07.61-.13.9-.26.38-7.08 9.17-11.94 11.45a.81.81 0 01-.58.03c-.18 0-3.12-.67-6.13-2.75zm-3.17-5.97c2.67 4.82 8.07 6.57 9.42 6.95 3.88-2.03 9.3-8.62 10.67-10.34-3.26-6.9-11.83-9.73-14.17-10.36-4.32 6.87-5.66 12.57-5.92 13.75z" fill="#414242"/><path d="M58.36 121.4s11.46 3.9 14.15 13.25c0 0-7.85 8.13-12.82 9.77 0 0-7-2.48-9.52-8.87-.01-.07 1.97-6.69 8.19-14.16z" fill="#8888E5"/><path d="M55.3 143.07a15.93 15.93 0 01-5.95-7.22c-.31-.71 1.41-4.28 1.77-4.97a50.59 50.59 0 016.55-10.02.93.93 0 01.98-.26c.5.17 11.92 4.15 14.7 13.82.09.31 0 .62-.22.84-.34.32-8.08 8.3-13.15 9.99a.91.91 0 01-.55-.01c-.2-.07-2.03-.73-4.12-2.17zm-4.15-7.59c2.12 5.07 7.28 7.45 8.54 7.96 4.1-1.56 10.24-7.48 11.78-9.08-2.38-7.29-10.6-11.05-12.85-11.92-5.08 6.27-7.1 11.88-7.47 13.04z" fill="#414242"/><path d="M152.01 97.46a1.94 1.94 0 10-1.54-3.56 1.94 1.94 0 001.54 3.56zM131.2 95.3a1.94 1.94 0 10-1.53-3.55 1.94 1.94 0 001.54 3.56z" fill="#363636"/><path d="M156.63 88.13a.9.9 0 01-.4-.77c.22-4.25-.02-8.63-.82-13.02-.04-.22-.1-.57-.19-.63-.18-.18-.83.05-1.5.64-.75.65-1.51 1.3-2.23 1.99-.76.65-1.52 1.3-2.24 1.98a.92.92 0 01-1.25-.06.92.92 0 01.06-1.26c.76-.65 1.52-1.3 2.24-1.98.76-.66 1.52-1.3 2.23-1.99 1.5-1.26 2.91-1.52 3.84-.63.6.48.7 1.23.78 1.65a62.8 62.8 0 01.86 13.42.9.9 0 01-.94.84c-.19 0-.31-.1-.44-.18zM165.65 103.35a1.5 1.5 0 01-.31-.34.96.96 0 01.4-1.21l4.23-2.1 4.26-2.13c.87-.45 1.8-.92 2.48-1.63.58-.65.86-1.5.67-2.13-.03-.21-.19-.44-.3-.71-.24-.47-.51-.97-.6-1.65a2.64 2.64 0 012.15-2.66c.61-.08 1.22.03 1.68.35a3.96 3.96 0 013.32-1.86 3.98 3.98 0 013.89 3.5c.03.4.03.76-.1 1.12.65.32 1.1.93 1.3 1.63.3 1.26-.3 2.4-.75 3.13l-.03.05c-.3.42-.64.92-1.13 1.26l-.03.05c-.65.4-1.33.5-1.9.6l-.25.01a8.48 8.48 0 00-5.7 3.93c-.24.45-.8.55-1.21.34-.45-.25-.55-.82-.33-1.22a10 10 0 016.93-4.75l.28-.05c.47-.05.9-.13 1.22-.33.26-.2.46-.5.7-.83.47-.78.63-1.36.5-1.81a.66.66 0 00-.4-.47c-.05-.03-.12-.02-.2 0-.02.03-.06 0-.1.05a.9.9 0 01-1.19-.33.93.93 0 01.26-1.18c.03-.05.1-.06.13-.1.16-.14.3-.53.24-.89a2.12 2.12 0 00-2.1-1.88 2.16 2.16 0 00-2.1 1.88c-.04.41-.38.73-.8.81a.92.92 0 01-.93-.64c-.1-.38-.48-.64-.84-.57-.32.02-.64.48-.63.73.01.26.17.56.35.93.17.3.34.67.5 1.08.33 1.3-.07 2.68-1.14 3.87-.86.89-1.96 1.49-2.97 1.97l-4.23 2.09c-1.4.7-2.85 1.44-4.26 2.13-.37.18-.7.13-.96-.04z" fill="#414242"/><path d="M136.41 126.5c.43 3.32.15 6.85-2.24 9.59-2.25 2.53-5.9 3.79-9.56 4.6-12.7 2.74-26.82.6-37.6-5.74.62-1.24 1.48-2.39 2.61-3.4.29-.24.64-.49 1.03-.6.38-.1.9.14 1.3.28a51.29 51.29 0 0031.3 1.77c1.58-.4 3.27-.96 4.3-2.1 1.23-1.33 1.3-3.13 1.34-4.71.04-2.02.12-4.01.12-6 0-.98.07-2.05-.5-3a5.75 5.75 0 00-1.78-1.73c-4.9-3.76-10.25-7.64-16.81-8.34-.23-.04 2.06-3.97 2.48-4.23 1.86-1.25 2.4-.88 4.6.08a34.24 34.24 0 019.39 6c5.52 4.62 9.14 10.84 10.02 17.52z" fill="#EDC914"/><path d="M86.51 135.6a.84.84 0 01-.27-1.13 11.84 11.84 0 012.8-3.7c.29-.23.83-.66 1.47-.78a3.1 3.1 0 011.74.34 50.21 50.21 0 0030.8 1.72c1.5-.38 2.95-.87 3.83-1.87.97-1.06 1.09-2.65 1.14-4.16 0-1 .04-2.02.04-3.01 0-1 .08-2 .08-2.98l.02-.11c-.01-.88.01-1.73-.4-2.38-.37-.63-1-1.07-1.54-1.44l-.04-.03c-5.14-3.93-10.26-7.53-16.35-8.2a.93.93 0 01-.78-.67c-.09-.31-.17-.55 1.18-2.78 1.24-2.05 1.55-2.33 1.72-2.4 2.16-1.42 3.11-1 5.06-.16l.4.15a35.8 35.8 0 019.63 6.1c5.8 4.95 9.47 11.45 10.34 18.24.57 4.36-.27 7.81-2.46 10.26-2.6 2.97-6.99 4.2-10.05 4.88-12.96 2.81-27.26.6-38.2-5.85l-.16-.04zm40.82-20.84a6.16 6.16 0 011.92 1.88c.67 1.09.63 2.3.64 3.36l-.01.11c0 1-.04 2.02-.04 3.01 0 1-.08 2-.08 2.98 0 1.8-.18 3.84-1.6 5.34-1.17 1.35-2.94 1.93-4.72 2.37a52.27 52.27 0 01-31.87-1.78c-.23-.1-.63-.25-.81-.25-.21.04-.4.22-.63.37a8.79 8.79 0 00-1.95 2.37c10.52 5.9 23.97 7.84 36.22 5.22 2.78-.61 6.83-1.72 9.1-4.3 1.89-2.1 2.53-5 2.05-8.86-.86-6.36-4.27-12.43-9.76-17.1a33.74 33.74 0 00-9.15-5.83l-.4-.15c-1.78-.8-1.98-.88-3.25-.02-.28.3-1.2 1.83-1.76 2.81 6.04 1.02 11.03 4.53 16.05 8.37-.03.04 0 .07.05.1z" fill="#424242"/><path d="M158.61 104.86c-5.83 2.53-24.8 10.29-30.64 12.82-2.47 1.08-5.02 2.16-7.04 3.93-2.05 1.8-3.57 4.35-3.49 7 .01.44.13.9.3 1.26.69 1.34 2.4 1.47 3.88 1.38 10.85-.67 26.39-5.78 37.93-13.97" fill="#8888E5"/><path d="M117.94 131.38a2.94 2.94 0 01-.96-1.1s-.05-.04-.02-.08c-.19-.44-.29-1-.32-1.59-.1-2.72 1.3-5.54 3.8-7.72 2.11-1.81 4.72-2.99 7.26-4.08 2.92-1.26 9.25-3.88 15.34-6.43 6.09-2.54 12.39-5.12 15.3-6.39a.9.9 0 011.18.45.9.9 0 01-.44 1.18c-2.92 1.26-9.25 3.88-15.34 6.43-6.09 2.54-12.39 5.12-15.3 6.39-2.38 1.02-4.85 2.1-6.77 3.8-2.06 1.8-3.24 4.14-3.18 6.3.02.32.09.67.17.91.38.7 1.38.96 3 .84 11.62-.7 26.98-6.37 37.45-13.81a.83.83 0 011.21.22c.3.38.21.95-.22 1.2-12.54 8.93-28.28 13.53-38.34 14.13-.78.14-2.56.21-3.82-.66zM170.68 89.1a.9.9 0 01.37-1.6l.74-.1c4.9-.82 7.7-1.37 8.17-1.6.9-.42 1.55-.9 1.77-1.5.24-.52.28-1.11.31-1.7.02-.3.03-.67.08-1 .2-1.36 1.02-2.83 2.54-2.96.68-.09 1.39.22 1.89.75.05.1.14.16.23.29a7 7 0 012.17-.98c1.54-.36 3 .03 3.92 1.04.63.69.8 1.6.42 2.33l-.06.09c-.14.2-.31.46-.54.61-.06.08-.16.14-.22.22l.59.22a3.2 3.2 0 011.9 2.44c.16 1.84-1.43 2.97-2.59 3.66-1.12.64-2.8 1.46-4.37.87-.44-.18-.71-.67-.53-1.1.17-.44.67-.72 1.1-.54.7.24 1.62 0 2.91-.72 1.23-.7 1.8-1.35 1.77-1.93-.02-.33-.4-.77-.87-.98-.56-.26-1.18-.26-1.91-.27a.92.92 0 01-.84-.58.82.82 0 01.23-.95c.28-.24.56-.55.84-.78.29-.24.56-.54.85-.78.03-.04.13-.1.19-.18a1.07 1.07 0 00-.18-.37c-.5-.53-1.3-.71-2.18-.52-.8.19-1.6.7-2.48 1.45a.93.93 0 01-1.05.08.94.94 0 01-.39-.95c.02-.12-.05-.29-.15-.42-.1-.12-.3-.2-.36-.18-.47.04-.85.77-.92 1.4-.06.27-.08.57-.05.9a5.65 5.65 0 01-.48 2.39 4.8 4.8 0 01-2.72 2.4c-.68.27-3.14.8-8.54 1.71l-.7.13c-.43-.1-.7-.17-.86-.28zM130.48 101.89c-.38-.26-.5-.79-.25-1.17a.87.87 0 011.22-.33c4.01 2.34 7.16-2.3 7.28-2.47a.87.87 0 01.99-.36c.38.08.63.43.66.83.03.76.49 2.88 1.75 3.56.85.47 2 .33 3.5-.42a.87.87 0 011.21.4c.24.47.07.97-.4 1.2-2.04 1.07-3.8 1.22-5.2.37-1.26-.68-1.9-2-2.28-3.06-1.85 1.88-4.99 3.55-8.42 1.55-.02-.07-.02-.07-.06-.1zM123.75 82.55l-.17-.12a.9.9 0 01.07-1.25c.71-.68 1.02-1.84 1.02-3.63.02-.3 0-.62.02-.92a10.4 10.4 0 01.42-3.92c.1-.42.36-.8.78-.95.24-.08.72-.24 1.34.13a22.98 22.98 0 017.53 5.83c.3.38.28.93-.13 1.26-.39.3-.94.29-1.27-.13a20.45 20.45 0 00-6.66-5.22 9.41 9.41 0 00-.2 2.96c.03.33.01.62.03.95.02 1.5-.14 3.61-1.62 4.94a.92.92 0 01-1.16.07zM77.18 221.81a1.48 1.48 0 01-.31-.34c-.55-1.18.2-2.9 1.04-4.92.27-.56.49-1.15.68-1.7.18-.43.13-.9-.09-1.3s-.6-.73-1.03-.83c-.73-.2-1.45-.32-2.28-.46-1.93-.34-3.97-.7-5.44-1.97-.18-.19-.3-.46-.31-.71.02-.3.16-.5.35-.69.51-.38 1.19-1.1 1.9-1.85.64-.66 1.32-1.37 2-2.01.42-.33.66-.85.6-1.39a1.5 1.5 0 00-.63-1.24 15.63 15.63 0 00-4.25-2.44c-.59-.22-1.07-.43-1.17-1-.06-.35.07-.63.31-.9a.92.92 0 011.26.07c.04.03.04.03.05.1.04.03.16.04.2.07.83.33 2.56 1.03 4.7 2.7.8.61 1.27 1.55 1.28 2.61a3.6 3.6 0 01-1.22 2.75 35 35 0 00-1.93 1.9l-1.2 1.2c1.04.54 2.32.74 3.69 1 .83.15 1.66.29 2.43.51.93.27 1.74.9 2.19 1.76.45.87.52 1.85.13 2.76-.22.59-.48 1.15-.7 1.74-.48 1.04-1.29 3.02-1.1 3.46a.9.9 0 01-.44 1.18c-.12.16-.45.12-.7-.06zM95.95 182.32l-.08-.05a.86.86 0 01-.08-1.24c.85-.96.77-2.44.28-3.52a10.8 10.8 0 00-2.74-3.38l-1.42-1.35c-2.1-1.96-4.3-3.97-6.12-6.34-2.59-3.34-4.03-6.88-4.16-10.19a21.2 21.2 0 01.8-5.82c1.01-4.14 2.47-8.2 4.26-12.05a.85.85 0 011.17-.43c.47.2.65.76.43 1.16a65.13 65.13 0 00-4.14 11.7 18.82 18.82 0 00-.74 5.37c.1 2.98 1.4 6.11 3.8 9.19 1.75 2.2 3.83 4.2 5.93 6.09l1.46 1.38c1.27 1.19 2.44 2.37 3.13 3.96.83 1.94.6 4.06-.59 5.42-.31.27-.81.36-1.19.1zM130.8 169.94s-.04-.03 0 0a.91.91 0 01-.23-1.28c15.38-21.7 20.25-41.8 20.28-42.03.1-.5.6-.77 1.09-.68.5.1.77.6.67 1.09-.03.22-4.95 20.67-20.57 42.64-.32.46-.86.52-1.23.26z" fill="#414242"/></g><defs><clipPath id="clip0"><path fill="#fff" transform="rotate(34.66 61.13 195.88)" d="M0 0h135.38v214.95H0z"/></clipPath></defs></svg>