<svg width="12" height="18" viewBox="0 0 12 18" fill="none" xmlns="http://www.w3.org/2000/svg"><path d="M10.06 3.59l-1 11.52a1.9 1.9 0 01-2.64 1.61A8.02 8.02 0 017.73 1.54c1.26-.35 2.44.73 2.33 2.05z" fill="#EDC914"/><path d="M6.94 17.74c-.3-.03-.55-.1-.84-.23A8.87 8.87 0 01.74 8.56 8.82 8.82 0 017.55.66c.89-.18 1.8 0 2.45.62.67.57 1.05 1.47.97 2.38l-1 11.53a2.85 2.85 0 01-1.36 2.18c-.53.26-1.1.42-1.67.37zM8.28 2.36c-.1-.01-.2-.02-.31.02a7.06 7.06 0 00-5.45 6.33 7.13 7.13 0 004.28 7.17c.3.13.6.1.92-.07.27-.18.5-.47.53-.82l1-11.47a1 1 0 00-.38-.9.98.98 0 00-.6-.26z" fill="#424242"/></svg>